<?xml version="1.0" standalone="no"?><!DOCTYPE svg PUBLIC "-//W3C//DTD SVG 1.1//EN" "http://www.w3.org/Graphics/SVG/1.1/DTD/svg11.dtd" ><svg version="1.1" xmlns="http://www.w3.org/2000/svg"><defs><font horiz-adv-x="0" id="font"><font-face ascent="766" bbox="-162 -255 1146 850" cap-height="589" descent="-234" font-family="Copyright Klim Type Foundry" font-stretch="normal" font-style="normal" font-weight="800" units-per-em="1000" x-height="462" /><missing-glyph horiz-adv-x="222" /><glyph d="M279 303 243 236H388Q369 328 363 404Q357 480 358 480H354Q354 480 335 427Q316 374 279 303ZM431 0 408 123H185L122 0H-24L292 589H460L572 0Z" glyph-name="A" horiz-adv-x="632" unicode="A" /><glyph d="M492 487 297 236H447L469 362Q481 434 488.5 460.5Q496 487 496 487ZM406 0 427 123H210L115 0H-40L419 589H904L883 471H625L605 354H832L812 241H585L563 118H821L801 0Z" glyph-name="AE" horiz-adv-x="893" unicode="&#198;" /><glyph d="M508 487 313 236H463L485 362Q497 434 504.5 460.5Q512 487 512 487ZM422 0 443 123H226L131 0H-24L435 589H920L899 471H641L621 354H848L828 241H601L579 118H837L817 0ZM704 647H582L646 790H814Z" glyph-name="AEacute" horiz-adv-x="909" unicode="&#508;" /><glyph d="M279 303 243 236H388Q369 328 363 404Q357 480 358 480H354Q354 480 335 427Q316 374 279 303ZM431 0 408 123H185L122 0H-24L292 589H460L572 0ZM433 647H311L375 790H543Z" glyph-name="Aacute" horiz-adv-x="632" unicode="&#193;" /><glyph d="M279 303 243 236H388Q369 328 363 404Q357 480 358 480H354Q354 480 335 427Q316 374 279 303ZM431 0 408 123H185L122 0H-24L292 589H460L572 0ZM376 642Q298 642 269 683Q240 724 253 791H352Q348 764 356.5 750Q365 736 393 736Q422 736 435 750Q448 764 453 791H553Q540 724 497 683Q454 642 376 642Z" glyph-name="Abreve" horiz-adv-x="632" unicode="&#258;" /><glyph d="M279 303 243 236H388Q369 328 363 404Q357 480 358 480H354Q354 480 335 427Q316 374 279 303ZM431 0 408 123H185L122 0H-24L292 589H460L572 0ZM352 792H437L545 647H424L399 678Q389 691 386.5 699.5Q384 708 384 708H380Q380 708 375 699.5Q370 691 355 678L318 647H191Z" glyph-name="Acircumflex" horiz-adv-x="632" unicode="&#194;" /><glyph d="M279 303 243 236H388Q369 328 363 404Q357 480 358 480H354Q354 480 335 427Q316 374 279 303ZM431 0 408 123H185L122 0H-24L292 589H460L572 0ZM420 723Q420 760 442 779Q464 798 494 798Q526 798 548 779Q570 760 570 723Q570 686 548 667Q526 648 494 648Q464 648 442 667Q420 686 420 723ZM202 723Q202 760 224 779Q246 798 276 798Q309 798 330.5 779Q352 760 352 723Q352 687 330.5 667.5Q309 648 276 648Q246 648 224 667.5Q202 687 202 723Z" glyph-name="Adieresis" horiz-adv-x="632" unicode="&#196;" /><glyph d="M279 303 243 236H388Q369 328 363 404Q357 480 358 480H354Q354 480 335 427Q316 374 279 303ZM431 0 408 123H185L122 0H-24L292 589H460L572 0ZM446 647H324L214 790H382Z" glyph-name="Agrave" horiz-adv-x="632" unicode="&#192;" /><glyph d="M279 303 243 236H388Q369 328 363 404Q357 480 358 480H354Q354 480 335 427Q316 374 279 303ZM431 0 408 123H185L122 0H-24L292 589H460L572 0ZM532 664H231L250 772H551Z" glyph-name="Amacron" horiz-adv-x="632" unicode="&#256;" /><glyph d="M245 -108Q245 -36 302.5 6.5Q360 49 420 54L408 123H185L122 0H-24L292 589H460L572 0H514Q439 0 396 -17Q353 -34 353 -84Q353 -103 363 -113.5Q373 -124 390 -124Q408 -124 421 -117.5Q434 -111 449 -95L478 -163Q456 -188 426.5 -199.5Q397 -211 361 -211Q313 -211 279 -186.5Q245 -162 245 -108ZM279 303 243 236H388Q369 328 363 404Q357 480 358 480H354Q354 480 335 427Q316 374 279 303Z" glyph-name="Aogonek" horiz-adv-x="632" unicode="&#260;" /><glyph d="M279 303 243 236H388Q369 328 363 404Q357 480 358 480H354Q354 480 335 427Q316 374 279 303ZM431 0 408 123H185L122 0H-24L292 589H460L572 0ZM284 731Q284 779 317.5 814.5Q351 850 406 850Q452 850 479.5 820.5Q507 791 507 750Q507 700 474 665Q441 630 388 630Q337 630 310.5 659Q284 688 284 731ZM401 790Q378 790 364.5 773.5Q351 757 351 735Q351 716 362 704.5Q373 693 392 693Q416 693 429.5 709.5Q443 726 443 748Q443 766 432 778Q421 790 401 790Z" glyph-name="Aring" horiz-adv-x="632" unicode="&#197;" /><glyph d="M279 303 243 236H388Q369 328 363 404Q357 480 358 480H354Q354 480 335 427Q316 374 279 303ZM431 0 408 123H185L122 0H-24L292 589H460L572 0ZM447 649Q417 649 401.5 656Q386 663 369 674Q350 686 339 692.5Q328 699 316 699Q300 699 289 685.5Q278 672 277 647H202Q186 716 221.5 760Q257 804 311 804Q337 804 352.5 797Q368 790 381 781Q401 768 413 760.5Q425 753 438 753Q452 753 462 764Q472 775 473 801H550Q568 733 537.5 691Q507 649 447 649Z" glyph-name="Atilde" horiz-adv-x="632" unicode="&#195;" /><glyph d="M397 304 396 300Q457 292 484.5 257.5Q512 223 512 179Q512 87 446.5 43.5Q381 0 276 0H32L135 589H365Q454 589 493 552.5Q532 516 532 457Q532 390 491.5 350.5Q451 311 397 304ZM230 343H305Q340 343 366 359.5Q392 376 392 418Q392 449 375 461.5Q358 474 324 474H253ZM212 244 189 115H286Q326 115 352 131.5Q378 148 378 189Q378 214 362.5 229Q347 244 309 244Z" glyph-name="B" horiz-adv-x="554" unicode="B" /><glyph d="M429 193 545 132Q508 57 446 22.5Q384 -12 294 -12Q176 -12 113.5 53.5Q51 119 51 233Q51 405 143 503Q235 601 361 601Q466 601 519.5 553Q573 505 586 430L444 383Q439 429 419 455.5Q399 482 351 482Q276 482 233.5 410.5Q191 339 191 238Q191 175 220.5 139.5Q250 104 301 104Q341 104 371.5 122.5Q402 141 429 193Z" glyph-name="C" horiz-adv-x="587" unicode="C" /><glyph d="M429 193 545 132Q508 57 446 22.5Q384 -12 294 -12Q176 -12 113.5 53.5Q51 119 51 233Q51 405 143 503Q235 601 361 601Q466 601 519.5 553Q573 505 586 430L444 383Q439 429 419 455.5Q399 482 351 482Q276 482 233.5 410.5Q191 339 191 238Q191 175 220.5 139.5Q250 104 301 104Q341 104 371.5 122.5Q402 141 429 193ZM429 647H307L371 790H539Z" glyph-name="Cacute" horiz-adv-x="587" unicode="&#262;" /><glyph d="M429 193 545 132Q508 57 446 22.5Q384 -12 294 -12Q176 -12 113.5 53.5Q51 119 51 233Q51 405 143 503Q235 601 361 601Q466 601 519.5 553Q573 505 586 430L444 383Q439 429 419 455.5Q399 482 351 482Q276 482 233.5 410.5Q191 339 191 238Q191 175 220.5 139.5Q250 104 301 104Q341 104 371.5 122.5Q402 141 429 193ZM411 647H326L218 792H339L364 761Q374 748 376.5 739.5Q379 731 379 731H383Q383 731 388 739.5Q393 748 408 761L445 792H572Z" glyph-name="Ccaron" horiz-adv-x="587" unicode="&#268;" /><glyph d="M344 -118Q344 -165 310 -188Q276 -211 228 -211Q193 -211 165 -201Q137 -191 123 -175L149 -111Q164 -129 180.5 -137.5Q197 -146 211 -146Q227 -146 235.5 -139.5Q244 -133 244 -120Q244 -104 233 -94Q222 -84 197 -80L227 -5Q141 11 96 73.5Q51 136 51 233Q51 405 143 503Q235 601 361 601Q466 601 519.5 553Q573 505 586 430L444 383Q439 429 419 455.5Q399 482 351 482Q276 482 233.5 410.5Q191 339 191 238Q191 175 220.5 139.5Q250 104 301 104Q341 104 371.5 122.5Q402 141 429 193L545 132Q508 57 446 22.5Q384 -12 294 -12H276L265 -36Q305 -43 324.5 -61.5Q344 -80 344 -118Z" glyph-name="Ccedilla" horiz-adv-x="587" unicode="&#199;" /><glyph d="M429 193 545 132Q508 57 446 22.5Q384 -12 294 -12Q176 -12 113.5 53.5Q51 119 51 233Q51 405 143 503Q235 601 361 601Q466 601 519.5 553Q573 505 586 430L444 383Q439 429 419 455.5Q399 482 351 482Q276 482 233.5 410.5Q191 339 191 238Q191 175 220.5 139.5Q250 104 301 104Q341 104 371.5 122.5Q402 141 429 193ZM348 792H433L541 647H420L395 678Q385 691 382.5 699.5Q380 708 380 708H376Q376 708 371 699.5Q366 691 351 678L314 647H187Z" glyph-name="Ccircumflex" horiz-adv-x="587" unicode="&#264;" /><glyph d="M429 193 545 132Q508 57 446 22.5Q384 -12 294 -12Q176 -12 113.5 53.5Q51 119 51 233Q51 405 143 503Q235 601 361 601Q466 601 519.5 553Q573 505 586 430L444 383Q439 429 419 455.5Q399 482 351 482Q276 482 233.5 410.5Q191 339 191 238Q191 175 220.5 139.5Q250 104 301 104Q341 104 371.5 122.5Q402 141 429 193ZM307 731Q307 769 330.5 789Q354 809 388 809Q424 809 448 789Q472 769 472 731Q472 694 448 674.5Q424 655 388 655Q354 655 330.5 674.5Q307 694 307 731Z" glyph-name="Cdotaccent" horiz-adv-x="587" unicode="&#266;" /><glyph d="M237 0H32L135 589H330Q458 589 523.5 530.5Q589 472 589 357Q589 164 483.5 82Q378 0 237 0ZM189 115H251Q335 115 390.5 172.5Q446 230 446 344Q446 413 408 443.5Q370 474 305 474H253Z" glyph-name="D" horiz-adv-x="624" unicode="D" /><glyph d="M237 0H32L135 589H330Q458 589 523.5 530.5Q589 472 589 357Q589 164 483.5 82Q378 0 237 0ZM189 115H251Q335 115 390.5 172.5Q446 230 446 344Q446 413 408 443.5Q370 474 305 474H253ZM384 647H299L191 792H312L337 761Q347 748 349.5 739.5Q352 731 352 731H356Q356 731 361 739.5Q366 748 381 761L418 792H545Z" glyph-name="Dcaron" horiz-adv-x="625" unicode="&#270;" /><glyph d="M237 0H32L74 242H8L28 352H93L135 589H330Q458 589 523.5 530.5Q589 472 589 357Q589 164 483.5 82Q378 0 237 0ZM189 115H251Q335 115 390.5 172.5Q446 230 446 344Q446 413 408 443.5Q370 474 305 474H253L231 352H342L322 242H211Z" glyph-name="Dcroat" horiz-adv-x="625" unicode="&#272;" /><glyph d="M447 118 427 0H32L135 589H530L509 471H252L231 354H458L438 241H211L189 118Z" glyph-name="E" horiz-adv-x="519" unicode="E" /><glyph d="M447 118 427 0H32L135 589H530L509 471H252L231 354H458L438 241H211L189 118ZM387 647H265L329 790H497Z" glyph-name="Eacute" horiz-adv-x="519" unicode="&#201;" /><glyph d="M447 118 427 0H32L135 589H530L509 471H252L231 354H458L438 241H211L189 118ZM329 642Q251 642 222 683Q193 724 206 791H305Q301 764 309.5 750Q318 736 346 736Q375 736 388 750Q401 764 406 791H506Q493 724 450 683Q407 642 329 642Z" glyph-name="Ebreve" horiz-adv-x="519" unicode="&#276;" /><glyph d="M447 118 427 0H32L135 589H530L509 471H252L231 354H458L438 241H211L189 118ZM369 647H284L176 792H297L322 761Q332 748 334.5 739.5Q337 731 337 731H341Q341 731 346 739.5Q351 748 366 761L403 792H530Z" glyph-name="Ecaron" horiz-adv-x="519" unicode="&#282;" /><glyph d="M447 118 427 0H32L135 589H530L509 471H252L231 354H458L438 241H211L189 118ZM306 792H391L499 647H378L353 678Q343 691 340.5 699.5Q338 708 338 708H334Q334 708 329 699.5Q324 691 309 678L272 647H145Z" glyph-name="Ecircumflex" horiz-adv-x="519" unicode="&#202;" /><glyph d="M447 118 427 0H32L135 589H530L509 471H252L231 354H458L438 241H211L189 118ZM374 723Q374 760 396 779Q418 798 448 798Q480 798 502 779Q524 760 524 723Q524 686 502 667Q480 648 448 648Q418 648 396 667Q374 686 374 723ZM156 723Q156 760 178 779Q200 798 230 798Q263 798 284.5 779Q306 760 306 723Q306 687 284.5 667.5Q263 648 230 648Q200 648 178 667.5Q156 687 156 723Z" glyph-name="Edieresis" horiz-adv-x="519" unicode="&#203;" /><glyph d="M447 118 427 0H32L135 589H530L509 471H252L231 354H458L438 241H211L189 118ZM264 731Q264 769 287.5 789Q311 809 345 809Q381 809 405 789Q429 769 429 731Q429 694 405 674.5Q381 655 345 655Q311 655 287.5 674.5Q264 694 264 731Z" glyph-name="Edotaccent" horiz-adv-x="519" unicode="&#278;" /><glyph d="M447 118 427 0H32L135 589H530L509 471H252L231 354H458L438 241H211L189 118ZM400 647H278L168 790H336Z" glyph-name="Egrave" horiz-adv-x="519" unicode="&#200;" /><glyph d="M447 118 427 0H32L135 589H530L509 471H252L231 354H458L438 241H211L189 118ZM486 664H185L204 772H505Z" glyph-name="Emacron" horiz-adv-x="519" unicode="&#274;" /><glyph d="M639 589 530 -31Q512 -132 455.5 -171.5Q399 -211 309 -211Q237 -211 195 -188Q153 -165 129 -129L221 -26Q232 -60 259 -79Q286 -98 314 -98Q357 -98 373 -76.5Q389 -55 396 -7L401 21L273 273Q252 313 241.5 345Q231 377 231 377H227Q227 377 224.5 339Q222 301 210 238L170 0H32L135 589H263L399 310Q418 273 427 243.5Q436 214 436 214H440Q440 214 444 251.5Q448 289 458 345L501 589Z" glyph-name="Eng" horiz-adv-x="650" unicode="&#330;" /><glyph d="M185 -108Q185 -74 202.5 -45Q220 -16 248 0H32L135 589H530L509 471H252L231 354H458L438 241H211L189 118H447L427 0H397Q349 0 321 -24.5Q293 -49 293 -84Q293 -103 303 -113.5Q313 -124 330 -124Q348 -124 361 -117.5Q374 -111 390 -95L419 -163Q397 -188 367 -199.5Q337 -211 301 -211Q253 -211 219 -186.5Q185 -162 185 -108Z" glyph-name="Eogonek" horiz-adv-x="519" unicode="&#280;" /><glyph d="M237 0H32L74 242H8L28 352H93L135 589H330Q458 589 523.5 530.5Q589 472 589 357Q589 164 483.5 82Q378 0 237 0ZM189 115H251Q335 115 390.5 172.5Q446 230 446 344Q446 413 408 443.5Q370 474 305 474H253L231 352H342L322 242H211Z" glyph-name="Eth" horiz-adv-x="625" unicode="&#208;" /><glyph d="M366 263H226Q223 252 221.5 240Q220 228 220 216H351L331 164H225Q233 132 255 113.5Q277 95 314 95Q352 95 374 118Q396 141 412 175L521 110Q486 49 433 18.5Q380 -12 299 -12Q214 -12 158 32.5Q102 77 93 164H20L30 216H92Q93 228 95 240Q97 252 98 263H38L47 316H111Q137 391 199.5 441.5Q262 492 361 492Q456 492 498.5 452Q541 412 554 352L433 308Q429 339 407.5 360Q386 381 349 381Q315 381 288 363.5Q261 346 245 316H386Z" glyph-name="Euro" horiz-adv-x="556" unicode="&#8364;" /><glyph d="M170 0H32L135 589H519L499 471H252L227 330H443L423 217H207Z" glyph-name="F" horiz-adv-x="486" unicode="F" /><glyph d="M336 314H590L535 0H452L440 72Q421 35 383.5 11.5Q346 -12 282 -12Q173 -12 112 53.5Q51 119 51 233Q51 405 143 503Q235 601 361 601Q466 601 520 553Q574 505 586 430L444 383Q440 426 419.5 453.5Q399 481 351 481Q276 481 233.5 410.5Q191 340 191 241Q191 175 222 136.5Q253 98 315 98Q364 98 396 121.5Q428 145 435 189L438 206H317Z" glyph-name="G" horiz-adv-x="635" unicode="G" /><glyph d="M336 314H590L535 0H452L440 72Q421 35 383.5 11.5Q346 -12 282 -12Q173 -12 112 53.5Q51 119 51 233Q51 405 143 503Q235 601 361 601Q466 601 520 553Q574 505 586 430L444 383Q440 426 419.5 453.5Q399 481 351 481Q276 481 233.5 410.5Q191 340 191 241Q191 175 222 136.5Q253 98 315 98Q364 98 396 121.5Q428 145 435 189L438 206H317ZM379 642Q301 642 272 683Q243 724 256 791H355Q351 764 359.5 750Q368 736 396 736Q425 736 438 750Q451 764 456 791H556Q543 724 500 683Q457 642 379 642Z" glyph-name="Gbreve" horiz-adv-x="635" unicode="&#286;" /><glyph d="M336 314H590L535 0H452L440 72Q421 35 383.5 11.5Q346 -12 282 -12Q173 -12 112 53.5Q51 119 51 233Q51 405 143 503Q235 601 361 601Q466 601 520 553Q574 505 586 430L444 383Q440 426 419.5 453.5Q399 481 351 481Q276 481 233.5 410.5Q191 340 191 241Q191 175 222 136.5Q253 98 315 98Q364 98 396 121.5Q428 145 435 189L438 206H317ZM356 792H441L549 647H428L403 678Q393 691 390.5 699.5Q388 708 388 708H384Q384 708 379 699.5Q374 691 359 678L322 647H195Z" glyph-name="Gcircumflex" horiz-adv-x="635" unicode="&#284;" /><glyph d="M336 314H590L535 0H452L440 72Q421 35 383.5 11.5Q346 -12 282 -12Q173 -12 112 53.5Q51 119 51 233Q51 405 143 503Q235 601 361 601Q466 601 520 553Q574 505 586 430L444 383Q440 426 419.5 453.5Q399 481 351 481Q276 481 233.5 410.5Q191 340 191 241Q191 175 222 136.5Q253 98 315 98Q364 98 396 121.5Q428 145 435 189L438 206H317ZM325 -136Q325 -197 280 -226Q235 -255 169 -255V-210Q201 -209 224.5 -201Q248 -193 248 -172Q220 -176 199.5 -162Q179 -148 179 -117Q179 -84 199.5 -68Q220 -52 248 -52Q282 -52 303.5 -74Q325 -96 325 -136Z" glyph-name="Gcommaaccent" horiz-adv-x="635" unicode="&#290;" /><glyph d="M336 314H590L535 0H452L440 72Q421 35 383.5 11.5Q346 -12 282 -12Q173 -12 112 53.5Q51 119 51 233Q51 405 143 503Q235 601 361 601Q466 601 520 553Q574 505 586 430L444 383Q440 426 419.5 453.5Q399 481 351 481Q276 481 233.5 410.5Q191 340 191 241Q191 175 222 136.5Q253 98 315 98Q364 98 396 121.5Q428 145 435 189L438 206H317ZM314 731Q314 769 337.5 789Q361 809 395 809Q431 809 455 789Q479 769 479 731Q479 694 455 674.5Q431 655 395 655Q361 655 337.5 674.5Q314 694 314 731Z" glyph-name="Gdotaccent" horiz-adv-x="635" unicode="&#288;" /><glyph d="M170 0H32L135 589H273L232 358H457L497 589H635L532 0H394L436 240H212Z" glyph-name="H" horiz-adv-x="646" unicode="H" /><glyph d="M237 341H462L474 412H249ZM177 0H39L111 412H31L50 516H129L142 589H280L268 516H492L505 589H642L629 516H717L698 412H611L539 0H402L443 232H218Z" glyph-name="Hbar" horiz-adv-x="668" unicode="&#294;" /><glyph d="M170 0H32L135 589H273L232 358H457L497 589H635L532 0H394L436 240H212ZM369 792H454L562 647H441L416 678Q406 691 403.5 699.5Q401 708 401 708H397Q397 708 392 699.5Q387 691 372 678L335 647H208Z" glyph-name="Hcircumflex" horiz-adv-x="646" unicode="&#292;" /><glyph d="M135 589H273L170 0H32Z" glyph-name="I" horiz-adv-x="284" unicode="I" /><glyph d="M135 589H273L170 0H32ZM268 647H146L210 790H378Z" glyph-name="Iacute" horiz-adv-x="284" unicode="&#205;" /><glyph d="M135 589H273L170 0H32ZM211 642Q133 642 104 683Q75 724 88 791H187Q183 764 191.5 750Q200 736 228 736Q257 736 270 750Q283 764 288 791H388Q375 724 332 683Q289 642 211 642Z" glyph-name="Ibreve" horiz-adv-x="284" unicode="&#300;" /><glyph d="M135 589H273L170 0H32ZM187 792H272L380 647H259L234 678Q224 691 221.5 699.5Q219 708 219 708H215Q215 708 210 699.5Q205 691 190 678L153 647H26Z" glyph-name="Icircumflex" horiz-adv-x="284" unicode="&#206;" /><glyph d="M135 589H273L170 0H32ZM255 723Q255 760 277 779Q299 798 329 798Q361 798 383 779Q405 760 405 723Q405 686 383 667Q361 648 329 648Q299 648 277 667Q255 686 255 723ZM37 723Q37 760 59 779Q81 798 111 798Q144 798 165.5 779Q187 760 187 723Q187 687 165.5 667.5Q144 648 111 648Q81 648 59 667.5Q37 687 37 723Z" glyph-name="Idieresis" horiz-adv-x="284" unicode="&#207;" /><glyph d="M135 589H273L170 0H32ZM281 647H159L49 790H217Z" glyph-name="Igrave" horiz-adv-x="284" unicode="&#204;" /><glyph d="M135 589H273L170 0H32ZM368 664H67L86 772H387Z" glyph-name="Imacron" horiz-adv-x="284" unicode="&#298;" /><glyph d="M-52 -108Q-52 -62 -25.5 -27.5Q1 7 36 26L135 589H273L170 0Q117 0 86.5 -23.5Q56 -47 56 -84Q56 -103 66 -113.5Q76 -124 93 -124Q111 -124 124 -117.5Q137 -111 153 -95L182 -163Q160 -188 130 -199.5Q100 -211 64 -211Q15 -211 -18.5 -186.5Q-52 -162 -52 -108Z" glyph-name="Iogonek" horiz-adv-x="284" unicode="&#302;" /><glyph d="M135 589H273L170 0H32ZM283 649Q253 649 237.5 656Q222 663 205 674Q186 686 175 692.5Q164 699 152 699Q136 699 125 685.5Q114 672 113 647H38Q22 716 57.5 760Q93 804 147 804Q173 804 188.5 797Q204 790 217 781Q237 768 249 760.5Q261 753 274 753Q288 753 298 764Q308 775 309 801H386Q404 733 373.5 691Q343 649 283 649Z" glyph-name="Itilde" horiz-adv-x="284" unicode="&#296;" /><glyph d="M321 589H459L385 168Q367 67 311.5 27.5Q256 -12 166 -12Q88 -12 42 20.5Q-4 53 -23 111L88 184Q98 144 118 122.5Q138 101 172 101Q209 101 225 119.5Q241 138 249 184Z" glyph-name="J" horiz-adv-x="465" unicode="J" /><glyph d="M321 589H459L385 168Q367 67 311.5 27.5Q256 -12 166 -12Q88 -12 42 20.5Q-4 53 -23 111L88 184Q98 144 118 122.5Q138 101 172 101Q209 101 225 119.5Q241 138 249 184ZM373 792H458L566 647H445L420 678Q410 691 407.5 699.5Q405 708 405 708H401Q401 708 396 699.5Q391 691 376 678L339 647H212Z" glyph-name="Jcircumflex" horiz-adv-x="465" unicode="&#308;" /><glyph d="M526 0H369L252 240H212L170 0H32L135 589H273L232 357H267L446 589H606L373 297Z" glyph-name="K" horiz-adv-x="574" unicode="K" /><glyph d="M526 0H369L252 240H212L170 0H32L135 589H273L232 357H267L446 589H606L373 297ZM296 -136Q296 -197 251 -226Q206 -255 140 -255V-210Q172 -209 195.5 -201Q219 -193 219 -172Q191 -176 170.5 -162Q150 -148 150 -117Q150 -84 170.5 -68Q191 -52 219 -52Q253 -52 274.5 -74Q296 -96 296 -136Z" glyph-name="Kcommaaccent" horiz-adv-x="574" unicode="&#310;" /><glyph d="M135 589H273L189 118H418L398 0H32Z" glyph-name="L" horiz-adv-x="469" unicode="L" /><glyph d="M135 589H273L189 118H418L398 0H32ZM273 647H151L215 790H383Z" glyph-name="Lacute" horiz-adv-x="469" unicode="&#313;" /><glyph d="M135 589H273L189 118H418L398 0H32ZM491 668 434 474H338L353 668Z" glyph-name="Lcaron" horiz-adv-x="469" unicode="&#317;" /><glyph d="M135 589H273L189 118H418L398 0H32ZM271 -136Q271 -197 226 -226Q181 -255 115 -255V-210Q147 -209 170.5 -201Q194 -193 194 -172Q166 -176 145.5 -162Q125 -148 125 -117Q125 -84 145.5 -68Q166 -52 194 -52Q228 -52 249.5 -74Q271 -96 271 -136Z" glyph-name="Lcommaaccent" horiz-adv-x="469" unicode="&#315;" /><glyph d="M309 311Q309 348 333.5 373Q358 398 393 398Q431 398 456 373Q481 348 481 311Q481 276 456 251Q431 226 393 226Q358 226 333.5 251Q309 276 309 311ZM135 589H273L189 118H418L398 0H32Z" glyph-name="Ldot" horiz-adv-x="469" unicode="&#319;" /><glyph d="M143 589H281L243 375L379 421L363 328L226 283L198 118H426L407 0H40L81 236L12 213L28 304L97 327Z" glyph-name="Lslash" horiz-adv-x="477" unicode="&#321;" /><glyph d="M382 136H317L262 269Q246 306 238.5 337Q231 368 231 368H227Q227 368 225.5 339.5Q224 311 215 261L170 0H32L135 589H272L346 393Q363 348 368.5 323.5Q374 299 374 299H378Q378 299 390 323Q402 347 436 393L581 589H718L615 0H478L523 261Q532 311 539.5 339.5Q547 368 547 368H543Q543 368 527.5 337.5Q512 307 484 270Z" glyph-name="M" horiz-adv-x="729" unicode="M" /><glyph d="M263 589 399 310Q418 273 427 243.5Q436 214 436 214H440Q440 214 444 251.5Q448 289 458 345L501 589H639L536 0H412L273 273Q252 313 241.5 345Q231 377 231 377H227Q227 377 224.5 339Q222 301 210 238L170 0H32L135 589Z" glyph-name="N" horiz-adv-x="650" unicode="N" /><glyph glyph-name="NULL" horiz-adv-x="0" /><glyph d="M263 589 399 310Q418 273 427 243.5Q436 214 436 214H440Q440 214 444 251.5Q448 289 458 345L501 589H639L536 0H412L273 273Q252 313 241.5 345Q231 377 231 377H227Q227 377 224.5 339Q222 301 210 238L170 0H32L135 589ZM441 647H319L383 790H551Z" glyph-name="Nacute" horiz-adv-x="650" unicode="&#323;" /><glyph d="M263 589 399 310Q418 273 427 243.5Q436 214 436 214H440Q440 214 444 251.5Q448 289 458 345L501 589H639L536 0H412L273 273Q252 313 241.5 345Q231 377 231 377H227Q227 377 224.5 339Q222 301 210 238L170 0H32L135 589ZM424 647H339L231 792H352L377 761Q387 748 389.5 739.5Q392 731 392 731H396Q396 731 401 739.5Q406 748 421 761L458 792H585Z" glyph-name="Ncaron" horiz-adv-x="650" unicode="&#327;" /><glyph d="M263 589 399 310Q418 273 427 243.5Q436 214 436 214H440Q440 214 444 251.5Q448 289 458 345L501 589H639L536 0H412L273 273Q252 313 241.5 345Q231 377 231 377H227Q227 377 224.5 339Q222 301 210 238L170 0H32L135 589ZM330 -136Q330 -197 285 -226Q240 -255 174 -255V-210Q206 -209 229.5 -201Q253 -193 253 -172Q225 -176 204.5 -162Q184 -148 184 -117Q184 -84 204.5 -68Q225 -52 253 -52Q287 -52 308.5 -74Q330 -96 330 -136Z" glyph-name="Ncommaaccent" horiz-adv-x="650" unicode="&#325;" /><glyph d="M263 589 399 310Q418 273 427 243.5Q436 214 436 214H440Q440 214 444 251.5Q448 289 458 345L501 589H639L536 0H412L273 273Q252 313 241.5 345Q231 377 231 377H227Q227 377 224.5 339Q222 301 210 238L170 0H32L135 589ZM456 649Q426 649 410.5 656Q395 663 378 674Q359 686 348 692.5Q337 699 325 699Q309 699 298 685.5Q287 672 286 647H211Q195 716 230.5 760Q266 804 320 804Q346 804 361.5 797Q377 790 390 781Q410 768 422 760.5Q434 753 447 753Q461 753 471 764Q481 775 482 801H559Q577 733 546.5 691Q516 649 456 649Z" glyph-name="Ntilde" horiz-adv-x="650" unicode="&#209;" /><glyph d="M294 -12Q176 -12 113.5 55Q51 122 51 233Q51 405 143 503Q235 601 361 601Q480 601 541.5 534Q603 467 603 355Q603 183 511 85.5Q419 -12 294 -12ZM351 482Q276 482 233.5 411Q191 340 191 242Q191 176 220.5 140Q250 104 301 104Q373 104 416.5 175.5Q460 247 460 347Q460 409 431 445.5Q402 482 351 482Z" glyph-name="O" horiz-adv-x="638" unicode="O" /><glyph d="M294 -12Q176 -12 113.5 55Q51 122 51 233Q51 405 143 503Q235 601 361 601Q386 601 408 598Q430 595 449 589H877L857 471H580Q587 456 592.5 439Q598 422 599 403Q601 392 601.5 379.5Q602 367 603 354H805L785 241H590Q582 204 568 173.5Q554 143 535 118H794L774 0H377Q357 -6 336.5 -9Q316 -12 294 -12ZM351 482Q276 482 233.5 411Q191 340 191 242Q191 176 220.5 140Q250 104 301 104Q373 104 416.5 175.5Q460 247 460 347Q460 409 431 445.5Q402 482 351 482Z" glyph-name="OE" horiz-adv-x="866" unicode="&#338;" /><glyph d="M294 -12Q176 -12 113.5 55Q51 122 51 233Q51 405 143 503Q235 601 361 601Q480 601 541.5 534Q603 467 603 355Q603 183 511 85.5Q419 -12 294 -12ZM351 482Q276 482 233.5 411Q191 340 191 242Q191 176 220.5 140Q250 104 301 104Q373 104 416.5 175.5Q460 247 460 347Q460 409 431 445.5Q402 482 351 482ZM433 647H311L375 790H543Z" glyph-name="Oacute" horiz-adv-x="638" unicode="&#211;" /><glyph d="M294 -12Q176 -12 113.5 55Q51 122 51 233Q51 405 143 503Q235 601 361 601Q480 601 541.5 534Q603 467 603 355Q603 183 511 85.5Q419 -12 294 -12ZM351 482Q276 482 233.5 411Q191 340 191 242Q191 176 220.5 140Q250 104 301 104Q373 104 416.5 175.5Q460 247 460 347Q460 409 431 445.5Q402 482 351 482ZM376 642Q298 642 269 683Q240 724 253 791H352Q348 764 356.5 750Q365 736 393 736Q422 736 435 750Q448 764 453 791H553Q540 724 497 683Q454 642 376 642Z" glyph-name="Obreve" horiz-adv-x="638" unicode="&#334;" /><glyph d="M294 -12Q176 -12 113.5 55Q51 122 51 233Q51 405 143 503Q235 601 361 601Q480 601 541.5 534Q603 467 603 355Q603 183 511 85.5Q419 -12 294 -12ZM351 482Q276 482 233.5 411Q191 340 191 242Q191 176 220.5 140Q250 104 301 104Q373 104 416.5 175.5Q460 247 460 347Q460 409 431 445.5Q402 482 351 482ZM353 792H438L546 647H425L400 678Q390 691 387.5 699.5Q385 708 385 708H381Q381 708 376 699.5Q371 691 356 678L319 647H192Z" glyph-name="Ocircumflex" horiz-adv-x="638" unicode="&#212;" /><glyph d="M294 -12Q176 -12 113.5 55Q51 122 51 233Q51 405 143 503Q235 601 361 601Q480 601 541.5 534Q603 467 603 355Q603 183 511 85.5Q419 -12 294 -12ZM351 482Q276 482 233.5 411Q191 340 191 242Q191 176 220.5 140Q250 104 301 104Q373 104 416.5 175.5Q460 247 460 347Q460 409 431 445.5Q402 482 351 482ZM420 723Q420 760 442 779Q464 798 494 798Q526 798 548 779Q570 760 570 723Q570 686 548 667Q526 648 494 648Q464 648 442 667Q420 686 420 723ZM202 723Q202 760 224 779Q246 798 276 798Q309 798 330.5 779Q352 760 352 723Q352 687 330.5 667.5Q309 648 276 648Q246 648 224 667.5Q202 687 202 723Z" glyph-name="Odieresis" horiz-adv-x="638" unicode="&#214;" /><glyph d="M294 -12Q176 -12 113.5 55Q51 122 51 233Q51 405 143 503Q235 601 361 601Q480 601 541.5 534Q603 467 603 355Q603 183 511 85.5Q419 -12 294 -12ZM351 482Q276 482 233.5 411Q191 340 191 242Q191 176 220.5 140Q250 104 301 104Q373 104 416.5 175.5Q460 247 460 347Q460 409 431 445.5Q402 482 351 482ZM446 647H324L214 790H382Z" glyph-name="Ograve" horiz-adv-x="638" unicode="&#210;" /><glyph d="M294 -12Q176 -12 113.5 55Q51 122 51 233Q51 405 143 503Q235 601 361 601Q480 601 541.5 534Q603 467 603 355Q603 183 511 85.5Q419 -12 294 -12ZM351 482Q276 482 233.5 411Q191 340 191 242Q191 176 220.5 140Q250 104 301 104Q373 104 416.5 175.5Q460 247 460 347Q460 409 431 445.5Q402 482 351 482ZM509 647H405L475 790H625ZM334 647H239L291 790H432Z" glyph-name="Ohungarumlaut" horiz-adv-x="638" unicode="&#336;" /><glyph d="M294 -12Q176 -12 113.5 55Q51 122 51 233Q51 405 143 503Q235 601 361 601Q480 601 541.5 534Q603 467 603 355Q603 183 511 85.5Q419 -12 294 -12ZM351 482Q276 482 233.5 411Q191 340 191 242Q191 176 220.5 140Q250 104 301 104Q373 104 416.5 175.5Q460 247 460 347Q460 409 431 445.5Q402 482 351 482ZM533 664H232L251 772H552Z" glyph-name="Omacron" horiz-adv-x="638" unicode="&#332;" /><glyph d="M73 -12 27 28 86 90Q69 118 60 154Q51 190 51 233Q51 405 143 503Q235 601 361 601Q412 601 453.5 587.5Q495 574 525 549L575 601L623 561L566 501Q585 472 594 435Q603 398 603 355Q603 183 511 85.5Q419 -12 294 -12Q241 -12 198.5 2.5Q156 17 126 42ZM351 482Q276 482 233.5 411Q191 340 191 242Q191 232 192 222Q193 212 194 203L428 448Q415 464 395.5 473Q376 482 351 482ZM460 347Q460 357 459 367Q458 377 456 386L220 141Q233 122 254 113Q275 104 301 104Q373 104 416.5 175.5Q460 247 460 347Z" glyph-name="Oslash" horiz-adv-x="638" unicode="&#216;" /><glyph d="M73 -12 27 28 86 90Q69 118 60 154Q51 190 51 233Q51 405 143 503Q235 601 361 601Q412 601 453.5 587.5Q495 574 525 549L575 601L623 561L566 501Q585 472 594 435Q603 398 603 355Q603 183 511 85.5Q419 -12 294 -12Q241 -12 198.5 2.5Q156 17 126 42ZM351 482Q276 482 233.5 411Q191 340 191 242Q191 232 192 222Q193 212 194 203L428 448Q415 464 395.5 473Q376 482 351 482ZM460 347Q460 357 459 367Q458 377 456 386L220 141Q233 122 254 113Q275 104 301 104Q373 104 416.5 175.5Q460 247 460 347ZM441 647H319L383 790H551Z" glyph-name="Oslashacute" horiz-adv-x="638" unicode="&#510;" /><glyph d="M294 -12Q176 -12 113.5 55Q51 122 51 233Q51 405 143 503Q235 601 361 601Q480 601 541.5 534Q603 467 603 355Q603 183 511 85.5Q419 -12 294 -12ZM351 482Q276 482 233.5 411Q191 340 191 242Q191 176 220.5 140Q250 104 301 104Q373 104 416.5 175.5Q460 247 460 347Q460 409 431 445.5Q402 482 351 482ZM448 649Q418 649 402.5 656Q387 663 370 674Q351 686 340 692.5Q329 699 317 699Q301 699 290 685.5Q279 672 278 647H203Q187 716 222.5 760Q258 804 312 804Q338 804 353.5 797Q369 790 382 781Q402 768 414 760.5Q426 753 439 753Q453 753 463 764Q473 775 474 801H551Q569 733 538.5 691Q508 649 448 649Z" glyph-name="Otilde" horiz-adv-x="638" unicode="&#213;" /><glyph d="M170 0H32L135 589H333Q440 589 482 543.5Q524 498 524 420Q524 304 453.5 247Q383 190 288 190H202ZM253 475 222 301H276Q330 301 358.5 326.5Q387 352 387 409Q387 443 367.5 459Q348 475 307 475Z" glyph-name="P" horiz-adv-x="531" unicode="P" /><glyph d="M608 355Q608 195 528.5 100Q449 5 337 -9Q365 -41 407 -47Q449 -53 492 -49L455 -165Q345 -166 281.5 -126Q218 -86 201 3Q130 25 93 85Q56 145 56 233Q56 405 148 503Q240 601 366 601Q485 601 546.5 535.5Q608 470 608 355ZM356 482Q281 482 238.5 411Q196 340 196 242Q196 176 225.5 140Q255 104 306 104Q378 104 421.5 175.5Q465 247 465 347Q465 409 436 445.5Q407 482 356 482Z" glyph-name="Q" horiz-adv-x="643" unicode="Q" /><glyph d="M253 474 225 320H310Q351 320 380 340.5Q409 361 409 412Q409 442 391 458Q373 474 335 474ZM521 0H372Q361 10 355.5 26Q350 42 347 61L333 149Q327 186 311.5 197Q296 208 262 208H206L170 0H32L135 589H359Q455 589 502.5 553Q550 517 550 436Q550 349 501 308Q452 267 395 261V257Q435 251 453 232.5Q471 214 478 173L496 63Q499 47 504 31Q509 15 521 0Z" glyph-name="R" horiz-adv-x="584" unicode="R" /><glyph d="M253 474 225 320H310Q351 320 380 340.5Q409 361 409 412Q409 442 391 458Q373 474 335 474ZM521 0H372Q361 10 355.5 26Q350 42 347 61L333 149Q327 186 311.5 197Q296 208 262 208H206L170 0H32L135 589H359Q455 589 502.5 553Q550 517 550 436Q550 349 501 308Q452 267 395 261V257Q435 251 453 232.5Q471 214 478 173L496 63Q499 47 504 31Q509 15 521 0ZM394 647H272L336 790H504Z" glyph-name="Racute" horiz-adv-x="584" unicode="&#340;" /><glyph d="M253 474 225 320H310Q351 320 380 340.5Q409 361 409 412Q409 442 391 458Q373 474 335 474ZM521 0H372Q361 10 355.5 26Q350 42 347 61L333 149Q327 186 311.5 197Q296 208 262 208H206L170 0H32L135 589H359Q455 589 502.5 553Q550 517 550 436Q550 349 501 308Q452 267 395 261V257Q435 251 453 232.5Q471 214 478 173L496 63Q499 47 504 31Q509 15 521 0ZM376 647H291L183 792H304L329 761Q339 748 341.5 739.5Q344 731 344 731H348Q348 731 353 739.5Q358 748 373 761L410 792H537Z" glyph-name="Rcaron" horiz-adv-x="584" unicode="&#344;" /><glyph d="M253 474 225 320H310Q351 320 380 340.5Q409 361 409 412Q409 442 391 458Q373 474 335 474ZM521 0H372Q361 10 355.5 26Q350 42 347 61L333 149Q327 186 311.5 197Q296 208 262 208H206L170 0H32L135 589H359Q455 589 502.5 553Q550 517 550 436Q550 349 501 308Q452 267 395 261V257Q435 251 453 232.5Q471 214 478 173L496 63Q499 47 504 31Q509 15 521 0ZM319 -136Q319 -197 274 -226Q229 -255 163 -255V-210Q195 -209 218.5 -201Q242 -193 242 -172Q214 -176 193.5 -162Q173 -148 173 -117Q173 -84 193.5 -68Q214 -52 242 -52Q276 -52 297.5 -74Q319 -96 319 -136Z" glyph-name="Rcommaaccent" horiz-adv-x="584" unicode="&#342;" /><glyph d="M12 138 136 185Q137 142 162.5 115.5Q188 89 231 89Q269 89 293.5 104Q318 119 318 156Q318 185 300 202.5Q282 220 235 235Q154 261 119 303Q84 345 84 411Q84 516 156 558.5Q228 601 306 601Q399 601 451 563Q503 525 507 439L374 413Q376 452 353.5 471.5Q331 491 295 491Q259 491 238.5 474.5Q218 458 218 426Q218 398 237.5 383.5Q257 369 305 353Q385 326 421 286.5Q457 247 457 175Q457 71 384.5 29.5Q312 -12 218 -12Q131 -12 75 23.5Q19 59 12 138Z" glyph-name="S" horiz-adv-x="518" unicode="S" /><glyph d="M12 138 136 185Q137 142 162.5 115.5Q188 89 231 89Q269 89 293.5 104Q318 119 318 156Q318 185 300 202.5Q282 220 235 235Q154 261 119 303Q84 345 84 411Q84 516 156 558.5Q228 601 306 601Q399 601 451 563Q503 525 507 439L374 413Q376 452 353.5 471.5Q331 491 295 491Q259 491 238.5 474.5Q218 458 218 426Q218 398 237.5 383.5Q257 369 305 353Q385 326 421 286.5Q457 247 457 175Q457 71 384.5 29.5Q312 -12 218 -12Q131 -12 75 23.5Q19 59 12 138ZM376 647H254L318 790H486Z" glyph-name="Sacute" horiz-adv-x="518" unicode="&#346;" /><glyph d="M12 138 136 185Q137 142 162.5 115.5Q188 89 231 89Q269 89 293.5 104Q318 119 318 156Q318 185 300 202.5Q282 220 235 235Q154 261 119 303Q84 345 84 411Q84 516 156 558.5Q228 601 306 601Q399 601 451 563Q503 525 507 439L374 413Q376 452 353.5 471.5Q331 491 295 491Q259 491 238.5 474.5Q218 458 218 426Q218 398 237.5 383.5Q257 369 305 353Q385 326 421 286.5Q457 247 457 175Q457 71 384.5 29.5Q312 -12 218 -12Q131 -12 75 23.5Q19 59 12 138ZM359 647H274L166 792H287L312 761Q322 748 324.5 739.5Q327 731 327 731H331Q331 731 336 739.5Q341 748 356 761L393 792H520Z" glyph-name="Scaron" horiz-adv-x="518" unicode="&#352;" /><glyph d="M292 -118Q292 -165 258 -188Q224 -211 176 -211Q141 -211 113 -201Q85 -191 71 -175L96 -111Q112 -129 128 -137.5Q144 -146 159 -146Q175 -146 183.5 -139.5Q192 -133 192 -120Q192 -104 181 -94Q170 -84 145 -80L172 -9Q104 -2 61 33.5Q18 69 12 138L136 185Q137 142 162.5 115.5Q188 89 231 89Q269 89 293.5 104Q318 119 318 156Q318 185 300 202.5Q282 220 235 235Q154 261 119 303Q84 345 84 411Q84 516 156 558.5Q228 601 306 601Q399 601 451 563Q503 525 507 439L374 413Q376 452 353.5 471.5Q331 491 295 491Q259 491 238.5 474.5Q218 458 218 426Q218 398 237.5 383.5Q257 369 305 353Q385 326 421 286.5Q457 247 457 175Q457 71 387 30Q317 -11 224 -12L213 -36Q253 -43 272.5 -61.5Q292 -80 292 -118Z" glyph-name="Scedilla" horiz-adv-x="518" unicode="&#350;" /><glyph d="M12 138 136 185Q137 142 162.5 115.5Q188 89 231 89Q269 89 293.5 104Q318 119 318 156Q318 185 300 202.5Q282 220 235 235Q154 261 119 303Q84 345 84 411Q84 516 156 558.5Q228 601 306 601Q399 601 451 563Q503 525 507 439L374 413Q376 452 353.5 471.5Q331 491 295 491Q259 491 238.5 474.5Q218 458 218 426Q218 398 237.5 383.5Q257 369 305 353Q385 326 421 286.5Q457 247 457 175Q457 71 384.5 29.5Q312 -12 218 -12Q131 -12 75 23.5Q19 59 12 138ZM295 792H380L488 647H367L342 678Q332 691 329.5 699.5Q327 708 327 708H323Q323 708 318 699.5Q313 691 298 678L261 647H134Z" glyph-name="Scircumflex" horiz-adv-x="518" unicode="&#348;" /><glyph d="M12 138 136 185Q137 142 162.5 115.5Q188 89 231 89Q269 89 293.5 104Q318 119 318 156Q318 185 300 202.5Q282 220 235 235Q154 261 119 303Q84 345 84 411Q84 516 156 558.5Q228 601 306 601Q399 601 451 563Q503 525 507 439L374 413Q376 452 353.5 471.5Q331 491 295 491Q259 491 238.5 474.5Q218 458 218 426Q218 398 237.5 383.5Q257 369 305 353Q385 326 421 286.5Q457 247 457 175Q457 71 384.5 29.5Q312 -12 218 -12Q131 -12 75 23.5Q19 59 12 138ZM265 -136Q265 -197 220 -226Q175 -255 109 -255V-210Q141 -209 164.5 -201Q188 -193 188 -172Q160 -176 139.5 -162Q119 -148 119 -117Q119 -84 139.5 -68Q160 -52 188 -52Q222 -52 243.5 -74Q265 -96 265 -136Z" glyph-name="Scommaaccent" horiz-adv-x="518" unicode="&#536;" /><glyph d="M277 0H140L223 471H62L83 589H543L523 471H359Z" glyph-name="T" horiz-adv-x="503" unicode="T" /><glyph d="M277 0H140L179 221H82L101 330H198L223 471H62L83 589H543L523 471H359L335 330H441L422 221H316Z" glyph-name="Tbar" horiz-adv-x="503" unicode="&#358;" /><glyph d="M277 0H140L223 471H62L83 589H543L523 471H359ZM362 647H277L169 792H290L315 761Q325 748 327.5 739.5Q330 731 330 731H334Q334 731 339 739.5Q344 748 359 761L396 792H523Z" glyph-name="Tcaron" horiz-adv-x="503" unicode="&#356;" /><glyph d="M277 0H140L223 471H62L83 589H543L523 471H359ZM268 -136Q268 -197 223 -226Q178 -255 112 -255V-210Q144 -209 167.5 -201Q191 -193 191 -172Q163 -176 142.5 -162Q122 -148 122 -117Q122 -84 142.5 -68Q163 -52 191 -52Q225 -52 246.5 -74Q268 -96 268 -136Z" glyph-name="Tcommaaccent" horiz-adv-x="503" unicode="&#354;" /><glyph d="M170 0H32L135 589H273L257 500H318Q422 500 466 455Q510 410 510 332Q510 216 439.5 163.5Q369 111 274 111H188ZM238 387 208 222H262Q316 222 344 242.5Q372 263 372 320Q372 354 352.5 370.5Q333 387 292 387Z" glyph-name="Thorn" horiz-adv-x="526" unicode="&#222;" /><glyph d="M490 589H628L560 204Q538 79 465.5 33.5Q393 -12 287 -12Q187 -12 119.5 41.5Q52 95 76 230L140 589H277L214 235Q203 172 222 136.5Q241 101 306 101Q369 101 393.5 136.5Q418 172 428 235Z" glyph-name="U" horiz-adv-x="611" unicode="U" /><glyph d="M472 589H610L542 204Q520 79 447.5 33.5Q375 -12 269 -12Q169 -12 101.5 41.5Q34 95 58 230L122 589H259L196 235Q185 172 204 136.5Q223 101 288 101Q351 101 375.5 136.5Q400 172 410 235ZM426 647H304L368 790H536Z" glyph-name="Uacute" horiz-adv-x="611" unicode="&#218;" /><glyph d="M472 589H610L542 204Q520 79 447.5 33.5Q375 -12 269 -12Q169 -12 101.5 41.5Q34 95 58 230L122 589H259L196 235Q185 172 204 136.5Q223 101 288 101Q351 101 375.5 136.5Q400 172 410 235ZM368 642Q290 642 261 683Q232 724 245 791H344Q340 764 348.5 750Q357 736 385 736Q414 736 427 750Q440 764 445 791H545Q532 724 489 683Q446 642 368 642Z" glyph-name="Ubreve" horiz-adv-x="611" unicode="&#364;" /><glyph d="M472 589H610L542 204Q520 79 447.5 33.5Q375 -12 269 -12Q169 -12 101.5 41.5Q34 95 58 230L122 589H259L196 235Q185 172 204 136.5Q223 101 288 101Q351 101 375.5 136.5Q400 172 410 235ZM345 792H430L538 647H417L392 678Q382 691 379.5 699.5Q377 708 377 708H373Q373 708 368 699.5Q363 691 348 678L311 647H184Z" glyph-name="Ucircumflex" horiz-adv-x="611" unicode="&#219;" /><glyph d="M472 589H610L542 204Q520 79 447.5 33.5Q375 -12 269 -12Q169 -12 101.5 41.5Q34 95 58 230L122 589H259L196 235Q185 172 204 136.5Q223 101 288 101Q351 101 375.5 136.5Q400 172 410 235ZM413 723Q413 760 435 779Q457 798 487 798Q519 798 541 779Q563 760 563 723Q563 686 541 667Q519 648 487 648Q457 648 435 667Q413 686 413 723ZM195 723Q195 760 217 779Q239 798 269 798Q302 798 323.5 779Q345 760 345 723Q345 687 323.5 667.5Q302 648 269 648Q239 648 217 667.5Q195 687 195 723Z" glyph-name="Udieresis" horiz-adv-x="611" unicode="&#220;" /><glyph d="M472 589H610L542 204Q520 79 447.5 33.5Q375 -12 269 -12Q169 -12 101.5 41.5Q34 95 58 230L122 589H259L196 235Q185 172 204 136.5Q223 101 288 101Q351 101 375.5 136.5Q400 172 410 235ZM438 647H316L206 790H374Z" glyph-name="Ugrave" horiz-adv-x="611" unicode="&#217;" /><glyph d="M472 589H610L542 204Q520 79 447.5 33.5Q375 -12 269 -12Q169 -12 101.5 41.5Q34 95 58 230L122 589H259L196 235Q185 172 204 136.5Q223 101 288 101Q351 101 375.5 136.5Q400 172 410 235ZM501 647H397L467 790H617ZM326 647H231L283 790H424Z" glyph-name="Uhungarumlaut" horiz-adv-x="611" unicode="&#368;" /><glyph d="M472 589H610L542 204Q520 79 447.5 33.5Q375 -12 269 -12Q169 -12 101.5 41.5Q34 95 58 230L122 589H259L196 235Q185 172 204 136.5Q223 101 288 101Q351 101 375.5 136.5Q400 172 410 235ZM525 664H224L243 772H544Z" glyph-name="Umacron" horiz-adv-x="611" unicode="&#362;" /><glyph d="M173 -108Q173 -77 185.5 -51Q198 -25 217 -6Q142 7 98 62.5Q54 118 74 230L137 589H275L211 235Q201 172 220 136.5Q239 101 304 101Q367 101 391 136.5Q415 172 425 235L488 589H625L558 204Q538 93 478 45Q418 -3 329 -10Q306 -22 293.5 -41.5Q281 -61 281 -84Q281 -103 291 -113.5Q301 -124 318 -124Q336 -124 349.5 -117.5Q363 -111 378 -95L407 -163Q385 -188 355.5 -199.5Q326 -211 290 -211Q241 -211 207 -186.5Q173 -162 173 -108Z" glyph-name="Uogonek" horiz-adv-x="612" unicode="&#370;" /><glyph d="M472 589H610L542 204Q520 79 447.5 33.5Q375 -12 269 -12Q169 -12 101.5 41.5Q34 95 58 230L122 589H259L196 235Q185 172 204 136.5Q223 101 288 101Q351 101 375.5 136.5Q400 172 410 235ZM277 731Q277 779 310.5 814.5Q344 850 399 850Q445 850 472.5 820.5Q500 791 500 750Q500 700 467 665Q434 630 381 630Q330 630 303.5 659Q277 688 277 731ZM394 790Q371 790 357.5 773.5Q344 757 344 735Q344 716 355 704.5Q366 693 385 693Q409 693 422.5 709.5Q436 726 436 748Q436 766 425 778Q414 790 394 790Z" glyph-name="Uring" horiz-adv-x="611" unicode="&#366;" /><glyph d="M472 589H610L542 204Q520 79 447.5 33.5Q375 -12 269 -12Q169 -12 101.5 41.5Q34 95 58 230L122 589H259L196 235Q185 172 204 136.5Q223 101 288 101Q351 101 375.5 136.5Q400 172 410 235ZM439 649Q409 649 393.5 656Q378 663 361 674Q342 686 331 692.5Q320 699 308 699Q292 699 281 685.5Q270 672 269 647H194Q178 716 213.5 760Q249 804 303 804Q329 804 344.5 797Q360 790 373 781Q393 768 405 760.5Q417 753 430 753Q444 753 454 764Q464 775 465 801H542Q560 733 529.5 691Q499 649 439 649Z" glyph-name="Utilde" horiz-adv-x="611" unicode="&#360;" /><glyph d="M210 589 254 272Q262 210 263 162.5Q264 115 264 115H268Q268 115 282 163Q296 211 324 271L476 589H624L327 0H163L72 589Z" glyph-name="V" horiz-adv-x="579" unicode="V" /><glyph d="M574 589 590 265Q593 202 590 150Q587 98 587 98H591Q591 98 605.5 150.5Q620 203 643 264L764 589H907L677 0H482L462 291Q458 351 460 399.5Q462 448 462 448H458Q458 448 446.5 400.5Q435 353 410 290L293 0H105L84 589H224L232 265Q234 202 231.5 150Q229 98 229 98H233Q233 98 246.5 150.5Q260 203 284 264L411 589Z" glyph-name="W" horiz-adv-x="865" unicode="W" /><glyph d="M574 589 590 265Q593 202 590 150Q587 98 587 98H591Q591 98 605.5 150.5Q620 203 643 264L764 589H907L677 0H482L462 291Q458 351 460 399.5Q462 448 462 448H458Q458 448 446.5 400.5Q435 353 410 290L293 0H105L84 589H224L232 265Q234 202 231.5 150Q229 98 229 98H233Q233 98 246.5 150.5Q260 203 284 264L411 589ZM546 647H424L488 790H656Z" glyph-name="Wacute" horiz-adv-x="865" unicode="&#7810;" /><glyph d="M574 589 590 265Q593 202 590 150Q587 98 587 98H591Q591 98 605.5 150.5Q620 203 643 264L764 589H907L677 0H482L462 291Q458 351 460 399.5Q462 448 462 448H458Q458 448 446.5 400.5Q435 353 410 290L293 0H105L84 589H224L232 265Q234 202 231.5 150Q229 98 229 98H233Q233 98 246.5 150.5Q260 203 284 264L411 589ZM466 792H551L659 647H538L513 678Q503 691 500.5 699.5Q498 708 498 708H494Q494 708 489 699.5Q484 691 469 678L432 647H305Z" glyph-name="Wcircumflex" horiz-adv-x="865" unicode="&#372;" /><glyph d="M574 589 590 265Q593 202 590 150Q587 98 587 98H591Q591 98 605.5 150.5Q620 203 643 264L764 589H907L677 0H482L462 291Q458 351 460 399.5Q462 448 462 448H458Q458 448 446.5 400.5Q435 353 410 290L293 0H105L84 589H224L232 265Q234 202 231.5 150Q229 98 229 98H233Q233 98 246.5 150.5Q260 203 284 264L411 589ZM534 723Q534 760 556 779Q578 798 608 798Q640 798 662 779Q684 760 684 723Q684 686 662 667Q640 648 608 648Q578 648 556 667Q534 686 534 723ZM316 723Q316 760 338 779Q360 798 390 798Q423 798 444.5 779Q466 760 466 723Q466 687 444.5 667.5Q423 648 390 648Q360 648 338 667.5Q316 687 316 723Z" glyph-name="Wdieresis" horiz-adv-x="865" unicode="&#7812;" /><glyph d="M574 589 590 265Q593 202 590 150Q587 98 587 98H591Q591 98 605.5 150.5Q620 203 643 264L764 589H907L677 0H482L462 291Q458 351 460 399.5Q462 448 462 448H458Q458 448 446.5 400.5Q435 353 410 290L293 0H105L84 589H224L232 265Q234 202 231.5 150Q229 98 229 98H233Q233 98 246.5 150.5Q260 203 284 264L411 589ZM559 647H437L327 790H495Z" glyph-name="Wgrave" horiz-adv-x="865" unicode="&#7808;" /><glyph d="M378 0 313 124Q290 169 286.5 186.5Q283 204 283 204H279Q279 204 272.5 186.5Q266 169 228 124L124 0H-36L221 300L75 589H226L277 481Q301 430 306 411Q311 392 311 392H316Q316 392 324 411.5Q332 431 371 481L456 589H612L377 299L527 0Z" glyph-name="X" horiz-adv-x="575" unicode="X" /><glyph d="M213 589 257 449Q276 390 279.5 347.5Q283 305 283 305H287Q287 305 302.5 348Q318 391 356 448L448 589H594L338 196L305 0H167L201 196L69 589Z" glyph-name="Y" horiz-adv-x="543" unicode="Y" /><glyph d="M213 589 257 449Q276 390 279.5 347.5Q283 305 283 305H287Q287 305 302.5 348Q318 391 356 448L448 589H594L338 196L305 0H167L201 196L69 589ZM399 647H277L341 790H509Z" glyph-name="Yacute" horiz-adv-x="543" unicode="&#221;" /><glyph d="M213 589 257 449Q276 390 279.5 347.5Q283 305 283 305H287Q287 305 302.5 348Q318 391 356 448L448 589H594L338 196L305 0H167L201 196L69 589ZM318 792H403L511 647H390L365 678Q355 691 352.5 699.5Q350 708 350 708H346Q346 708 341 699.5Q336 691 321 678L284 647H157Z" glyph-name="Ycircumflex" horiz-adv-x="543" unicode="&#374;" /><glyph d="M213 589 257 449Q276 390 279.5 347.5Q283 305 283 305H287Q287 305 302.5 348Q318 391 356 448L448 589H594L338 196L305 0H167L201 196L69 589ZM386 723Q386 760 408 779Q430 798 460 798Q492 798 514 779Q536 760 536 723Q536 686 514 667Q492 648 460 648Q430 648 408 667Q386 686 386 723ZM168 723Q168 760 190 779Q212 798 242 798Q275 798 296.5 779Q318 760 318 723Q318 687 296.5 667.5Q275 648 242 648Q212 648 190 667.5Q168 687 168 723Z" glyph-name="Ydieresis" horiz-adv-x="543" unicode="&#376;" /><glyph d="M213 589 257 449Q276 390 279.5 347.5Q283 305 283 305H287Q287 305 302.5 348Q318 391 356 448L448 589H594L338 196L305 0H167L201 196L69 589ZM412 647H290L180 790H348Z" glyph-name="Ygrave" horiz-adv-x="543" unicode="&#7922;" /><glyph d="M22 98 294 407Q325 442 347 458.5Q369 475 369 475V479Q369 479 345 475Q321 471 282 471H95L115 589H560L540 494L260 182Q229 147 207 130.5Q185 114 185 114V110Q185 110 209 114Q233 118 272 118H483L463 0H4Z" glyph-name="Z" horiz-adv-x="545" unicode="Z" /><glyph d="M22 98 294 407Q325 442 347 458.5Q369 475 369 475V479Q369 479 345 475Q321 471 282 471H95L115 589H560L540 494L260 182Q229 147 207 130.5Q185 114 185 114V110Q185 110 209 114Q233 118 272 118H483L463 0H4ZM397 647H275L339 790H507Z" glyph-name="Zacute" horiz-adv-x="545" unicode="&#377;" /><glyph d="M22 98 294 407Q325 442 347 458.5Q369 475 369 475V479Q369 479 345 475Q321 471 282 471H95L115 589H560L540 494L260 182Q229 147 207 130.5Q185 114 185 114V110Q185 110 209 114Q233 118 272 118H483L463 0H4ZM379 647H294L186 792H307L332 761Q342 748 344.5 739.5Q347 731 347 731H351Q351 731 356 739.5Q361 748 376 761L413 792H540Z" glyph-name="Zcaron" horiz-adv-x="545" unicode="&#381;" /><glyph d="M22 98 294 407Q325 442 347 458.5Q369 475 369 475V479Q369 479 345 475Q321 471 282 471H95L115 589H560L540 494L260 182Q229 147 207 130.5Q185 114 185 114V110Q185 110 209 114Q233 118 272 118H483L463 0H4ZM274 731Q274 769 297.5 789Q321 809 355 809Q391 809 415 789Q439 769 439 731Q439 694 415 674.5Q391 655 355 655Q321 655 297.5 674.5Q274 694 274 731Z" glyph-name="Zdotaccent" horiz-adv-x="545" unicode="&#379;" /><glyph d="M330 192 345 269Q352 308 340.5 339.5Q329 371 290 371Q233 371 203 313.5Q173 256 173 185Q173 145 189.5 117Q206 89 240 89Q279 89 301 118.5Q323 148 330 192ZM514 462 459 145Q456 129 460.5 116.5Q465 104 487 104Q493 104 500 105Q507 106 516 108L495 7Q478 2 459 -1.5Q440 -5 422 -5Q373 -5 346.5 14.5Q320 34 316 78Q300 29 264 8.5Q228 -12 185 -12Q111 -12 71.5 39Q32 90 32 177Q32 295 90.5 384Q149 473 251 473Q300 473 330.5 452Q361 431 365 385L393 462Z" glyph-name="a" horiz-adv-x="560" unicode="a" /><glyph d="M330 192 345 269Q352 308 340.5 339.5Q329 371 290 371Q233 371 203 313.5Q173 256 173 185Q173 145 189.5 117Q206 89 240 89Q279 89 301 118.5Q323 148 330 192ZM514 462 459 145Q456 129 460.5 116.5Q465 104 487 104Q493 104 500 105Q507 106 516 108L495 7Q478 2 459 -1.5Q440 -5 422 -5Q373 -5 346.5 14.5Q320 34 316 78Q300 29 264 8.5Q228 -12 185 -12Q111 -12 71.5 39Q32 90 32 177Q32 295 90.5 384Q149 473 251 473Q300 473 330.5 452Q361 431 365 385L393 462ZM368 526H246L316 679H485Z" glyph-name="aacute" horiz-adv-x="560" unicode="&#225;" /><glyph d="M330 192 345 269Q352 308 340.5 339.5Q329 371 290 371Q233 371 203 313.5Q173 256 173 185Q173 145 189.5 117Q206 89 240 89Q279 89 301 118.5Q323 148 330 192ZM514 462 459 145Q456 129 460.5 116.5Q465 104 487 104Q493 104 500 105Q507 106 516 108L495 7Q478 2 459 -1.5Q440 -5 422 -5Q373 -5 346.5 14.5Q320 34 316 78Q300 29 264 8.5Q228 -12 185 -12Q111 -12 71.5 39Q32 90 32 177Q32 295 90.5 384Q149 473 251 473Q300 473 330.5 452Q361 431 365 385L393 462ZM311 520Q233 520 205 566Q177 612 189 678H288Q284 650 290 633Q296 616 328 616Q359 616 371.5 633Q384 650 390 678H489Q478 612 433.5 566Q389 520 311 520Z" glyph-name="abreve" horiz-adv-x="560" unicode="&#259;" /><glyph d="M330 192 345 269Q352 308 340.5 339.5Q329 371 290 371Q233 371 203 313.5Q173 256 173 185Q173 145 189.5 117Q206 89 240 89Q279 89 301 118.5Q323 148 330 192ZM514 462 459 145Q456 129 460.5 116.5Q465 104 487 104Q493 104 500 105Q507 106 516 108L495 7Q478 2 459 -1.5Q440 -5 422 -5Q373 -5 346.5 14.5Q320 34 316 78Q300 29 264 8.5Q228 -12 185 -12Q111 -12 71.5 39Q32 90 32 177Q32 295 90.5 384Q149 473 251 473Q300 473 330.5 452Q361 431 365 385L393 462ZM294 683H379L486 524H365L340 558Q329 574 327.5 582.5Q326 591 326 591H321Q321 591 316.5 582.5Q312 574 295 558L258 524H132Z" glyph-name="acircumflex" horiz-adv-x="560" unicode="&#226;" /><glyph d="M202 526H80L150 679H319Z" glyph-name="acute" horiz-adv-x="398" unicode="&#180;" /><glyph d="M202 647H80L144 790H312Z" glyph-name="acute.cap" horiz-adv-x="392" /><glyph d="M330 192 345 269Q352 308 340.5 339.5Q329 371 290 371Q233 371 203 313.5Q173 256 173 185Q173 145 189.5 117Q206 89 240 89Q279 89 301 118.5Q323 148 330 192ZM514 462 459 145Q456 129 460.5 116.5Q465 104 487 104Q493 104 500 105Q507 106 516 108L495 7Q478 2 459 -1.5Q440 -5 422 -5Q373 -5 346.5 14.5Q320 34 316 78Q300 29 264 8.5Q228 -12 185 -12Q111 -12 71.5 39Q32 90 32 177Q32 295 90.5 384Q149 473 251 473Q300 473 330.5 452Q361 431 365 385L393 462ZM357 596Q357 633 379 652Q401 671 431 671Q463 671 485 652Q507 633 507 596Q507 559 485 540Q463 521 431 521Q401 521 379 540Q357 559 357 596ZM139 596Q139 633 161 652Q183 671 213 671Q246 671 267.5 652Q289 633 289 596Q289 560 267.5 540.5Q246 521 213 521Q183 521 161 540.5Q139 560 139 596Z" glyph-name="adieresis" horiz-adv-x="560" unicode="&#228;" /><glyph d="M505 91Q536 91 554.5 105Q573 119 582 153L709 123Q688 53 636.5 20.5Q585 -12 494 -12Q440 -12 398.5 6Q357 24 332 56Q304 20 263.5 4Q223 -12 174 -12Q105 -12 64 20Q23 52 23 113Q23 201 98 237.5Q173 274 302 276Q305 289 310 302.5Q315 316 320 328Q319 350 306 361Q293 372 272 372Q244 372 225 354.5Q206 337 203 304L74 329Q89 404 148 438.5Q207 473 287 473Q329 473 361.5 464Q394 455 414 436Q443 454 475.5 463.5Q508 473 542 473Q639 473 685 421.5Q731 370 731 306Q731 279 726 250Q721 221 711 201H433Q426 155 444 123Q462 91 505 91ZM448 276H592Q593 281 594 290Q595 299 595 306Q595 334 582 354Q569 374 536 374Q501 374 479 343.5Q457 313 448 276ZM299 126Q295 140 293.5 156Q292 172 292 188V201Q231 199 196 181Q161 163 161 125Q161 107 173 96.5Q185 86 207 86Q232 86 256 95Q280 104 299 126Z" glyph-name="ae" horiz-adv-x="753" unicode="&#230;" /><glyph d="M488 526H366L436 679H605ZM505 91Q536 91 554.5 105Q573 119 582 153L709 123Q688 53 636.5 20.5Q585 -12 494 -12Q440 -12 398.5 6Q357 24 332 56Q304 20 263.5 4Q223 -12 174 -12Q105 -12 64 20Q23 52 23 113Q23 201 98 237.5Q173 274 302 276Q305 289 310 302.5Q315 316 320 328Q319 350 306 361Q293 372 272 372Q244 372 225 354.5Q206 337 203 304L74 329Q89 404 148 438.5Q207 473 287 473Q329 473 361.5 464Q394 455 414 436Q443 454 475.5 463.5Q508 473 542 473Q639 473 685 421.5Q731 370 731 306Q731 279 726 250Q721 221 711 201H433Q426 155 444 123Q462 91 505 91ZM448 276H592Q593 281 594 290Q595 299 595 306Q595 334 582 354Q569 374 536 374Q501 374 479 343.5Q457 313 448 276ZM299 126Q295 140 293.5 156Q292 172 292 188V201Q231 199 196 181Q161 163 161 125Q161 107 173 96.5Q185 86 207 86Q232 86 256 95Q280 104 299 126Z" glyph-name="aeacute" horiz-adv-x="753" unicode="&#509;" /><glyph d="M330 192 345 269Q352 308 340.5 339.5Q329 371 290 371Q233 371 203 313.5Q173 256 173 185Q173 145 189.5 117Q206 89 240 89Q279 89 301 118.5Q323 148 330 192ZM514 462 459 145Q456 129 460.5 116.5Q465 104 487 104Q493 104 500 105Q507 106 516 108L495 7Q478 2 459 -1.5Q440 -5 422 -5Q373 -5 346.5 14.5Q320 34 316 78Q300 29 264 8.5Q228 -12 185 -12Q111 -12 71.5 39Q32 90 32 177Q32 295 90.5 384Q149 473 251 473Q300 473 330.5 452Q361 431 365 385L393 462ZM381 526H259L142 679H310Z" glyph-name="agrave" horiz-adv-x="560" unicode="&#224;" /><glyph d="M330 192 345 269Q352 308 340.5 339.5Q329 371 290 371Q233 371 203 313.5Q173 256 173 185Q173 145 189.5 117Q206 89 240 89Q279 89 301 118.5Q323 148 330 192ZM514 462 459 145Q456 129 460.5 116.5Q465 104 487 104Q493 104 500 105Q507 106 516 108L495 7Q478 2 459 -1.5Q440 -5 422 -5Q373 -5 346.5 14.5Q320 34 316 78Q300 29 264 8.5Q228 -12 185 -12Q111 -12 71.5 39Q32 90 32 177Q32 295 90.5 384Q149 473 251 473Q300 473 330.5 452Q361 431 365 385L393 462ZM462 539H168L188 647H482Z" glyph-name="amacron" horiz-adv-x="560" unicode="&#257;" /><glyph d="M547 72 443 -13 387 52Q341 18 293 3Q245 -12 185 -12Q107 -12 57.5 25Q8 62 8 135Q8 202 52.5 242Q97 282 172 301L144 333Q121 360 111 387.5Q101 415 101 445Q101 526 164 563.5Q227 601 306 601Q382 601 429 567Q476 533 476 470Q476 400 427 366.5Q378 333 324 321L416 217Q429 233 438.5 257Q448 281 454 310L564 266Q553 232 527.5 197Q502 162 481 142ZM295 512Q267 512 250 496.5Q233 481 233 458Q233 444 238.5 431.5Q244 419 257 403L287 366Q317 382 334.5 407Q352 432 352 456Q352 483 337.5 497.5Q323 512 295 512ZM142 151Q142 123 161.5 104.5Q181 86 215 86Q247 86 274.5 95.5Q302 105 325 123L213 254Q181 235 161.5 211.5Q142 188 142 151Z" glyph-name="ampersand" horiz-adv-x="580" unicode="&amp;" /><glyph d="M251 -108Q251 -62 278 -29.5Q305 3 340 20Q332 30 324.5 45.5Q317 61 316 78Q299 35 263.5 11.5Q228 -12 185 -12Q111 -12 71.5 39Q32 90 32 177Q32 295 90.5 384Q149 473 251 473Q300 473 330.5 452Q361 431 365 385L393 462H514L459 145Q456 129 460.5 116.5Q465 104 487 104Q493 104 500 105Q507 106 516 108L495 7Q450 -2 404.5 -18Q359 -34 359 -84Q359 -103 369 -113.5Q379 -124 396 -124Q414 -124 427.5 -117.5Q441 -111 456 -95L485 -163Q463 -188 433.5 -199.5Q404 -211 368 -211Q319 -211 285 -186.5Q251 -162 251 -108ZM330 192 345 269Q352 308 340.5 339.5Q329 371 290 371Q233 371 203 313.5Q173 256 173 185Q173 145 189.5 117Q206 89 240 89Q279 89 301 118.5Q323 148 330 192Z" glyph-name="aogonek" horiz-adv-x="560" unicode="&#261;" /><glyph d="M376 245Q330 245 271.5 266Q213 287 173 287Q142 287 115 276Q88 265 62 245L75 319Q106 343 133.5 352.5Q161 362 191 362Q239 362 290.5 342Q342 322 386 322Q414 322 438 330Q462 338 491 359L477 281Q455 261 430.5 253Q406 245 376 245ZM353 114Q307 114 248.5 135Q190 156 150 156Q119 156 92 145.5Q65 135 40 115L52 188Q83 213 110 222Q137 231 168 231Q216 231 268 211.5Q320 192 363 192Q391 192 415.5 199.5Q440 207 468 229L454 150Q432 131 407.5 122.5Q383 114 353 114Z" glyph-name="approxequal" horiz-adv-x="531" unicode="&#8776;" /><glyph d="M330 192 345 269Q352 308 340.5 339.5Q329 371 290 371Q233 371 203 313.5Q173 256 173 185Q173 145 189.5 117Q206 89 240 89Q279 89 301 118.5Q323 148 330 192ZM514 462 459 145Q456 129 460.5 116.5Q465 104 487 104Q493 104 500 105Q507 106 516 108L495 7Q478 2 459 -1.5Q440 -5 422 -5Q373 -5 346.5 14.5Q320 34 316 78Q300 29 264 8.5Q228 -12 185 -12Q111 -12 71.5 39Q32 90 32 177Q32 295 90.5 384Q149 473 251 473Q300 473 330.5 452Q361 431 365 385L393 462ZM218 608Q218 656 251.5 691.5Q285 727 340 727Q386 727 413.5 697.5Q441 668 441 627Q441 577 408 542Q375 507 322 507Q271 507 244.5 536Q218 565 218 608ZM335 666Q312 666 298.5 650Q285 634 285 612Q285 593 296 581Q307 569 326 569Q350 569 363.5 586Q377 603 377 625Q377 643 366 654.5Q355 666 335 666Z" glyph-name="aring" horiz-adv-x="560" unicode="&#229;" /><glyph d="M424 321 390 438Q370 507 368.5 541Q367 575 367 575H363Q363 575 349.5 540Q336 505 291 439L212 321H86L324 668H442L557 321Z" glyph-name="asciicircum" horiz-adv-x="531" unicode="^" /><glyph d="M222 200 168 226Q162 230 154 232.5Q146 235 138 235Q122 235 110 226Q98 217 94 195L41 218Q39 227 37.5 235.5Q36 244 36 253Q36 291 61 321.5Q86 352 129 352Q142 352 157 348Q172 344 187 337L226 318Q233 314 242 311.5Q251 309 260 309Q273 309 285.5 318Q298 327 304 349L361 323Q362 316 363 309Q364 302 364 295Q364 253 338 221Q312 189 272 189Q259 189 247 191.5Q235 194 222 200Z" glyph-name="asciitilde" horiz-adv-x="400" unicode="~" /><glyph d="M315 583 272 485 378 509 384 414 276 422 334 328 241 290 218 396 148 312 85 388 177 445 77 488 128 568 210 499 218 607Z" glyph-name="asterisk" horiz-adv-x="403" unicode="*" /><glyph d="M619 -12Q561 -12 531 10.5Q501 33 498 81Q482 29 447 8.5Q412 -12 365 -12Q300 -12 261.5 33.5Q223 79 223 163Q223 275 281.5 341.5Q340 408 418 408Q461 408 492 385.5Q523 363 530 323L571 402H670L615 116Q609 86 621 72.5Q633 59 659 59Q700 59 734 111Q768 163 768 255Q768 396 678 465Q588 534 460 534Q329 534 226.5 446Q124 358 124 192Q124 33 221.5 -52Q319 -137 479 -137Q533 -137 576.5 -130Q620 -123 676 -104L692 -171Q637 -189 580.5 -195.5Q524 -202 478 -202Q268 -202 156.5 -94Q45 14 45 192Q45 372 163 484.5Q281 597 461 597Q648 597 746.5 499Q845 401 845 264Q845 163 795.5 75.5Q746 -12 619 -12ZM499 176 508 219Q515 258 499 281.5Q483 305 450 305Q407 305 381.5 267.5Q356 230 356 173Q356 134 370 112.5Q384 91 416 91Q444 91 467 110.5Q490 130 499 176Z" glyph-name="at" horiz-adv-x="890" unicode="@" /><glyph d="M330 192 345 269Q352 308 340.5 339.5Q329 371 290 371Q233 371 203 313.5Q173 256 173 185Q173 145 189.5 117Q206 89 240 89Q279 89 301 118.5Q323 148 330 192ZM514 462 459 145Q456 129 460.5 116.5Q465 104 487 104Q493 104 500 105Q507 106 516 108L495 7Q478 2 459 -1.5Q440 -5 422 -5Q373 -5 346.5 14.5Q320 34 316 78Q300 29 264 8.5Q228 -12 185 -12Q111 -12 71.5 39Q32 90 32 177Q32 295 90.5 384Q149 473 251 473Q300 473 330.5 452Q361 431 365 385L393 462ZM390 521Q360 521 344.5 528.5Q329 536 312 547Q293 559 282 565.5Q271 572 259 572Q243 572 232 558.5Q221 545 220 520H145Q129 589 164.5 632.5Q200 676 254 676Q280 676 295.5 669.5Q311 663 324 654Q344 641 356 633.5Q368 626 381 626Q395 626 405 637Q415 648 416 674H493Q511 605 480.5 563Q450 521 390 521Z" glyph-name="atilde" horiz-adv-x="560" unicode="&#227;" /><glyph d="M176 70 137 0H32L150 668H286L233 373Q252 422 288 447.5Q324 473 378 473Q446 473 489.5 426Q533 379 533 280Q533 158 471 73Q409 -12 299 -12Q253 -12 218 9Q183 30 176 70ZM212 253 201 192Q194 149 211 116Q228 83 269 83Q326 83 356.5 140.5Q387 198 387 268Q387 317 366 343Q345 369 310 369Q276 369 249 339.5Q222 310 212 253Z" glyph-name="b" horiz-adv-x="565" unicode="b" /><glyph d="M192 668 312 -203H206L84 668Z" glyph-name="backslash" horiz-adv-x="370" unicode="\" /><glyph d="M104 -203H-3L150 668H257Z" glyph-name="bar" horiz-adv-x="253" unicode="|" /><glyph d="M167 231 166 227Q206 223 232 201Q258 179 247 117L220 -39Q215 -72 221.5 -89Q228 -106 257 -106Q277 -106 290 -102Q303 -98 322 -89L328 -181Q302 -196 270.5 -203Q239 -210 202 -210Q121 -210 98.5 -167Q76 -124 87 -63L116 101Q124 148 107 163Q90 178 61 178H20L37 279H78Q107 279 130 294.5Q153 310 162 356L190 521Q201 582 238.5 625Q276 668 357 668Q395 668 423 661Q451 654 472 639L434 546Q418 556 406.5 560Q395 564 375 564Q346 564 333 546.5Q320 529 314 497L287 341Q276 276 241.5 255Q207 234 167 231Z" glyph-name="braceleft" horiz-adv-x="417" unicode="{" /><glyph d="M249 227 250 231Q210 235 184 257Q158 279 169 341L196 497Q201 529 194.5 546.5Q188 564 159 564Q139 564 126 560Q113 556 94 546L88 639Q114 654 145.5 661Q177 668 214 668Q295 668 317.5 625Q340 582 329 521L300 356Q292 310 309 294.5Q326 279 355 279H396L379 178H338Q309 178 286 163Q263 148 254 101L226 -63Q215 -124 177.5 -167Q140 -210 59 -210Q21 -210 -7 -203Q-35 -196 -56 -181L-18 -89Q-2 -98 9.5 -102Q21 -106 41 -106Q70 -106 83 -89Q96 -72 102 -39L129 117Q140 182 174.5 202.5Q209 223 249 227Z" glyph-name="braceright" horiz-adv-x="417" unicode="}" /><glyph d="M280 568 162 -104H305L288 -203H8L161 668H441L423 568Z" glyph-name="bracketleft" horiz-adv-x="375" unicode="[" /><glyph d="M90 -103 209 569H66L83 668H363L210 -203H-70L-53 -103Z" glyph-name="bracketright" horiz-adv-x="375" unicode="]" /><glyph d="M214 520Q136 520 108 566Q80 612 92 678H191Q187 650 193 633Q199 616 231 616Q262 616 274.5 633Q287 650 293 678H392Q381 612 336.5 566Q292 520 214 520Z" glyph-name="breve" horiz-adv-x="464" unicode="&#728;" /><glyph d="M217 642Q139 642 110 683Q81 724 94 791H193Q189 764 197.5 750Q206 736 234 736Q263 736 276 750Q289 764 294 791H394Q381 724 338 683Q295 642 217 642Z" glyph-name="breve.cap" horiz-adv-x="465" /><glyph d="M59 257Q59 306 94 341Q129 376 177 376Q226 376 261 341Q296 306 296 257Q296 208 261 173Q226 138 177 138Q129 138 94 173Q59 208 59 257Z" glyph-name="bullet" horiz-adv-x="361" unicode="&#8226;" /><glyph d="M319 164 451 143Q429 70 376.5 29Q324 -12 236 -12Q144 -12 88 39.5Q32 91 32 184Q32 296 96 384.5Q160 473 292 473Q385 473 427 422.5Q469 372 469 303L336 280Q337 309 325 337.5Q313 366 279 366Q232 366 204 313.5Q176 261 176 191Q176 139 195 115Q214 91 246 91Q274 91 292.5 109.5Q311 128 319 164Z" glyph-name="c" horiz-adv-x="481" unicode="c" /><glyph d="M319 164 451 143Q429 70 376.5 29Q324 -12 236 -12Q144 -12 88 39.5Q32 91 32 184Q32 296 96 384.5Q160 473 292 473Q385 473 427 422.5Q469 372 469 303L336 280Q337 309 325 337.5Q313 366 279 366Q232 366 204 313.5Q176 261 176 191Q176 139 195 115Q214 91 246 91Q274 91 292.5 109.5Q311 128 319 164ZM353 526H231L301 679H470Z" glyph-name="cacute" horiz-adv-x="481" unicode="&#263;" /><glyph d="M272 524H187L80 683H201L226 648Q237 632 238.5 623.5Q240 615 240 615H245Q245 615 249.5 623.5Q254 632 271 648L308 683H434Z" glyph-name="caron" horiz-adv-x="514" unicode="&#711;" /><glyph d="M273 647H188L80 792H201L226 761Q236 748 238.5 739.5Q241 731 241 731H245Q245 731 250 739.5Q255 748 270 761L307 792H434Z" glyph-name="caron.cap" horiz-adv-x="514" /><glyph d="M233 668 176 474H80L95 668Z" glyph-name="caronSlovak" horiz-adv-x="313" unicode="&#58387;" /><glyph d="M319 164 451 143Q429 70 376.5 29Q324 -12 236 -12Q144 -12 88 39.5Q32 91 32 184Q32 296 96 384.5Q160 473 292 473Q385 473 427 422.5Q469 372 469 303L336 280Q337 309 325 337.5Q313 366 279 366Q232 366 204 313.5Q176 261 176 191Q176 139 195 115Q214 91 246 91Q274 91 292.5 109.5Q311 128 319 164ZM335 524H250L143 683H264L289 648Q300 632 301.5 623.5Q303 615 303 615H308Q308 615 312.5 623.5Q317 632 334 648L371 683H497Z" glyph-name="ccaron" horiz-adv-x="481" unicode="&#269;" /><glyph d="M289 -118Q289 -165 255 -188Q221 -211 173 -211Q138 -211 110 -201Q82 -191 68 -175L94 -111Q109 -129 125.5 -137.5Q142 -146 156 -146Q172 -146 180.5 -139.5Q189 -133 189 -120Q189 -104 178 -94Q167 -84 142 -80L172 -4Q108 11 70 59Q32 107 32 184Q32 296 96 384.5Q160 473 292 473Q385 473 427 422.5Q469 372 469 303L336 280Q337 309 325 337.5Q313 366 279 366Q232 366 204 313.5Q176 261 176 191Q176 139 195 115Q214 91 246 91Q274 91 292.5 109.5Q311 128 319 164L451 143Q429 70 376.5 29Q324 -12 236 -12Q232 -12 228.5 -12Q225 -12 221 -11L210 -36Q250 -43 269.5 -61.5Q289 -80 289 -118Z" glyph-name="ccedilla" horiz-adv-x="481" unicode="&#231;" /><glyph d="M319 164 451 143Q429 70 376.5 29Q324 -12 236 -12Q144 -12 88 39.5Q32 91 32 184Q32 296 96 384.5Q160 473 292 473Q385 473 427 422.5Q469 372 469 303L336 280Q337 309 325 337.5Q313 366 279 366Q232 366 204 313.5Q176 261 176 191Q176 139 195 115Q214 91 246 91Q274 91 292.5 109.5Q311 128 319 164ZM278 683H363L470 524H349L324 558Q313 574 311.5 582.5Q310 591 310 591H305Q305 591 300.5 582.5Q296 574 279 558L242 524H116Z" glyph-name="ccircumflex" horiz-adv-x="481" unicode="&#265;" /><glyph d="M319 164 451 143Q429 70 376.5 29Q324 -12 236 -12Q144 -12 88 39.5Q32 91 32 184Q32 296 96 384.5Q160 473 292 473Q385 473 427 422.5Q469 372 469 303L336 280Q337 309 325 337.5Q313 366 279 366Q232 366 204 313.5Q176 261 176 191Q176 139 195 115Q214 91 246 91Q274 91 292.5 109.5Q311 128 319 164ZM226 598Q226 636 250 656Q274 676 307 676Q344 676 367.5 656Q391 636 391 598Q391 561 367.5 541.5Q344 522 307 522Q274 522 250 541.5Q226 561 226 598Z" glyph-name="cdotaccent" horiz-adv-x="481" unicode="&#267;" /><glyph d="M178 202Q178 165 192 138.5Q206 112 233 102L282 384Q234 377 206 326.5Q178 276 178 202ZM365 175 474 110Q440 51 389.5 20.5Q339 -10 262 -12L246 -106H196L213 -10Q137 0 89.5 51.5Q42 103 42 194Q42 310 107.5 398.5Q173 487 301 491L316 574H366L351 490Q426 482 460.5 444Q495 406 507 352L378 307Q376 330 365 349.5Q354 369 332 378L282 98Q313 102 331.5 123Q350 144 365 175Z" glyph-name="cent" horiz-adv-x="509" unicode="&#162;" /><glyph d="M242 683H327L434 524H313L288 558Q277 574 275.5 582.5Q274 591 274 591H269Q269 591 264.5 582.5Q260 574 243 558L206 524H80Z" glyph-name="circumflex" horiz-adv-x="514" unicode="&#710;" /><glyph d="M241 792H326L434 647H313L288 678Q278 691 275.5 699.5Q273 708 273 708H269Q269 708 264 699.5Q259 691 244 678L207 647H80Z" glyph-name="circumflex.cap" horiz-adv-x="514" /><glyph d="M92 400Q92 438 116.5 463Q141 488 176 488Q213 488 238.5 463Q264 438 264 400Q264 365 238.5 340.5Q213 316 176 316Q141 316 116.5 340.5Q92 365 92 400ZM34 79Q34 116 58.5 141.5Q83 167 118 167Q156 167 181 141.5Q206 116 206 79Q206 44 181 19.5Q156 -5 118 -5Q83 -5 58.5 19.5Q34 44 34 79Z" glyph-name="colon" horiz-adv-x="292" unicode=":" /><glyph d="M210 51Q210 -42 146 -81Q82 -120 1 -121V-66Q48 -64 85.5 -43.5Q123 -23 123 13Q89 8 61 25Q33 42 33 82Q33 121 58.5 140.5Q84 160 118 160Q160 160 185 130Q210 100 210 51Z" glyph-name="comma" horiz-adv-x="292" unicode="," /><glyph d="M273 -136Q273 -197 228 -226Q183 -255 117 -255V-210Q149 -209 172.5 -201Q196 -193 196 -172Q168 -176 147.5 -162Q127 -148 127 -117Q127 -84 147.5 -68Q168 -52 196 -52Q230 -52 251.5 -74Q273 -96 273 -136Z" glyph-name="commaaccent" horiz-adv-x="354" unicode="&#58388;" /><glyph d="M80 730Q80 790 125 819.5Q170 849 236 849V804Q204 803 180.5 795Q157 787 157 765Q185 770 205.5 756Q226 742 226 710Q226 677 205.5 661Q185 645 157 645Q123 645 101.5 667.5Q80 690 80 730Z" glyph-name="commaaccent.cap" horiz-adv-x="354" /><glyph d="M55 294Q55 427 145 514Q235 601 361 601Q487 601 577.5 514Q668 427 668 294Q668 161 577.5 74.5Q487 -12 361 -12Q235 -12 145 74.5Q55 161 55 294ZM86 294Q86 172 168 94.5Q250 17 363 17Q476 17 557 94.5Q638 172 638 294Q638 415 557 493.5Q476 572 363 572Q250 572 168 493.5Q86 415 86 294ZM428 247 517 194Q489 147 447.5 122.5Q406 98 343 98Q271 98 224.5 139Q178 180 178 259Q178 351 231 421Q284 491 390 491Q466 491 499.5 459Q533 427 543 380L438 344Q437 367 423.5 382.5Q410 398 381 398Q338 398 313.5 358.5Q289 319 289 266Q289 232 305.5 209.5Q322 187 355 187Q384 187 400.5 204.5Q417 222 428 247Z" glyph-name="copyright" horiz-adv-x="698" unicode="&#169;" /><glyph d="M336 192 350 269Q357 308 345 339.5Q333 371 290 371Q233 371 203 313.5Q173 256 173 185Q173 145 189.5 117Q206 89 240 89Q279 89 303 115.5Q327 142 336 192ZM555 668 465 145Q462 129 466 116.5Q470 104 492 104Q499 104 506 105Q513 106 522 108L501 7Q484 2 464.5 -1.5Q445 -5 428 -5Q378 -5 352 14.5Q326 34 322 78Q306 29 267 8.5Q228 -12 185 -12Q111 -12 71.5 39Q32 90 32 177Q32 295 91 384Q150 473 256 473Q302 473 334 452Q366 431 370 385L419 668Z" glyph-name="d" horiz-adv-x="565" unicode="d" /><glyph d="M265 254 84 243 106 365 282 355 313 589H446L395 355L576 365L554 243L378 254L317 -150H184Z" glyph-name="dagger" horiz-adv-x="554" unicode="&#8224;" /><glyph d="M385 296 361 158 541 168 520 47 343 58 317 -150H185L232 58L50 47L71 168L249 158L273 296L92 285L113 408L291 397L314 589H447L403 397L584 408L562 285Z" glyph-name="daggerdbl" horiz-adv-x="554" unicode="&#8225;" /><glyph d="M752 692 695 514H599L614 692ZM336 192 350 269Q357 308 345 339.5Q333 371 290 371Q233 371 203 313.5Q173 256 173 185Q173 145 189.5 117Q206 89 240 89Q279 89 303 115.5Q327 142 336 192ZM555 668 465 145Q462 129 466 116.5Q470 104 492 104Q499 104 506 105Q513 106 522 108L501 7Q484 2 464.5 -1.5Q445 -5 428 -5Q378 -5 352 14.5Q326 34 322 78Q306 29 267 8.5Q228 -12 185 -12Q111 -12 71.5 39Q32 90 32 177Q32 295 91 384Q150 473 256 473Q302 473 334 452Q366 431 370 385L419 668Z" glyph-name="dcaron" horiz-adv-x="565" unicode="&#271;" /><glyph d="M47 466Q47 521 84.5 561Q122 601 184 601Q236 601 267.5 568Q299 535 299 489Q299 432 261.5 392.5Q224 353 164 353Q105 353 76 385.5Q47 418 47 466ZM180 538Q152 538 135 518Q118 498 118 470Q118 446 131 431Q144 416 168 416Q198 416 214 437Q230 458 230 485Q230 507 217 522.5Q204 538 180 538Z" glyph-name="degree" horiz-adv-x="302" unicode="&#176;" /><glyph d="M298 596Q298 633 320 652Q342 671 372 671Q404 671 426 652Q448 633 448 596Q448 559 426 540Q404 521 372 521Q342 521 320 540Q298 559 298 596ZM80 596Q80 633 102 652Q124 671 154 671Q187 671 208.5 652Q230 633 230 596Q230 560 208.5 540.5Q187 521 154 521Q124 521 102 540.5Q80 560 80 596Z" glyph-name="dieresis" horiz-adv-x="528" unicode="&#168;" /><glyph d="M298 723Q298 760 320 779Q342 798 372 798Q404 798 426 779Q448 760 448 723Q448 686 426 667Q404 648 372 648Q342 648 320 667Q298 686 298 723ZM80 723Q80 760 102 779Q124 798 154 798Q187 798 208.5 779Q230 760 230 723Q230 687 208.5 667.5Q187 648 154 648Q124 648 102 667.5Q80 687 80 723Z" glyph-name="dieresis.cap" horiz-adv-x="528" /><glyph d="M228 405Q228 429 244 445.5Q260 462 284 462Q307 462 323.5 445.5Q340 429 340 405Q340 382 323.5 366Q307 350 284 350Q260 350 244 366Q228 382 228 405ZM448 211H40L53 285H461ZM152 85Q152 108 168 125Q184 142 208 142Q231 142 247.5 125Q264 108 264 85Q264 63 247.5 46.5Q231 30 208 30Q184 30 168 46.5Q152 63 152 85Z" glyph-name="divide" horiz-adv-x="501" unicode="&#247;" /><glyph d="M186 354Q186 339 194 327.5Q202 316 228 306L246 405Q215 402 200.5 389Q186 376 186 354ZM298 123Q298 140 288 150.5Q278 161 254 171L237 72Q265 75 281.5 86.5Q298 98 298 123ZM11 121 119 156Q122 124 141 103Q160 82 187 75L207 187Q204 188 200.5 189.5Q197 191 195 192Q124 214 95.5 246.5Q67 279 67 333Q67 419 128.5 454.5Q190 490 261 492L275 574H325L310 490Q382 483 422.5 448Q463 413 463 358L347 330Q347 355 334 374.5Q321 394 295 401L275 289L285 287Q363 265 392.5 230.5Q422 196 422 143Q422 65 363.5 28Q305 -9 221 -12L205 -106H155L172 -10Q101 -4 57.5 29.5Q14 63 11 121Z" glyph-name="dollar" horiz-adv-x="479" unicode="$" /><glyph d="M80 598Q80 636 104 656Q128 676 161 676Q198 676 221.5 656Q245 636 245 598Q245 561 221.5 541.5Q198 522 161 522Q128 522 104 541.5Q80 561 80 598Z" glyph-name="dotaccent" horiz-adv-x="325" unicode="&#729;" /><glyph d="M80 731Q80 769 103.5 789Q127 809 161 809Q197 809 221 789Q245 769 245 731Q245 694 221 674.5Q197 655 161 655Q127 655 103.5 674.5Q80 694 80 731Z" glyph-name="dotaccent.cap" horiz-adv-x="325" /><glyph d="M245 462 190 145Q187 129 191 116.5Q195 104 217 104Q224 104 231 105Q238 106 247 108L226 7Q209 2 189.5 -1.5Q170 -5 153 -5Q89 -5 64 28Q39 61 49 123L109 462Z" glyph-name="dotlessi" horiz-adv-x="283" unicode="&#305;" /><glyph d="M238 462 146 -61Q131 -146 85 -178.5Q39 -211 -36 -211Q-72 -211 -102 -203Q-132 -195 -152 -183L-115 -84Q-101 -95 -85 -102.5Q-69 -110 -48 -110Q-23 -110 -8 -95.5Q7 -81 14 -37L102 462Z" glyph-name="dotlessj" horiz-adv-x="251" unicode="&#567;" /><glyph d="M245 91Q276 91 294.5 105Q313 119 322 153L449 123Q428 53 376.5 20.5Q325 -12 234 -12Q138 -12 85 42.5Q32 97 32 188Q32 325 108.5 399Q185 473 282 473Q380 473 425.5 421.5Q471 370 471 306Q471 279 466 253Q461 227 451 208H173Q165 159 184 125Q203 91 245 91ZM188 282H333Q334 287 334.5 293Q335 299 335 306Q335 334 322 354Q309 374 276 374Q241 374 219 346.5Q197 319 188 282Z" glyph-name="e" horiz-adv-x="493" unicode="e" /><glyph d="M245 91Q276 91 294.5 105Q313 119 322 153L449 123Q428 53 376.5 20.5Q325 -12 234 -12Q138 -12 85 42.5Q32 97 32 188Q32 325 108.5 399Q185 473 282 473Q380 473 425.5 421.5Q471 370 471 306Q471 279 466 253Q461 227 451 208H173Q165 159 184 125Q203 91 245 91ZM188 282H333Q334 287 334.5 293Q335 299 335 306Q335 334 322 354Q309 374 276 374Q241 374 219 346.5Q197 319 188 282ZM345 526H223L293 679H462Z" glyph-name="eacute" horiz-adv-x="493" unicode="&#233;" /><glyph d="M245 91Q276 91 294.5 105Q313 119 322 153L449 123Q428 53 376.5 20.5Q325 -12 234 -12Q138 -12 85 42.5Q32 97 32 188Q32 325 108.5 399Q185 473 282 473Q380 473 425.5 421.5Q471 370 471 306Q471 279 466 253Q461 227 451 208H173Q165 159 184 125Q203 91 245 91ZM188 282H333Q334 287 334.5 293Q335 299 335 306Q335 334 322 354Q309 374 276 374Q241 374 219 346.5Q197 319 188 282ZM287 520Q209 520 181 566Q153 612 165 678H264Q260 650 266 633Q272 616 304 616Q335 616 347.5 633Q360 650 366 678H465Q454 612 409.5 566Q365 520 287 520Z" glyph-name="ebreve" horiz-adv-x="493" unicode="&#277;" /><glyph d="M245 91Q276 91 294.5 105Q313 119 322 153L449 123Q428 53 376.5 20.5Q325 -12 234 -12Q138 -12 85 42.5Q32 97 32 188Q32 325 108.5 399Q185 473 282 473Q380 473 425.5 421.5Q471 370 471 306Q471 279 466 253Q461 227 451 208H173Q165 159 184 125Q203 91 245 91ZM188 282H333Q334 287 334.5 293Q335 299 335 306Q335 334 322 354Q309 374 276 374Q241 374 219 346.5Q197 319 188 282ZM327 524H242L135 683H256L281 648Q292 632 293.5 623.5Q295 615 295 615H300Q300 615 304.5 623.5Q309 632 326 648L363 683H489Z" glyph-name="ecaron" horiz-adv-x="493" unicode="&#283;" /><glyph d="M245 91Q276 91 294.5 105Q313 119 322 153L449 123Q428 53 376.5 20.5Q325 -12 234 -12Q138 -12 85 42.5Q32 97 32 188Q32 325 108.5 399Q185 473 282 473Q380 473 425.5 421.5Q471 370 471 306Q471 279 466 253Q461 227 451 208H173Q165 159 184 125Q203 91 245 91ZM188 282H333Q334 287 334.5 293Q335 299 335 306Q335 334 322 354Q309 374 276 374Q241 374 219 346.5Q197 319 188 282ZM270 683H355L462 524H341L316 558Q305 574 303.5 582.5Q302 591 302 591H297Q297 591 292.5 582.5Q288 574 271 558L234 524H108Z" glyph-name="ecircumflex" horiz-adv-x="493" unicode="&#234;" /><glyph d="M245 91Q276 91 294.5 105Q313 119 322 153L449 123Q428 53 376.5 20.5Q325 -12 234 -12Q138 -12 85 42.5Q32 97 32 188Q32 325 108.5 399Q185 473 282 473Q380 473 425.5 421.5Q471 370 471 306Q471 279 466 253Q461 227 451 208H173Q165 159 184 125Q203 91 245 91ZM188 282H333Q334 287 334.5 293Q335 299 335 306Q335 334 322 354Q309 374 276 374Q241 374 219 346.5Q197 319 188 282ZM333 596Q333 633 355 652Q377 671 407 671Q439 671 461 652Q483 633 483 596Q483 559 461 540Q439 521 407 521Q377 521 355 540Q333 559 333 596ZM115 596Q115 633 137 652Q159 671 189 671Q222 671 243.5 652Q265 633 265 596Q265 560 243.5 540.5Q222 521 189 521Q159 521 137 540.5Q115 560 115 596Z" glyph-name="edieresis" horiz-adv-x="493" unicode="&#235;" /><glyph d="M245 91Q276 91 294.5 105Q313 119 322 153L449 123Q428 53 376.5 20.5Q325 -12 234 -12Q138 -12 85 42.5Q32 97 32 188Q32 325 108.5 399Q185 473 282 473Q380 473 425.5 421.5Q471 370 471 306Q471 279 466 253Q461 227 451 208H173Q165 159 184 125Q203 91 245 91ZM188 282H333Q334 287 334.5 293Q335 299 335 306Q335 334 322 354Q309 374 276 374Q241 374 219 346.5Q197 319 188 282ZM218 598Q218 636 242 656Q266 676 299 676Q336 676 359.5 656Q383 636 383 598Q383 561 359.5 541.5Q336 522 299 522Q266 522 242 541.5Q218 561 218 598Z" glyph-name="edotaccent" horiz-adv-x="493" unicode="&#279;" /><glyph d="M245 91Q276 91 294.5 105Q313 119 322 153L449 123Q428 53 376.5 20.5Q325 -12 234 -12Q138 -12 85 42.5Q32 97 32 188Q32 325 108.5 399Q185 473 282 473Q380 473 425.5 421.5Q471 370 471 306Q471 279 466 253Q461 227 451 208H173Q165 159 184 125Q203 91 245 91ZM188 282H333Q334 287 334.5 293Q335 299 335 306Q335 334 322 354Q309 374 276 374Q241 374 219 346.5Q197 319 188 282ZM357 526H235L118 679H286Z" glyph-name="egrave" horiz-adv-x="493" unicode="&#232;" /><glyph d="M235 -12Q132 -12 81 33.5Q30 79 30 141Q30 208 72.5 250Q115 292 177 302V306Q134 318 109 349Q84 380 84 422Q84 517 153.5 559Q223 601 311 601Q399 601 451.5 559Q504 517 504 452Q504 389 467 348.5Q430 308 373 298L372 294Q418 281 447 247Q476 213 476 164Q475 64 398 26Q321 -12 235 -12ZM301 506Q260 506 237 479Q214 452 214 417Q214 384 234 367Q254 350 281 350Q322 350 347 376Q372 402 372 440Q372 467 354 486.5Q336 506 301 506ZM267 249Q224 249 194.5 224Q165 199 165 159Q165 129 185.5 108.5Q206 88 243 88Q290 88 317.5 112.5Q345 137 345 179Q345 211 322.5 230Q300 249 267 249Z" glyph-name="eight" horiz-adv-x="524" unicode="8" /><glyph d="M618 79Q618 116 642.5 141.5Q667 167 702 167Q740 167 765 141.5Q790 116 790 79Q790 44 765 19.5Q740 -5 702 -5Q667 -5 642.5 19.5Q618 44 618 79ZM326 79Q326 116 350.5 141.5Q375 167 410 167Q448 167 473 141.5Q498 116 498 79Q498 44 473 19.5Q448 -5 410 -5Q375 -5 350.5 19.5Q326 44 326 79ZM34 79Q34 116 58.5 141.5Q83 167 118 167Q156 167 181 141.5Q206 116 206 79Q206 44 181 19.5Q156 -5 118 -5Q83 -5 58.5 19.5Q34 44 34 79Z" glyph-name="ellipsis" horiz-adv-x="876" unicode="&#8230;" /><glyph d="M245 91Q276 91 294.5 105Q313 119 322 153L449 123Q428 53 376.5 20.5Q325 -12 234 -12Q138 -12 85 42.5Q32 97 32 188Q32 325 108.5 399Q185 473 282 473Q380 473 425.5 421.5Q471 370 471 306Q471 279 466 253Q461 227 451 208H173Q165 159 184 125Q203 91 245 91ZM188 282H333Q334 287 334.5 293Q335 299 335 306Q335 334 322 354Q309 374 276 374Q241 374 219 346.5Q197 319 188 282ZM439 539H145L165 647H459Z" glyph-name="emacron" horiz-adv-x="493" unicode="&#275;" /><glyph d="M62 210 78 299H954L938 210Z" glyph-name="emdash" horiz-adv-x="1016" unicode="&#8212;" /><glyph d="M62 210 78 299H454L438 210Z" glyph-name="endash" horiz-adv-x="516" unicode="&#8211;" /><glyph d="M495 316 430 -61Q415 -146 368.5 -178.5Q322 -211 247 -211Q212 -211 181.5 -203Q151 -195 131 -183L169 -84Q182 -95 198 -102.5Q214 -110 235 -110Q260 -110 275 -95.5Q290 -81 297 -37L354 283Q359 317 349.5 339.5Q340 362 304 362Q275 362 248.5 335Q222 308 211 247L168 0H32L113 462H232V368Q254 419 288.5 446Q323 473 379 473Q433 473 465.5 441.5Q498 410 498 357Q498 346 497 336.5Q496 327 495 316Z" glyph-name="eng" horiz-adv-x="534" unicode="&#331;" /><glyph d="M152 -108Q152 -78 163.5 -53Q175 -28 193 -9Q117 1 74.5 54Q32 107 32 188Q32 325 108.5 399Q185 473 282 473Q380 473 425.5 421.5Q471 370 471 306Q471 279 466 253Q461 227 451 208H173Q165 159 184 125Q203 91 245 91Q276 91 294.5 105Q313 119 322 153L449 123Q433 70 398.5 42.5Q364 15 315 -4Q287 -14 273 -33.5Q259 -53 259 -81Q259 -100 269.5 -112Q280 -124 297 -124Q315 -124 328 -117.5Q341 -111 357 -95L386 -163Q364 -188 334 -199.5Q304 -211 268 -211Q220 -211 186 -186.5Q152 -162 152 -108ZM188 282H333Q334 287 334.5 293Q335 299 335 306Q335 334 322 354Q309 374 276 374Q241 374 219 346.5Q197 319 188 282Z" glyph-name="eogonek" horiz-adv-x="493" unicode="&#281;" /><glyph d="M474 283H66L80 358H488ZM448 134H40L54 209H462Z" glyph-name="equal" horiz-adv-x="528" unicode="=" /><glyph d="M127 472 113 523 230 559Q199 576 164 589.5Q129 603 91 613L217 676Q261 664 299 645.5Q337 627 368 602L472 634L487 585L410 560Q450 512 472 446Q494 380 494 296Q494 167 430 77.5Q366 -12 239 -12Q151 -12 91.5 38Q32 88 32 190Q32 301 94.5 381.5Q157 462 258 462Q298 462 321.5 446Q345 430 356 406H360Q351 439 332 468Q313 497 285 521ZM279 359Q230 359 202.5 307.5Q175 256 175 184Q175 138 194 114Q213 90 247 90Q296 90 324 140.5Q352 191 352 266Q352 312 332.5 335.5Q313 359 279 359Z" glyph-name="eth" horiz-adv-x="526" unicode="&#240;" /><glyph d="M116 589H281L166 198H77ZM16 72Q16 107 40 128.5Q64 150 98 150Q134 150 158 128.5Q182 107 182 72Q182 37 158 16Q134 -5 98 -5Q64 -5 40 16Q16 37 16 72Z" glyph-name="exclam" horiz-adv-x="266" unicode="!" /><glyph d="M246 390Q246 355 221.5 333.5Q197 312 163 312Q127 312 103 333.5Q79 355 79 390Q79 425 103 446Q127 467 163 467Q197 467 221.5 446Q246 425 246 390ZM145 -127H-20L95 264H184Z" glyph-name="exclamdown" horiz-adv-x="266" unicode="&#161;" /><glyph d="M32 -69 107 359H38L56 462H125L132 504Q147 596 203.5 636Q260 676 332 676Q366 676 396.5 669.5Q427 663 456 649L415 539Q398 551 378.5 557.5Q359 564 337 564Q306 564 290.5 548.5Q275 533 269 504L261 462H378L360 359H243L166 -77Q153 -152 118 -181.5Q83 -211 14 -211Q-16 -211 -39 -205.5Q-62 -200 -82 -188L-57 -92Q-43 -102 -32 -106Q-21 -110 -10 -110Q9 -110 18.5 -100.5Q28 -91 32 -69Z" glyph-name="f" horiz-adv-x="344" unicode="f" /><glyph d="M516 253 504 190Q497 147 514 114Q531 81 572 81Q629 81 659.5 138.5Q690 196 690 267Q690 317 669 343Q648 369 613 369Q579 369 552.5 339.5Q526 310 516 253ZM335 0 433 555Q417 565 397.5 570.5Q378 576 359 576Q325 576 300.5 558Q276 540 268 500L261 462H346L328 359H243L166 -77Q153 -152 118 -181.5Q83 -211 14 -211Q-16 -211 -39 -205.5Q-62 -200 -82 -188L-57 -92Q-43 -102 -32 -106Q-21 -110 -10 -110Q9 -110 18.5 -100.5Q28 -91 32 -69L107 359H38L56 462H125L133 504Q150 597 210.5 636.5Q271 676 343 676Q376 676 405 670Q434 664 459 653L589 668L536 373Q556 422 591.5 447.5Q627 473 681 473Q749 473 792.5 426Q836 379 836 280Q836 158 774 73Q712 -12 602 -12Q556 -12 521 9Q486 30 479 70L440 0Z" glyph-name="f_b" horiz-adv-x="868" unicode="&#58241;" /><glyph d="M807 253 796 190Q789 147 805.5 114Q822 81 863 81Q920 81 950.5 138.5Q981 196 981 267Q981 317 960 343Q939 369 904 369Q870 369 843.5 339.5Q817 310 807 253ZM626 0 724 555Q708 565 689 570.5Q670 576 650 576Q616 576 591.5 558Q567 540 559 500L552 462H637L619 359H534L459 -64Q446 -139 410.5 -168.5Q375 -198 306 -198Q277 -198 253.5 -192.5Q230 -187 210 -175L236 -79Q250 -89 260.5 -93Q271 -97 283 -97Q301 -97 311 -87.5Q321 -78 325 -56L398 359H243L166 -77Q153 -152 118 -181.5Q83 -211 14 -211Q-16 -211 -39 -205.5Q-62 -200 -82 -188L-57 -92Q-43 -102 -32 -106Q-21 -110 -10 -110Q9 -110 18.5 -100.5Q28 -91 32 -69L107 359H38L56 462H125L131 499Q146 589 192.5 628.5Q239 668 306 668Q339 668 362.5 662.5Q386 657 412 641L371 531Q359 544 348 550Q337 556 322 556Q300 556 288 543.5Q276 531 270 504L261 462H416L424 504Q441 597 501.5 636.5Q562 676 634 676Q667 676 696 670Q725 664 750 653L880 668L827 373Q847 422 882.5 447.5Q918 473 973 473Q1040 473 1084 426Q1128 379 1128 280Q1128 158 1065.5 73Q1003 -12 893 -12Q847 -12 812 9Q777 30 770 70L732 0Z" glyph-name="f_f_b" horiz-adv-x="1160" unicode="&#58242;" /><glyph d="M626 0 724 555Q708 565 689 570.5Q670 576 650 576Q616 576 591.5 558Q567 540 559 500L552 462H637L619 359H534L459 -64Q446 -139 410.5 -168.5Q375 -198 306 -198Q277 -198 253.5 -192.5Q230 -187 210 -175L236 -79Q250 -89 260.5 -93Q271 -97 283 -97Q301 -97 311 -87.5Q321 -78 325 -56L398 359H243L166 -77Q153 -152 118 -181.5Q83 -211 14 -211Q-16 -211 -39 -205.5Q-62 -200 -82 -188L-57 -92Q-43 -102 -32 -106Q-21 -110 -10 -110Q9 -110 18.5 -100.5Q28 -91 32 -69L107 359H38L56 462H125L131 499Q146 589 192.5 628.5Q239 668 306 668Q339 668 362.5 662.5Q386 657 412 641L371 531Q359 544 348 550Q337 556 322 556Q300 556 288 543.5Q276 531 270 504L261 462H416L424 504Q441 597 501.5 636.5Q562 676 634 676Q667 676 696 670Q725 664 750 653L880 668L827 368Q849 419 883 446Q917 473 974 473Q1028 473 1060 441.5Q1092 410 1092 357Q1092 346 1091.5 336.5Q1091 327 1089 316L1061 145Q1058 129 1062 116.5Q1066 104 1088 104Q1095 104 1102 105Q1109 106 1118 108L1097 7Q1080 2 1061 -1.5Q1042 -5 1024 -5Q961 -5 935.5 28Q910 61 920 123L948 283Q954 317 944 339.5Q934 362 898 362Q869 362 842.5 335Q816 308 805 247L762 0Z" glyph-name="f_f_h" horiz-adv-x="1155" unicode="&#58243;" /><glyph d="M689 359H534L459 -64Q446 -139 410.5 -168.5Q375 -198 306 -198Q277 -198 253.5 -192.5Q230 -187 210 -175L236 -79Q250 -89 260.5 -93Q271 -97 283 -97Q301 -97 311 -87.5Q321 -78 325 -56L398 359H243L166 -77Q153 -152 118 -181.5Q83 -211 14 -211Q-16 -211 -39 -205.5Q-62 -200 -82 -188L-57 -92Q-43 -102 -32 -106Q-21 -110 -10 -110Q9 -110 18.5 -100.5Q28 -91 32 -69L107 359H38L56 462H125L131 499Q146 589 192.5 628.5Q239 668 306 668Q339 668 362.5 662.5Q386 657 412 641L371 531Q359 544 348 550Q337 556 322 556Q300 556 288 543.5Q276 531 270 504L261 462H416L425 503Q444 595 497 635.5Q550 676 629 676Q669 676 705.5 667Q742 658 771 641L729 528Q712 541 689.5 553Q667 565 639 565Q605 565 585.5 547.5Q566 530 559 493L552 462H843L750 -64Q737 -139 701.5 -168.5Q666 -198 597 -198Q568 -198 544.5 -192.5Q521 -187 502 -175L527 -79Q541 -89 551.5 -93Q562 -97 574 -97Q593 -97 602.5 -87.5Q612 -78 616 -56Z" glyph-name="f_f_j" horiz-adv-x="856" unicode="&#58244;" /><glyph d="M626 0 724 555Q708 565 689 570.5Q670 576 650 576Q616 576 591.5 558Q567 540 559 500L552 462H637L619 359H534L459 -64Q446 -139 410.5 -168.5Q375 -198 306 -198Q277 -198 253.5 -192.5Q230 -187 210 -175L236 -79Q250 -89 260.5 -93Q271 -97 283 -97Q301 -97 311 -87.5Q321 -78 325 -56L398 359H243L166 -77Q153 -152 118 -181.5Q83 -211 14 -211Q-16 -211 -39 -205.5Q-62 -200 -82 -188L-57 -92Q-43 -102 -32 -106Q-21 -110 -10 -110Q9 -110 18.5 -100.5Q28 -91 32 -69L107 359H38L56 462H125L131 499Q146 589 192.5 628.5Q239 668 306 668Q339 668 362.5 662.5Q386 657 412 641L371 531Q359 544 348 550Q337 556 322 556Q300 556 288 543.5Q276 531 270 504L261 462H416L424 504Q441 597 501.5 636.5Q562 676 634 676Q667 676 696 670Q725 664 750 653L880 668L815 301H838L982 462H1146L946 249L1004 135Q1017 109 1036 105Q1055 101 1086 110L1065 5Q1050 1 1033.5 -2Q1017 -5 994 -5Q960 -5 933.5 9.5Q907 24 888 65L828 199H797L762 0Z" glyph-name="f_f_k" horiz-adv-x="1119" unicode="&#58245;" /><glyph d="M335 0 433 555Q417 565 397.5 570.5Q378 576 359 576Q325 576 300.5 558Q276 540 268 500L261 462H346L328 359H243L166 -77Q153 -152 118 -181.5Q83 -211 14 -211Q-16 -211 -39 -205.5Q-62 -200 -82 -188L-57 -92Q-43 -102 -32 -106Q-21 -110 -10 -110Q9 -110 18.5 -100.5Q28 -91 32 -69L107 359H38L56 462H125L133 504Q150 597 210.5 636.5Q271 676 343 676Q376 676 405 670Q434 664 459 653L589 668L536 368Q558 419 592 446Q626 473 682 473Q736 473 768.5 441.5Q801 410 801 357Q801 346 800 336.5Q799 327 798 316L770 145Q767 129 771 116.5Q775 104 797 104Q804 104 811 105Q818 106 827 108L806 7Q789 2 769.5 -1.5Q750 -5 733 -5Q669 -5 644 28Q619 61 629 123L657 283Q662 317 652.5 339.5Q643 362 607 362Q578 362 551.5 335Q525 308 514 247L471 0Z" glyph-name="f_h" horiz-adv-x="864" unicode="&#58246;" /><glyph d="M552 462 459 -64Q446 -139 410.5 -168.5Q375 -198 306 -198Q277 -198 253.5 -192.5Q230 -187 210 -175L236 -79Q250 -89 260.5 -93Q271 -97 283 -97Q301 -97 311 -87.5Q321 -78 325 -56L398 359H243L166 -77Q153 -152 118 -181.5Q83 -211 14 -211Q-16 -211 -39 -205.5Q-62 -200 -82 -188L-57 -92Q-43 -102 -32 -106Q-21 -110 -10 -110Q9 -110 18.5 -100.5Q28 -91 32 -69L107 359H38L56 462H125L133 503Q152 595 205.5 635.5Q259 676 337 676Q377 676 414 667Q451 658 479 641L438 528Q421 541 398.5 553Q376 565 348 565Q314 565 294.5 547.5Q275 530 267 493L261 462Z" glyph-name="f_j" horiz-adv-x="565" unicode="&#58247;" /><glyph d="M335 0 433 555Q417 565 397.5 570.5Q378 576 359 576Q325 576 300.5 558Q276 540 268 500L261 462H346L328 359H243L166 -77Q153 -152 118 -181.5Q83 -211 14 -211Q-16 -211 -39 -205.5Q-62 -200 -82 -188L-57 -92Q-43 -102 -32 -106Q-21 -110 -10 -110Q9 -110 18.5 -100.5Q28 -91 32 -69L107 359H38L56 462H125L133 504Q150 597 210.5 636.5Q271 676 343 676Q376 676 405 670Q434 664 459 653L589 668L524 301H547L691 462H855L654 249L713 135Q726 109 745 105Q764 101 795 110L774 5Q759 1 742.5 -2Q726 -5 703 -5Q669 -5 642.5 9.5Q616 24 597 65L537 199H506L471 0Z" glyph-name="f_k" horiz-adv-x="828" unicode="&#58248;" /><glyph d="M534 359 459 -64Q446 -139 410.5 -168.5Q375 -198 306 -198Q277 -198 253.5 -192.5Q230 -187 210 -175L236 -79Q250 -89 260.5 -93Q271 -97 283 -97Q301 -97 311 -87.5Q321 -78 325 -56L398 359H243L166 -77Q153 -152 118 -181.5Q83 -211 14 -211Q-16 -211 -39 -205.5Q-62 -200 -82 -188L-57 -92Q-43 -102 -32 -106Q-21 -110 -10 -110Q9 -110 18.5 -100.5Q28 -91 32 -69L107 359H38L56 462H125L131 499Q146 589 192.5 628.5Q239 668 306 668Q339 668 362.5 662.5Q386 657 412 641L371 531Q359 544 348 550Q337 556 322 556Q300 556 288 543.5Q276 531 270 504L261 462H416L423 504Q439 596 495 636Q551 676 624 676Q657 676 687.5 669.5Q718 663 748 649L706 539Q689 551 669.5 557.5Q650 564 628 564Q597 564 581.5 548.5Q566 533 561 504L552 462H670L651 359Z" glyph-name="ff" horiz-adv-x="636" unicode="&#58249;" /><glyph d="M843 462 788 145Q785 129 789.5 116.5Q794 104 816 104Q823 104 830 105Q837 106 846 108L824 7Q808 2 788.5 -1.5Q769 -5 752 -5Q688 -5 662.5 28Q637 61 647 123L688 359H534L459 -64Q446 -139 410.5 -168.5Q375 -198 306 -198Q277 -198 253.5 -192.5Q230 -187 210 -175L236 -79Q250 -89 260.5 -93Q271 -97 283 -97Q301 -97 311 -87.5Q321 -78 325 -56L398 359H243L166 -77Q153 -152 118 -181.5Q83 -211 14 -211Q-16 -211 -39 -205.5Q-62 -200 -82 -188L-57 -92Q-43 -102 -32 -106Q-21 -110 -10 -110Q9 -110 18.5 -100.5Q28 -91 32 -69L107 359H38L56 462H125L131 499Q146 589 192.5 628.5Q239 668 306 668Q339 668 362.5 662.5Q386 657 412 641L371 531Q359 544 348 550Q337 556 322 556Q300 556 288 543.5Q276 531 270 504L261 462H416L425 503Q444 595 497 635.5Q550 676 629 676Q669 676 705.5 667Q742 658 771 641L729 528Q712 541 689.5 553Q667 565 639 565Q605 565 585.5 547.5Q566 530 559 493L552 462Z" glyph-name="ffi" horiz-adv-x="889" unicode="&#58250;" /><glyph d="M534 359 459 -64Q446 -139 410.5 -168.5Q375 -198 306 -198Q277 -198 253.5 -192.5Q230 -187 210 -175L236 -79Q250 -89 260.5 -93Q271 -97 283 -97Q301 -97 311 -87.5Q321 -78 325 -56L398 359H243L166 -77Q153 -152 118 -181.5Q83 -211 14 -211Q-16 -211 -39 -205.5Q-62 -200 -82 -188L-57 -92Q-43 -102 -32 -106Q-21 -110 -10 -110Q9 -110 18.5 -100.5Q28 -91 32 -69L107 359H38L56 462H125L131 499Q146 589 192.5 628.5Q239 668 306 668Q339 668 362.5 662.5Q386 657 412 641L371 531Q359 544 348 550Q337 556 322 556Q300 556 288 543.5Q276 531 270 504L261 462H416L424 504Q441 597 501.5 636.5Q562 676 634 676Q667 676 696 670Q725 664 750 653L880 668L788 145Q785 129 789.5 116.5Q794 104 816 104Q823 104 830 105Q837 106 846 108L824 7Q808 2 788.5 -1.5Q769 -5 752 -5Q688 -5 662.5 28Q637 61 647 123L724 555Q708 565 689 570.5Q670 576 650 576Q616 576 591.5 558Q567 540 559 500L552 462H638L619 359Z" glyph-name="ffl" horiz-adv-x="890" unicode="&#58251;" /><glyph d="M552 462 497 145Q494 129 498.5 116.5Q503 104 525 104Q531 104 538 105Q545 106 554 108L533 7Q516 2 497 -1.5Q478 -5 460 -5Q397 -5 371.5 28Q346 61 356 123L397 359H243L166 -77Q153 -152 118 -181.5Q83 -211 14 -211Q-16 -211 -39 -205.5Q-62 -200 -82 -188L-57 -92Q-43 -102 -32 -106Q-21 -110 -10 -110Q9 -110 18.5 -100.5Q28 -91 32 -69L107 359H38L56 462H125L133 503Q152 595 205.5 635.5Q259 676 337 676Q377 676 414 667Q451 658 479 641L438 528Q421 541 398.5 553Q376 565 348 565Q314 565 294.5 547.5Q275 530 267 493L261 462Z" glyph-name="fi" horiz-adv-x="597" unicode="&#58252;" /><glyph d="M65 132 140 481H463L442 362H229L199 225Q212 235 232.5 240Q253 245 277 245Q347 245 385 200Q423 155 423 86Q422 -30 344 -84.5Q266 -139 164 -139Q80 -139 27 -102Q-26 -65 -26 1L93 46Q95 2 121.5 -15.5Q148 -33 182 -33Q227 -33 257.5 -6.5Q288 20 288 72Q288 112 266 133.5Q244 155 213 155Q192 155 179.5 148.5Q167 142 157 132Z" glyph-name="five" horiz-adv-x="487" unicode="5" /><glyph d="M243 359 166 -77Q153 -152 118 -181.5Q83 -211 14 -211Q-16 -211 -39 -205.5Q-62 -200 -82 -188L-57 -92Q-43 -102 -32 -106Q-21 -110 -10 -110Q9 -110 18.5 -100.5Q28 -91 32 -69L107 359H38L56 462H125L133 504Q150 597 210.5 636.5Q271 676 343 676Q376 676 405 670Q434 664 459 653L589 668L497 145Q494 129 498.5 116.5Q503 104 525 104Q531 104 538 105Q545 106 554 108L533 7Q516 2 497 -1.5Q478 -5 460 -5Q397 -5 371.5 28Q346 61 356 123L433 555Q417 565 397.5 570.5Q378 576 359 576Q325 576 300.5 558Q276 540 268 500L261 462H346L328 359Z" glyph-name="fl" horiz-adv-x="599" unicode="&#58253;" /><glyph d="M12 -121 90 129H23L49 231H118L146 324Q175 418 233.5 455.5Q292 493 362 493Q397 493 437.5 479.5Q478 466 505 429L416 329Q406 351 390.5 364Q375 377 350 377Q322 377 305.5 360Q289 343 279 309L254 231H371L346 129H226L147 -121Z" glyph-name="florin" horiz-adv-x="468" unicode="&#402;" /><glyph d="M260 -131 288 26H2L17 115L377 481H504L441 125H538L520 26H424L396 -131ZM211 125H306L325 235Q331 270 339 300Q347 330 347 330H343Q343 330 329 311Q315 292 293 269L212 182Q187 154 166.5 139.5Q146 125 146 125V121Q146 121 163 123Q180 125 211 125Z" glyph-name="four" horiz-adv-x="572" unicode="4" /><glyph d="M168 -203 180 -133H6L18 -66L233 150H329L292 -62H342L329 -133H279L267 -203ZM195 -64 207 1Q211 27 217.5 49.5Q224 72 224 72H220Q220 72 210 56Q200 40 182 21L143 -19Q123 -39 105 -52.5Q87 -66 87 -66V-70Q87 -70 102.5 -67Q118 -64 144 -64Z" glyph-name="four.inf" horiz-adv-x="368" /><glyph d="M-162 0 246 589H332L-79 0Z" glyph-name="fraction" horiz-adv-x="170" unicode="&#8260;" /><glyph d="M337 200 350 269Q357 308 345 339.5Q333 371 290 371Q233 371 204 317.5Q175 264 175 193Q175 153 191 125Q207 97 241 97Q281 97 305 123.5Q329 150 337 200ZM519 462 437 -2Q419 -109 354 -160Q289 -211 173 -211Q93 -211 38 -183.5Q-17 -156 -38 -99L64 -28Q72 -64 103.5 -86Q135 -108 176 -108Q236 -108 265.5 -74Q295 -40 305 14L318 83Q302 34 266.5 15Q231 -4 187 -4Q113 -4 73.5 47Q34 98 34 185Q34 303 92 388Q150 473 256 473Q302 473 333.5 452Q365 431 369 385L398 462Z" glyph-name="g" horiz-adv-x="535" unicode="g" /><glyph d="M337 200 350 269Q357 308 345 339.5Q333 371 290 371Q233 371 204 317.5Q175 264 175 193Q175 153 191 125Q207 97 241 97Q281 97 305 123.5Q329 150 337 200ZM519 462 437 -2Q419 -109 354 -160Q289 -211 173 -211Q93 -211 38 -183.5Q-17 -156 -38 -99L64 -28Q72 -64 103.5 -86Q135 -108 176 -108Q236 -108 265.5 -74Q295 -40 305 14L318 83Q302 34 266.5 15Q231 -4 187 -4Q113 -4 73.5 47Q34 98 34 185Q34 303 92 388Q150 473 256 473Q302 473 333.5 452Q365 431 369 385L398 462ZM304 520Q226 520 198 566Q170 612 182 678H281Q277 650 283 633Q289 616 321 616Q352 616 364.5 633Q377 650 383 678H482Q471 612 426.5 566Q382 520 304 520Z" glyph-name="gbreve" horiz-adv-x="535" unicode="&#287;" /><glyph d="M337 200 350 269Q357 308 345 339.5Q333 371 290 371Q233 371 204 317.5Q175 264 175 193Q175 153 191 125Q207 97 241 97Q281 97 305 123.5Q329 150 337 200ZM519 462 437 -2Q419 -109 354 -160Q289 -211 173 -211Q93 -211 38 -183.5Q-17 -156 -38 -99L64 -28Q72 -64 103.5 -86Q135 -108 176 -108Q236 -108 265.5 -74Q295 -40 305 14L318 83Q302 34 266.5 15Q231 -4 187 -4Q113 -4 73.5 47Q34 98 34 185Q34 303 92 388Q150 473 256 473Q302 473 333.5 452Q365 431 369 385L398 462ZM286 683H371L478 524H357L332 558Q321 574 319.5 582.5Q318 591 318 591H313Q313 591 308.5 582.5Q304 574 287 558L250 524H124Z" glyph-name="gcircumflex" horiz-adv-x="535" unicode="&#285;" /><glyph d="M337 200 350 269Q357 308 345 339.5Q333 371 290 371Q233 371 204 317.5Q175 264 175 193Q175 153 191 125Q207 97 241 97Q281 97 305 123.5Q329 150 337 200ZM519 462 437 -2Q419 -109 354 -160Q289 -211 173 -211Q93 -211 38 -183.5Q-17 -156 -38 -99L64 -28Q72 -64 103.5 -86Q135 -108 176 -108Q236 -108 265.5 -74Q295 -40 305 14L318 83Q302 34 266.5 15Q231 -4 187 -4Q113 -4 73.5 47Q34 98 34 185Q34 303 92 388Q150 473 256 473Q302 473 333.5 452Q365 431 369 385L398 462ZM247 608Q247 668 292 697.5Q337 727 403 727V682Q371 681 347.5 673Q324 665 324 643Q352 648 372.5 634Q393 620 393 588Q393 555 372.5 539Q352 523 324 523Q290 523 268.5 545.5Q247 568 247 608Z" glyph-name="gcommaaccent" horiz-adv-x="535" unicode="&#291;" /><glyph d="M337 200 350 269Q357 308 345 339.5Q333 371 290 371Q233 371 204 317.5Q175 264 175 193Q175 153 191 125Q207 97 241 97Q281 97 305 123.5Q329 150 337 200ZM519 462 437 -2Q419 -109 354 -160Q289 -211 173 -211Q93 -211 38 -183.5Q-17 -156 -38 -99L64 -28Q72 -64 103.5 -86Q135 -108 176 -108Q236 -108 265.5 -74Q295 -40 305 14L318 83Q302 34 266.5 15Q231 -4 187 -4Q113 -4 73.5 47Q34 98 34 185Q34 303 92 388Q150 473 256 473Q302 473 333.5 452Q365 431 369 385L398 462ZM235 598Q235 636 259 656Q283 676 316 676Q353 676 376.5 656Q400 636 400 598Q400 561 376.5 541.5Q353 522 316 522Q283 522 259 541.5Q235 561 235 598Z" glyph-name="gdotaccent" horiz-adv-x="535" unicode="&#289;" /><glyph d="M10 -69 94 415Q120 566 202 621Q284 676 377 676Q473 676 516 631.5Q559 587 559 530Q559 455 518 418Q477 381 420 372V368Q486 360 516 316.5Q546 273 546 216Q546 100 482 44Q418 -12 322 -12Q281 -12 247 2Q213 16 196 44L243 141Q257 116 277.5 105Q298 94 324 94Q358 94 385 120Q412 146 412 212Q412 255 389 283Q366 311 312 311H259L278 418H337Q377 418 403 437Q429 456 429 502Q429 530 414 549Q399 568 358 568Q308 568 276.5 533Q245 498 232 420L145 -77Q132 -152 96.5 -181.5Q61 -211 -8 -211Q-38 -211 -61 -205.5Q-84 -200 -104 -188L-79 -92Q-65 -102 -54 -106Q-43 -110 -32 -110Q-13 -110 -3.5 -100.5Q6 -91 10 -69Z" glyph-name="germandbls" horiz-adv-x="579" unicode="&#223;" /><glyph d="M319 526H197L80 679H248Z" glyph-name="grave" horiz-adv-x="398" unicode="`" /><glyph d="M312 647H190L80 790H248Z" glyph-name="grave.cap" horiz-adv-x="392" /><glyph d="M38 98 252 252 102 397 166 459 377 243 86 31Z" glyph-name="greater" horiz-adv-x="421" unicode="&gt;" /><glyph d="M76 192 262 298 123 408 187 475 414 294 119 117ZM365 19H22L35 94H378Z" glyph-name="greaterequal" horiz-adv-x="462" unicode="&#8805;" /><glyph d="M147 236V232Q147 232 158.5 223.5Q170 215 189 190L266 87L187 24L26 236L262 448L321 382L206 276Q180 252 163.5 244Q147 236 147 236ZM372 236V232Q372 232 383.5 223.5Q395 215 414 190L492 87L412 24L251 236L487 448L546 382L431 276Q405 252 388.5 244Q372 236 372 236Z" glyph-name="guillemotleft" horiz-adv-x="572" unicode="&#171;" /><glyph d="M201 236V240Q201 240 189.5 249Q178 258 159 283L81 385L160 448L321 236L85 24L26 90L141 197Q167 220 184 228Q201 236 201 236ZM426 236V240Q426 240 414.5 249Q403 258 384 283L306 385L386 448L546 236L311 24L251 90L366 197Q392 220 409 228Q426 236 426 236Z" glyph-name="guillemotright" horiz-adv-x="572" unicode="&#187;" /><glyph d="M147 236V232Q147 232 158.5 223.5Q170 215 189 190L266 87L187 24L26 236L262 448L321 382L206 276Q180 252 163.5 244Q147 236 147 236Z" glyph-name="guilsinglleft" horiz-adv-x="347" unicode="&#8249;" /><glyph d="M201 236V240Q201 240 189.5 249Q178 258 159 283L81 385L160 448L321 236L85 24L26 90L141 197Q167 220 184 228Q201 236 201 236Z" glyph-name="guilsinglright" horiz-adv-x="347" unicode="&#8250;" /><glyph d="M495 316 467 145Q464 129 468 116.5Q472 104 494 104Q501 104 508 105Q515 106 524 108L503 7Q486 2 466.5 -1.5Q447 -5 430 -5Q366 -5 341 28Q316 61 326 123L354 283Q359 317 349.5 339.5Q340 362 304 362Q275 362 248.5 335Q222 308 211 247L168 0H32L149 668H286L233 368Q255 419 289 446Q323 473 379 473Q433 473 465.5 441.5Q498 410 498 357Q498 346 497 336.5Q496 327 495 316Z" glyph-name="h" horiz-adv-x="561" unicode="h" /><glyph d="M48 519 63 600H137L149 668H286L274 600H408L393 519H259L233 368Q255 419 289 446Q323 473 379 473Q433 473 465.5 441.5Q498 410 498 357Q498 346 497 336.5Q496 327 495 316L467 145Q464 129 468 116.5Q472 104 494 104Q501 104 508 105Q515 106 524 108L503 7Q486 2 466.5 -1.5Q447 -5 430 -5Q366 -5 341 28Q316 61 326 123L354 283Q359 317 349.5 339.5Q340 362 304 362Q275 362 248.5 335Q222 308 211 247L168 0H32L122 519Z" glyph-name="hbar" horiz-adv-x="561" unicode="&#295;" /><glyph d="M495 316 467 145Q464 129 468 116.5Q472 104 494 104Q501 104 508 105Q515 106 524 108L503 7Q486 2 466.5 -1.5Q447 -5 430 -5Q366 -5 341 28Q316 61 326 123L354 283Q359 317 349.5 339.5Q340 362 304 362Q275 362 248.5 335Q222 308 211 247L168 0H32L149 668H286L233 368Q255 419 289 446Q323 473 379 473Q433 473 465.5 441.5Q498 410 498 357Q498 346 497 336.5Q496 327 495 316ZM207 842H292L400 697H279L254 728Q244 741 241.5 749.5Q239 758 239 758H235Q235 758 230 749.5Q225 741 210 728L173 697H46Z" glyph-name="hcircumflex" horiz-adv-x="561" unicode="&#293;" /><glyph d="M350 526H246L316 679H466ZM175 526H80L132 679H273Z" glyph-name="hungarumlaut" horiz-adv-x="546" unicode="&#733;" /><glyph d="M350 647H246L316 790H466ZM175 647H80L132 790H273Z" glyph-name="hungarumlaut.cap" horiz-adv-x="546" /><glyph d="M62 202 82 315H330L310 202Z" glyph-name="hyphen" horiz-adv-x="392" unicode="-" /><glyph d="M115 603Q115 641 139 661Q163 681 196 681Q232 681 256 661Q280 641 280 603Q280 566 256 546.5Q232 527 196 527Q163 527 139 546.5Q115 566 115 603ZM245 462 190 145Q187 129 191 116.5Q195 104 217 104Q224 104 231 105Q238 106 247 108L226 7Q209 2 189.5 -1.5Q170 -5 153 -5Q89 -5 64 28Q39 61 49 123L109 462Z" glyph-name="i" horiz-adv-x="283" unicode="i" /><glyph d="M238 462 183 145Q180 129 184 116.5Q188 104 210 104Q217 104 224 105Q231 106 240 108L219 7Q202 2 182.5 -1.5Q163 -5 146 -5Q82 -5 57 28Q32 61 42 123L102 462ZM234 526H112L182 679H351Z" glyph-name="iacute" horiz-adv-x="283" unicode="&#237;" /><glyph d="M238 462 183 145Q180 129 184 116.5Q188 104 210 104Q217 104 224 105Q231 106 240 108L219 7Q202 2 182.5 -1.5Q163 -5 146 -5Q82 -5 57 28Q32 61 42 123L102 462ZM176 520Q98 520 70 566Q42 612 54 678H153Q149 650 155 633Q161 616 193 616Q224 616 236.5 633Q249 650 255 678H354Q343 612 298.5 566Q254 520 176 520Z" glyph-name="ibreve" horiz-adv-x="283" unicode="&#301;" /><glyph d="M238 462 183 145Q180 129 184 116.5Q188 104 210 104Q217 104 224 105Q231 106 240 108L219 7Q202 2 182.5 -1.5Q163 -5 146 -5Q82 -5 57 28Q32 61 42 123L102 462ZM159 683H244L351 524H230L205 558Q194 574 192.5 582.5Q191 591 191 591H186Q186 591 181.5 582.5Q177 574 160 558L123 524H-3Z" glyph-name="icircumflex" horiz-adv-x="283" unicode="&#238;" /><glyph d="M238 462 183 145Q180 129 184 116.5Q188 104 210 104Q217 104 224 105Q231 106 240 108L219 7Q202 2 182.5 -1.5Q163 -5 146 -5Q82 -5 57 28Q32 61 42 123L102 462ZM222 596Q222 633 244 652Q266 671 296 671Q328 671 350 652Q372 633 372 596Q372 559 350 540Q328 521 296 521Q266 521 244 540Q222 559 222 596ZM4 596Q4 633 26 652Q48 671 78 671Q111 671 132.5 652Q154 633 154 596Q154 560 132.5 540.5Q111 521 78 521Q48 521 26 540.5Q4 560 4 596Z" glyph-name="idieresis" horiz-adv-x="283" unicode="&#239;" /><glyph d="M108 603Q108 641 132 661Q156 681 189 681Q225 681 249 661Q273 641 273 603Q273 566 249 546.5Q225 527 189 527Q156 527 132 546.5Q108 566 108 603ZM238 462 183 145Q180 129 184 116.5Q188 104 210 104Q217 104 224 105Q231 106 240 108L219 7Q202 2 182.5 -1.5Q163 -5 146 -5Q82 -5 57 28Q32 61 42 123L102 462Z" glyph-name="idotaccent" horiz-adv-x="283" /><glyph d="M238 462 183 145Q180 129 184 116.5Q188 104 210 104Q217 104 224 105Q231 106 240 108L219 7Q202 2 182.5 -1.5Q163 -5 146 -5Q82 -5 57 28Q32 61 42 123L102 462ZM246 526H124L7 679H175Z" glyph-name="igrave" horiz-adv-x="283" unicode="&#236;" /><glyph d="M238 462 183 145Q180 129 184 116.5Q188 104 210 104Q217 104 224 105Q231 106 240 108L219 7Q202 2 182.5 -1.5Q163 -5 146 -5Q82 -5 57 28Q32 61 42 123L102 462ZM328 539H34L54 647H348Z" glyph-name="imacron" horiz-adv-x="283" unicode="&#299;" /><glyph d="M108 603Q108 641 132 661Q156 681 189 681Q225 681 249 661Q273 641 273 603Q273 566 249 546.5Q225 527 189 527Q156 527 132 546.5Q108 566 108 603ZM-6 -108Q-6 -67 14 -34.5Q34 -2 66 17Q47 33 41 59.5Q35 86 42 123L102 462H238L183 145Q180 129 184 116.5Q188 104 210 104Q217 104 224 105Q231 106 240 108L219 7Q176 0 138.5 -19Q101 -38 101 -84Q101 -103 111 -113.5Q121 -124 139 -124Q156 -124 169.5 -117.5Q183 -111 198 -95L227 -163Q205 -188 175.5 -199.5Q146 -211 110 -211Q61 -211 27.5 -186.5Q-6 -162 -6 -108Z" glyph-name="iogonek" horiz-adv-x="283" unicode="&#303;" /><glyph d="M238 462 183 145Q180 129 184 116.5Q188 104 210 104Q217 104 224 105Q231 106 240 108L219 7Q202 2 182.5 -1.5Q163 -5 146 -5Q82 -5 57 28Q32 61 42 123L102 462ZM256 521Q226 521 210.5 528.5Q195 536 178 547Q159 559 148 565.5Q137 572 125 572Q109 572 98 558.5Q87 545 86 520H11Q-5 589 30.5 632.5Q66 676 120 676Q146 676 161.5 669.5Q177 663 190 654Q210 641 222 633.5Q234 626 247 626Q261 626 271 637Q281 648 282 674H359Q377 605 346.5 563Q316 521 256 521Z" glyph-name="itilde" horiz-adv-x="283" unicode="&#297;" /><glyph d="M108 603Q108 641 132 661Q156 681 189 681Q225 681 249 661Q273 641 273 603Q273 566 249 546.5Q225 527 189 527Q156 527 132 546.5Q108 566 108 603ZM238 462 146 -61Q131 -146 85 -178.5Q39 -211 -36 -211Q-72 -211 -102 -203Q-132 -195 -152 -183L-115 -84Q-101 -95 -85 -102.5Q-69 -110 -48 -110Q-23 -110 -8 -95.5Q7 -81 14 -37L102 462Z" glyph-name="j" horiz-adv-x="251" unicode="j" /><glyph d="M160 683H245L352 524H231L206 558Q195 574 193.5 582.5Q192 591 192 591H187Q187 591 182.5 582.5Q178 574 161 558L124 524H-2ZM238 462 146 -61Q131 -146 85 -178.5Q39 -211 -36 -211Q-72 -211 -102 -203Q-132 -195 -152 -183L-115 -84Q-101 -95 -85 -102.5Q-69 -110 -48 -110Q-23 -110 -8 -95.5Q7 -81 14 -37L102 462Z" glyph-name="jcircumflex" horiz-adv-x="251" unicode="&#309;" /><glyph d="M294 65 233 199H203L168 0H32L149 668H286L221 301H244L388 462H552L351 249L410 135Q423 109 442 105Q461 101 492 110L471 5Q456 1 439.5 -2Q423 -5 400 -5Q366 -5 339 9.5Q312 24 294 65Z" glyph-name="k" horiz-adv-x="525" unicode="k" /><glyph d="M294 65 233 199H203L168 0H32L149 668H286L221 301H244L388 462H552L351 249L410 135Q423 109 442 105Q461 101 492 110L471 5Q456 1 439.5 -2Q423 -5 400 -5Q366 -5 339 9.5Q312 24 294 65ZM291 -136Q291 -197 246 -226Q201 -255 135 -255V-210Q167 -209 190.5 -201Q214 -193 214 -172Q186 -176 165.5 -162Q145 -148 145 -117Q145 -84 165.5 -68Q186 -52 214 -52Q248 -52 269.5 -74Q291 -96 291 -136Z" glyph-name="kcommaaccent" horiz-adv-x="525" unicode="&#311;" /><glyph d="M294 65 234 199H203L168 0H32L113 462H250L221 301H244L388 462H552L351 249L410 135Q423 109 442 105Q461 101 492 110L471 5Q456 1 439.5 -2Q423 -5 400 -5Q366 -5 339.5 9.5Q313 24 294 65Z" glyph-name="kgreenlandic" horiz-adv-x="525" unicode="&#312;" /><glyph d="M282 668 190 145Q187 129 191 116.5Q195 104 217 104Q224 104 231 105Q238 106 247 108L226 7Q209 2 189.5 -1.5Q170 -5 153 -5Q89 -5 64 28Q39 61 49 123L146 668Z" glyph-name="l" horiz-adv-x="285" unicode="l" /><glyph d="M275 668 183 145Q180 129 184 116.5Q188 104 210 104Q217 104 224 105Q231 106 240 108L219 7Q202 2 182.5 -1.5Q163 -5 146 -5Q82 -5 57 28Q32 61 42 123L139 668ZM269 695H147L211 838H379Z" glyph-name="lacute" horiz-adv-x="285" unicode="&#314;" /><glyph d="M478 692 421 514H325L340 692ZM282 668 190 145Q187 129 191 116.5Q195 104 217 104Q224 104 231 105Q238 106 247 108L226 7Q209 2 189.5 -1.5Q170 -5 153 -5Q89 -5 64 28Q39 61 49 123L146 668Z" glyph-name="lcaron" horiz-adv-x="285" unicode="&#318;" /><glyph d="M275 668 183 145Q180 129 184 116.5Q188 104 210 104Q217 104 224 105Q231 106 240 108L219 7Q202 2 182.5 -1.5Q163 -5 146 -5Q82 -5 57 28Q32 61 42 123L139 668ZM178 -136Q178 -197 133 -226Q88 -255 22 -255V-210Q54 -209 77.5 -201Q101 -193 101 -172Q73 -176 52.5 -162Q32 -148 32 -117Q32 -84 52.5 -68Q73 -52 101 -52Q135 -52 156.5 -74Q178 -96 178 -136Z" glyph-name="lcommaaccent" horiz-adv-x="285" unicode="&#316;" /><glyph d="M282 668 190 145Q187 129 191 116.5Q195 104 217 104Q224 104 231 105Q238 106 247 108L226 7Q209 2 189.5 -1.5Q170 -5 153 -5Q89 -5 64 28Q39 61 49 123L146 668ZM273 326Q273 363 298 388.5Q323 414 358 414Q395 414 420 388.5Q445 363 445 326Q445 291 420 266.5Q395 242 358 242Q323 242 298 266.5Q273 291 273 326Z" glyph-name="ldot" horiz-adv-x="415" unicode="&#320;" /><glyph d="M391 392 176 239 327 93 263 31 52 247 343 459Z" glyph-name="less" horiz-adv-x="421" unicode="&lt;" /><glyph d="M414 400 228 294 368 184 304 117 76 298 372 475ZM365 19H22L35 94H378Z" glyph-name="lessequal" horiz-adv-x="462" unicode="&#8804;" /><glyph d="M279 668 237 435 323 474 306 378 220 338 187 145Q184 129 188.5 116.5Q193 104 215 104Q221 104 228 105Q235 106 244 108L223 7Q206 2 187 -1.5Q168 -5 150 -5Q87 -5 61.5 28Q36 61 46 123L72 271L2 239L19 336L90 367L143 668Z" glyph-name="lslash" horiz-adv-x="295" unicode="&#322;" /><glyph d="M430 0H293L342 283Q348 317 338.5 339.5Q329 362 297 362Q265 362 243.5 335Q222 308 211 247L168 0H32L113 462H232V368Q252 419 283.5 446Q315 473 370 473Q424 473 455 444.5Q486 416 486 363Q504 418 539.5 445.5Q575 473 630 473Q685 473 716 441.5Q747 410 747 357Q747 346 746 336.5Q745 327 743 316L715 145Q712 129 716.5 116.5Q721 104 743 104Q749 104 756 105Q763 106 772 108L751 7Q734 2 715 -1.5Q696 -5 678 -5Q615 -5 589.5 28Q564 61 574 123L602 283Q608 317 598.5 339.5Q589 362 557 362Q525 362 503 335Q481 308 471 247Z" glyph-name="m" horiz-adv-x="809" unicode="m" /><glyph d="M374 539H80L100 647H394Z" glyph-name="macron" horiz-adv-x="474" unicode="&#175;" /><glyph d="M381 664H80L99 772H400Z" glyph-name="macron.cap" horiz-adv-x="480" /><glyph d="M448 211H40L53 285H461Z" glyph-name="minus" horiz-adv-x="501" unicode="&#8722;" /><glyph d="M37 122 188 251 89 375 150 427 251 305 406 436 456 377 300 244 409 114 347 61 239 192 87 63Z" glyph-name="multiply" horiz-adv-x="493" unicode="&#215;" /><glyph d="M495 316 467 145Q464 129 468 116.5Q472 104 494 104Q501 104 508 105Q515 106 524 108L503 7Q486 2 466.5 -1.5Q447 -5 430 -5Q366 -5 341 28Q316 61 326 123L354 283Q359 317 349.5 339.5Q340 362 304 362Q275 362 248.5 335Q222 308 211 247L168 0H32L113 462H232V368Q254 419 288.5 446Q323 473 379 473Q433 473 465.5 441.5Q498 410 498 357Q498 346 497 336.5Q496 327 495 316Z" glyph-name="n" horiz-adv-x="561" unicode="n" /><glyph d="M495 316 467 145Q464 129 468 116.5Q472 104 494 104Q501 104 508 105Q515 106 524 108L503 7Q486 2 466.5 -1.5Q447 -5 430 -5Q366 -5 341 28Q316 61 326 123L354 283Q359 317 349.5 339.5Q340 362 304 362Q275 362 248.5 335Q222 308 211 247L168 0H32L113 462H232V368Q254 419 288.5 446Q323 473 379 473Q433 473 465.5 441.5Q498 410 498 357Q498 346 497 336.5Q496 327 495 316ZM377 526H255L325 679H494Z" glyph-name="nacute" horiz-adv-x="561" unicode="&#324;" /><glyph d="M495 316 467 145Q464 129 468 116.5Q472 104 494 104Q501 104 508 105Q515 106 524 108L503 7Q486 2 466.5 -1.5Q447 -5 430 -5Q366 -5 341 28Q316 61 326 123L354 283Q359 317 349.5 339.5Q340 362 304 362Q275 362 248.5 335Q222 308 211 247L168 0H32L113 462H232V368Q254 419 288.5 446Q323 473 379 473Q433 473 465.5 441.5Q498 410 498 357Q498 346 497 336.5Q496 327 495 316ZM360 524H275L168 683H289L314 648Q325 632 326.5 623.5Q328 615 328 615H333Q333 615 337.5 623.5Q342 632 359 648L396 683H522Z" glyph-name="ncaron" horiz-adv-x="561" unicode="&#328;" /><glyph d="M495 316 467 145Q464 129 468 116.5Q472 104 494 104Q501 104 508 105Q515 106 524 108L503 7Q486 2 466.5 -1.5Q447 -5 430 -5Q366 -5 341 28Q316 61 326 123L354 283Q359 317 349.5 339.5Q340 362 304 362Q275 362 248.5 335Q222 308 211 247L168 0H32L113 462H232V368Q254 419 288.5 446Q323 473 379 473Q433 473 465.5 441.5Q498 410 498 357Q498 346 497 336.5Q496 327 495 316ZM286 -136Q286 -197 241 -226Q196 -255 130 -255V-210Q162 -209 185.5 -201Q209 -193 209 -172Q181 -176 160.5 -162Q140 -148 140 -117Q140 -84 160.5 -68Q181 -52 209 -52Q243 -52 264.5 -74Q286 -96 286 -136Z" glyph-name="ncommaaccent" horiz-adv-x="561" unicode="&#326;" /><glyph d="M250 206Q287 206 317 232.5Q347 259 347 310Q347 347 325.5 368Q304 389 266 389Q229 389 199.5 362Q170 335 170 285Q170 248 191 227Q212 206 250 206ZM-3 -41 79 36Q92 5 119 -13.5Q146 -32 184 -32Q257 -32 303.5 29.5Q350 91 359 210H355Q341 159 303.5 132.5Q266 106 215 106Q137 106 90 152Q43 198 43 271Q43 370 104.5 431Q166 492 273 492Q377 492 430.5 426.5Q484 361 484 246Q484 82 403 -28Q322 -138 175 -138Q109 -138 64.5 -113.5Q20 -89 -3 -41Z" glyph-name="nine" horiz-adv-x="526" unicode="9" /><glyph glyph-name="nonmarkingreturn" horiz-adv-x="222" unicode="" /><glyph d="M474 283H349L283 209H462L448 134H215L106 15L55 59L124 134H40L54 209H191L257 283H66L80 358H325L424 468L478 425L416 358H488Z" glyph-name="notequal" horiz-adv-x="528" unicode="&#8800;" /><glyph d="M495 316 467 145Q464 129 468 116.5Q472 104 494 104Q501 104 508 105Q515 106 524 108L503 7Q486 2 466.5 -1.5Q447 -5 430 -5Q366 -5 341 28Q316 61 326 123L354 283Q359 317 349.5 339.5Q340 362 304 362Q275 362 248.5 335Q222 308 211 247L168 0H32L113 462H232V368Q254 419 288.5 446Q323 473 379 473Q433 473 465.5 441.5Q498 410 498 357Q498 346 497 336.5Q496 327 495 316ZM399 521Q369 521 353.5 528.5Q338 536 321 547Q302 559 291 565.5Q280 572 268 572Q252 572 241 558.5Q230 545 229 520H154Q138 589 173.5 632.5Q209 676 263 676Q289 676 304.5 669.5Q320 663 333 654Q353 641 365 633.5Q377 626 390 626Q404 626 414 637Q424 648 425 674H502Q520 605 489.5 563Q459 521 399 521Z" glyph-name="ntilde" horiz-adv-x="561" unicode="&#241;" /><glyph d="M311 287 276 213H363L399 287ZM589 121H426L368 0H261L319 121H231L173 0H66L124 121H32L48 213H168L204 287H81L97 379H249L298 481H406L356 379H444L493 481H602L552 379H654L639 287H507L471 213H605Z" glyph-name="numbersign" horiz-adv-x="676" unicode="#" /><glyph d="M290 473Q385 473 440.5 419.5Q496 366 496 269Q496 159 432 73.5Q368 -12 240 -12Q151 -12 91.5 37.5Q32 87 32 184Q32 298 96 385.5Q160 473 290 473ZM280 366Q231 366 203.5 314Q176 262 176 187Q176 139 195 115Q214 91 247 91Q297 91 325 143Q353 195 353 271Q353 317 333.5 341.5Q314 366 280 366Z" glyph-name="o" horiz-adv-x="528" unicode="o" /><glyph d="M290 473Q385 473 440.5 419.5Q496 366 496 269Q496 159 432 73.5Q368 -12 240 -12Q151 -12 91.5 37.5Q32 87 32 184Q32 298 96 385.5Q160 473 290 473ZM280 366Q231 366 203.5 314Q176 262 176 187Q176 139 195 115Q214 91 247 91Q297 91 325 143Q353 195 353 271Q353 317 333.5 341.5Q314 366 280 366ZM355 526H233L303 679H472Z" glyph-name="oacute" horiz-adv-x="528" unicode="&#243;" /><glyph d="M290 473Q385 473 440.5 419.5Q496 366 496 269Q496 159 432 73.5Q368 -12 240 -12Q151 -12 91.5 37.5Q32 87 32 184Q32 298 96 385.5Q160 473 290 473ZM280 366Q231 366 203.5 314Q176 262 176 187Q176 139 195 115Q214 91 247 91Q297 91 325 143Q353 195 353 271Q353 317 333.5 341.5Q314 366 280 366ZM297 520Q219 520 191 566Q163 612 175 678H274Q270 650 276 633Q282 616 314 616Q345 616 357.5 633Q370 650 376 678H475Q464 612 419.5 566Q375 520 297 520Z" glyph-name="obreve" horiz-adv-x="528" unicode="&#335;" /><glyph d="M290 473Q385 473 440.5 419.5Q496 366 496 269Q496 159 432 73.5Q368 -12 240 -12Q151 -12 91.5 37.5Q32 87 32 184Q32 298 96 385.5Q160 473 290 473ZM280 366Q231 366 203.5 314Q176 262 176 187Q176 139 195 115Q214 91 247 91Q297 91 325 143Q353 195 353 271Q353 317 333.5 341.5Q314 366 280 366ZM280 683H365L472 524H351L326 558Q315 574 313.5 582.5Q312 591 312 591H307Q307 591 302.5 582.5Q298 574 281 558L244 524H118Z" glyph-name="ocircumflex" horiz-adv-x="528" unicode="&#244;" /><glyph d="M290 473Q385 473 440.5 419.5Q496 366 496 269Q496 159 432 73.5Q368 -12 240 -12Q151 -12 91.5 37.5Q32 87 32 184Q32 298 96 385.5Q160 473 290 473ZM280 366Q231 366 203.5 314Q176 262 176 187Q176 139 195 115Q214 91 247 91Q297 91 325 143Q353 195 353 271Q353 317 333.5 341.5Q314 366 280 366ZM343 596Q343 633 365 652Q387 671 417 671Q449 671 471 652Q493 633 493 596Q493 559 471 540Q449 521 417 521Q387 521 365 540Q343 559 343 596ZM125 596Q125 633 147 652Q169 671 199 671Q232 671 253.5 652Q275 633 275 596Q275 560 253.5 540.5Q232 521 199 521Q169 521 147 540.5Q125 560 125 596Z" glyph-name="odieresis" horiz-adv-x="528" unicode="&#246;" /><glyph d="M562 91Q593 91 612 107.5Q631 124 638 153L766 123Q744 53 691 20.5Q638 -12 554 -12Q503 -12 461 8Q419 28 403 56Q373 24 331.5 6Q290 -12 240 -12Q151 -12 91.5 37.5Q32 87 32 184Q32 298 96 385.5Q160 473 290 473Q340 473 379 454.5Q418 436 442 405Q470 437 512.5 455Q555 473 598 473Q696 473 742 421.5Q788 370 788 306Q788 279 783 253Q778 227 768 208H494Q487 162 503 126.5Q519 91 562 91ZM505 282H649Q650 287 651 293Q652 299 652 306Q652 334 639 354Q626 374 593 374Q559 374 537 346.5Q515 319 505 282ZM280 366Q231 366 203.5 314Q176 262 176 187Q176 139 195 115Q214 91 247 91Q297 91 325 143Q353 195 353 271Q353 317 333.5 341.5Q314 366 280 366Z" glyph-name="oe" horiz-adv-x="815" unicode="&#339;" /><glyph d="M290 473Q385 473 440.5 419.5Q496 366 496 269Q496 159 432 73.5Q368 -12 240 -12Q151 -12 91.5 37.5Q32 87 32 184Q32 298 96 385.5Q160 473 290 473ZM280 366Q231 366 203.5 314Q176 262 176 187Q176 139 195 115Q214 91 247 91Q297 91 325 143Q353 195 353 271Q353 317 333.5 341.5Q314 366 280 366ZM367 526H245L128 679H296Z" glyph-name="ograve" horiz-adv-x="528" unicode="&#242;" /><glyph d="M290 473Q385 473 440.5 419.5Q496 366 496 269Q496 159 432 73.5Q368 -12 240 -12Q151 -12 91.5 37.5Q32 87 32 184Q32 298 96 385.5Q160 473 290 473ZM280 366Q231 366 203.5 314Q176 262 176 187Q176 139 195 115Q214 91 247 91Q297 91 325 143Q353 195 353 271Q353 317 333.5 341.5Q314 366 280 366ZM429 526H325L395 679H545ZM254 526H159L211 679H352Z" glyph-name="ohungarumlaut" horiz-adv-x="528" unicode="&#337;" /><glyph d="M290 473Q385 473 440.5 419.5Q496 366 496 269Q496 159 432 73.5Q368 -12 240 -12Q151 -12 91.5 37.5Q32 87 32 184Q32 298 96 385.5Q160 473 290 473ZM280 366Q231 366 203.5 314Q176 262 176 187Q176 139 195 115Q214 91 247 91Q297 91 325 143Q353 195 353 271Q353 317 333.5 341.5Q314 366 280 366ZM448 539H154L174 647H468Z" glyph-name="omacron" horiz-adv-x="528" unicode="&#333;" /><glyph d="M238 0H102L165 360L37 344L56 453L324 489Z" glyph-name="one" horiz-adv-x="370" unicode="1" /><glyph d="M279 -203H4L17 -130H110L143 60L40 52L54 130L257 150L207 -130H292Z" glyph-name="one.inf" horiz-adv-x="313" /><glyph d="M198 0 606 589H692L281 0ZM818 77 805 0H526L537 64Q633 120 685 159Q737 198 737 238Q737 258 726.5 268.5Q716 279 694 279Q673 279 658 264.5Q643 250 637 217L557 246Q564 293 600.5 327Q637 361 706 361Q765 361 801 333Q837 305 837 252Q837 176 770 137Q703 98 650 81V77ZM290 236H17L30 309H121L154 499L51 491L65 569L268 589L218 309H303Z" glyph-name="onehalf" horiz-adv-x="890" unicode="&#189;" /><glyph d="M198 0 606 589H692L281 0ZM698 0 710 70H536L548 137L763 353H859L822 141H872L859 70H809L797 0ZM725 139 737 204Q741 230 747.5 252.5Q754 275 754 275H750Q750 275 740 259Q730 243 712 224L673 184Q653 164 635 150.5Q617 137 617 137V133Q617 133 632.5 136Q648 139 674 139ZM290 236H17L30 309H121L154 499L51 491L65 569L268 589L218 309H303Z" glyph-name="onequarter" horiz-adv-x="890" unicode="&#188;" /><glyph d="M279 236H6L19 309H110L143 499L40 491L54 569L257 589L207 309H292Z" glyph-name="onesuperior" horiz-adv-x="313" unicode="&#185;" /><glyph d="M257 414 268 465Q274 490 264.5 511Q255 532 224 532Q182 532 160 494.5Q138 457 138 410Q138 383 150 365Q162 347 187 347Q215 347 232.5 364Q250 381 257 414ZM397 593 355 384Q353 374 356 366Q359 358 375 358Q379 358 385 358.5Q391 359 399 361L383 292Q370 288 355 286Q340 284 328 284Q291 284 270.5 296.5Q250 309 246 337Q234 306 206 292.5Q178 279 146 279Q90 279 60 313Q30 347 30 404Q30 483 74.5 542Q119 601 199 601Q233 601 256 587Q279 573 283 543L304 593Z" glyph-name="ordfeminine" horiz-adv-x="427" unicode="&#170;" /><glyph d="M215 601Q284 601 324 565Q364 529 364 466Q364 392 318 335.5Q272 279 180 279Q116 279 73 312Q30 345 30 409Q30 484 76 542.5Q122 601 215 601ZM209 528Q175 528 155 494Q135 460 135 411Q135 380 149 364.5Q163 349 186 349Q221 349 240 383Q259 417 259 467Q259 497 245.5 512.5Q232 528 209 528Z" glyph-name="ordmasculine" horiz-adv-x="394" unicode="&#186;" /><glyph d="M280 366Q238 366 212 327Q186 288 179 231Q178 219 177 207.5Q176 196 177 185L338 335Q329 351 314 358.5Q299 366 280 366ZM247 91Q290 91 316 129Q342 167 349 224Q350 234 351 244.5Q352 255 351 265L192 118Q202 105 216 98Q230 91 247 91ZM290 473Q335 473 371.5 460.5Q408 448 435 424L487 474L529 428L472 375Q484 353 490 326.5Q496 300 496 269Q496 159 432 73.5Q368 -12 240 -12Q199 -12 162 -1.5Q125 9 98 31L48 -15L6 28L59 77Q46 99 39 125.5Q32 152 32 184Q32 298 96 385.5Q160 473 290 473Z" glyph-name="oslash" horiz-adv-x="528" unicode="&#248;" /><glyph d="M280 366Q238 366 212 327Q186 288 179 231Q178 219 177 207.5Q176 196 177 185L338 335Q329 351 314 358.5Q299 366 280 366ZM247 91Q290 91 316 129Q342 167 349 224Q350 234 351 244.5Q352 255 351 265L192 118Q202 105 216 98Q230 91 247 91ZM290 473Q335 473 371.5 460.5Q408 448 435 424L487 474L529 428L472 375Q484 353 490 326.5Q496 300 496 269Q496 159 432 73.5Q368 -12 240 -12Q199 -12 162 -1.5Q125 9 98 31L48 -15L6 28L59 77Q46 99 39 125.5Q32 152 32 184Q32 298 96 385.5Q160 473 290 473ZM370 526H248L318 679H487Z" glyph-name="oslashacute" horiz-adv-x="528" unicode="&#511;" /><glyph d="M290 473Q385 473 440.5 419.5Q496 366 496 269Q496 159 432 73.5Q368 -12 240 -12Q151 -12 91.5 37.5Q32 87 32 184Q32 298 96 385.5Q160 473 290 473ZM280 366Q231 366 203.5 314Q176 262 176 187Q176 139 195 115Q214 91 247 91Q297 91 325 143Q353 195 353 271Q353 317 333.5 341.5Q314 366 280 366ZM377 521Q347 521 331.5 528.5Q316 536 299 547Q280 559 269 565.5Q258 572 246 572Q230 572 219 558.5Q208 545 207 520H132Q116 589 151.5 632.5Q187 676 241 676Q267 676 282.5 669.5Q298 663 311 654Q331 641 343 633.5Q355 626 368 626Q382 626 392 637Q402 648 403 674H480Q498 605 467.5 563Q437 521 377 521Z" glyph-name="otilde" horiz-adv-x="528" unicode="&#245;" /><glyph d="M212 253 201 191Q194 149 211 116Q228 83 269 83Q326 83 356.5 140.5Q387 198 387 268Q387 317 366 343Q345 369 310 369Q276 369 249 339.5Q222 310 212 253ZM180 70 133 -203H-4L113 462H233V373Q252 422 288 447.5Q324 473 378 473Q446 473 489.5 426Q533 379 533 280Q533 158 471 73Q409 -12 299 -12Q253 -12 220 9Q187 30 180 70Z" glyph-name="p" horiz-adv-x="565" unicode="p" /><glyph d="M543 480 456 -10Q441 -94 387 -128.5Q333 -163 266 -163Q233 -163 208.5 -157.5Q184 -152 159 -136L203 -20Q219 -36 238 -42.5Q257 -49 275 -49Q297 -49 311 -36.5Q325 -24 331 10L360 174H311Q209 174 154 223.5Q99 273 118 375Q138 488 214.5 538.5Q291 589 409 589H640L622 480Z" glyph-name="paragraph" horiz-adv-x="560" unicode="&#182;" /><glyph d="M191 138Q191 47 213 -33.5Q235 -114 289 -202H154Q112 -136 87 -53Q62 30 62 131Q62 306 130 443Q198 580 299 668H448Q344 567 267.5 444.5Q191 322 191 138Z" glyph-name="parenleft" horiz-adv-x="368" unicode="(" /><glyph d="M178 328Q178 419 156.5 499.5Q135 580 81 668H215Q258 602 283 519Q308 436 308 335Q308 160 240 23Q172 -114 71 -202H-78Q26 -101 102 21.5Q178 144 178 328Z" glyph-name="parenright" horiz-adv-x="368" unicode=")" /><glyph d="M180 229Q111 229 79.5 271Q48 313 48 377Q48 458 93.5 527.5Q139 597 224 597Q290 597 323.5 554Q357 511 357 445Q357 360 311.5 294.5Q266 229 180 229ZM204 0 612 589H698L287 0ZM215 512Q175 512 160 462Q145 412 145 378Q146 350 157 330.5Q168 311 191 311Q230 311 245.5 361.5Q261 412 261 444Q261 474 250.5 493Q240 512 215 512ZM674 -7Q605 -7 573.5 35Q542 77 542 141Q542 222 587.5 291.5Q633 361 718 361Q784 361 817.5 318Q851 275 851 209Q851 124 805.5 58.5Q760 -7 674 -7ZM709 276Q669 276 654 226Q639 176 639 142Q640 114 651 94.5Q662 75 685 75Q724 75 739.5 125.5Q755 176 755 208Q755 238 744.5 257Q734 276 709 276Z" glyph-name="percent" horiz-adv-x="899" unicode="%" /><glyph d="M34 79Q34 116 58.5 141.5Q83 167 118 167Q156 167 181 141.5Q206 116 206 79Q206 44 181 19.5Q156 -5 118 -5Q83 -5 58.5 19.5Q34 44 34 79Z" glyph-name="period" horiz-adv-x="292" unicode="." /><glyph d="M62 306Q62 343 86.5 368Q111 393 146 393Q184 393 209 368Q234 343 234 306Q234 271 209 246Q184 221 146 221Q111 221 86.5 246Q62 271 62 306Z" glyph-name="periodcentered.cap" horiz-adv-x="282" /><glyph d="M53 285H215L244 445H324L295 285H461L448 211H282L252 37H172L203 211H40Z" glyph-name="plus" horiz-adv-x="501" unicode="+" /><glyph d="M90 359H252L273 483H354L332 359H498L485 285H319L295 147H214L239 285H77ZM439 24H31L44 99H452Z" glyph-name="plusminus" horiz-adv-x="547" unicode="&#177;" /><glyph d="M404 -203H266L315 74Q299 29 263.5 8.5Q228 -12 185 -12Q111 -12 71.5 39Q32 90 32 177Q32 295 91 384Q150 473 256 473Q302 473 334 452Q366 431 370 385L398 462H520ZM336 192 351 269Q357 308 345 339.5Q333 371 290 371Q233 371 203 313.5Q173 256 173 185Q173 145 189.5 117Q206 89 240 89Q279 89 303 115.5Q327 142 336 192Z" glyph-name="q" horiz-adv-x="536" unicode="q" /><glyph d="M163 394 42 437Q62 517 118 559Q174 601 263 601Q362 601 413.5 555Q465 509 465 429Q465 333 397.5 291Q330 249 257 249L245 188H129L153 322H196Q253 322 290.5 341Q328 360 328 411Q328 445 309 464.5Q290 484 253 484Q215 484 192.5 463.5Q170 443 163 394ZM88 72Q88 107 112.5 128.5Q137 150 171 150Q207 150 231 128.5Q255 107 255 72Q255 37 231 16Q207 -5 171 -5Q137 -5 112.5 16Q88 37 88 72Z" glyph-name="question" horiz-adv-x="459" unicode="?" /><glyph d="M377 390Q377 355 353 333.5Q329 312 294 312Q258 312 234 333.5Q210 355 210 390Q210 425 234 446Q258 467 294 467Q329 467 353 446Q377 425 377 390ZM302 68 423 25Q403 -55 347.5 -97Q292 -139 202 -139Q103 -139 51.5 -93Q0 -47 0 33Q0 129 67.5 171Q135 213 208 213L220 274H337L312 140H270Q213 140 175 121Q137 102 137 51Q137 17 156 -2.5Q175 -22 212 -22Q250 -22 272.5 -1.5Q295 19 302 68Z" glyph-name="questiondown" horiz-adv-x="459" unicode="&#191;" /><glyph d="M255 412 300 668H431L335 412ZM79 412 124 668H255L159 412Z" glyph-name="quotedbl" horiz-adv-x="378" unicode="&quot;" /><glyph d="M406 43Q406 -50 342 -89Q278 -128 197 -129V-74Q244 -72 281.5 -51.5Q319 -31 319 5Q285 0 257 17Q229 34 229 74Q229 113 254.5 132.5Q280 152 314 152Q356 152 381 122Q406 92 406 43ZM179 43Q179 -50 115 -89Q51 -128 -30 -129V-74Q17 -72 54.5 -51.5Q92 -31 92 5Q58 0 30 17Q2 34 2 74Q2 113 27.5 132.5Q53 152 87 152Q129 152 154 122Q179 92 179 43Z" glyph-name="quotedblbase" horiz-adv-x="476" unicode="&#8222;" /><glyph d="M81 509Q81 601 145 640.5Q209 680 290 681V626Q243 624 205 603.5Q167 583 167 547Q201 552 229 535Q257 518 257 478Q257 438 232 419Q207 400 173 400Q130 400 105.5 430Q81 460 81 509ZM308 509Q308 601 372 640.5Q436 680 517 681V626Q470 624 432 603.5Q394 583 394 547Q428 552 456 535Q484 518 484 478Q484 438 459 419Q434 400 400 400Q357 400 332.5 430Q308 460 308 509Z" glyph-name="quotedblleft" horiz-adv-x="476" unicode="&#8220;" /><glyph d="M269 572Q269 479 205 440Q141 401 60 400V455Q107 457 144.5 477.5Q182 498 182 534Q148 529 120 546Q92 563 92 603Q92 642 117.5 661.5Q143 681 177 681Q219 681 244 651Q269 621 269 572ZM496 572Q496 479 432 440Q368 401 287 400V455Q334 457 371.5 477.5Q409 498 409 534Q375 529 347 546Q319 563 319 603Q319 642 344.5 661.5Q370 681 404 681Q446 681 471 651Q496 621 496 572Z" glyph-name="quotedblright" horiz-adv-x="476" unicode="&#8221;" /><glyph d="M81 509Q81 601 145 640.5Q209 680 290 681V626Q243 624 205 603.5Q167 583 167 547Q201 552 229 535Q257 518 257 478Q257 438 232 419Q207 400 173 400Q130 400 105.5 430Q81 460 81 509Z" glyph-name="quoteleft" horiz-adv-x="249" unicode="&#8216;" /><glyph d="M269 572Q269 479 205 440Q141 401 60 400V455Q107 457 144.5 477.5Q182 498 182 534Q148 529 120 546Q92 563 92 603Q92 642 117.5 661.5Q143 681 177 681Q219 681 244 651Q269 621 269 572Z" glyph-name="quoteright" horiz-adv-x="249" unicode="&#8217;" /><glyph d="M179 44Q179 -49 115 -88.5Q51 -128 -30 -129V-74Q17 -72 54.5 -51Q92 -30 92 6Q58 0 30 17Q2 34 2 74Q2 114 27.5 133.5Q53 153 87 153Q129 153 154 123Q179 93 179 44Z" glyph-name="quotesinglbase" horiz-adv-x="249" unicode="&#8218;" /><glyph d="M79 412 124 668H255L159 412Z" glyph-name="quotesingle" horiz-adv-x="202" unicode="'" /><glyph d="M413 469 381 312Q331 334 276 318Q221 302 209 231L168 0H32L113 462H232L228 339Q251 407 303 445.5Q355 484 413 469Z" glyph-name="r" horiz-adv-x="389" unicode="r" /><glyph d="M413 469 381 312Q331 334 276 318Q221 302 209 231L168 0H32L113 462H232L228 339Q251 407 303 445.5Q355 484 413 469ZM317 526H195L265 679H434Z" glyph-name="racute" horiz-adv-x="389" unicode="&#341;" /><glyph d="M413 469 381 312Q331 334 276 318Q221 302 209 231L168 0H32L113 462H232L228 339Q251 407 303 445.5Q355 484 413 469ZM300 524H215L108 683H229L254 648Q265 632 266.5 623.5Q268 615 268 615H273Q273 615 277.5 623.5Q282 632 299 648L336 683H462Z" glyph-name="rcaron" horiz-adv-x="389" unicode="&#345;" /><glyph d="M413 469 381 312Q331 334 276 318Q221 302 209 231L168 0H32L113 462H232L228 339Q251 407 303 445.5Q355 484 413 469ZM160 -136Q160 -197 115 -226Q70 -255 4 -255V-210Q36 -209 59.5 -201Q83 -193 83 -172Q55 -176 34.5 -162Q14 -148 14 -117Q14 -84 34.5 -68Q55 -52 83 -52Q117 -52 138.5 -74Q160 -96 160 -136Z" glyph-name="rcommaaccent" horiz-adv-x="389" unicode="&#343;" /><glyph d="M55 294Q55 427 145 514Q235 601 361 601Q487 601 577.5 514Q668 427 668 294Q668 161 577.5 74.5Q487 -12 361 -12Q235 -12 145 74.5Q55 161 55 294ZM86 294Q86 172 168 94.5Q250 17 363 17Q476 17 557 94.5Q638 172 638 294Q638 415 557 493.5Q476 572 363 572Q250 572 168 493.5Q86 415 86 294ZM336 400 320 308H375Q401 308 418 320Q435 332 435 363Q435 381 424.5 390.5Q414 400 392 400ZM520 120H410Q403 127 400 137Q397 147 395 160L390 192Q387 212 378 221.5Q369 231 346 231H306L287 120H185L248 481H409Q475 481 505.5 453.5Q536 426 536 379Q536 325 504 299Q472 273 427 269V267Q455 265 471 252Q487 239 491 217L502 163Q505 150 509 139Q513 128 520 120Z" glyph-name="registered" horiz-adv-x="698" unicode="&#174;" /><glyph d="M80 608Q80 656 113.5 691.5Q147 727 202 727Q248 727 275.5 697.5Q303 668 303 627Q303 577 270 542Q237 507 184 507Q133 507 106.5 536Q80 565 80 608ZM197 666Q174 666 160.5 650Q147 634 147 612Q147 593 158 581Q169 569 188 569Q212 569 225.5 586Q239 603 239 625Q239 643 228 654.5Q217 666 197 666Z" glyph-name="ring" horiz-adv-x="383" unicode="&#730;" /><glyph d="M80 731Q80 779 113.5 814.5Q147 850 202 850Q248 850 275.5 820.5Q303 791 303 750Q303 700 270 665Q237 630 184 630Q133 630 106.5 659Q80 688 80 731ZM197 790Q174 790 160.5 773.5Q147 757 147 735Q147 716 158 704.5Q169 693 188 693Q212 693 225.5 709.5Q239 726 239 748Q239 766 228 778Q217 790 197 790Z" glyph-name="ring.cap" horiz-adv-x="383" /><glyph d="M4 118 115 158Q118 119 139.5 99Q161 79 194 79Q219 79 236 88.5Q253 98 253 122Q253 143 239 156.5Q225 170 185 181Q123 198 93.5 232Q64 266 64 320Q64 400 120 436.5Q176 473 255 473Q341 473 384.5 438.5Q428 404 428 344L314 318Q314 348 297 365Q280 382 246 382Q222 382 207 370.5Q192 359 192 340Q192 322 206.5 311Q221 300 268 284Q334 262 361 229Q388 196 388 136Q388 58 331 23Q274 -12 187 -12Q111 -12 61 18.5Q11 49 4 118Z" glyph-name="s" horiz-adv-x="438" unicode="s" /><glyph d="M4 118 115 158Q118 119 139.5 99Q161 79 194 79Q219 79 236 88.5Q253 98 253 122Q253 143 239 156.5Q225 170 185 181Q123 198 93.5 232Q64 266 64 320Q64 400 120 436.5Q176 473 255 473Q341 473 384.5 438.5Q428 404 428 344L314 318Q314 348 297 365Q280 382 246 382Q222 382 207 370.5Q192 359 192 340Q192 322 206.5 311Q221 300 268 284Q334 262 361 229Q388 196 388 136Q388 58 331 23Q274 -12 187 -12Q111 -12 61 18.5Q11 49 4 118ZM326 526H204L274 679H443Z" glyph-name="sacute" horiz-adv-x="438" unicode="&#347;" /><glyph d="M4 118 115 158Q118 119 139.5 99Q161 79 194 79Q219 79 236 88.5Q253 98 253 122Q253 143 239 156.5Q225 170 185 181Q123 198 93.5 232Q64 266 64 320Q64 400 120 436.5Q176 473 255 473Q341 473 384.5 438.5Q428 404 428 344L314 318Q314 348 297 365Q280 382 246 382Q222 382 207 370.5Q192 359 192 340Q192 322 206.5 311Q221 300 268 284Q334 262 361 229Q388 196 388 136Q388 58 331 23Q274 -12 187 -12Q111 -12 61 18.5Q11 49 4 118ZM309 524H224L117 683H238L263 648Q274 632 275.5 623.5Q277 615 277 615H282Q282 615 286.5 623.5Q291 632 308 648L345 683H471Z" glyph-name="scaron" horiz-adv-x="438" unicode="&#353;" /><glyph d="M263 -118Q263 -165 229 -188Q195 -211 147 -211Q112 -211 84 -201Q56 -191 42 -175L67 -111Q83 -129 99 -137.5Q115 -146 130 -146Q146 -146 154.5 -139.5Q163 -133 163 -120Q163 -104 152 -94Q141 -84 116 -80L144 -9Q85 -2 47 29Q9 60 4 118L115 158Q118 119 139.5 99Q161 79 194 79Q219 79 236 88.5Q253 98 253 122Q253 143 239 156.5Q225 170 185 181Q123 198 93.5 232Q64 266 64 320Q64 400 120 436.5Q176 473 255 473Q341 473 384.5 438.5Q428 404 428 344L314 318Q314 348 297 365Q280 382 246 382Q222 382 207 370.5Q192 359 192 340Q192 322 206.5 311Q221 300 268 284Q334 262 361 229Q388 196 388 136Q388 68 345 33.5Q302 -1 235 -9Q225 -10 215 -11Q205 -12 195 -12L184 -36Q224 -43 243.5 -61.5Q263 -80 263 -118Z" glyph-name="scedilla" horiz-adv-x="438" unicode="&#351;" /><glyph d="M4 118 115 158Q118 119 139.5 99Q161 79 194 79Q219 79 236 88.5Q253 98 253 122Q253 143 239 156.5Q225 170 185 181Q123 198 93.5 232Q64 266 64 320Q64 400 120 436.5Q176 473 255 473Q341 473 384.5 438.5Q428 404 428 344L314 318Q314 348 297 365Q280 382 246 382Q222 382 207 370.5Q192 359 192 340Q192 322 206.5 311Q221 300 268 284Q334 262 361 229Q388 196 388 136Q388 58 331 23Q274 -12 187 -12Q111 -12 61 18.5Q11 49 4 118ZM252 683H337L444 524H323L298 558Q287 574 285.5 582.5Q284 591 284 591H279Q279 591 274.5 582.5Q270 574 253 558L216 524H90Z" glyph-name="scircumflex" horiz-adv-x="438" unicode="&#349;" /><glyph d="M4 118 115 158Q118 119 139.5 99Q161 79 194 79Q219 79 236 88.5Q253 98 253 122Q253 143 239 156.5Q225 170 185 181Q123 198 93.5 232Q64 266 64 320Q64 400 120 436.5Q176 473 255 473Q341 473 384.5 438.5Q428 404 428 344L314 318Q314 348 297 365Q280 382 246 382Q222 382 207 370.5Q192 359 192 340Q192 322 206.5 311Q221 300 268 284Q334 262 361 229Q388 196 388 136Q388 58 331 23Q274 -12 187 -12Q111 -12 61 18.5Q11 49 4 118ZM236 -136Q236 -197 191 -226Q146 -255 80 -255V-210Q112 -209 135.5 -201Q159 -193 159 -172Q131 -176 110.5 -162Q90 -148 90 -117Q90 -84 110.5 -68Q131 -52 159 -52Q193 -52 214.5 -74Q236 -96 236 -136Z" glyph-name="scommaaccent" horiz-adv-x="438" unicode="&#537;" /><glyph d="M232 198Q239 195 245.5 192.5Q252 190 259 188Q275 194 286.5 208.5Q298 223 298 241Q298 261 282.5 273.5Q267 286 223 301Q213 303 203.5 306Q194 309 186 313Q168 306 157.5 290.5Q147 275 147 259Q147 241 164 228.5Q181 216 232 198ZM21 233Q21 287 49.5 317.5Q78 348 121 360Q107 378 100.5 399.5Q94 421 94 447Q94 534 156 567Q218 600 286 600Q376 600 418 565.5Q460 531 460 471L345 445Q346 476 326 492.5Q306 509 277 509Q254 509 239 497.5Q224 486 224 467Q224 449 239 436.5Q254 424 305 406Q376 382 403 348Q430 314 430 265Q430 214 402.5 182.5Q375 151 330 138Q344 120 350 99.5Q356 79 356 54Q356 -24 299 -58.5Q242 -93 157 -93Q67 -93 23 -61.5Q-21 -30 -25 33L86 65Q90 28 112 10Q134 -8 163 -8Q188 -8 205 1.5Q222 11 222 34Q222 54 208 65.5Q194 77 150 92Q78 114 49.5 148.5Q21 183 21 233Z" glyph-name="section" horiz-adv-x="445" unicode="&#167;" /><glyph d="M88 400Q88 438 113 463Q138 488 173 488Q210 488 235 463Q260 438 260 400Q260 365 235 340.5Q210 316 173 316Q138 316 113 340.5Q88 365 88 400ZM210 51Q210 -42 146 -81Q82 -120 1 -121V-66Q48 -64 85.5 -43.5Q123 -23 123 13Q89 8 61 25Q33 42 33 82Q33 121 58.5 140.5Q84 160 118 160Q160 160 185 130Q210 100 210 51Z" glyph-name="semicolon" horiz-adv-x="292" unicode=";" /><glyph d="M292 362H162L149 290H39L73 481H518L502 386L176 -131H31L304 298Q329 337 344 350.5Q359 364 359 364V368Q359 368 344 365Q329 362 292 362Z" glyph-name="seven" horiz-adv-x="521" unicode="7" /><glyph d="M528 504 441 425Q428 457 403 474.5Q378 492 345 492Q268 492 221.5 428.5Q175 365 167 270H171Q184 321 222.5 347.5Q261 374 317 374Q391 374 437 327.5Q483 281 483 206Q483 110 422 49Q361 -12 259 -12Q150 -12 96 52.5Q42 117 42 230Q42 379 123.5 490Q205 601 352 601Q418 601 462 576.5Q506 552 528 504ZM273 273Q236 273 206 247Q176 221 176 170Q176 133 197 112Q218 91 255 91Q294 91 323.5 118Q353 145 353 196Q353 233 332 253Q311 273 273 273Z" glyph-name="six" horiz-adv-x="526" unicode="6" /><glyph d="M-85 -203 340 668H457L29 -203Z" glyph-name="slash" horiz-adv-x="403" unicode="/" /><glyph glyph-name="space" horiz-adv-x="222" unicode=" " /><glyph d="M366 197H250Q249 189 246.5 181Q244 173 241 166Q235 145 221 130Q207 115 190 109H322Q344 109 365.5 117Q387 125 404 156L487 102Q470 52 425.5 26Q381 0 327 0H10L29 110H72Q102 110 119 132Q136 154 136 181Q136 185 136 189Q136 193 135 197H47L59 265H121Q117 278 114.5 294Q112 310 112 336Q112 415 172 453.5Q232 492 310 492Q380 492 431 462.5Q482 433 482 355L358 325Q358 356 342.5 373Q327 390 295 390Q266 390 248.5 373Q231 356 231 327Q231 308 235 294.5Q239 281 243 265H378Z" glyph-name="sterling" horiz-adv-x="501" unicode="&#163;" /><glyph d="M307 129V16Q285 3 251.5 -4.5Q218 -12 184 -12Q110 -12 74 28Q38 68 54 158L90 359H24L42 462H109L126 560L264 576L245 462H365L347 359H227L191 159Q186 129 197 117.5Q208 106 229 106Q248 106 268.5 112.5Q289 119 307 129Z" glyph-name="t" horiz-adv-x="359" unicode="t" /><glyph d="M18 203 35 301H100L110 359H45L63 462H129L146 560L284 576L265 462H385L367 359H247L237 301H358L341 203H219L212 159Q206 129 217 117.5Q228 106 250 106Q269 106 289.5 112.5Q310 119 327 129V16Q305 3 271.5 -4.5Q238 -12 204 -12Q130 -12 94.5 28Q59 68 75 158L82 203Z" glyph-name="tbar" horiz-adv-x="385" unicode="&#359;" /><glyph d="M307 129V16Q285 3 251.5 -4.5Q218 -12 184 -12Q110 -12 74 28Q38 68 54 158L90 359H24L42 462H109L126 560L264 576L245 462H365L347 359H227L191 159Q186 129 197 117.5Q208 106 229 106Q248 106 268.5 112.5Q289 119 307 129ZM447 702 390 508H294L309 702Z" glyph-name="tcaron" horiz-adv-x="359" unicode="&#357;" /><glyph d="M307 129V16Q285 3 251.5 -4.5Q218 -12 184 -12Q110 -12 74 28Q38 68 54 158L90 359H24L42 462H109L126 560L264 576L245 462H365L347 359H227L191 159Q186 129 197 117.5Q208 106 229 106Q248 106 268.5 112.5Q289 119 307 129ZM224 -136Q224 -197 179 -226Q134 -255 68 -255V-210Q100 -209 123.5 -201Q147 -193 147 -172Q119 -176 98.5 -162Q78 -148 78 -117Q78 -84 98.5 -68Q119 -52 147 -52Q181 -52 202.5 -74Q224 -96 224 -136Z" glyph-name="tcommaaccent" horiz-adv-x="359" unicode="&#355;" /><glyph d="M212 253 201 190Q194 147 211 114Q228 81 269 81Q326 81 356.5 138.5Q387 196 387 267Q387 317 366 343Q345 369 310 369Q276 369 249 339.5Q222 310 212 253ZM180 70 133 -203H-4L149 668H285L233 373Q252 422 288 447.5Q324 473 378 473Q446 473 489.5 426Q533 379 533 280Q533 158 471 73Q409 -12 299 -12Q253 -12 220 9Q187 30 180 70Z" glyph-name="thorn" horiz-adv-x="565" unicode="&#254;" /><glyph d="M254 186V183Q339 178 373.5 136.5Q408 95 408 42Q408 -42 341 -90Q274 -138 171 -138Q77 -138 26.5 -101Q-24 -64 -29 2L98 48Q98 5 121.5 -16Q145 -37 182 -37Q219 -37 244.5 -17Q270 3 270 43Q270 77 242 105Q214 133 130 138L146 228Q245 240 276.5 266Q308 292 308 330Q308 358 290.5 371.5Q273 385 248 385Q217 385 197 365.5Q177 346 173 307L46 343Q65 415 121 453.5Q177 492 267 492Q350 492 399 456Q448 420 448 351Q448 274 397.5 232Q347 190 254 186Z" glyph-name="three" horiz-adv-x="480" unicode="3" /><glyph d="M198 -23 197 -25Q242 -31 261.5 -52Q281 -73 281 -106Q281 -158 237.5 -184Q194 -210 130 -210Q73 -210 38.5 -185.5Q4 -161 0 -118L85 -91Q86 -113 96 -126Q106 -139 130 -139Q151 -139 164.5 -130Q178 -121 178 -103Q178 -86 164.5 -71.5Q151 -57 98 -57L108 0Q161 1 178.5 15.5Q196 30 196 47Q196 63 186 71.5Q176 80 163 80Q144 80 131.5 69.5Q119 59 115 40L40 70Q54 112 88.5 135Q123 158 177 158Q229 158 263 135.5Q297 113 297 66Q297 29 271 6.5Q245 -16 198 -23Z" glyph-name="three.inf" horiz-adv-x="318" /><glyph d="M219 416 218 414Q263 408 282.5 387Q302 366 302 333Q302 281 258.5 255Q215 229 151 229Q94 229 59.5 253.5Q25 278 21 321L106 348Q107 326 117 313Q127 300 151 300Q172 300 185.5 309Q199 318 199 336Q199 353 185.5 367.5Q172 382 119 382L129 439Q182 440 199.5 454.5Q217 469 217 486Q217 502 207 510.5Q197 519 184 519Q165 519 152.5 508.5Q140 498 136 479L61 509Q75 551 109.5 574Q144 597 198 597Q250 597 284 574.5Q318 552 318 505Q318 468 292 445.5Q266 423 219 416ZM198 0 606 589H692L281 0ZM698 0 710 70H536L548 137L763 353H859L822 141H872L859 70H809L797 0ZM725 139 737 204Q741 230 747.5 252.5Q754 275 754 275H750Q750 275 740 259Q730 243 712 224L673 184Q653 164 635 150.5Q617 137 617 137V133Q617 133 632.5 136Q648 139 674 139Z" glyph-name="threequarters" horiz-adv-x="890" unicode="&#190;" /><glyph d="M198 416 197 414Q242 408 261.5 387Q281 366 281 333Q281 281 237.5 255Q194 229 130 229Q73 229 38.5 253.5Q4 278 0 321L85 348Q86 326 96 313Q106 300 130 300Q151 300 164.5 309Q178 318 178 336Q178 353 164.5 367.5Q151 382 98 382L108 439Q161 440 178.5 454.5Q196 469 196 486Q196 502 186 510.5Q176 519 163 519Q144 519 131.5 508.5Q119 498 115 479L40 509Q54 551 88.5 574Q123 597 177 597Q229 597 263 574.5Q297 552 297 505Q297 468 271 445.5Q245 423 198 416Z" glyph-name="threesuperior" horiz-adv-x="318" unicode="&#179;" /><glyph d="M342 521Q312 521 296.5 528.5Q281 536 264 547Q245 559 234 565.5Q223 572 211 572Q195 572 184 558.5Q173 545 172 520H97Q81 589 116.5 632.5Q152 676 206 676Q232 676 247.5 669.5Q263 663 276 654Q296 641 308 633.5Q320 626 333 626Q347 626 357 637Q367 648 368 674H445Q463 605 432.5 563Q402 521 342 521Z" glyph-name="tilde" horiz-adv-x="520" unicode="&#732;" /><glyph d="M342 649Q312 649 296.5 656Q281 663 264 674Q245 686 234 692.5Q223 699 211 699Q195 699 184 685.5Q173 672 172 647H97Q81 716 116.5 760Q152 804 206 804Q232 804 247.5 797Q263 790 276 781Q296 768 308 760.5Q320 753 333 753Q347 753 357 764Q367 775 368 801H445Q463 733 432.5 691Q402 649 342 649Z" glyph-name="tilde.cap" horiz-adv-x="520" /><glyph d="M176 341H101L138 528H70L82 589H294L282 528H213ZM582 341H507L535 479H531L474 400H429L405 479H400L373 341H298L347 589H427L465 483H467L547 589H632Z" glyph-name="trademark" horiz-adv-x="640" unicode="&#8482;" /><glyph d="M412 111 392 0H2L18 100Q155 163 225.5 214.5Q296 266 296 322Q296 349 282 362.5Q268 376 243 376Q217 376 197.5 358Q178 340 174 298L52 340Q68 420 126.5 456Q185 492 260 492Q350 492 393 450.5Q436 409 436 344Q436 246 350 190Q264 134 160 115V111Z" glyph-name="two" horiz-adv-x="478" unicode="2" /><glyph d="M288 -126 275 -203H-4L7 -139Q103 -83 155 -44Q207 -5 207 35Q207 55 196.5 65.5Q186 76 164 76Q143 76 128 61.5Q113 47 107 14L27 43Q34 90 70.5 124Q107 158 176 158Q235 158 271 130Q307 102 307 49Q307 -27 240 -66Q173 -105 120 -122V-126Z" glyph-name="two.inf" horiz-adv-x="329" /><glyph d="M288 313 275 236H-4L7 300Q103 356 155 395Q207 434 207 474Q207 494 196.5 504.5Q186 515 164 515Q143 515 128 500.5Q113 486 107 453L27 482Q34 529 70.5 563Q107 597 176 597Q235 597 271 569Q307 541 307 488Q307 412 240 373Q173 334 120 317V313Z" glyph-name="twosuperior" horiz-adv-x="329" unicode="&#178;" /><glyph d="M336 89Q314 36 277 12Q240 -12 183 -12Q110 -12 76 35Q42 82 56 164L109 462H245L192 158Q187 123 200 105Q213 87 241 87Q274 87 301 112Q328 137 337 195L385 462H521L466 145Q463 129 467 116.5Q471 104 492 104Q499 104 506 105Q513 106 522 108L501 7Q484 2 465 -1.5Q446 -5 428 -5Q378 -5 355.5 18.5Q333 42 336 89Z" glyph-name="u" horiz-adv-x="556" unicode="u" /><glyph d="M326 89Q304 36 267 12Q230 -12 173 -12Q100 -12 66 35Q32 82 46 164L99 462H235L182 158Q177 123 190 105Q203 87 231 87Q264 87 291 112Q318 137 327 195L375 462H511L456 145Q453 129 457 116.5Q461 104 482 104Q489 104 496 105Q503 106 512 108L491 7Q474 2 455 -1.5Q436 -5 418 -5Q368 -5 345.5 18.5Q323 42 326 89ZM367 526H245L315 679H484Z" glyph-name="uacute" horiz-adv-x="556" unicode="&#250;" /><glyph d="M326 89Q304 36 267 12Q230 -12 173 -12Q100 -12 66 35Q32 82 46 164L99 462H235L182 158Q177 123 190 105Q203 87 231 87Q264 87 291 112Q318 137 327 195L375 462H511L456 145Q453 129 457 116.5Q461 104 482 104Q489 104 496 105Q503 106 512 108L491 7Q474 2 455 -1.5Q436 -5 418 -5Q368 -5 345.5 18.5Q323 42 326 89ZM310 520Q232 520 204 566Q176 612 188 678H287Q283 650 289 633Q295 616 327 616Q358 616 370.5 633Q383 650 389 678H488Q477 612 432.5 566Q388 520 310 520Z" glyph-name="ubreve" horiz-adv-x="556" unicode="&#365;" /><glyph d="M326 89Q304 36 267 12Q230 -12 173 -12Q100 -12 66 35Q32 82 46 164L99 462H235L182 158Q177 123 190 105Q203 87 231 87Q264 87 291 112Q318 137 327 195L375 462H511L456 145Q453 129 457 116.5Q461 104 482 104Q489 104 496 105Q503 106 512 108L491 7Q474 2 455 -1.5Q436 -5 418 -5Q368 -5 345.5 18.5Q323 42 326 89ZM292 683H377L484 524H363L338 558Q327 574 325.5 582.5Q324 591 324 591H319Q319 591 314.5 582.5Q310 574 293 558L256 524H130Z" glyph-name="ucircumflex" horiz-adv-x="556" unicode="&#251;" /><glyph d="M326 89Q304 36 267 12Q230 -12 173 -12Q100 -12 66 35Q32 82 46 164L99 462H235L182 158Q177 123 190 105Q203 87 231 87Q264 87 291 112Q318 137 327 195L375 462H511L456 145Q453 129 457 116.5Q461 104 482 104Q489 104 496 105Q503 106 512 108L491 7Q474 2 455 -1.5Q436 -5 418 -5Q368 -5 345.5 18.5Q323 42 326 89ZM355 596Q355 633 377 652Q399 671 429 671Q461 671 483 652Q505 633 505 596Q505 559 483 540Q461 521 429 521Q399 521 377 540Q355 559 355 596ZM137 596Q137 633 159 652Q181 671 211 671Q244 671 265.5 652Q287 633 287 596Q287 560 265.5 540.5Q244 521 211 521Q181 521 159 540.5Q137 560 137 596Z" glyph-name="udieresis" horiz-adv-x="556" unicode="&#252;" /><glyph d="M326 89Q304 36 267 12Q230 -12 173 -12Q100 -12 66 35Q32 82 46 164L99 462H235L182 158Q177 123 190 105Q203 87 231 87Q264 87 291 112Q318 137 327 195L375 462H511L456 145Q453 129 457 116.5Q461 104 482 104Q489 104 496 105Q503 106 512 108L491 7Q474 2 455 -1.5Q436 -5 418 -5Q368 -5 345.5 18.5Q323 42 326 89ZM379 526H257L140 679H308Z" glyph-name="ugrave" horiz-adv-x="556" unicode="&#249;" /><glyph d="M326 89Q304 36 267 12Q230 -12 173 -12Q100 -12 66 35Q32 82 46 164L99 462H235L182 158Q177 123 190 105Q203 87 231 87Q264 87 291 112Q318 137 327 195L375 462H511L456 145Q453 129 457 116.5Q461 104 482 104Q489 104 496 105Q503 106 512 108L491 7Q474 2 455 -1.5Q436 -5 418 -5Q368 -5 345.5 18.5Q323 42 326 89ZM441 526H337L407 679H557ZM266 526H171L223 679H364Z" glyph-name="uhungarumlaut" horiz-adv-x="556" unicode="&#369;" /><glyph d="M326 89Q304 36 267 12Q230 -12 173 -12Q100 -12 66 35Q32 82 46 164L99 462H235L182 158Q177 123 190 105Q203 87 231 87Q264 87 291 112Q318 137 327 195L375 462H511L456 145Q453 129 457 116.5Q461 104 482 104Q489 104 496 105Q503 106 512 108L491 7Q474 2 455 -1.5Q436 -5 418 -5Q368 -5 345.5 18.5Q323 42 326 89ZM461 539H167L187 647H481Z" glyph-name="umacron" horiz-adv-x="556" unicode="&#363;" /><glyph d="M-12 -122 5 -22H386L368 -122Z" glyph-name="underscore" horiz-adv-x="480" unicode="_" /><glyph d="M288 77 275 0H-4L7 64Q103 120 155 159Q207 198 207 238Q207 258 196.5 268.5Q186 279 164 279Q143 279 128 264.5Q113 250 107 217L27 246Q34 293 70.5 327Q107 361 176 361Q235 361 271 333Q307 305 307 252Q307 176 240 137Q173 98 120 81V77Z" glyph-name="uni2082" horiz-adv-x="329" unicode="&#8322;" /><glyph d="M168 0 180 70H6L18 137L233 353H329L292 141H342L329 70H279L267 0ZM195 139 207 204Q211 230 217.5 252.5Q224 275 224 275H220Q220 275 210 259Q200 243 182 224L143 184Q123 164 105 150.5Q87 137 87 137V133Q87 133 102.5 136Q118 139 144 139Z" glyph-name="uni2084" horiz-adv-x="368" unicode="&#8324;" /><glyph d="M521 462 466 145Q463 129 467 116.5Q471 104 493 104Q500 104 507 105Q514 106 523 108L502 7Q457 -2 411.5 -18Q366 -34 366 -84Q366 -103 376 -113.5Q386 -124 403 -124Q421 -124 434 -117.5Q447 -111 462 -95L491 -163Q469 -188 439.5 -199.5Q410 -211 374 -211Q326 -211 292 -186.5Q258 -162 258 -108Q258 -62 288.5 -29.5Q319 3 354 20Q344 30 338 46.5Q332 63 336 89Q314 36 277 12Q240 -12 183 -12Q110 -12 76 35Q42 82 56 164L109 462H245L192 158Q187 123 200 105Q213 87 241 87Q274 87 301 112Q328 137 337 195L385 462Z" glyph-name="uogonek" horiz-adv-x="556" unicode="&#371;" /><glyph d="M326 89Q304 36 267 12Q230 -12 173 -12Q100 -12 66 35Q32 82 46 164L99 462H235L182 158Q177 123 190 105Q203 87 231 87Q264 87 291 112Q318 137 327 195L375 462H511L456 145Q453 129 457 116.5Q461 104 482 104Q489 104 496 105Q503 106 512 108L491 7Q474 2 455 -1.5Q436 -5 418 -5Q368 -5 345.5 18.5Q323 42 326 89ZM216 608Q216 656 249.5 691.5Q283 727 338 727Q384 727 411.5 697.5Q439 668 439 627Q439 577 406 542Q373 507 320 507Q269 507 242.5 536Q216 565 216 608ZM333 666Q310 666 296.5 650Q283 634 283 612Q283 593 294 581Q305 569 324 569Q348 569 361.5 586Q375 603 375 625Q375 643 364 654.5Q353 666 333 666Z" glyph-name="uring" horiz-adv-x="556" unicode="&#367;" /><glyph d="M326 89Q304 36 267 12Q230 -12 173 -12Q100 -12 66 35Q32 82 46 164L99 462H235L182 158Q177 123 190 105Q203 87 231 87Q264 87 291 112Q318 137 327 195L375 462H511L456 145Q453 129 457 116.5Q461 104 482 104Q489 104 496 105Q503 106 512 108L491 7Q474 2 455 -1.5Q436 -5 418 -5Q368 -5 345.5 18.5Q323 42 326 89ZM388 521Q358 521 342.5 528.5Q327 536 310 547Q291 559 280 565.5Q269 572 257 572Q241 572 230 558.5Q219 545 218 520H143Q127 589 162.5 632.5Q198 676 252 676Q278 676 293.5 669.5Q309 663 322 654Q342 641 354 633.5Q366 626 379 626Q393 626 403 637Q413 648 414 674H491Q509 605 478.5 563Q448 521 388 521Z" glyph-name="utilde" horiz-adv-x="556" unicode="&#361;" /><glyph d="M103 0 32 462H169L192 252Q199 187 196 144.5Q193 102 193 102H197Q197 102 210 148.5Q223 195 253 251L366 462H508L249 0Z" glyph-name="v" horiz-adv-x="462" unicode="v" /><glyph d="M450 462 465 271Q472 202 467.5 149.5Q463 97 463 97H467Q467 97 480 148.5Q493 200 521 269L600 462H743L542 0H383L363 165Q359 220 362 267Q365 314 365 314H361Q361 314 349 267.5Q337 221 312 164L246 0H88L42 462H179L194 270Q199 201 197 149Q195 97 195 97H199Q199 97 211.5 149.5Q224 202 253 271L332 462Z" glyph-name="w" horiz-adv-x="707" unicode="w" /><glyph d="M450 462 465 271Q472 202 467.5 149.5Q463 97 463 97H467Q467 97 480 148.5Q493 200 521 269L600 462H743L542 0H383L363 165Q359 220 362 267Q365 314 365 314H361Q361 314 349 267.5Q337 221 312 164L246 0H88L42 462H179L194 270Q199 201 197 149Q195 97 195 97H199Q199 97 211.5 149.5Q224 202 253 271L332 462ZM455 526H333L403 679H572Z" glyph-name="wacute" horiz-adv-x="707" unicode="&#7811;" /><glyph d="M450 462 465 271Q472 202 467.5 149.5Q463 97 463 97H467Q467 97 480 148.5Q493 200 521 269L600 462H743L542 0H383L363 165Q359 220 362 267Q365 314 365 314H361Q361 314 349 267.5Q337 221 312 164L246 0H88L42 462H179L194 270Q199 201 197 149Q195 97 195 97H199Q199 97 211.5 149.5Q224 202 253 271L332 462ZM381 683H466L573 524H452L427 558Q416 574 414.5 582.5Q413 591 413 591H408Q408 591 403.5 582.5Q399 574 382 558L345 524H219Z" glyph-name="wcircumflex" horiz-adv-x="707" unicode="&#373;" /><glyph d="M450 462 465 271Q472 202 467.5 149.5Q463 97 463 97H467Q467 97 480 148.5Q493 200 521 269L600 462H743L542 0H383L363 165Q359 220 362 267Q365 314 365 314H361Q361 314 349 267.5Q337 221 312 164L246 0H88L42 462H179L194 270Q199 201 197 149Q195 97 195 97H199Q199 97 211.5 149.5Q224 202 253 271L332 462ZM442 596Q442 633 464 652Q486 671 516 671Q548 671 570 652Q592 633 592 596Q592 559 570 540Q548 521 516 521Q486 521 464 540Q442 559 442 596ZM224 596Q224 633 246 652Q268 671 298 671Q331 671 352.5 652Q374 633 374 596Q374 560 352.5 540.5Q331 521 298 521Q268 521 246 540.5Q224 560 224 596Z" glyph-name="wdieresis" horiz-adv-x="707" unicode="&#7813;" /><glyph d="M450 462 465 271Q472 202 467.5 149.5Q463 97 463 97H467Q467 97 480 148.5Q493 200 521 269L600 462H743L542 0H383L363 165Q359 220 362 267Q365 314 365 314H361Q361 314 349 267.5Q337 221 312 164L246 0H88L42 462H179L194 270Q199 201 197 149Q195 97 195 97H199Q199 97 211.5 149.5Q224 202 253 271L332 462ZM467 526H345L228 679H396Z" glyph-name="wgrave" horiz-adv-x="707" unicode="&#7809;" /><glyph d="M311 0 268 85Q249 130 246.5 150Q244 170 244 170H240Q240 170 231.5 149.5Q223 129 189 84L122 0H-29L160 231L61 462H205L235 389Q253 346 256.5 323.5Q260 301 260 301H264Q264 301 276 326Q288 351 316 388L372 462H524L341 235L450 0Z" glyph-name="x" horiz-adv-x="492" unicode="x" /><glyph d="M179 462 199 229Q205 168 202.5 130.5Q200 93 200 93H204Q204 93 216 137.5Q228 182 254 233L374 462H516L236 -45Q179 -151 125.5 -181Q72 -211 10 -211Q-19 -211 -42.5 -205Q-66 -199 -81 -192L-43 -82Q-31 -89 -16 -95Q-1 -101 15 -101Q46 -101 70 -82.5Q94 -64 115 -26L39 462Z" glyph-name="y" horiz-adv-x="470" unicode="y" /><glyph d="M179 462 199 229Q205 168 202.5 130.5Q200 93 200 93H204Q204 93 216 137.5Q228 182 254 233L374 462H516L236 -45Q179 -151 125.5 -181Q72 -211 10 -211Q-19 -211 -42.5 -205Q-66 -199 -81 -192L-43 -82Q-31 -89 -16 -95Q-1 -101 15 -101Q46 -101 70 -82.5Q94 -64 115 -26L39 462ZM332 526H210L280 679H449Z" glyph-name="yacute" horiz-adv-x="470" unicode="&#253;" /><glyph d="M179 462 199 229Q205 168 202.5 130.5Q200 93 200 93H204Q204 93 216 137.5Q228 182 254 233L374 462H516L236 -45Q179 -151 125.5 -181Q72 -211 10 -211Q-19 -211 -42.5 -205Q-66 -199 -81 -192L-43 -82Q-31 -89 -16 -95Q-1 -101 15 -101Q46 -101 70 -82.5Q94 -64 115 -26L39 462ZM258 683H343L450 524H329L304 558Q293 574 291.5 582.5Q290 591 290 591H285Q285 591 280.5 582.5Q276 574 259 558L222 524H96Z" glyph-name="ycircumflex" horiz-adv-x="470" unicode="&#375;" /><glyph d="M179 462 199 229Q205 168 202.5 130.5Q200 93 200 93H204Q204 93 216 137.5Q228 182 254 233L374 462H516L236 -45Q179 -151 125.5 -181Q72 -211 10 -211Q-19 -211 -42.5 -205Q-66 -199 -81 -192L-43 -82Q-31 -89 -16 -95Q-1 -101 15 -101Q46 -101 70 -82.5Q94 -64 115 -26L39 462ZM320 596Q320 633 342 652Q364 671 394 671Q426 671 448 652Q470 633 470 596Q470 559 448 540Q426 521 394 521Q364 521 342 540Q320 559 320 596ZM102 596Q102 633 124 652Q146 671 176 671Q209 671 230.5 652Q252 633 252 596Q252 560 230.5 540.5Q209 521 176 521Q146 521 124 540.5Q102 560 102 596Z" glyph-name="ydieresis" horiz-adv-x="470" unicode="&#255;" /><glyph d="M491 240H379L344 193H487L483 140H315L291 0H154L178 140H28L32 193H165L146 240H36L41 293H125L49 481H193L237 356Q255 308 258 280.5Q261 253 261 253H265Q265 253 275 280Q285 307 318 355L404 481H552L416 293H496Z" glyph-name="yen" horiz-adv-x="544" unicode="&#165;" /><glyph d="M179 462 199 229Q205 168 202.5 130.5Q200 93 200 93H204Q204 93 216 137.5Q228 182 254 233L374 462H516L236 -45Q179 -151 125.5 -181Q72 -211 10 -211Q-19 -211 -42.5 -205Q-66 -199 -81 -192L-43 -82Q-31 -89 -16 -95Q-1 -101 15 -101Q46 -101 70 -82.5Q94 -64 115 -26L39 462ZM344 526H222L105 679H273Z" glyph-name="ygrave" horiz-adv-x="470" unicode="&#7923;" /><glyph d="M18 74 205 292Q236 328 258.5 344Q281 360 281 360V364Q281 364 256.5 360Q232 356 193 356H76L99 462H456L446 381L253 168Q222 133 200 116.5Q178 100 178 100V96Q178 96 202 100Q226 104 265 104H399L380 0H6Z" glyph-name="z" horiz-adv-x="458" unicode="z" /><glyph d="M18 74 205 292Q236 328 258.5 344Q281 360 281 360V364Q281 364 256.5 360Q232 356 193 356H76L99 462H456L446 381L253 168Q222 133 200 116.5Q178 100 178 100V96Q178 96 202 100Q226 104 265 104H399L380 0H6ZM333 526H211L281 679H450Z" glyph-name="zacute" horiz-adv-x="458" unicode="&#378;" /><glyph d="M18 74 205 292Q236 328 258.5 344Q281 360 281 360V364Q281 364 256.5 360Q232 356 193 356H76L99 462H456L446 381L253 168Q222 133 200 116.5Q178 100 178 100V96Q178 96 202 100Q226 104 265 104H399L380 0H6ZM315 524H230L123 683H244L269 648Q280 632 281.5 623.5Q283 615 283 615H288Q288 615 292.5 623.5Q297 632 314 648L351 683H477Z" glyph-name="zcaron" horiz-adv-x="458" unicode="&#382;" /><glyph d="M18 74 205 292Q236 328 258.5 344Q281 360 281 360V364Q281 364 256.5 360Q232 356 193 356H76L99 462H456L446 381L253 168Q222 133 200 116.5Q178 100 178 100V96Q178 96 202 100Q226 104 265 104H399L380 0H6ZM206 598Q206 636 230 656Q254 676 287 676Q324 676 347.5 656Q371 636 371 598Q371 561 347.5 541.5Q324 522 287 522Q254 522 230 541.5Q206 561 206 598Z" glyph-name="zdotaccent" horiz-adv-x="458" unicode="&#380;" /><glyph d="M268 -12Q150 -12 96 57Q42 126 42 210Q42 347 123 419.5Q204 492 314 492Q432 492 486.5 423Q541 354 541 264Q541 133 461 60.5Q381 -12 268 -12ZM169 221Q169 170 196.5 135.5Q224 101 275 101Q329 101 369.5 142.5Q410 184 410 256Q410 307 382.5 341Q355 375 306 375Q248 375 208.5 333Q169 291 169 221Z" glyph-name="zero" horiz-adv-x="583" unicode="0" /></font>
</defs>
</svg>
