<?xml version="1.0" standalone="no"?><!DOCTYPE svg PUBLIC "-//W3C//DTD SVG 1.1//EN" "http://www.w3.org/Graphics/SVG/1.1/DTD/svg11.dtd" ><svg version="1.1" xmlns="http://www.w3.org/2000/svg"><defs><font horiz-adv-x="0" id="font"><font-face ascent="766" bbox="-170 -245 1014 825" cap-height="591" descent="-234" font-family="Copyright Klim Type Foundry" font-stretch="normal" font-style="normal" font-weight="500" units-per-em="1000" x-height="462" /><missing-glyph horiz-adv-x="225" /><glyph d="M270 392 188 238H390Q365 360 354 451Q343 542 344 542H340Q340 542 323 501Q306 460 270 392ZM433 0 402 174H155L64 0H-20L298 589H404L514 0Z" glyph-name="A" horiz-adv-x="577" unicode="A" /><glyph d="M491 539 255 238H437L471 430Q483 498 489 518.5Q495 539 495 539ZM396 0 426 174H205L69 0H-20L441 589H851L839 521H567L533 328H774L762 260H521L487 68H759L748 0Z" glyph-name="AE" horiz-adv-x="836" unicode="&#198;" /><glyph d="M491 539 255 238H437L471 430Q483 498 489 518.5Q495 539 495 539ZM396 0 426 174H205L69 0H-20L441 589H851L839 521H567L533 328H774L762 260H521L487 68H759L748 0ZM653 655H584L646 771H750Z" glyph-name="AEacute" horiz-adv-x="836" unicode="&#508;" /><glyph d="M270 392 188 238H390Q365 360 354 451Q343 542 344 542H340Q340 542 323 501Q306 460 270 392ZM433 0 402 174H155L64 0H-20L298 589H404L514 0ZM387 655H318L380 771H484Z" glyph-name="Aacute" horiz-adv-x="577" unicode="&#193;" /><glyph d="M270 392 188 238H390Q365 360 354 451Q343 542 344 542H340Q340 542 323 501Q306 460 270 392ZM433 0 402 174H155L64 0H-20L298 589H404L514 0ZM355 652Q295 652 266.5 686.5Q238 721 248 778H309Q306 746 318 727.5Q330 709 366 709Q403 709 421 727.5Q439 746 448 778H509Q499 721 457.5 686.5Q416 652 355 652Z" glyph-name="Abreve" horiz-adv-x="577" unicode="&#258;" /><glyph d="M270 392 188 238H390Q365 360 354 451Q343 542 344 542H340Q340 542 323 501Q306 460 270 392ZM433 0 402 174H155L64 0H-20L298 589H404L514 0ZM348 779H394L493 655H408L382 689Q371 705 367.5 714.5Q364 724 364 724H362Q362 724 355.5 714.5Q349 705 332 689L294 655H205Z" glyph-name="Acircumflex" horiz-adv-x="577" unicode="&#194;" /><glyph d="M270 392 188 238H390Q365 360 354 451Q343 542 344 542H340Q340 542 323 501Q306 460 270 392ZM433 0 402 174H155L64 0H-20L298 589H404L514 0ZM214 710Q214 732 230 748Q246 764 268 764Q290 764 306 748Q322 732 322 710Q322 688 306 672Q290 656 268 656Q246 656 230 672Q214 688 214 710ZM403 709Q403 731 419 747Q435 763 457 763Q479 763 495 747Q511 731 511 709Q511 687 495 671Q479 655 457 655Q435 655 419 671Q403 687 403 709Z" glyph-name="Adieresis" horiz-adv-x="577" unicode="&#196;" /><glyph d="M270 392 188 238H390Q365 360 354 451Q343 542 344 542H340Q340 542 323 501Q306 460 270 392ZM433 0 402 174H155L64 0H-20L298 589H404L514 0ZM395 655H326L229 771H333Z" glyph-name="Agrave" horiz-adv-x="577" unicode="&#192;" /><glyph d="M270 392 188 238H390Q365 360 354 451Q343 542 344 542H340Q340 542 323 501Q306 460 270 392ZM433 0 402 174H155L64 0H-20L298 589H404L514 0ZM488 677H237L247 736H498Z" glyph-name="Amacron" horiz-adv-x="577" unicode="&#256;" /><glyph d="M261 -118Q261 -47 317.5 -5.5Q374 36 425 43L402 174H155L64 0H-20L298 589H404L514 0H472Q418 0 372.5 -29.5Q327 -59 327 -110Q327 -132 340 -145.5Q353 -159 374 -159Q400 -159 414.5 -147Q429 -135 439 -116L468 -151Q455 -176 431 -193.5Q407 -211 362 -211Q312 -211 286.5 -185.5Q261 -160 261 -118ZM270 392 188 238H390Q365 360 354 451Q343 542 344 542H340Q340 542 323 501Q306 460 270 392Z" glyph-name="Aogonek" horiz-adv-x="577" unicode="&#260;" /><glyph d="M270 392 188 238H390Q365 360 354 451Q343 542 344 542H340Q340 542 323 501Q306 460 270 392ZM433 0 402 174H155L64 0H-20L298 589H404L514 0ZM277 723Q277 765 306 795Q335 825 381 825Q421 825 444.5 800Q468 775 468 740Q468 698 439.5 668Q411 638 365 638Q322 638 299.5 662.5Q277 687 277 723ZM377 788Q353 788 336.5 770Q320 752 320 728Q320 703 333.5 689Q347 675 371 675Q394 675 410 693Q426 711 426 735Q426 759 413 773.5Q400 788 377 788Z" glyph-name="Aring" horiz-adv-x="577" unicode="&#197;" /><glyph d="M270 392 188 238H390Q365 360 354 451Q343 542 344 542H340Q340 542 323 501Q306 460 270 392ZM433 0 402 174H155L64 0H-20L298 589H404L514 0ZM417 655Q391 655 376 663Q361 671 345 681Q327 692 316 699Q305 706 289 706Q273 706 262 694Q251 682 250 657H202Q194 703 220 736.5Q246 770 291 770Q319 770 335 761Q351 752 369 740Q387 728 396.5 723Q406 718 419 718Q433 718 443 730Q453 742 456 770H507Q513 721 488.5 688Q464 655 417 655Z" glyph-name="Atilde" horiz-adv-x="577" unicode="&#195;" /><glyph d="M343 300V296Q394 292 424 264.5Q454 237 454 186Q454 87 390 43.5Q326 0 230 0H40L143 589H316Q401 589 438.5 554.5Q476 520 476 457Q476 385 436 345Q396 305 343 300ZM177 327H268Q323 327 359 354.5Q395 382 395 445Q395 487 371 505.5Q347 524 297 524H212ZM166 263 131 65H239Q295 65 335.5 89Q376 113 376 179Q376 216 354 239.5Q332 263 273 263Z" glyph-name="B" horiz-adv-x="506" unicode="B" /><glyph d="M443 144 504 110Q470 50 415.5 19Q361 -12 281 -12Q174 -12 114.5 55.5Q55 123 55 227Q55 404 144 502.5Q233 601 355 601Q431 601 480 566.5Q529 532 546 462L468 430Q458 484 424 509.5Q390 535 347 535Q246 535 191 443Q136 351 136 233Q136 152 175.5 103Q215 54 290 54Q339 54 375 72Q411 90 443 144Z" glyph-name="C" horiz-adv-x="551" unicode="C" /><glyph d="M443 144 504 110Q470 50 415.5 19Q361 -12 281 -12Q174 -12 114.5 55.5Q55 123 55 227Q55 404 144 502.5Q233 601 355 601Q431 601 480 566.5Q529 532 546 462L468 430Q458 484 424 509.5Q390 535 347 535Q246 535 191 443Q136 351 136 233Q136 152 175.5 103Q215 54 290 54Q339 54 375 72Q411 90 443 144ZM392 655H323L385 771H489Z" glyph-name="Cacute" horiz-adv-x="551" unicode="&#262;" /><glyph d="M443 144 504 110Q470 50 415.5 19Q361 -12 281 -12Q174 -12 114.5 55.5Q55 123 55 227Q55 404 144 502.5Q233 601 355 601Q431 601 480 566.5Q529 532 546 462L468 430Q458 484 424 509.5Q390 535 347 535Q246 535 191 443Q136 351 136 233Q136 152 175.5 103Q215 54 290 54Q339 54 375 72Q411 90 443 144ZM382 655H336L237 779H322L348 745Q359 729 362.5 719.5Q366 710 366 710H368Q368 710 374.5 719.5Q381 729 398 745L436 779H525Z" glyph-name="Ccaron" horiz-adv-x="551" unicode="&#268;" /><glyph d="M325 -126Q325 -169 294 -190Q263 -211 221 -211Q193 -211 171 -201Q149 -191 136 -173L159 -125Q171 -143 186.5 -152.5Q202 -162 221 -162Q239 -162 250.5 -153Q262 -144 262 -126Q262 -106 246 -94Q230 -82 193 -82L222 -6Q142 11 98.5 74Q55 137 55 227Q55 404 144 502.5Q233 601 355 601Q431 601 480 566.5Q529 532 546 462L468 430Q458 484 424 509.5Q390 535 347 535Q246 535 191 443Q136 351 136 233Q136 152 175.5 103Q215 54 290 54Q339 54 375 72Q411 90 443 144L504 110Q470 50 415.5 19Q361 -12 281 -12Q276 -12 270.5 -12Q265 -12 260 -11L247 -42Q287 -51 306 -71Q325 -91 325 -126Z" glyph-name="Ccedilla" horiz-adv-x="551" unicode="&#199;" /><glyph d="M443 144 504 110Q470 50 415.5 19Q361 -12 281 -12Q174 -12 114.5 55.5Q55 123 55 227Q55 404 144 502.5Q233 601 355 601Q431 601 480 566.5Q529 532 546 462L468 430Q458 484 424 509.5Q390 535 347 535Q246 535 191 443Q136 351 136 233Q136 152 175.5 103Q215 54 290 54Q339 54 375 72Q411 90 443 144ZM354 779H400L499 655H414L388 689Q377 705 373.5 714.5Q370 724 370 724H368Q368 724 361.5 714.5Q355 705 338 689L300 655H211Z" glyph-name="Ccircumflex" horiz-adv-x="551" unicode="&#264;" /><glyph d="M443 144 504 110Q470 50 415.5 19Q361 -12 281 -12Q174 -12 114.5 55.5Q55 123 55 227Q55 404 144 502.5Q233 601 355 601Q431 601 480 566.5Q529 532 546 462L468 430Q458 484 424 509.5Q390 535 347 535Q246 535 191 443Q136 351 136 233Q136 152 175.5 103Q215 54 290 54Q339 54 375 72Q411 90 443 144ZM316 725Q316 748 331.5 764Q347 780 369 780Q392 780 408 764Q424 748 424 725Q424 703 408 687Q392 671 369 671Q347 671 331.5 687Q316 703 316 725Z" glyph-name="Cdotaccent" horiz-adv-x="551" unicode="&#266;" /><glyph d="M230 0H40L143 589H303Q428 589 488 529.5Q548 470 548 366Q548 167 446 83.5Q344 0 230 0ZM131 65H226Q322 65 393 134Q464 203 464 360Q464 448 416.5 486Q369 524 291 524H212Z" glyph-name="D" horiz-adv-x="583" unicode="D" /><glyph d="M230 0H40L143 589H303Q428 589 488 529.5Q548 470 548 366Q548 167 446 83.5Q344 0 230 0ZM131 65H226Q322 65 393 134Q464 203 464 360Q464 448 416.5 486Q369 524 291 524H212ZM338 655H292L193 779H278L304 745Q315 729 318.5 719.5Q322 710 322 710H324Q324 710 330.5 719.5Q337 729 354 745L392 779H481Z" glyph-name="Dcaron" horiz-adv-x="588" unicode="&#270;" /><glyph d="M230 0H40L85 260H20L32 328H97L143 589H303Q428 589 488 529.5Q548 470 548 366Q548 167 446 83.5Q344 0 230 0ZM131 65H226Q322 65 393 134Q464 203 464 360Q464 448 416.5 486Q369 524 291 524H212L177 328H303L291 260H165Z" glyph-name="Dcroat" horiz-adv-x="588" unicode="&#272;" /><glyph d="M403 68 392 0H40L143 589H495L483 521H211L177 328H418L406 260H165L131 68Z" glyph-name="E" horiz-adv-x="480" unicode="E" /><glyph d="M403 68 392 0H40L143 589H495L483 521H211L177 328H418L406 260H165L131 68ZM346 655H277L339 771H443Z" glyph-name="Eacute" horiz-adv-x="480" unicode="&#201;" /><glyph d="M403 68 392 0H40L143 589H495L483 521H211L177 328H418L406 260H165L131 68ZM314 652Q254 652 225.5 686.5Q197 721 207 778H268Q265 746 277 727.5Q289 709 325 709Q362 709 380 727.5Q398 746 407 778H468Q458 721 416.5 686.5Q375 652 314 652Z" glyph-name="Ebreve" horiz-adv-x="480" unicode="&#276;" /><glyph d="M403 68 392 0H40L143 589H495L483 521H211L177 328H418L406 260H165L131 68ZM335 655H289L190 779H275L301 745Q312 729 315.5 719.5Q319 710 319 710H321Q321 710 327.5 719.5Q334 729 351 745L389 779H478Z" glyph-name="Ecaron" horiz-adv-x="480" unicode="&#282;" /><glyph d="M403 68 392 0H40L143 589H495L483 521H211L177 328H418L406 260H165L131 68ZM307 779H353L452 655H367L341 689Q330 705 326.5 714.5Q323 724 323 724H321Q321 724 314.5 714.5Q308 705 291 689L253 655H164Z" glyph-name="Ecircumflex" horiz-adv-x="480" unicode="&#202;" /><glyph d="M403 68 392 0H40L143 589H495L483 521H211L177 328H418L406 260H165L131 68ZM173 710Q173 732 189 748Q205 764 227 764Q249 764 265 748Q281 732 281 710Q281 688 265 672Q249 656 227 656Q205 656 189 672Q173 688 173 710ZM362 709Q362 731 378 747Q394 763 416 763Q438 763 454 747Q470 731 470 709Q470 687 454 671Q438 655 416 655Q394 655 378 671Q362 687 362 709Z" glyph-name="Edieresis" horiz-adv-x="480" unicode="&#203;" /><glyph d="M403 68 392 0H40L143 589H495L483 521H211L177 328H418L406 260H165L131 68ZM269 725Q269 748 284.5 764Q300 780 322 780Q345 780 361 764Q377 748 377 725Q377 703 361 687Q345 671 322 671Q300 671 284.5 687Q269 703 269 725Z" glyph-name="Edotaccent" horiz-adv-x="480" unicode="&#278;" /><glyph d="M403 68 392 0H40L143 589H495L483 521H211L177 328H418L406 260H165L131 68ZM354 655H285L188 771H292Z" glyph-name="Egrave" horiz-adv-x="480" unicode="&#200;" /><glyph d="M403 68 392 0H40L143 589H495L483 521H211L177 328H418L406 260H165L131 68ZM447 677H196L206 736H457Z" glyph-name="Emacron" horiz-adv-x="480" unicode="&#274;" /><glyph d="M598 589 487 -44Q471 -134 425.5 -172.5Q380 -211 296 -211Q239 -211 202 -188.5Q165 -166 146 -135L203 -79Q216 -104 241 -125Q266 -146 301 -146Q355 -146 377.5 -115Q400 -84 410 -24L414 0L251 346Q228 396 214 437.5Q200 479 200 479H196Q196 479 192.5 435Q189 391 179 336L120 0H40L143 589H226L385 241Q409 189 421.5 148.5Q434 108 434 108H438Q438 108 443.5 153Q449 198 459 253L518 589Z" glyph-name="Eng" horiz-adv-x="613" unicode="&#330;" /><glyph d="M162 -118Q162 -80 185 -47.5Q208 -15 241 0H40L143 589H495L483 521H211L177 328H418L406 260H165L131 68H403L392 0H367Q313 0 270.5 -30.5Q228 -61 228 -110Q228 -132 241 -145.5Q254 -159 275 -159Q301 -159 315.5 -147Q330 -135 340 -116L369 -151Q356 -176 332 -193.5Q308 -211 263 -211Q213 -211 187.5 -185.5Q162 -160 162 -118Z" glyph-name="Eogonek" horiz-adv-x="480" unicode="&#280;" /><glyph d="M230 0H40L85 260H20L32 328H97L143 589H303Q428 589 488 529.5Q548 470 548 366Q548 167 446 83.5Q344 0 230 0ZM131 65H226Q322 65 393 134Q464 203 464 360Q464 448 416.5 486Q369 524 291 524H212L177 328H303L291 260H165Z" glyph-name="Eth" horiz-adv-x="588" unicode="&#208;" /><glyph d="M362 276H188Q184 261 182 244.5Q180 228 180 212H344L325 162H183Q191 110 223.5 79.5Q256 49 307 49Q346 49 380 69Q414 89 442 137L498 96Q462 40 414 14Q366 -12 295 -12Q217 -12 164.5 34.5Q112 81 103 162H20L29 212H102Q103 228 105 244Q107 260 110 276H40L49 326H125Q153 401 214 447Q275 493 364 493Q436 493 475.5 462.5Q515 432 530 378L456 342Q448 387 420.5 408.5Q393 430 351 430Q303 430 265.5 401.5Q228 373 206 326H381Z" glyph-name="Euro" horiz-adv-x="540" unicode="&#8364;" /><glyph d="M120 0H40L143 589H477L465 521H211L177 328H400L388 260H165Z" glyph-name="F" horiz-adv-x="452" unicode="F" /><glyph d="M317 300H545L493 0H431L430 75Q411 35 373.5 11.5Q336 -12 280 -12Q173 -12 114 55.5Q55 123 55 227Q55 404 144.5 502.5Q234 601 356 601Q432 601 481 566.5Q530 532 547 462L469 430Q459 484 425 509.5Q391 535 348 535Q247 535 191.5 443Q136 351 136 233Q136 152 174 103Q212 54 290 54Q347 54 391 84.5Q435 115 448 192L455 230H305Z" glyph-name="G" horiz-adv-x="592" unicode="G" /><glyph d="M317 300H545L493 0H431L430 75Q411 35 373.5 11.5Q336 -12 280 -12Q173 -12 114 55.5Q55 123 55 227Q55 404 144.5 502.5Q234 601 356 601Q432 601 481 566.5Q530 532 547 462L469 430Q459 484 425 509.5Q391 535 348 535Q247 535 191.5 443Q136 351 136 233Q136 152 174 103Q212 54 290 54Q347 54 391 84.5Q435 115 448 192L455 230H305ZM361 652Q301 652 272.5 686.5Q244 721 254 778H315Q312 746 324 727.5Q336 709 372 709Q409 709 427 727.5Q445 746 454 778H515Q505 721 463.5 686.5Q422 652 361 652Z" glyph-name="Gbreve" horiz-adv-x="592" unicode="&#286;" /><glyph d="M317 300H545L493 0H431L430 75Q411 35 373.5 11.5Q336 -12 280 -12Q173 -12 114 55.5Q55 123 55 227Q55 404 144.5 502.5Q234 601 356 601Q432 601 481 566.5Q530 532 547 462L469 430Q459 484 425 509.5Q391 535 348 535Q247 535 191.5 443Q136 351 136 233Q136 152 174 103Q212 54 290 54Q347 54 391 84.5Q435 115 448 192L455 230H305ZM355 779H401L500 655H415L389 689Q378 705 374.5 714.5Q371 724 371 724H369Q369 724 362.5 714.5Q356 705 339 689L301 655H212Z" glyph-name="Gcircumflex" horiz-adv-x="592" unicode="&#284;" /><glyph d="M317 300H545L493 0H431L430 75Q411 35 373.5 11.5Q336 -12 280 -12Q173 -12 114 55.5Q55 123 55 227Q55 404 144.5 502.5Q234 601 356 601Q432 601 481 566.5Q530 532 547 462L469 430Q459 484 425 509.5Q391 535 348 535Q247 535 191.5 443Q136 351 136 233Q136 152 174 103Q212 54 290 54Q347 54 391 84.5Q435 115 448 192L455 230H305ZM291 -140Q291 -194 254.5 -219.5Q218 -245 163 -245V-211Q191 -210 213 -201Q235 -192 235 -167Q209 -172 193.5 -158.5Q178 -145 178 -123Q178 -100 192.5 -87Q207 -74 231 -74Q254 -74 272.5 -90Q291 -106 291 -140Z" glyph-name="Gcommaaccent" horiz-adv-x="592" unicode="&#290;" /><glyph d="M317 300H545L493 0H431L430 75Q411 35 373.5 11.5Q336 -12 280 -12Q173 -12 114 55.5Q55 123 55 227Q55 404 144.5 502.5Q234 601 356 601Q432 601 481 566.5Q530 532 547 462L469 430Q459 484 425 509.5Q391 535 348 535Q247 535 191.5 443Q136 351 136 233Q136 152 174 103Q212 54 290 54Q347 54 391 84.5Q435 115 448 192L455 230H305ZM317 725Q317 748 332.5 764Q348 780 370 780Q393 780 409 764Q425 748 425 725Q425 703 409 687Q393 671 370 671Q348 671 332.5 687Q317 703 317 725Z" glyph-name="Gdotaccent" horiz-adv-x="592" unicode="&#288;" /><glyph d="M120 0H40L143 589H223L178 333H474L519 589H599L496 0H416L462 265H166Z" glyph-name="H" horiz-adv-x="614" unicode="H" /><glyph d="M187 333H483L498 421H202ZM129 0H49L122 421H35L47 487H134L152 589H232L214 487H510L528 589H608L590 487H683L671 421H578L505 0H425L471 265H175Z" glyph-name="Hbar" horiz-adv-x="638" unicode="&#294;" /><glyph d="M120 0H40L143 589H223L178 333H474L519 589H599L496 0H416L462 265H166ZM373 779H419L518 655H433L407 689Q396 705 392.5 714.5Q389 724 389 724H387Q387 724 380.5 714.5Q374 705 357 689L319 655H230Z" glyph-name="Hcircumflex" horiz-adv-x="614" unicode="&#292;" /><glyph d="M143 589H223L120 0H40Z" glyph-name="I" horiz-adv-x="238" unicode="I" /><glyph d="M143 589H223L120 0H40ZM223 655H154L216 771H320Z" glyph-name="Iacute" horiz-adv-x="238" unicode="&#205;" /><glyph d="M143 589H223L120 0H40ZM191 652Q131 652 102.5 686.5Q74 721 84 778H145Q142 746 154 727.5Q166 709 202 709Q239 709 257 727.5Q275 746 284 778H345Q335 721 293.5 686.5Q252 652 191 652Z" glyph-name="Ibreve" horiz-adv-x="238" unicode="&#300;" /><glyph d="M143 589H223L120 0H40ZM185 779H231L330 655H245L219 689Q208 705 204.5 714.5Q201 724 201 724H199Q199 724 192.5 714.5Q186 705 169 689L131 655H42Z" glyph-name="Icircumflex" horiz-adv-x="238" unicode="&#206;" /><glyph d="M143 589H223L120 0H40ZM50 710Q50 732 66 748Q82 764 104 764Q126 764 142 748Q158 732 158 710Q158 688 142 672Q126 656 104 656Q82 656 66 672Q50 688 50 710ZM239 709Q239 731 255 747Q271 763 293 763Q315 763 331 747Q347 731 347 709Q347 687 331 671Q315 655 293 655Q271 655 255 671Q239 687 239 709Z" glyph-name="Idieresis" horiz-adv-x="238" unicode="&#207;" /><glyph d="M143 589H223L120 0H40ZM231 655H162L65 771H169Z" glyph-name="Igrave" horiz-adv-x="238" unicode="&#204;" /><glyph d="M143 589H223L120 0H40ZM325 677H74L84 736H335Z" glyph-name="Imacron" horiz-adv-x="238" unicode="&#298;" /><glyph d="M-91 -118Q-91 -56 -46 -16Q-1 24 46 38L143 589H223L120 0Q66 0 20.5 -29.5Q-25 -59 -25 -110Q-25 -132 -12 -145.5Q1 -159 22 -159Q48 -159 62.5 -147Q77 -135 87 -116L116 -151Q103 -176 79 -193.5Q55 -211 10 -211Q-40 -211 -65.5 -185.5Q-91 -160 -91 -118Z" glyph-name="Iogonek" horiz-adv-x="238" unicode="&#302;" /><glyph d="M143 589H223L120 0H40ZM254 655Q228 655 213 663Q198 671 182 681Q164 692 153 699Q142 706 126 706Q110 706 99 694Q88 682 87 657H39Q31 703 57 736.5Q83 770 128 770Q156 770 172 761Q188 752 206 740Q224 728 233.5 723Q243 718 256 718Q270 718 280 730Q290 742 293 770H344Q350 721 325.5 688Q301 655 254 655Z" glyph-name="Itilde" horiz-adv-x="238" unicode="&#296;" /><glyph d="M329 589H409L332 155Q316 65 272 26.5Q228 -12 144 -12Q76 -12 36 22.5Q-4 57 -15 109L49 150Q60 100 85.5 75.5Q111 51 149 51Q203 51 223.5 80Q244 109 254 169Z" glyph-name="J" horiz-adv-x="419" unicode="J" /><glyph d="M329 589H409L332 155Q316 65 272 26.5Q228 -12 144 -12Q76 -12 36 22.5Q-4 57 -15 109L49 150Q60 100 85.5 75.5Q111 51 149 51Q203 51 223.5 80Q244 109 254 169ZM371 779H417L516 655H431L405 689Q394 705 390.5 714.5Q387 724 387 724H385Q385 724 378.5 714.5Q372 705 355 689L317 655H228Z" glyph-name="Jcircumflex" horiz-adv-x="419" unicode="&#308;" /><glyph d="M459 0H370L223 265H166L120 0H40L143 589H223L178 331H225L453 589H548L287 303Z" glyph-name="K" horiz-adv-x="508" unicode="K" /><glyph d="M459 0H370L223 265H166L120 0H40L143 589H223L178 331H225L453 589H548L287 303ZM244 -140Q244 -194 207.5 -219.5Q171 -245 116 -245V-211Q144 -210 166 -201Q188 -192 188 -167Q162 -172 146.5 -158.5Q131 -145 131 -123Q131 -100 145.5 -87Q160 -74 184 -74Q207 -74 225.5 -90Q244 -106 244 -140Z" glyph-name="Kcommaaccent" horiz-adv-x="508" unicode="&#310;" /><glyph d="M143 589H223L131 68H403L392 0H40Z" glyph-name="L" horiz-adv-x="458" unicode="L" /><glyph d="M143 589H223L131 68H403L392 0H40ZM225 655H156L218 771H322Z" glyph-name="Lacute" horiz-adv-x="458" unicode="&#313;" /><glyph d="M143 589H223L131 68H403L392 0H40ZM378 668 327 493H272L288 668Z" glyph-name="Lcaron" horiz-adv-x="458" unicode="&#317;" /><glyph d="M143 589H223L131 68H403L392 0H40ZM265 -140Q265 -194 228.5 -219.5Q192 -245 137 -245V-211Q165 -210 187 -201Q209 -192 209 -167Q183 -172 167.5 -158.5Q152 -145 152 -123Q152 -100 166.5 -87Q181 -74 205 -74Q228 -74 246.5 -90Q265 -106 265 -140Z" glyph-name="Lcommaaccent" horiz-adv-x="458" unicode="&#315;" /><glyph d="M143 589H223L131 68H403L392 0H40ZM321 306Q321 332 339 350Q357 368 383 368Q409 368 427 350Q445 332 445 306Q445 280 427 262Q409 244 383 244Q357 244 339 262Q321 280 321 306Z" glyph-name="Ldot" horiz-adv-x="458" unicode="&#319;" /><glyph d="M148 589H228L184 337L333 390L321 321L172 270L136 68H408L397 0H45L87 242L20 219L32 284L99 307Z" glyph-name="Lslash" horiz-adv-x="463" unicode="&#321;" /><glyph d="M365 147H305L228 366Q210 417 206.5 447.5Q203 478 203 478H199Q199 478 196.5 450.5Q194 423 185 370L120 0H40L143 589H237L328 306Q339 269 342.5 246Q346 223 346 223H350Q350 223 358 244.5Q366 266 391 303L581 589H675L572 0H492L557 370Q566 423 573.5 450.5Q581 478 581 478H577Q577 478 563 450Q549 422 515 371Z" glyph-name="M" horiz-adv-x="690" unicode="M" /><glyph d="M226 589 385 241Q409 189 421.5 148.5Q434 108 434 108H438Q438 108 443.5 153Q449 198 459 253L518 589H598L495 0H414L251 346Q228 396 214 437.5Q200 479 200 479H196Q196 479 192.5 435Q189 391 179 336L120 0H40L143 589Z" glyph-name="N" horiz-adv-x="613" unicode="N" /><glyph glyph-name="NULL" horiz-adv-x="0" /><glyph d="M226 589 385 241Q409 189 421.5 148.5Q434 108 434 108H438Q438 108 443.5 153Q449 198 459 253L518 589H598L495 0H414L251 346Q228 396 214 437.5Q200 479 200 479H196Q196 479 192.5 435Q189 391 179 336L120 0H40L143 589ZM399 655H330L392 771H496Z" glyph-name="Nacute" horiz-adv-x="613" unicode="&#323;" /><glyph d="M226 589 385 241Q409 189 421.5 148.5Q434 108 434 108H438Q438 108 443.5 153Q449 198 459 253L518 589H598L495 0H414L251 346Q228 396 214 437.5Q200 479 200 479H196Q196 479 192.5 435Q189 391 179 336L120 0H40L143 589ZM389 655H343L244 779H329L355 745Q366 729 369.5 719.5Q373 710 373 710H375Q375 710 381.5 719.5Q388 729 405 745L443 779H532Z" glyph-name="Ncaron" horiz-adv-x="613" unicode="&#327;" /><glyph d="M226 589 385 241Q409 189 421.5 148.5Q434 108 434 108H438Q438 108 443.5 153Q449 198 459 253L518 589H598L495 0H414L251 346Q228 396 214 437.5Q200 479 200 479H196Q196 479 192.5 435Q189 391 179 336L120 0H40L143 589ZM297 -140Q297 -194 260.5 -219.5Q224 -245 169 -245V-211Q197 -210 219 -201Q241 -192 241 -167Q215 -172 199.5 -158.5Q184 -145 184 -123Q184 -100 198.5 -87Q213 -74 237 -74Q260 -74 278.5 -90Q297 -106 297 -140Z" glyph-name="Ncommaaccent" horiz-adv-x="613" unicode="&#325;" /><glyph d="M226 589 385 241Q409 189 421.5 148.5Q434 108 434 108H438Q438 108 443.5 153Q449 198 459 253L518 589H598L495 0H414L251 346Q228 396 214 437.5Q200 479 200 479H196Q196 479 192.5 435Q189 391 179 336L120 0H40L143 589ZM430 655Q404 655 389 663Q374 671 358 681Q340 692 329 699Q318 706 302 706Q286 706 275 694Q264 682 263 657H215Q207 703 233 736.5Q259 770 304 770Q332 770 348 761Q364 752 382 740Q400 728 409.5 723Q419 718 432 718Q446 718 456 730Q466 742 469 770H520Q526 721 501.5 688Q477 655 430 655Z" glyph-name="Ntilde" horiz-adv-x="613" unicode="&#209;" /><glyph d="M281 -12Q174 -12 114.5 55.5Q55 123 55 227Q55 404 144 502.5Q233 601 355 601Q462 601 521.5 533Q581 465 581 361Q581 184 492 86Q403 -12 281 -12ZM347 534Q246 534 191 442.5Q136 351 136 233Q136 152 175.5 103Q215 54 290 54Q390 54 445 145.5Q500 237 500 355Q500 428 464.5 481Q429 534 347 534Z" glyph-name="O" horiz-adv-x="616" unicode="O" /><glyph d="M281 -12Q174 -12 114.5 55.5Q55 123 55 227Q55 404 144 502.5Q233 601 355 601Q377 601 397 598Q417 595 435 589H847L835 521H532Q556 490 568.5 449Q581 408 581 361Q581 353 580.5 344Q580 335 580 328H770L758 260H571Q560 199 535 150.5Q510 102 475 68H755L744 0H362Q343 -6 322.5 -9Q302 -12 281 -12ZM347 534Q246 534 191 442.5Q136 351 136 233Q136 152 175.5 103Q215 54 290 54Q390 54 445 145.5Q500 237 500 355Q500 428 464.5 481Q429 534 347 534Z" glyph-name="OE" horiz-adv-x="832" unicode="&#338;" /><glyph d="M281 -12Q174 -12 114.5 55.5Q55 123 55 227Q55 404 144 502.5Q233 601 355 601Q462 601 521.5 533Q581 465 581 361Q581 184 492 86Q403 -12 281 -12ZM347 534Q246 534 191 442.5Q136 351 136 233Q136 152 175.5 103Q215 54 290 54Q390 54 445 145.5Q500 237 500 355Q500 428 464.5 481Q429 534 347 534ZM400 655H331L393 771H497Z" glyph-name="Oacute" horiz-adv-x="616" unicode="&#211;" /><glyph d="M281 -12Q174 -12 114.5 55.5Q55 123 55 227Q55 404 144 502.5Q233 601 355 601Q462 601 521.5 533Q581 465 581 361Q581 184 492 86Q403 -12 281 -12ZM347 534Q246 534 191 442.5Q136 351 136 233Q136 152 175.5 103Q215 54 290 54Q390 54 445 145.5Q500 237 500 355Q500 428 464.5 481Q429 534 347 534ZM368 652Q308 652 279.5 686.5Q251 721 261 778H322Q319 746 331 727.5Q343 709 379 709Q416 709 434 727.5Q452 746 461 778H522Q512 721 470.5 686.5Q429 652 368 652Z" glyph-name="Obreve" horiz-adv-x="616" unicode="&#334;" /><glyph d="M281 -12Q174 -12 114.5 55.5Q55 123 55 227Q55 404 144 502.5Q233 601 355 601Q462 601 521.5 533Q581 465 581 361Q581 184 492 86Q403 -12 281 -12ZM347 534Q246 534 191 442.5Q136 351 136 233Q136 152 175.5 103Q215 54 290 54Q390 54 445 145.5Q500 237 500 355Q500 428 464.5 481Q429 534 347 534ZM362 779H408L507 655H422L396 689Q385 705 381.5 714.5Q378 724 378 724H376Q376 724 369.5 714.5Q363 705 346 689L308 655H219Z" glyph-name="Ocircumflex" horiz-adv-x="616" unicode="&#212;" /><glyph d="M281 -12Q174 -12 114.5 55.5Q55 123 55 227Q55 404 144 502.5Q233 601 355 601Q462 601 521.5 533Q581 465 581 361Q581 184 492 86Q403 -12 281 -12ZM347 534Q246 534 191 442.5Q136 351 136 233Q136 152 175.5 103Q215 54 290 54Q390 54 445 145.5Q500 237 500 355Q500 428 464.5 481Q429 534 347 534ZM227 710Q227 732 243 748Q259 764 281 764Q303 764 319 748Q335 732 335 710Q335 688 319 672Q303 656 281 656Q259 656 243 672Q227 688 227 710ZM416 709Q416 731 432 747Q448 763 470 763Q492 763 508 747Q524 731 524 709Q524 687 508 671Q492 655 470 655Q448 655 432 671Q416 687 416 709Z" glyph-name="Odieresis" horiz-adv-x="616" unicode="&#214;" /><glyph d="M281 -12Q174 -12 114.5 55.5Q55 123 55 227Q55 404 144 502.5Q233 601 355 601Q462 601 521.5 533Q581 465 581 361Q581 184 492 86Q403 -12 281 -12ZM347 534Q246 534 191 442.5Q136 351 136 233Q136 152 175.5 103Q215 54 290 54Q390 54 445 145.5Q500 237 500 355Q500 428 464.5 481Q429 534 347 534ZM408 655H339L242 771H346Z" glyph-name="Ograve" horiz-adv-x="616" unicode="&#210;" /><glyph d="M281 -12Q174 -12 114.5 55.5Q55 123 55 227Q55 404 144 502.5Q233 601 355 601Q462 601 521.5 533Q581 465 581 361Q581 184 492 86Q403 -12 281 -12ZM347 534Q246 534 191 442.5Q136 351 136 233Q136 152 175.5 103Q215 54 290 54Q390 54 445 145.5Q500 237 500 355Q500 428 464.5 481Q429 534 347 534ZM467 655H407L482 771H582ZM325 655H267L332 771H430Z" glyph-name="Ohungarumlaut" horiz-adv-x="616" unicode="&#336;" /><glyph d="M281 -12Q174 -12 114.5 55.5Q55 123 55 227Q55 404 144 502.5Q233 601 355 601Q462 601 521.5 533Q581 465 581 361Q581 184 492 86Q403 -12 281 -12ZM347 534Q246 534 191 442.5Q136 351 136 233Q136 152 175.5 103Q215 54 290 54Q390 54 445 145.5Q500 237 500 355Q500 428 464.5 481Q429 534 347 534ZM502 677H251L261 736H512Z" glyph-name="Omacron" horiz-adv-x="616" unicode="&#332;" /><glyph d="M347 534Q246 534 191 442.5Q136 351 136 233Q136 213 138.5 194Q141 175 146 159L462 484Q443 507 415 520.5Q387 534 347 534ZM500 355Q500 374 497.5 392.5Q495 411 490 427L174 103Q193 80 222.5 67Q252 54 290 54Q390 54 445 145.5Q500 237 500 355ZM59 -14 17 26 85 96Q70 123 62.5 156.5Q55 190 55 227Q55 404 144 502.5Q233 601 355 601Q406 601 446.5 584.5Q487 568 515 540L575 601L620 560L552 490Q566 462 573.5 429.5Q581 397 581 361Q581 184 492 86Q403 -12 281 -12Q230 -12 189.5 4Q149 20 120 48Z" glyph-name="Oslash" horiz-adv-x="616" unicode="&#216;" /><glyph d="M347 534Q246 534 191 442.5Q136 351 136 233Q136 213 138.5 194Q141 175 146 159L462 484Q443 507 415 520.5Q387 534 347 534ZM500 355Q500 374 497.5 392.5Q495 411 490 427L174 103Q193 80 222.5 67Q252 54 290 54Q390 54 445 145.5Q500 237 500 355ZM59 -14 17 26 85 96Q70 123 62.5 156.5Q55 190 55 227Q55 404 144 502.5Q233 601 355 601Q406 601 446.5 584.5Q487 568 515 540L575 601L620 560L552 490Q566 462 573.5 429.5Q581 397 581 361Q581 184 492 86Q403 -12 281 -12Q230 -12 189.5 4Q149 20 120 48ZM411 655H342L404 771H508Z" glyph-name="Oslashacute" horiz-adv-x="616" unicode="&#510;" /><glyph d="M281 -12Q174 -12 114.5 55.5Q55 123 55 227Q55 404 144 502.5Q233 601 355 601Q462 601 521.5 533Q581 465 581 361Q581 184 492 86Q403 -12 281 -12ZM347 534Q246 534 191 442.5Q136 351 136 233Q136 152 175.5 103Q215 54 290 54Q390 54 445 145.5Q500 237 500 355Q500 428 464.5 481Q429 534 347 534ZM431 655Q405 655 390 663Q375 671 359 681Q341 692 330 699Q319 706 303 706Q287 706 276 694Q265 682 264 657H216Q208 703 234 736.5Q260 770 305 770Q333 770 349 761Q365 752 383 740Q401 728 410.5 723Q420 718 433 718Q447 718 457 730Q467 742 470 770H521Q527 721 502.5 688Q478 655 431 655Z" glyph-name="Otilde" horiz-adv-x="616" unicode="&#213;" /><glyph d="M120 0H40L143 589H307Q399 589 442 553Q485 517 485 442Q485 335 419 280Q353 225 254 225H159ZM212 524 170 289H258Q327 289 365 328Q403 367 403 436Q403 480 378.5 502Q354 524 298 524Z" glyph-name="P" horiz-adv-x="480" unicode="P" /><glyph d="M586 361Q586 189 501 91.5Q416 -6 299 -11Q327 -58 375.5 -66.5Q424 -75 472 -71L446 -143Q353 -145 291.5 -108.5Q230 -72 218 -3Q142 16 101 78Q60 140 60 227Q60 404 149 502.5Q238 601 360 601Q467 601 526.5 533Q586 465 586 361ZM352 534Q251 534 196 442.5Q141 351 141 233Q141 152 180.5 103Q220 54 295 54Q395 54 450 145.5Q505 237 505 355Q505 428 469.5 481Q434 534 352 534Z" glyph-name="Q" horiz-adv-x="621" unicode="Q" /><glyph d="M212 524 175 314H288Q348 314 385.5 343.5Q423 373 423 439Q423 482 400.5 503Q378 524 325 524ZM478 0H393Q386 8 381 22Q376 36 373 53L355 160Q346 215 321.5 232.5Q297 250 247 250H164L120 0H40L143 589H338Q434 589 469.5 551Q505 513 505 450Q505 363 450.5 322Q396 281 342 279V275Q383 270 403 249Q423 228 432 179L453 61Q456 44 462.5 28.5Q469 13 478 0Z" glyph-name="R" horiz-adv-x="535" unicode="R" /><glyph d="M212 524 175 314H288Q348 314 385.5 343.5Q423 373 423 439Q423 482 400.5 503Q378 524 325 524ZM478 0H393Q386 8 381 22Q376 36 373 53L355 160Q346 215 321.5 232.5Q297 250 247 250H164L120 0H40L143 589H338Q434 589 469.5 551Q505 513 505 450Q505 363 450.5 322Q396 281 342 279V275Q383 270 403 249Q423 228 432 179L453 61Q456 44 462.5 28.5Q469 13 478 0ZM356 655H287L349 771H453Z" glyph-name="Racute" horiz-adv-x="535" unicode="&#340;" /><glyph d="M212 524 175 314H288Q348 314 385.5 343.5Q423 373 423 439Q423 482 400.5 503Q378 524 325 524ZM478 0H393Q386 8 381 22Q376 36 373 53L355 160Q346 215 321.5 232.5Q297 250 247 250H164L120 0H40L143 589H338Q434 589 469.5 551Q505 513 505 450Q505 363 450.5 322Q396 281 342 279V275Q383 270 403 249Q423 228 432 179L453 61Q456 44 462.5 28.5Q469 13 478 0ZM346 655H300L201 779H286L312 745Q323 729 326.5 719.5Q330 710 330 710H332Q332 710 338.5 719.5Q345 729 362 745L400 779H489Z" glyph-name="Rcaron" horiz-adv-x="535" unicode="&#344;" /><glyph d="M212 524 175 314H288Q348 314 385.5 343.5Q423 373 423 439Q423 482 400.5 503Q378 524 325 524ZM478 0H393Q386 8 381 22Q376 36 373 53L355 160Q346 215 321.5 232.5Q297 250 247 250H164L120 0H40L143 589H338Q434 589 469.5 551Q505 513 505 450Q505 363 450.5 322Q396 281 342 279V275Q383 270 403 249Q423 228 432 179L453 61Q456 44 462.5 28.5Q469 13 478 0ZM274 -140Q274 -194 237.5 -219.5Q201 -245 146 -245V-211Q174 -210 196 -201Q218 -192 218 -167Q192 -172 176.5 -158.5Q161 -145 161 -123Q161 -100 175.5 -87Q190 -74 214 -74Q237 -74 255.5 -90Q274 -106 274 -140Z" glyph-name="Rcommaaccent" horiz-adv-x="535" unicode="&#342;" /><glyph d="M20 144 92 157Q91 100 122.5 74Q154 48 209 48Q265 48 298.5 74Q332 100 332 154Q332 200 308 225Q284 250 224 273Q170 294 130 325.5Q90 357 90 431Q90 527 157.5 564Q225 601 286 601Q371 601 417.5 566Q464 531 464 446L389 434Q390 485 362 513Q334 541 280 541Q229 541 196.5 514.5Q164 488 164 442Q164 396 192 376.5Q220 357 274 335Q338 308 374.5 272Q411 236 411 164Q411 72 348 30Q285 -12 201 -12Q114 -12 67 25.5Q20 63 20 144Z" glyph-name="S" horiz-adv-x="479" unicode="S" /><glyph d="M20 144 92 157Q91 100 122.5 74Q154 48 209 48Q265 48 298.5 74Q332 100 332 154Q332 200 308 225Q284 250 224 273Q170 294 130 325.5Q90 357 90 431Q90 527 157.5 564Q225 601 286 601Q371 601 417.5 566Q464 531 464 446L389 434Q390 485 362 513Q334 541 280 541Q229 541 196.5 514.5Q164 488 164 442Q164 396 192 376.5Q220 357 274 335Q338 308 374.5 272Q411 236 411 164Q411 72 348 30Q285 -12 201 -12Q114 -12 67 25.5Q20 63 20 144ZM334 655H265L327 771H431Z" glyph-name="Sacute" horiz-adv-x="479" unicode="&#346;" /><glyph d="M20 144 92 157Q91 100 122.5 74Q154 48 209 48Q265 48 298.5 74Q332 100 332 154Q332 200 308 225Q284 250 224 273Q170 294 130 325.5Q90 357 90 431Q90 527 157.5 564Q225 601 286 601Q371 601 417.5 566Q464 531 464 446L389 434Q390 485 362 513Q334 541 280 541Q229 541 196.5 514.5Q164 488 164 442Q164 396 192 376.5Q220 357 274 335Q338 308 374.5 272Q411 236 411 164Q411 72 348 30Q285 -12 201 -12Q114 -12 67 25.5Q20 63 20 144ZM324 655H278L179 779H264L290 745Q301 729 304.5 719.5Q308 710 308 710H310Q310 710 316.5 719.5Q323 729 340 745L378 779H467Z" glyph-name="Scaron" horiz-adv-x="479" unicode="&#352;" /><glyph d="M267 -126Q267 -169 236 -190Q205 -211 163 -211Q135 -211 113 -201Q91 -191 78 -173L101 -125Q113 -143 128.5 -152.5Q144 -162 163 -162Q181 -162 192.5 -153Q204 -144 204 -126Q204 -106 188 -94Q172 -82 135 -82L162 -10Q93 -3 56.5 34.5Q20 72 20 144L92 157Q91 100 122.5 74Q154 48 209 48Q265 48 298.5 74Q332 100 332 154Q332 200 308 225Q284 250 224 273Q170 294 130 325.5Q90 357 90 431Q90 527 157.5 564Q225 601 286 601Q371 601 417.5 566Q464 531 464 446L389 434Q390 485 362 513Q334 541 280 541Q229 541 196.5 514.5Q164 488 164 442Q164 396 192 376.5Q220 357 274 335Q338 308 374.5 272Q411 236 411 164Q411 72 348.5 30.5Q286 -11 202 -12L189 -42Q229 -51 248 -71Q267 -91 267 -126Z" glyph-name="Scedilla" horiz-adv-x="479" unicode="&#350;" /><glyph d="M20 144 92 157Q91 100 122.5 74Q154 48 209 48Q265 48 298.5 74Q332 100 332 154Q332 200 308 225Q284 250 224 273Q170 294 130 325.5Q90 357 90 431Q90 527 157.5 564Q225 601 286 601Q371 601 417.5 566Q464 531 464 446L389 434Q390 485 362 513Q334 541 280 541Q229 541 196.5 514.5Q164 488 164 442Q164 396 192 376.5Q220 357 274 335Q338 308 374.5 272Q411 236 411 164Q411 72 348 30Q285 -12 201 -12Q114 -12 67 25.5Q20 63 20 144ZM296 779H342L441 655H356L330 689Q319 705 315.5 714.5Q312 724 312 724H310Q310 724 303.5 714.5Q297 705 280 689L242 655H153Z" glyph-name="Scircumflex" horiz-adv-x="479" unicode="&#348;" /><glyph d="M20 144 92 157Q91 100 122.5 74Q154 48 209 48Q265 48 298.5 74Q332 100 332 154Q332 200 308 225Q284 250 224 273Q170 294 130 325.5Q90 357 90 431Q90 527 157.5 564Q225 601 286 601Q371 601 417.5 566Q464 531 464 446L389 434Q390 485 362 513Q334 541 280 541Q229 541 196.5 514.5Q164 488 164 442Q164 396 192 376.5Q220 357 274 335Q338 308 374.5 272Q411 236 411 164Q411 72 348 30Q285 -12 201 -12Q114 -12 67 25.5Q20 63 20 144ZM231 -140Q231 -194 194.5 -219.5Q158 -245 103 -245V-211Q131 -210 153 -201Q175 -192 175 -167Q149 -172 133.5 -158.5Q118 -145 118 -123Q118 -100 132.5 -87Q147 -74 171 -74Q194 -74 212.5 -90Q231 -106 231 -140Z" glyph-name="Scommaaccent" horiz-adv-x="479" unicode="&#536;" /><glyph d="M234 0H154L245 521H70L82 589H513L501 521H325Z" glyph-name="T" horiz-adv-x="473" unicode="T" /><glyph d="M234 0H154L200 263H89L100 328H211L245 521H70L82 589H513L501 521H325L291 328H411L400 263H280Z" glyph-name="Tbar" horiz-adv-x="473" unicode="&#358;" /><glyph d="M234 0H154L245 521H70L82 589H513L501 521H325ZM327 655H281L182 779H267L293 745Q304 729 307.5 719.5Q311 710 311 710H313Q313 710 319.5 719.5Q326 729 343 745L381 779H470Z" glyph-name="Tcaron" horiz-adv-x="473" unicode="&#356;" /><glyph d="M234 0H154L245 521H70L82 589H513L501 521H325ZM236 -140Q236 -194 199.5 -219.5Q163 -245 108 -245V-211Q136 -210 158 -201Q180 -192 180 -167Q154 -172 138.5 -158.5Q123 -145 123 -123Q123 -100 137.5 -87Q152 -74 176 -74Q199 -74 217.5 -90Q236 -106 236 -140Z" glyph-name="Tcommaaccent" horiz-adv-x="473" unicode="&#354;" /><glyph d="M120 0H40L143 589H223L203 478H288Q380 478 424 442Q468 406 468 331Q468 224 402 174Q336 124 237 124H142ZM192 413 153 188H241Q310 188 348 222Q386 256 386 325Q386 369 360.5 391Q335 413 279 413Z" glyph-name="Thorn" horiz-adv-x="488" unicode="&#222;" /><glyph d="M514 589H594L523 185Q504 72 435.5 30Q367 -12 276 -12Q184 -12 123.5 41Q63 94 85 220L149 589H229L163 211Q148 126 185 89.5Q222 53 285 53Q348 53 390 85.5Q432 118 446 201Z" glyph-name="U" horiz-adv-x="582" unicode="U" /><glyph d="M497 589H577L506 185Q487 72 418.5 30Q350 -12 259 -12Q167 -12 106.5 41Q46 94 68 220L132 589H212L146 211Q131 126 168 89.5Q205 53 268 53Q331 53 373 85.5Q415 118 429 201ZM391 655H322L384 771H488Z" glyph-name="Uacute" horiz-adv-x="582" unicode="&#218;" /><glyph d="M497 589H577L506 185Q487 72 418.5 30Q350 -12 259 -12Q167 -12 106.5 41Q46 94 68 220L132 589H212L146 211Q131 126 168 89.5Q205 53 268 53Q331 53 373 85.5Q415 118 429 201ZM358 652Q298 652 269.5 686.5Q241 721 251 778H312Q309 746 321 727.5Q333 709 369 709Q406 709 424 727.5Q442 746 451 778H512Q502 721 460.5 686.5Q419 652 358 652Z" glyph-name="Ubreve" horiz-adv-x="582" unicode="&#364;" /><glyph d="M497 589H577L506 185Q487 72 418.5 30Q350 -12 259 -12Q167 -12 106.5 41Q46 94 68 220L132 589H212L146 211Q131 126 168 89.5Q205 53 268 53Q331 53 373 85.5Q415 118 429 201ZM352 779H398L497 655H412L386 689Q375 705 371.5 714.5Q368 724 368 724H366Q366 724 359.5 714.5Q353 705 336 689L298 655H209Z" glyph-name="Ucircumflex" horiz-adv-x="582" unicode="&#219;" /><glyph d="M497 589H577L506 185Q487 72 418.5 30Q350 -12 259 -12Q167 -12 106.5 41Q46 94 68 220L132 589H212L146 211Q131 126 168 89.5Q205 53 268 53Q331 53 373 85.5Q415 118 429 201ZM217 710Q217 732 233 748Q249 764 271 764Q293 764 309 748Q325 732 325 710Q325 688 309 672Q293 656 271 656Q249 656 233 672Q217 688 217 710ZM406 709Q406 731 422 747Q438 763 460 763Q482 763 498 747Q514 731 514 709Q514 687 498 671Q482 655 460 655Q438 655 422 671Q406 687 406 709Z" glyph-name="Udieresis" horiz-adv-x="582" unicode="&#220;" /><glyph d="M497 589H577L506 185Q487 72 418.5 30Q350 -12 259 -12Q167 -12 106.5 41Q46 94 68 220L132 589H212L146 211Q131 126 168 89.5Q205 53 268 53Q331 53 373 85.5Q415 118 429 201ZM398 655H329L232 771H336Z" glyph-name="Ugrave" horiz-adv-x="582" unicode="&#217;" /><glyph d="M497 589H577L506 185Q487 72 418.5 30Q350 -12 259 -12Q167 -12 106.5 41Q46 94 68 220L132 589H212L146 211Q131 126 168 89.5Q205 53 268 53Q331 53 373 85.5Q415 118 429 201ZM457 655H397L472 771H572ZM315 655H257L322 771H420Z" glyph-name="Uhungarumlaut" horiz-adv-x="582" unicode="&#368;" /><glyph d="M497 589H577L506 185Q487 72 418.5 30Q350 -12 259 -12Q167 -12 106.5 41Q46 94 68 220L132 589H212L146 211Q131 126 168 89.5Q205 53 268 53Q331 53 373 85.5Q415 118 429 201ZM492 677H241L251 736H502Z" glyph-name="Umacron" horiz-adv-x="582" unicode="&#362;" /><glyph d="M162 -118Q162 -84 177.5 -55.5Q193 -27 216 -7Q145 6 103.5 59.5Q62 113 81 220L145 589H225L159 211Q144 126 181 89.5Q218 53 281 53Q344 53 386 85.5Q428 118 442 201L510 589H590L519 185Q501 81 442 38Q383 -5 302 -11Q270 -25 249 -50.5Q228 -76 228 -110Q228 -132 241 -145.5Q254 -159 275 -159Q301 -159 315.5 -147Q330 -135 340 -116L369 -151Q356 -176 332 -193.5Q308 -211 263 -211Q213 -211 187.5 -185.5Q162 -160 162 -118Z" glyph-name="Uogonek" horiz-adv-x="582" unicode="&#370;" /><glyph d="M497 589H577L506 185Q487 72 418.5 30Q350 -12 259 -12Q167 -12 106.5 41Q46 94 68 220L132 589H212L146 211Q131 126 168 89.5Q205 53 268 53Q331 53 373 85.5Q415 118 429 201ZM280 723Q280 765 309 795Q338 825 384 825Q424 825 447.5 800Q471 775 471 740Q471 698 442.5 668Q414 638 368 638Q325 638 302.5 662.5Q280 687 280 723ZM380 788Q356 788 339.5 770Q323 752 323 728Q323 703 336.5 689Q350 675 374 675Q397 675 413 693Q429 711 429 735Q429 759 416 773.5Q403 788 380 788Z" glyph-name="Uring" horiz-adv-x="582" unicode="&#366;" /><glyph d="M497 589H577L506 185Q487 72 418.5 30Q350 -12 259 -12Q167 -12 106.5 41Q46 94 68 220L132 589H212L146 211Q131 126 168 89.5Q205 53 268 53Q331 53 373 85.5Q415 118 429 201ZM421 655Q395 655 380 663Q365 671 349 681Q331 692 320 699Q309 706 293 706Q277 706 266 694Q255 682 254 657H206Q198 703 224 736.5Q250 770 295 770Q323 770 339 761Q355 752 373 740Q391 728 400.5 723Q410 718 423 718Q437 718 447 730Q457 742 460 770H511Q517 721 492.5 688Q468 655 421 655Z" glyph-name="Utilde" horiz-adv-x="582" unicode="&#360;" /><glyph d="M161 589 216 198Q226 129 227.5 90Q229 51 229 51H233Q233 51 247.5 89.5Q262 128 296 197L490 589H574L276 0H170L80 589Z" glyph-name="V" horiz-adv-x="529" unicode="V" /><glyph d="M512 589 547 205Q554 135 554.5 91.5Q555 48 555 48H559Q559 48 572 91Q585 134 613 204L770 589H852L601 0H491L458 366Q452 436 455.5 478.5Q459 521 459 521H455Q455 521 443 478.5Q431 436 400 366L241 0H131L100 589H178L194 207Q197 138 197 93Q197 48 197 48H201Q201 48 213 92.5Q225 137 256 206L424 589Z" glyph-name="W" horiz-adv-x="822" unicode="W" /><glyph d="M512 589 547 205Q554 135 554.5 91.5Q555 48 555 48H559Q559 48 572 91Q585 134 613 204L770 589H852L601 0H491L458 366Q452 436 455.5 478.5Q459 521 459 521H455Q455 521 443 478.5Q431 436 400 366L241 0H131L100 589H178L194 207Q197 138 197 93Q197 48 197 48H201Q201 48 213 92.5Q225 137 256 206L424 589ZM506 655H437L499 771H603Z" glyph-name="Wacute" horiz-adv-x="822" unicode="&#7810;" /><glyph d="M512 589 547 205Q554 135 554.5 91.5Q555 48 555 48H559Q559 48 572 91Q585 134 613 204L770 589H852L601 0H491L458 366Q452 436 455.5 478.5Q459 521 459 521H455Q455 521 443 478.5Q431 436 400 366L241 0H131L100 589H178L194 207Q197 138 197 93Q197 48 197 48H201Q201 48 213 92.5Q225 137 256 206L424 589ZM468 779H514L613 655H528L502 689Q491 705 487.5 714.5Q484 724 484 724H482Q482 724 475.5 714.5Q469 705 452 689L414 655H325Z" glyph-name="Wcircumflex" horiz-adv-x="822" unicode="&#372;" /><glyph d="M512 589 547 205Q554 135 554.5 91.5Q555 48 555 48H559Q559 48 572 91Q585 134 613 204L770 589H852L601 0H491L458 366Q452 436 455.5 478.5Q459 521 459 521H455Q455 521 443 478.5Q431 436 400 366L241 0H131L100 589H178L194 207Q197 138 197 93Q197 48 197 48H201Q201 48 213 92.5Q225 137 256 206L424 589ZM333 710Q333 732 349 748Q365 764 387 764Q409 764 425 748Q441 732 441 710Q441 688 425 672Q409 656 387 656Q365 656 349 672Q333 688 333 710ZM522 709Q522 731 538 747Q554 763 576 763Q598 763 614 747Q630 731 630 709Q630 687 614 671Q598 655 576 655Q554 655 538 671Q522 687 522 709Z" glyph-name="Wdieresis" horiz-adv-x="822" unicode="&#7812;" /><glyph d="M512 589 547 205Q554 135 554.5 91.5Q555 48 555 48H559Q559 48 572 91Q585 134 613 204L770 589H852L601 0H491L458 366Q452 436 455.5 478.5Q459 521 459 521H455Q455 521 443 478.5Q431 436 400 366L241 0H131L100 589H178L194 207Q197 138 197 93Q197 48 197 48H201Q201 48 213 92.5Q225 137 256 206L424 589ZM514 655H445L348 771H452Z" glyph-name="Wgrave" horiz-adv-x="822" unicode="&#7808;" /><glyph d="M391 0 301 173Q280 213 276.5 229Q273 245 273 245H269Q269 245 261 230Q253 215 217 172L74 0H-20L237 301L93 589H180L257 431Q278 388 281.5 371.5Q285 355 285 355H288Q288 355 296 369.5Q304 384 341 430L469 589H561L320 303L473 0Z" glyph-name="X" horiz-adv-x="536" unicode="X" /><glyph d="M167 589 235 387Q251 339 254.5 312Q258 285 258 285H262Q262 285 273 312Q284 339 314 386L444 589H529L291 232L251 0H171L211 232L85 589Z" glyph-name="Y" horiz-adv-x="494" unicode="Y" /><glyph d="M167 589 235 387Q251 339 254.5 312Q258 285 258 285H262Q262 285 273 312Q284 339 314 386L444 589H529L291 232L251 0H171L211 232L85 589ZM350 655H281L343 771H447Z" glyph-name="Yacute" horiz-adv-x="494" unicode="&#221;" /><glyph d="M167 589 235 387Q251 339 254.5 312Q258 285 258 285H262Q262 285 273 312Q284 339 314 386L444 589H529L291 232L251 0H171L211 232L85 589ZM311 779H357L456 655H371L345 689Q334 705 330.5 714.5Q327 724 327 724H325Q325 724 318.5 714.5Q312 705 295 689L257 655H168Z" glyph-name="Ycircumflex" horiz-adv-x="494" unicode="&#374;" /><glyph d="M167 589 235 387Q251 339 254.5 312Q258 285 258 285H262Q262 285 273 312Q284 339 314 386L444 589H529L291 232L251 0H171L211 232L85 589ZM177 710Q177 732 193 748Q209 764 231 764Q253 764 269 748Q285 732 285 710Q285 688 269 672Q253 656 231 656Q209 656 193 672Q177 688 177 710ZM366 709Q366 731 382 747Q398 763 420 763Q442 763 458 747Q474 731 474 709Q474 687 458 671Q442 655 420 655Q398 655 382 671Q366 687 366 709Z" glyph-name="Ydieresis" horiz-adv-x="494" unicode="&#376;" /><glyph d="M167 589 235 387Q251 339 254.5 312Q258 285 258 285H262Q262 285 273 312Q284 339 314 386L444 589H529L291 232L251 0H171L211 232L85 589ZM358 655H289L192 771H296Z" glyph-name="Ygrave" horiz-adv-x="494" unicode="&#7922;" /><glyph d="M7 41 350 451Q386 494 406.5 508.5Q427 523 427 523V527Q427 527 402.5 524Q378 521 331 521H105L117 589H523L513 538L177 138Q141 95 120.5 80.5Q100 66 100 66V62Q100 62 124.5 65Q149 68 196 68H433L422 0H0Z" glyph-name="Z" horiz-adv-x="508" unicode="Z" /><glyph d="M7 41 350 451Q386 494 406.5 508.5Q427 523 427 523V527Q427 527 402.5 524Q378 521 331 521H105L117 589H523L513 538L177 138Q141 95 120.5 80.5Q100 66 100 66V62Q100 62 124.5 65Q149 68 196 68H433L422 0H0ZM354 655H285L347 771H451Z" glyph-name="Zacute" horiz-adv-x="508" unicode="&#377;" /><glyph d="M7 41 350 451Q386 494 406.5 508.5Q427 523 427 523V527Q427 527 402.5 524Q378 521 331 521H105L117 589H523L513 538L177 138Q141 95 120.5 80.5Q100 66 100 66V62Q100 62 124.5 65Q149 68 196 68H433L422 0H0ZM343 655H297L198 779H283L309 745Q320 729 323.5 719.5Q327 710 327 710H329Q329 710 335.5 719.5Q342 729 359 745L397 779H486Z" glyph-name="Zcaron" horiz-adv-x="508" unicode="&#381;" /><glyph d="M7 41 350 451Q386 494 406.5 508.5Q427 523 427 523V527Q427 527 402.5 524Q378 521 331 521H105L117 589H523L513 538L177 138Q141 95 120.5 80.5Q100 66 100 66V62Q100 62 124.5 65Q149 68 196 68H433L422 0H0ZM277 725Q277 748 292.5 764Q308 780 330 780Q353 780 369 764Q385 748 385 725Q385 703 369 687Q353 671 330 671Q308 671 292.5 687Q277 703 277 725Z" glyph-name="Zdotaccent" horiz-adv-x="508" unicode="&#379;" /><glyph d="M351 193 365 271Q374 323 351.5 368Q329 413 274 413Q205 413 159.5 349Q114 285 114 186Q114 128 139.5 89.5Q165 51 216 51Q268 51 304 89Q340 127 351 193ZM475 462 411 99Q408 82 411.5 68Q415 54 437 54Q443 54 450 55Q457 56 466 58L456 3Q446 -1 433.5 -3Q421 -5 408 -5Q371 -5 352 16Q333 37 336 77Q315 30 276.5 9Q238 -12 195 -12Q129 -12 84.5 37Q40 86 40 177Q40 295 103 384Q166 473 267 473Q315 473 346.5 451.5Q378 430 387 384L412 462Z" glyph-name="a" horiz-adv-x="525" unicode="a" /><glyph d="M351 193 365 271Q374 323 351.5 368Q329 413 274 413Q205 413 159.5 349Q114 285 114 186Q114 128 139.5 89.5Q165 51 216 51Q268 51 304 89Q340 127 351 193ZM475 462 411 99Q408 82 411.5 68Q415 54 437 54Q443 54 450 55Q457 56 466 58L456 3Q446 -1 433.5 -3Q421 -5 408 -5Q371 -5 352 16Q333 37 336 77Q315 30 276.5 9Q238 -12 195 -12Q129 -12 84.5 37Q40 86 40 177Q40 295 103 384Q166 473 267 473Q315 473 346.5 451.5Q378 430 387 384L412 462ZM320 530H255L330 673H435Z" glyph-name="aacute" horiz-adv-x="525" unicode="&#225;" /><glyph d="M351 193 365 271Q374 323 351.5 368Q329 413 274 413Q205 413 159.5 349Q114 285 114 186Q114 128 139.5 89.5Q165 51 216 51Q268 51 304 89Q340 127 351 193ZM475 462 411 99Q408 82 411.5 68Q415 54 437 54Q443 54 450 55Q457 56 466 58L456 3Q446 -1 433.5 -3Q421 -5 408 -5Q371 -5 352 16Q333 37 336 77Q315 30 276.5 9Q238 -12 195 -12Q129 -12 84.5 37Q40 86 40 177Q40 295 103 384Q166 473 267 473Q315 473 346.5 451.5Q378 430 387 384L412 462ZM283 529Q222 529 193.5 566Q165 603 176 665H237Q234 631 243.5 609Q253 587 293 587Q333 587 350.5 609Q368 631 377 665H438Q427 603 385.5 566Q344 529 283 529Z" glyph-name="abreve" horiz-adv-x="525" unicode="&#259;" /><glyph d="M351 193 365 271Q374 323 351.5 368Q329 413 274 413Q205 413 159.5 349Q114 285 114 186Q114 128 139.5 89.5Q165 51 216 51Q268 51 304 89Q340 127 351 193ZM475 462 411 99Q408 82 411.5 68Q415 54 437 54Q443 54 450 55Q457 56 466 58L456 3Q446 -1 433.5 -3Q421 -5 408 -5Q371 -5 352 16Q333 37 336 77Q315 30 276.5 9Q238 -12 195 -12Q129 -12 84.5 37Q40 86 40 177Q40 295 103 384Q166 473 267 473Q315 473 346.5 451.5Q378 430 387 384L412 462ZM290 673H332L429 530H350L322 574Q311 592 308 603Q305 614 305 614H301Q301 614 294 603Q287 592 270 574L226 530H143Z" glyph-name="acircumflex" horiz-adv-x="525" unicode="&#226;" /><glyph d="M145 530H80L155 673H260Z" glyph-name="acute" horiz-adv-x="340" unicode="&#180;" /><glyph d="M149 655H80L142 771H246Z" glyph-name="acute.cap" horiz-adv-x="326" /><glyph d="M351 193 365 271Q374 323 351.5 368Q329 413 274 413Q205 413 159.5 349Q114 285 114 186Q114 128 139.5 89.5Q165 51 216 51Q268 51 304 89Q340 127 351 193ZM475 462 411 99Q408 82 411.5 68Q415 54 437 54Q443 54 450 55Q457 56 466 58L456 3Q446 -1 433.5 -3Q421 -5 408 -5Q371 -5 352 16Q333 37 336 77Q315 30 276.5 9Q238 -12 195 -12Q129 -12 84.5 37Q40 86 40 177Q40 295 103 384Q166 473 267 473Q315 473 346.5 451.5Q378 430 387 384L412 462ZM155 595Q155 617 171 633Q187 649 209 649Q231 649 247 633Q263 617 263 595Q263 573 247 557Q231 541 209 541Q187 541 171 557Q155 573 155 595ZM344 594Q344 616 360 632Q376 648 398 648Q420 648 436 632Q452 616 452 594Q452 572 436 556Q420 540 398 540Q376 540 360 556Q344 572 344 594Z" glyph-name="adieresis" horiz-adv-x="525" unicode="&#228;" /><glyph d="M498 47Q549 47 574 68Q599 89 612 126L681 109Q656 39 607 13.5Q558 -12 491 -12Q440 -12 402.5 8.5Q365 29 343 66Q318 27 275 7.5Q232 -12 174 -12Q103 -12 69 20.5Q35 53 35 107Q35 192 110 231.5Q185 271 324 272Q327 284 330.5 296Q334 308 338 318Q346 367 323 389.5Q300 412 259 412Q218 412 191 392Q164 372 154 334L84 344Q102 417 157.5 445Q213 473 270 473Q314 473 349 460.5Q384 448 400 414Q430 443 466.5 458Q503 473 540 473Q628 473 666 422Q704 371 704 308Q704 284 699 258.5Q694 233 684 211H386Q381 151 406.5 99Q432 47 498 47ZM395 272H626Q629 280 630 290.5Q631 301 631 310Q631 351 608 382Q585 413 536 413Q479 413 443.5 369.5Q408 326 395 272ZM322 120Q318 134 316.5 150.5Q315 167 315 184Q315 191 315 197.5Q315 204 316 211Q226 210 168 187.5Q110 165 110 111Q110 80 129 62.5Q148 45 184 45Q225 45 260 61Q295 77 322 120Z" glyph-name="ae" horiz-adv-x="734" unicode="&#230;" /><glyph d="M498 47Q549 47 574 68Q599 89 612 126L681 109Q656 39 607 13.5Q558 -12 491 -12Q440 -12 402.5 8.5Q365 29 343 66Q318 27 275 7.5Q232 -12 174 -12Q103 -12 69 20.5Q35 53 35 107Q35 192 110 231.5Q185 271 324 272Q327 284 330.5 296Q334 308 338 318Q346 367 323 389.5Q300 412 259 412Q218 412 191 392Q164 372 154 334L84 344Q102 417 157.5 445Q213 473 270 473Q314 473 349 460.5Q384 448 400 414Q430 443 466.5 458Q503 473 540 473Q628 473 666 422Q704 371 704 308Q704 284 699 258.5Q694 233 684 211H386Q381 151 406.5 99Q432 47 498 47ZM395 272H626Q629 280 630 290.5Q631 301 631 310Q631 351 608 382Q585 413 536 413Q479 413 443.5 369.5Q408 326 395 272ZM322 120Q318 134 316.5 150.5Q315 167 315 184Q315 191 315 197.5Q315 204 316 211Q226 210 168 187.5Q110 165 110 111Q110 80 129 62.5Q148 45 184 45Q225 45 260 61Q295 77 322 120ZM445 530H380L455 673H560Z" glyph-name="aeacute" horiz-adv-x="723" unicode="&#509;" /><glyph d="M351 193 365 271Q374 323 351.5 368Q329 413 274 413Q205 413 159.5 349Q114 285 114 186Q114 128 139.5 89.5Q165 51 216 51Q268 51 304 89Q340 127 351 193ZM475 462 411 99Q408 82 411.5 68Q415 54 437 54Q443 54 450 55Q457 56 466 58L456 3Q446 -1 433.5 -3Q421 -5 408 -5Q371 -5 352 16Q333 37 336 77Q315 30 276.5 9Q238 -12 195 -12Q129 -12 84.5 37Q40 86 40 177Q40 295 103 384Q166 473 267 473Q315 473 346.5 451.5Q378 430 387 384L412 462ZM336 530H271L156 673H261Z" glyph-name="agrave" horiz-adv-x="525" unicode="&#224;" /><glyph d="M351 193 365 271Q374 323 351.5 368Q329 413 274 413Q205 413 159.5 349Q114 285 114 186Q114 128 139.5 89.5Q165 51 216 51Q268 51 304 89Q340 127 351 193ZM475 462 411 99Q408 82 411.5 68Q415 54 437 54Q443 54 450 55Q457 56 466 58L456 3Q446 -1 433.5 -3Q421 -5 408 -5Q371 -5 352 16Q333 37 336 77Q315 30 276.5 9Q238 -12 195 -12Q129 -12 84.5 37Q40 86 40 177Q40 295 103 384Q166 473 267 473Q315 473 346.5 451.5Q378 430 387 384L412 462ZM423 564H172L183 625H434Z" glyph-name="amacron" horiz-adv-x="525" unicode="&#257;" /><glyph d="M285 547Q248 547 222.5 524.5Q197 502 196 465Q196 446 203.5 429Q211 412 222 397L257 350Q310 375 336 403.5Q362 432 362 473Q362 508 343.5 527.5Q325 547 285 547ZM93 133Q93 95 118.5 70.5Q144 46 190 46Q240 46 282.5 64Q325 82 358 112L227 275Q173 244 133 216Q93 188 93 133ZM510 38 452 -7 393 66Q349 26 296.5 7Q244 -12 187 -12Q107 -12 63.5 23.5Q20 59 20 128Q20 197 67 241Q114 285 195 319L173 346Q154 370 140 397.5Q126 425 126 461Q126 527 177 564Q228 601 292 601Q365 601 399 565Q433 529 433 474Q433 423 397 379.5Q361 336 293 305L400 171Q414 191 425.5 224Q437 257 444 288L513 273Q502 236 484.5 194.5Q467 153 440 121Z" glyph-name="ampersand" horiz-adv-x="553" unicode="&amp;" /><glyph d="M241 -118Q241 -67 277 -32Q313 3 351 17Q345 27 340 44Q335 61 336 77Q316 34 277 11Q238 -12 195 -12Q129 -12 84.5 37Q40 86 40 177Q40 295 103 384Q166 473 267 473Q315 473 346.5 451.5Q378 430 387 384L412 462H475L411 99Q408 82 411.5 68Q415 54 437 54Q443 54 450 55Q457 56 466 58L456 3Q403 -4 355 -29.5Q307 -55 307 -110Q307 -132 320 -145.5Q333 -159 354 -159Q380 -159 394.5 -147Q409 -135 419 -116L448 -151Q435 -176 411 -193.5Q387 -211 342 -211Q292 -211 266.5 -185.5Q241 -160 241 -118ZM351 193 365 271Q374 323 351.5 368Q329 413 274 413Q205 413 159.5 349Q114 285 114 186Q114 128 139.5 89.5Q165 51 216 51Q268 51 304 89Q340 127 351 193Z" glyph-name="aogonek" horiz-adv-x="525" unicode="&#261;" /><glyph d="M377 255Q319 255 268 280Q217 305 163 305Q137 305 111 292.5Q85 280 60 255L69 305Q89 329 117 339.5Q145 350 168 350Q223 350 277.5 325Q332 300 388 300Q407 300 434.5 312.5Q462 325 485 348L475 290Q456 273 431.5 264Q407 255 377 255ZM357 141Q299 141 248 166.5Q197 192 143 192Q117 192 91.5 179.5Q66 167 40 141L49 192Q69 215 97 226Q125 237 148 237Q203 237 257.5 211.5Q312 186 368 186Q387 186 414.5 198.5Q442 211 465 235L455 176Q436 160 411.5 150.5Q387 141 357 141Z" glyph-name="approxequal" horiz-adv-x="525" unicode="&#8776;" /><glyph d="M351 193 365 271Q374 323 351.5 368Q329 413 274 413Q205 413 159.5 349Q114 285 114 186Q114 128 139.5 89.5Q165 51 216 51Q268 51 304 89Q340 127 351 193ZM475 462 411 99Q408 82 411.5 68Q415 54 437 54Q443 54 450 55Q457 56 466 58L456 3Q446 -1 433.5 -3Q421 -5 408 -5Q371 -5 352 16Q333 37 336 77Q315 30 276.5 9Q238 -12 195 -12Q129 -12 84.5 37Q40 86 40 177Q40 295 103 384Q166 473 267 473Q315 473 346.5 451.5Q378 430 387 384L412 462ZM213 611Q213 653 242 683Q271 713 317 713Q357 713 380.5 688Q404 663 404 628Q404 586 375.5 556Q347 526 301 526Q258 526 235.5 550.5Q213 575 213 611ZM313 676Q289 676 272.5 658Q256 640 256 616Q256 591 269.5 577Q283 563 307 563Q330 563 346 581Q362 599 362 623Q362 647 349 661.5Q336 676 313 676Z" glyph-name="aring" horiz-adv-x="525" unicode="&#229;" /><glyph d="M445 321 386 496Q364 560 362 587Q360 614 360 614H356Q356 614 344.5 587Q333 560 288 497L164 321H86L337 668H397L525 321Z" glyph-name="asciicircum" horiz-adv-x="499" unicode="^" /><glyph d="M184 222 137 247Q129 251 120.5 254.5Q112 258 105 258Q91 258 81.5 249.5Q72 241 68 217L38 231Q37 238 36 243.5Q35 249 35 255Q35 286 58 304Q81 322 110 322Q127 322 139.5 317.5Q152 313 163 307L211 280Q218 276 227 273.5Q236 271 245 271Q258 271 268.5 281Q279 291 280 316L314 301Q315 296 315.5 291Q316 286 316 281Q315 250 293.5 228.5Q272 207 239 207Q221 207 208.5 211.5Q196 216 184 222Z" glyph-name="asciitilde" horiz-adv-x="352" unicode="~" /><glyph d="M275 576 238 483 334 501 338 436 238 446 284 354 222 332 199 430 129 357 90 410 176 463 85 507 122 560 196 495 211 594Z" glyph-name="asterisk" horiz-adv-x="353" unicode="*" /><glyph d="M610 -12Q568 -12 538 8Q508 28 507 80Q489 24 453.5 6Q418 -12 378 -12Q315 -12 279 32.5Q243 77 243 159Q243 272 299.5 339.5Q356 407 433 407Q473 407 506 387.5Q539 368 545 322L576 401H633L577 113Q571 77 582 60Q593 43 624 43Q686 43 724.5 104Q763 165 763 258Q763 403 667.5 471.5Q572 540 450 540Q323 540 219 457Q115 374 115 202Q115 19 225.5 -61.5Q336 -142 479 -142Q525 -142 570.5 -135.5Q616 -129 659 -113L673 -170Q630 -184 582 -192Q534 -200 478 -200Q319 -200 182 -113Q45 -26 45 201Q45 373 155 484.5Q265 596 454 596Q644 596 737.5 496.5Q831 397 831 269Q831 143 773.5 65.5Q716 -12 610 -12ZM519 182 526 224Q536 281 508.5 316Q481 351 444 351Q391 351 354.5 300Q318 249 318 159Q318 110 335 79Q352 48 394 48Q435 48 472 81.5Q509 115 519 182Z" glyph-name="at" horiz-adv-x="876" unicode="@" /><glyph d="M351 193 365 271Q374 323 351.5 368Q329 413 274 413Q205 413 159.5 349Q114 285 114 186Q114 128 139.5 89.5Q165 51 216 51Q268 51 304 89Q340 127 351 193ZM475 462 411 99Q408 82 411.5 68Q415 54 437 54Q443 54 450 55Q457 56 466 58L456 3Q446 -1 433.5 -3Q421 -5 408 -5Q371 -5 352 16Q333 37 336 77Q315 30 276.5 9Q238 -12 195 -12Q129 -12 84.5 37Q40 86 40 177Q40 295 103 384Q166 473 267 473Q315 473 346.5 451.5Q378 430 387 384L412 462ZM365 531Q339 531 324 539Q309 547 293 557Q275 568 264 575Q253 582 237 582Q221 582 210 570Q199 558 198 533H150Q142 579 168 612.5Q194 646 239 646Q267 646 283 637Q299 628 317 616Q335 604 344.5 599Q354 594 367 594Q381 594 391 606Q401 618 404 646H455Q461 597 436.5 564Q412 531 365 531Z" glyph-name="atilde" horiz-adv-x="525" unicode="&#227;" /><glyph d="M124 76 94 0H40L157 668H233L181 373Q205 423 243 448Q281 473 331 473Q403 473 442.5 423.5Q482 374 482 283Q482 160 420 74Q358 -12 253 -12Q202 -12 166.5 13.5Q131 39 124 76ZM162 267 146 178Q139 135 164 93Q189 51 247 51Q321 51 362.5 119.5Q404 188 404 283Q404 342 379 377Q354 412 307 412Q255 412 214 371.5Q173 331 162 267Z" glyph-name="b" horiz-adv-x="522" unicode="b" /><glyph d="M165 669 287 -203H222L100 669Z" glyph-name="backslash" horiz-adv-x="337" unicode="\" /><glyph d="M72 -203H5L158 669H225Z" glyph-name="bar" horiz-adv-x="225" unicode="|" /><glyph d="M148 234V230Q181 226 199.5 206Q218 186 208 132L173 -72Q166 -112 175 -133Q184 -154 218 -154Q238 -154 253.5 -149.5Q269 -145 282 -139L286 -195Q261 -203 238 -206.5Q215 -210 193 -210Q127 -210 108.5 -173.5Q90 -137 101 -76L136 126Q146 177 126 190Q106 203 81 203H40L50 261H91Q116 261 141.5 274Q167 287 176 338L209 540Q220 601 252.5 637.5Q285 674 351 674Q373 674 393.5 670.5Q414 667 436 659L413 603Q402 609 388 613.5Q374 618 354 618Q320 618 303.5 597Q287 576 280 536L244 332Q234 276 208.5 257.5Q183 239 148 234Z" glyph-name="braceleft" horiz-adv-x="381" unicode="{" /><glyph d="M228 230V234Q195 238 176.5 258Q158 278 168 332L203 536Q210 576 201 597Q192 618 158 618Q138 618 122.5 613.5Q107 609 94 603L90 659Q115 667 138 670.5Q161 674 183 674Q249 674 267.5 637.5Q286 601 275 540L240 338Q230 287 250 274Q270 261 295 261H336L326 203H285Q260 203 234.5 190Q209 177 200 126L167 -76Q156 -137 123.5 -173.5Q91 -210 25 -210Q3 -210 -17.5 -206.5Q-38 -203 -60 -195L-37 -139Q-26 -145 -12 -149.5Q2 -154 22 -154Q56 -154 72.5 -133Q89 -112 96 -72L132 132Q142 188 167.5 206.5Q193 225 228 230Z" glyph-name="braceright" horiz-adv-x="381" unicode="}" /><glyph d="M234 612 101 -146H244L234 -203H20L173 669H387L377 612Z" glyph-name="bracketleft" horiz-adv-x="317" unicode="[" /><glyph d="M83 -146 216 612H73L83 669H297L144 -203H-70L-60 -146Z" glyph-name="bracketright" horiz-adv-x="317" unicode="]" /><glyph d="M199 529Q138 529 109.5 566Q81 603 92 665H153Q150 631 159.5 609Q169 587 209 587Q249 587 266.5 609Q284 631 293 665H354Q343 603 301.5 566Q260 529 199 529Z" glyph-name="breve" horiz-adv-x="426" unicode="&#728;" /><glyph d="M197 652Q137 652 108.5 686.5Q80 721 90 778H151Q148 746 160 727.5Q172 709 208 709Q245 709 263 727.5Q281 746 290 778H351Q341 721 299.5 686.5Q258 652 197 652Z" glyph-name="breve.cap" horiz-adv-x="424" /><glyph d="M75 238Q75 269 97 291.5Q119 314 149 314Q180 314 202.5 291.5Q225 269 225 238Q225 208 202.5 186Q180 164 149 164Q119 164 97 186Q75 208 75 238Z" glyph-name="bullet" horiz-adv-x="310" unicode="&#8226;" /><glyph d="M337 141 407 125Q381 55 333 21.5Q285 -12 213 -12Q137 -12 88.5 39Q40 90 40 183Q40 291 99.5 382Q159 473 273 473Q349 473 384.5 434.5Q420 396 420 328L349 316Q348 359 329.5 384.5Q311 410 264 410Q191 410 152.5 339.5Q114 269 114 194Q114 122 143 84.5Q172 47 223 47Q270 47 296.5 73Q323 99 337 141Z" glyph-name="c" horiz-adv-x="440" unicode="c" /><glyph d="M337 141 407 125Q381 55 333 21.5Q285 -12 213 -12Q137 -12 88.5 39Q40 90 40 183Q40 291 99.5 382Q159 473 273 473Q349 473 384.5 434.5Q420 396 420 328L349 316Q348 359 329.5 384.5Q311 410 264 410Q191 410 152.5 339.5Q114 269 114 194Q114 122 143 84.5Q172 47 223 47Q270 47 296.5 73Q323 99 337 141ZM311 530H246L321 673H426Z" glyph-name="cacute" horiz-adv-x="440" unicode="&#263;" /><glyph d="M219 530H177L80 673H159L187 629Q198 611 201 600Q204 589 204 589H208Q208 589 215 600Q222 611 239 629L283 673H366Z" glyph-name="caron" horiz-adv-x="446" unicode="&#711;" /><glyph d="M225 655H179L80 779H165L191 745Q202 729 205.5 719.5Q209 710 209 710H211Q211 710 217.5 719.5Q224 729 241 745L279 779H368Z" glyph-name="caron.cap" horiz-adv-x="448" /><glyph d="M186 668 135 493H80L96 668Z" glyph-name="caronSlovak" horiz-adv-x="266" unicode="&#58387;" /><glyph d="M337 141 407 125Q381 55 333 21.5Q285 -12 213 -12Q137 -12 88.5 39Q40 90 40 183Q40 291 99.5 382Q159 473 273 473Q349 473 384.5 434.5Q420 396 420 328L349 316Q348 359 329.5 384.5Q311 410 264 410Q191 410 152.5 339.5Q114 269 114 194Q114 122 143 84.5Q172 47 223 47Q270 47 296.5 73Q323 99 337 141ZM303 530H261L164 673H243L271 629Q282 611 285 600Q288 589 288 589H292Q292 589 299 600Q306 611 323 629L367 673H450Z" glyph-name="ccaron" horiz-adv-x="440" unicode="&#269;" /><glyph d="M266 -126Q266 -169 235 -190Q204 -211 162 -211Q134 -211 112 -201Q90 -191 77 -173L100 -125Q112 -143 127.5 -152.5Q143 -162 162 -162Q180 -162 191.5 -153Q203 -144 203 -126Q203 -106 187 -94Q171 -82 134 -82L163 -5Q107 9 73.5 57Q40 105 40 183Q40 291 99.5 382Q159 473 273 473Q349 473 384.5 434.5Q420 396 420 328L349 316Q348 359 329.5 384.5Q311 410 264 410Q191 410 152.5 339.5Q114 269 114 194Q114 122 143 84.5Q172 47 223 47Q270 47 296.5 73Q323 99 337 141L407 125Q381 55 333 21.5Q285 -12 213 -12Q210 -12 207 -11.5Q204 -11 201 -11L188 -42Q228 -51 247 -71Q266 -91 266 -126Z" glyph-name="ccedilla" horiz-adv-x="440" unicode="&#231;" /><glyph d="M337 141 407 125Q381 55 333 21.5Q285 -12 213 -12Q137 -12 88.5 39Q40 90 40 183Q40 291 99.5 382Q159 473 273 473Q349 473 384.5 434.5Q420 396 420 328L349 316Q348 359 329.5 384.5Q311 410 264 410Q191 410 152.5 339.5Q114 269 114 194Q114 122 143 84.5Q172 47 223 47Q270 47 296.5 73Q323 99 337 141ZM281 673H323L420 530H341L313 574Q302 592 299 603Q296 614 296 614H292Q292 614 285 603Q278 592 261 574L217 530H134Z" glyph-name="ccircumflex" horiz-adv-x="440" unicode="&#265;" /><glyph d="M337 141 407 125Q381 55 333 21.5Q285 -12 213 -12Q137 -12 88.5 39Q40 90 40 183Q40 291 99.5 382Q159 473 273 473Q349 473 384.5 434.5Q420 396 420 328L349 316Q348 359 329.5 384.5Q311 410 264 410Q191 410 152.5 339.5Q114 269 114 194Q114 122 143 84.5Q172 47 223 47Q270 47 296.5 73Q323 99 337 141ZM237 612Q237 634 252.5 650.5Q268 667 290 667Q313 667 329 650.5Q345 634 345 612Q345 590 329 574Q313 558 290 558Q268 558 252.5 574Q237 590 237 612Z" glyph-name="cdotaccent" horiz-adv-x="440" unicode="&#267;" /><glyph d="M128 201Q128 146 149.5 107.5Q171 69 211 56L276 428Q210 418 169 353.5Q128 289 128 201ZM390 137 446 96Q411 41 364 15Q317 -11 248 -12L232 -106H182L199 -8Q132 5 91 57Q50 109 50 191Q50 312 112 397.5Q174 483 287 492L302 574H352L337 492Q397 487 431 457Q465 427 478 378L404 342Q397 379 377 400Q357 421 326 427L259 49Q296 50 329.5 70.5Q363 91 390 137Z" glyph-name="cent" horiz-adv-x="488" unicode="&#162;" /><glyph d="M227 673H269L366 530H287L259 574Q248 592 245 603Q242 614 242 614H238Q238 614 231 603Q224 592 207 574L163 530H80Z" glyph-name="circumflex" horiz-adv-x="446" unicode="&#710;" /><glyph d="M223 779H269L368 655H283L257 689Q246 705 242.5 714.5Q239 724 239 724H237Q237 724 230.5 714.5Q224 705 207 689L169 655H80Z" glyph-name="circumflex.cap" horiz-adv-x="448" /><glyph d="M114 418Q114 444 132 462Q150 480 176 480Q202 480 220 462Q238 444 238 418Q238 392 220 374Q202 356 176 356Q150 356 132 374Q114 392 114 418ZM50 56Q50 82 68 100Q86 118 112 118Q138 118 156 100Q174 82 174 56Q174 30 156 12Q138 -6 112 -6Q86 -6 68 12Q50 30 50 56Z" glyph-name="colon" horiz-adv-x="284" unicode=":" /><glyph d="M185 27Q185 -41 137 -74Q89 -107 25 -111V-72Q59 -67 92 -49.5Q125 -32 125 1Q95 -5 77 10.5Q59 26 59 52Q59 78 75.5 93Q92 108 119 108Q147 108 166 86.5Q185 65 185 27Z" glyph-name="comma" horiz-adv-x="284" unicode="," /><glyph d="M229 -140Q229 -194 192.5 -219.5Q156 -245 101 -245V-211Q129 -210 151 -201Q173 -192 173 -167Q147 -172 131.5 -158.5Q116 -145 116 -123Q116 -100 130.5 -87Q145 -74 169 -74Q192 -74 210.5 -90Q229 -106 229 -140Z" glyph-name="commaaccent" horiz-adv-x="304" unicode="&#58388;" /><glyph d="M80 720Q80 774 116.5 799.5Q153 825 208 825V791Q180 790 158 781Q136 772 136 747Q162 752 177.5 738.5Q193 725 193 703Q193 680 178.5 667Q164 654 140 654Q117 654 98.5 670Q80 686 80 720Z" glyph-name="commaaccent.cap" horiz-adv-x="304" /><glyph d="M55 294Q55 427 145 514Q235 601 361 601Q487 601 577.5 514Q668 427 668 294Q668 161 577.5 74.5Q487 -12 361 -12Q235 -12 145 74.5Q55 161 55 294ZM86 294Q86 173 167.5 95Q249 17 362 17Q475 17 556.5 95Q638 173 638 294Q638 415 556.5 493.5Q475 572 362 572Q249 572 167.5 493.5Q86 415 86 294ZM450 219 497 185Q470 141 432 120.5Q394 100 339 100Q273 100 231.5 142Q190 184 190 256Q190 353 242.5 420.5Q295 488 391 488Q448 488 479 463.5Q510 439 522 398L460 369Q455 402 434 419Q413 436 382 436Q326 436 290 386Q254 336 254 264Q254 213 279 181.5Q304 150 349 150Q378 150 403.5 166Q429 182 450 219Z" glyph-name="copyright" horiz-adv-x="698" unicode="&#169;" /><glyph d="M351 192 366 271Q375 322 352 367Q329 412 274 412Q205 412 159 348Q113 284 113 185Q113 128 138.5 89.5Q164 51 215 51Q268 51 304 89Q340 127 351 192ZM511 668 411 99Q408 82 411.5 68Q415 54 437 54Q443 54 450 55Q457 56 466 58L456 3Q446 -1 433.5 -3Q421 -5 408 -5Q371 -5 352 16Q333 37 336 77Q317 27 277.5 7.5Q238 -12 195 -12Q129 -12 84.5 37Q40 86 40 177Q40 295 103 384Q166 473 267 473Q315 473 346 451.5Q377 430 386 384L436 668Z" glyph-name="d" horiz-adv-x="521" unicode="d" /><glyph d="M293 299 100 288 114 366 303 356 334 589H416L365 356L558 366L544 288L356 299L287 -149H204Z" glyph-name="dagger" horiz-adv-x="544" unicode="&#8224;" /><glyph d="M357 309 324 130 517 141 504 65 316 76 287 -150H204L254 76L61 65L74 141L263 130L295 309L102 298L115 374L305 363L334 589H417L366 363L558 374L545 298Z" glyph-name="daggerdbl" horiz-adv-x="543" unicode="&#8225;" /><glyph d="M657 668 606 493H551L567 668ZM351 192 366 271Q375 322 352 367Q329 412 274 412Q205 412 159 348Q113 284 113 185Q113 128 138.5 89.5Q164 51 215 51Q268 51 304 89Q340 127 351 192ZM511 668 411 99Q408 82 411.5 68Q415 54 437 54Q443 54 450 55Q457 56 466 58L456 3Q446 -1 433.5 -3Q421 -5 408 -5Q371 -5 352 16Q333 37 336 77Q317 27 277.5 7.5Q238 -12 195 -12Q129 -12 84.5 37Q40 86 40 177Q40 295 103 384Q166 473 267 473Q315 473 346 451.5Q377 430 386 384L436 668Z" glyph-name="dcaron" horiz-adv-x="521" unicode="&#271;" /><glyph d="M55 480Q55 529 89 565Q123 601 179 601Q226 601 254 571.5Q282 542 282 500Q282 450 247 414.5Q212 379 159 379Q108 379 81.5 408Q55 437 55 480ZM173 563Q141 563 120.5 539.5Q100 516 100 485Q100 454 117.5 436Q135 418 165 418Q196 418 216 441Q236 464 236 495Q236 526 218.5 544.5Q201 563 173 563Z" glyph-name="degree" horiz-adv-x="277" unicode="&#176;" /><glyph d="M80 595Q80 617 96 633Q112 649 134 649Q156 649 172 633Q188 617 188 595Q188 573 172 557Q156 541 134 541Q112 541 96 557Q80 573 80 595ZM269 594Q269 616 285 632Q301 648 323 648Q345 648 361 632Q377 616 377 594Q377 572 361 556Q345 540 323 540Q301 540 285 556Q269 572 269 594Z" glyph-name="dieresis" horiz-adv-x="457" unicode="&#168;" /><glyph d="M80 710Q80 732 96 748Q112 764 134 764Q156 764 172 748Q188 732 188 710Q188 688 172 672Q156 656 134 656Q112 656 96 672Q80 688 80 710ZM269 709Q269 731 285 747Q301 763 323 763Q345 763 361 747Q377 731 377 709Q377 687 361 671Q345 655 323 655Q301 655 285 671Q269 687 269 709Z" glyph-name="dieresis.cap" horiz-adv-x="457" /><glyph d="M239 419Q239 437 251.5 450Q264 463 282 463Q299 463 312 450Q325 437 325 419Q325 402 312 389.5Q299 377 282 377Q264 377 251.5 389.5Q239 402 239 419ZM448 225H40L48 271H456ZM163 70Q163 88 175.5 100.5Q188 113 206 113Q223 113 236 100.5Q249 88 249 70Q249 53 236 40.5Q223 28 206 28Q188 28 175.5 40.5Q163 53 163 70Z" glyph-name="divide" horiz-adv-x="496" unicode="&#247;" /><glyph d="M152 362Q152 337 166 321Q180 305 211 291L237 436Q196 432 174 413Q152 394 152 362ZM304 124Q304 152 292 169.5Q280 187 245 203L217 42Q253 46 278.5 65Q304 84 304 124ZM15 122 81 137Q80 97 106.5 73.5Q133 50 167 43L199 221Q188 225 177.5 229.5Q167 234 158 238Q121 257 101.5 284Q82 311 82 351Q82 422 130 456Q178 490 247 493L261 574H311L296 491Q359 484 392 451.5Q425 419 425 365L356 353Q357 384 338.5 405.5Q320 427 286 434L257 271H259Q325 245 350 213Q375 181 375 133Q375 63 327 28Q279 -7 207 -11L191 -106H141L158 -10Q94 -3 54.5 32Q15 67 15 122Z" glyph-name="dollar" horiz-adv-x="445" unicode="$" /><glyph d="M80 612Q80 634 95.5 650.5Q111 667 133 667Q156 667 172 650.5Q188 634 188 612Q188 590 172 574Q156 558 133 558Q111 558 95.5 574Q80 590 80 612Z" glyph-name="dotaccent" horiz-adv-x="268" unicode="&#729;" /><glyph d="M80 725Q80 748 95.5 764Q111 780 133 780Q156 780 172 764Q188 748 188 725Q188 703 172 687Q156 671 133 671Q111 671 95.5 687Q80 703 80 725Z" glyph-name="dotaccent.cap" horiz-adv-x="268" /><glyph d="M198 462 134 99Q131 82 134.5 68Q138 54 160 54Q166 54 173 55Q180 56 189 58L179 3Q169 -1 156.5 -3Q144 -5 131 -5Q83 -5 66.5 22Q50 49 58 95L122 462Z" glyph-name="dotlessi" horiz-adv-x="243" unicode="&#305;" /><glyph d="M193 462 99 -70Q85 -152 44.5 -181.5Q4 -211 -53 -211Q-78 -211 -102.5 -203Q-127 -195 -140 -185L-114 -125Q-98 -137 -82.5 -143.5Q-67 -150 -46 -150Q-21 -150 -3.5 -133.5Q14 -117 22 -72L117 462Z" glyph-name="dotlessj" horiz-adv-x="218" unicode="&#567;" /><glyph d="M223 47Q274 47 299 68Q324 89 337 126L406 109Q381 39 332 13.5Q283 -12 216 -12Q133 -12 86.5 42Q40 96 40 184Q40 324 111 398.5Q182 473 265 473Q353 473 391 422Q429 371 429 308Q429 284 424 260Q419 236 409 214H111Q106 154 131.5 100.5Q157 47 223 47ZM120 275H351Q354 283 355 292Q356 301 356 310Q356 351 333 382Q310 413 261 413Q204 413 168.5 371Q133 329 120 275Z" glyph-name="e" horiz-adv-x="459" unicode="e" /><glyph d="M223 47Q274 47 299 68Q324 89 337 126L406 109Q381 39 332 13.5Q283 -12 216 -12Q133 -12 86.5 42Q40 96 40 184Q40 324 111 398.5Q182 473 265 473Q353 473 391 422Q429 371 429 308Q429 284 424 260Q419 236 409 214H111Q106 154 131.5 100.5Q157 47 223 47ZM120 275H351Q354 283 355 292Q356 301 356 310Q356 351 333 382Q310 413 261 413Q204 413 168.5 371Q133 329 120 275ZM291 530H226L301 673H406Z" glyph-name="eacute" horiz-adv-x="459" unicode="&#233;" /><glyph d="M223 47Q274 47 299 68Q324 89 337 126L406 109Q381 39 332 13.5Q283 -12 216 -12Q133 -12 86.5 42Q40 96 40 184Q40 324 111 398.5Q182 473 265 473Q353 473 391 422Q429 371 429 308Q429 284 424 260Q419 236 409 214H111Q106 154 131.5 100.5Q157 47 223 47ZM120 275H351Q354 283 355 292Q356 301 356 310Q356 351 333 382Q310 413 261 413Q204 413 168.5 371Q133 329 120 275ZM254 529Q193 529 164.5 566Q136 603 147 665H208Q205 631 214.5 609Q224 587 264 587Q304 587 321.5 609Q339 631 348 665H409Q398 603 356.5 566Q315 529 254 529Z" glyph-name="ebreve" horiz-adv-x="459" unicode="&#277;" /><glyph d="M223 47Q274 47 299 68Q324 89 337 126L406 109Q381 39 332 13.5Q283 -12 216 -12Q133 -12 86.5 42Q40 96 40 184Q40 324 111 398.5Q182 473 265 473Q353 473 391 422Q429 371 429 308Q429 284 424 260Q419 236 409 214H111Q106 154 131.5 100.5Q157 47 223 47ZM120 275H351Q354 283 355 292Q356 301 356 310Q356 351 333 382Q310 413 261 413Q204 413 168.5 371Q133 329 120 275ZM283 530H241L144 673H223L251 629Q262 611 265 600Q268 589 268 589H272Q272 589 279 600Q286 611 303 629L347 673H430Z" glyph-name="ecaron" horiz-adv-x="459" unicode="&#283;" /><glyph d="M223 47Q274 47 299 68Q324 89 337 126L406 109Q381 39 332 13.5Q283 -12 216 -12Q133 -12 86.5 42Q40 96 40 184Q40 324 111 398.5Q182 473 265 473Q353 473 391 422Q429 371 429 308Q429 284 424 260Q419 236 409 214H111Q106 154 131.5 100.5Q157 47 223 47ZM120 275H351Q354 283 355 292Q356 301 356 310Q356 351 333 382Q310 413 261 413Q204 413 168.5 371Q133 329 120 275ZM261 673H303L400 530H321L293 574Q282 592 279 603Q276 614 276 614H272Q272 614 265 603Q258 592 241 574L197 530H114Z" glyph-name="ecircumflex" horiz-adv-x="459" unicode="&#234;" /><glyph d="M223 47Q274 47 299 68Q324 89 337 126L406 109Q381 39 332 13.5Q283 -12 216 -12Q133 -12 86.5 42Q40 96 40 184Q40 324 111 398.5Q182 473 265 473Q353 473 391 422Q429 371 429 308Q429 284 424 260Q419 236 409 214H111Q106 154 131.5 100.5Q157 47 223 47ZM120 275H351Q354 283 355 292Q356 301 356 310Q356 351 333 382Q310 413 261 413Q204 413 168.5 371Q133 329 120 275ZM126 595Q126 617 142 633Q158 649 180 649Q202 649 218 633Q234 617 234 595Q234 573 218 557Q202 541 180 541Q158 541 142 557Q126 573 126 595ZM315 594Q315 616 331 632Q347 648 369 648Q391 648 407 632Q423 616 423 594Q423 572 407 556Q391 540 369 540Q347 540 331 556Q315 572 315 594Z" glyph-name="edieresis" horiz-adv-x="459" unicode="&#235;" /><glyph d="M223 47Q274 47 299 68Q324 89 337 126L406 109Q381 39 332 13.5Q283 -12 216 -12Q133 -12 86.5 42Q40 96 40 184Q40 324 111 398.5Q182 473 265 473Q353 473 391 422Q429 371 429 308Q429 284 424 260Q419 236 409 214H111Q106 154 131.5 100.5Q157 47 223 47ZM120 275H351Q354 283 355 292Q356 301 356 310Q356 351 333 382Q310 413 261 413Q204 413 168.5 371Q133 329 120 275ZM217 612Q217 634 232.5 650.5Q248 667 270 667Q293 667 309 650.5Q325 634 325 612Q325 590 309 574Q293 558 270 558Q248 558 232.5 574Q217 590 217 612Z" glyph-name="edotaccent" horiz-adv-x="459" unicode="&#279;" /><glyph d="M223 47Q274 47 299 68Q324 89 337 126L406 109Q381 39 332 13.5Q283 -12 216 -12Q133 -12 86.5 42Q40 96 40 184Q40 324 111 398.5Q182 473 265 473Q353 473 391 422Q429 371 429 308Q429 284 424 260Q419 236 409 214H111Q106 154 131.5 100.5Q157 47 223 47ZM120 275H351Q354 283 355 292Q356 301 356 310Q356 351 333 382Q310 413 261 413Q204 413 168.5 371Q133 329 120 275ZM307 530H242L127 673H232Z" glyph-name="egrave" horiz-adv-x="459" unicode="&#232;" /><glyph d="M213 -12Q131 -12 80.5 27Q30 66 30 131Q30 197 67.5 240.5Q105 284 166 298L167 303Q128 313 107.5 345Q87 377 87 416Q87 505 151 553Q215 601 301 601Q374 601 421 561.5Q468 522 468 456Q468 396 430 354.5Q392 313 339 300L338 295Q381 282 406.5 247.5Q432 213 432 166Q432 71 364.5 29.5Q297 -12 213 -12ZM292 540Q235 540 201.5 506Q168 472 168 421Q168 375 194.5 353Q221 331 261 331Q318 331 352 366Q386 401 386 454Q386 491 362 515.5Q338 540 292 540ZM249 267Q191 267 151 232.5Q111 198 111 141Q111 96 141 71Q171 46 218 46Q277 46 316 78.5Q355 111 355 170Q355 217 324.5 242Q294 267 249 267Z" glyph-name="eight" horiz-adv-x="488" unicode="8" /><glyph d="M618 56Q618 82 636 100Q654 118 680 118Q706 118 724 100Q742 82 742 56Q742 30 724 12Q706 -6 680 -6Q654 -6 636 12Q618 30 618 56ZM334 56Q334 82 352 100Q370 118 396 118Q422 118 440 100Q458 82 458 56Q458 30 440 12Q422 -6 396 -6Q370 -6 352 12Q334 30 334 56ZM50 56Q50 82 68 100Q86 118 112 118Q138 118 156 100Q174 82 174 56Q174 30 156 12Q138 -6 112 -6Q86 -6 68 12Q50 30 50 56Z" glyph-name="ellipsis" horiz-adv-x="852" unicode="&#8230;" /><glyph d="M223 47Q274 47 299 68Q324 89 337 126L406 109Q381 39 332 13.5Q283 -12 216 -12Q133 -12 86.5 42Q40 96 40 184Q40 324 111 398.5Q182 473 265 473Q353 473 391 422Q429 371 429 308Q429 284 424 260Q419 236 409 214H111Q106 154 131.5 100.5Q157 47 223 47ZM120 275H351Q354 283 355 292Q356 301 356 310Q356 351 333 382Q310 413 261 413Q204 413 168.5 371Q133 329 120 275ZM394 564H143L154 625H405Z" glyph-name="emacron" horiz-adv-x="459" unicode="&#275;" /><glyph d="M70 224 80 279H940L930 224Z" glyph-name="emdash" horiz-adv-x="1010" unicode="&#8212;" /><glyph d="M70 224 80 279H440L430 224Z" glyph-name="endash" horiz-adv-x="510" unicode="&#8211;" /><glyph d="M443 318 376 -70Q362 -152 321.5 -181.5Q281 -211 224 -211Q199 -211 174.5 -203Q150 -195 137 -185L163 -125Q179 -137 194.5 -143.5Q210 -150 231 -150Q256 -150 273.5 -133.5Q291 -117 299 -72L369 319Q376 360 362 384.5Q348 409 306 409Q268 409 222 376Q176 343 160 253L116 0H40L121 462H187L180 368Q205 419 241.5 446Q278 473 329 473Q382 473 414.5 445.5Q447 418 447 364Q447 356 446.5 345.5Q446 335 443 318Z" glyph-name="eng" horiz-adv-x="494" unicode="&#331;" /><glyph d="M141 -118Q141 -84 156.5 -57Q172 -30 195 -11Q122 -4 81 48.5Q40 101 40 184Q40 324 111 398.5Q182 473 265 473Q353 473 391 422Q429 371 429 308Q429 284 424 260Q419 236 409 214H111Q106 154 131.5 100.5Q157 47 223 47Q274 47 299 68Q324 89 337 126L406 109Q387 56 353.5 33Q320 10 279 -6Q246 -19 226.5 -47.5Q207 -76 207 -110Q207 -132 220 -145.5Q233 -159 254 -159Q280 -159 294.5 -147Q309 -135 319 -116L348 -151Q335 -176 311 -193.5Q287 -211 242 -211Q192 -211 166.5 -185.5Q141 -160 141 -118ZM120 275H351Q354 283 355 292Q356 301 356 310Q356 351 333 382Q310 413 261 413Q204 413 168.5 371Q133 329 120 275Z" glyph-name="eogonek" horiz-adv-x="459" unicode="&#281;" /><glyph d="M470 286H62L70 332H478ZM448 160H40L48 206H456Z" glyph-name="equal" horiz-adv-x="518" unicode="=" /><glyph d="M133 494 123 534 259 569Q228 591 191.5 606.5Q155 622 112 631L166 672Q215 660 257.5 640Q300 620 334 589L420 612L431 571L367 554Q405 508 426.5 441Q448 374 448 286Q448 157 387.5 72.5Q327 -12 215 -12Q138 -12 89 37.5Q40 87 40 180Q40 291 99.5 376.5Q159 462 263 462Q295 462 327 446.5Q359 431 372 396H376Q365 438 345.5 473Q326 508 298 536ZM264 400Q195 400 154.5 335.5Q114 271 114 188Q114 119 144 82.5Q174 46 225 46Q294 46 334 113Q374 180 374 264Q374 333 345 366.5Q316 400 264 400Z" glyph-name="eth" horiz-adv-x="488" unicode="&#240;" /><glyph d="M123 589H223L125 166H73ZM26 51Q26 75 42.5 91.5Q59 108 83 108Q107 108 123.5 91.5Q140 75 140 51Q140 27 123.5 10.5Q107 -6 83 -6Q59 -6 42.5 10.5Q26 27 26 51Z" glyph-name="exclam" horiz-adv-x="213" unicode="!" /><glyph d="M188 411Q188 387 171.5 370.5Q155 354 131 354Q107 354 90.5 370.5Q74 387 74 411Q74 435 90.5 451.5Q107 468 131 468Q155 468 171.5 451.5Q188 435 188 411ZM91 -127H-9L89 296H141Z" glyph-name="exclamdown" horiz-adv-x="213" unicode="&#161;" /><glyph d="M33 -103 123 401H52L64 462H133L145 526Q161 609 201.5 642Q242 675 302 675Q331 675 356 668Q381 661 406 646L375 583Q357 596 341.5 603.5Q326 611 304 611Q268 611 247.5 592Q227 573 219 526L208 462H324L313 401H197L108 -104Q96 -170 66 -190.5Q36 -211 -8 -211Q-33 -211 -55 -204Q-77 -197 -90 -185L-72 -125Q-58 -138 -43.5 -144Q-29 -150 -16 -150Q4 -150 16 -140.5Q28 -131 33 -103Z" glyph-name="f" horiz-adv-x="286" unicode="f" /><glyph d="M434 264 418 172Q411 129 436 85.5Q461 42 519 42Q592 42 633.5 112.5Q675 183 675 280Q675 340 650 376Q625 412 578 412Q527 412 486 371Q445 330 434 264ZM312 0 415 591Q397 603 372 610.5Q347 618 324 618Q286 618 256.5 596Q227 574 217 516L208 462H304L293 401H197L108 -104Q96 -170 66 -190.5Q36 -211 -8 -211Q-33 -211 -55 -204Q-77 -197 -90 -185L-72 -125Q-58 -138 -43.5 -144Q-29 -150 -16 -150Q4 -150 16 -140.5Q28 -131 33 -103L123 401H52L64 462H133L143 517Q160 607 210 641Q260 675 320 675Q348 675 380.5 667.5Q413 660 426 652L505 668L453 373Q477 423 515 448Q553 473 603 473Q675 473 714.5 423.5Q754 374 754 283Q754 160 692 74Q630 -12 525 -12Q474 -12 438.5 13.5Q403 39 396 76L366 0Z" glyph-name="f_b" horiz-adv-x="794" unicode="&#58241;" /><glyph d="M694 264 678 172Q671 129 696 85.5Q721 42 779 42Q852 42 893.5 112.5Q935 183 935 280Q935 340 910 376Q885 412 838 412Q787 412 746 371Q705 330 694 264ZM572 0 675 591Q657 603 632 610.5Q607 618 584 618Q546 618 516.5 596Q487 574 477 516L468 462H562L551 401H457L370 -91Q358 -157 328 -177.5Q298 -198 254 -198Q229 -198 207 -191Q185 -184 172 -172L190 -112Q204 -125 218.5 -131Q233 -137 246 -137Q266 -137 278 -127.5Q290 -118 295 -90L383 401H197L108 -104Q96 -170 66 -190.5Q36 -211 -8 -211Q-33 -211 -55 -204Q-77 -197 -90 -185L-72 -125Q-58 -138 -43.5 -144Q-29 -150 -16 -150Q4 -150 16 -140.5Q28 -131 33 -103L123 401H52L64 462H133L146 533Q160 605 195 636.5Q230 668 284 668Q311 668 332.5 661.5Q354 655 376 639L345 576Q329 589 316.5 596.5Q304 604 285 604Q255 604 241 585.5Q227 567 220 530L208 462H393L403 517Q420 607 470 641Q520 675 580 675Q608 675 640.5 667.5Q673 660 686 652L765 668L713 373Q737 423 775 448Q813 473 863 473Q935 473 974.5 423.5Q1014 374 1014 283Q1014 160 952 74Q890 -12 785 -12Q734 -12 698.5 13.5Q663 39 656 76L626 0Z" glyph-name="f_f_b" horiz-adv-x="1054" unicode="&#58242;" /><glyph d="M571 0 675 591Q657 603 632 610.5Q607 618 584 618Q546 618 516.5 596Q487 574 477 516L468 462H562L551 401H457L370 -91Q358 -157 328 -177.5Q298 -198 254 -198Q229 -198 207 -191Q185 -184 172 -172L190 -112Q204 -125 218.5 -131Q233 -137 246 -137Q266 -137 278 -127.5Q290 -118 295 -90L383 401H197L108 -104Q96 -170 66 -190.5Q36 -211 -8 -211Q-33 -211 -55 -204Q-77 -197 -90 -185L-72 -125Q-58 -138 -43.5 -144Q-29 -150 -16 -150Q4 -150 16 -140.5Q28 -131 33 -103L123 401H52L64 462H133L146 533Q160 605 195 636.5Q230 668 284 668Q311 668 332.5 661.5Q354 655 376 639L345 576Q329 589 316.5 596.5Q304 604 285 604Q255 604 241 585.5Q227 567 220 530L208 462H393L403 517Q420 607 470 641Q520 675 580 675Q608 675 640.5 667.5Q673 660 686 652L765 668L711 368Q736 419 772.5 446Q809 473 860 473Q913 473 945.5 445.5Q978 418 978 364Q978 356 977.5 345.5Q977 335 974 318L936 99Q933 82 936.5 68Q940 54 962 54Q968 54 975 55Q982 56 991 58L981 3Q971 -1 958.5 -3Q946 -5 933 -5Q885 -5 868.5 22Q852 49 860 95L900 319Q907 360 893 384.5Q879 409 837 409Q799 409 753 376Q707 343 691 253L647 0Z" glyph-name="f_f_h" horiz-adv-x="1036" unicode="&#58243;" /><glyph d="M643 401H457L370 -91Q358 -157 328 -177.5Q298 -198 254 -198Q229 -198 207 -191Q185 -184 172 -172L190 -112Q204 -125 218.5 -131Q233 -137 246 -137Q266 -137 278 -127.5Q290 -118 295 -90L383 401H197L108 -104Q96 -170 66 -190.5Q36 -211 -8 -211Q-33 -211 -55 -204Q-77 -197 -90 -185L-72 -125Q-58 -138 -43.5 -144Q-29 -150 -16 -150Q4 -150 16 -140.5Q28 -131 33 -103L123 401H52L64 462H133L146 533Q160 605 195 636.5Q230 668 284 668Q311 668 332.5 661.5Q354 655 376 639L345 576Q329 589 316.5 596.5Q304 604 285 604Q255 604 241 585.5Q227 567 220 530L208 462H393L403 517Q419 607 467 641Q515 675 575 675Q606 675 631 668Q656 661 681 646L650 583Q632 596 615.5 603.5Q599 611 572 611Q536 611 511.5 590Q487 569 477 512L468 462H729L632 -91Q620 -157 589 -177.5Q558 -198 514 -198Q489 -198 467 -191Q445 -184 432 -172L450 -112Q464 -125 478.5 -131Q493 -137 506 -137Q526 -137 538 -127.5Q550 -118 555 -90Z" glyph-name="f_f_j" horiz-adv-x="754" unicode="&#58244;" /><glyph d="M571 0 675 591Q657 603 632 610.5Q607 618 584 618Q546 618 516.5 596Q487 574 477 516L468 462H562L551 401H457L370 -91Q358 -157 328 -177.5Q298 -198 254 -198Q229 -198 207 -191Q185 -184 172 -172L190 -112Q204 -125 218.5 -131Q233 -137 246 -137Q266 -137 278 -127.5Q290 -118 295 -90L383 401H197L108 -104Q96 -170 66 -190.5Q36 -211 -8 -211Q-33 -211 -55 -204Q-77 -197 -90 -185L-72 -125Q-58 -138 -43.5 -144Q-29 -150 -16 -150Q4 -150 16 -140.5Q28 -131 33 -103L123 401H52L64 462H133L146 533Q160 605 195 636.5Q230 668 284 668Q311 668 332.5 661.5Q354 655 376 639L345 576Q329 589 316.5 596.5Q304 604 285 604Q255 604 241 585.5Q227 567 220 530L208 462H393L403 517Q420 607 470 641Q520 675 580 675Q608 675 640.5 667.5Q673 660 686 652L765 668L697 283H719L890 462H983L780 260L861 90Q875 61 893 57Q911 53 944 60L933 3Q920 -1 906.5 -3Q893 -5 880 -5Q856 -5 837.5 5.5Q819 16 806 44L715 228H687L647 0Z" glyph-name="f_f_k" horiz-adv-x="968" unicode="&#58245;" /><glyph d="M311 0 415 591Q397 603 372 610.5Q347 618 324 618Q286 618 256.5 596Q227 574 217 516L208 462H304L293 401H197L108 -104Q96 -170 66 -190.5Q36 -211 -8 -211Q-33 -211 -55 -204Q-77 -197 -90 -185L-72 -125Q-58 -138 -43.5 -144Q-29 -150 -16 -150Q4 -150 16 -140.5Q28 -131 33 -103L123 401H52L64 462H133L143 517Q160 607 210 641Q260 675 320 675Q348 675 380.5 667.5Q413 660 426 652L505 668L451 368Q476 419 512.5 446Q549 473 600 473Q653 473 685.5 445.5Q718 418 718 364Q718 356 717.5 345.5Q717 335 714 318L676 99Q673 82 676.5 68Q680 54 702 54Q708 54 715 55Q722 56 731 58L721 3Q711 -1 698.5 -3Q686 -5 673 -5Q625 -5 608.5 22Q592 49 600 95L640 319Q647 360 633 384.5Q619 409 577 409Q539 409 493 376Q447 343 431 253L387 0Z" glyph-name="f_h" horiz-adv-x="776" unicode="&#58246;" /><glyph d="M469 462 372 -91Q360 -157 329 -177.5Q298 -198 254 -198Q229 -198 207 -191Q185 -184 172 -172L190 -112Q204 -125 218.5 -131Q233 -137 246 -137Q266 -137 278 -127.5Q290 -118 295 -90L383 401H197L108 -104Q96 -170 66 -190.5Q36 -211 -8 -211Q-33 -211 -55 -204Q-77 -197 -90 -185L-72 -125Q-58 -138 -43.5 -144Q-29 -150 -16 -150Q4 -150 16 -140.5Q28 -131 33 -103L123 401H52L64 462H133L143 517Q159 607 207 641Q255 675 315 675Q346 675 371 668Q396 661 421 646L390 583Q372 596 355.5 603.5Q339 611 312 611Q276 611 251.5 590Q227 569 217 512L208 462Z" glyph-name="f_j" horiz-adv-x="494" unicode="&#58247;" /><glyph d="M311 0 415 591Q397 603 372 610.5Q347 618 324 618Q286 618 256.5 596Q227 574 217 516L208 462H302L291 401H197L108 -104Q96 -170 66 -190.5Q36 -211 -8 -211Q-33 -211 -55 -204Q-77 -197 -90 -185L-72 -125Q-58 -138 -43.5 -144Q-29 -150 -16 -150Q4 -150 16 -140.5Q28 -131 33 -103L123 401H52L64 462H133L143 517Q160 607 210 641Q260 675 320 675Q348 675 380.5 667.5Q413 660 426 652L505 668L437 283H459L630 462H723L520 260L601 90Q615 61 633 57Q651 53 684 60L673 3Q660 -1 646.5 -3Q633 -5 620 -5Q596 -5 577.5 5.5Q559 16 546 44L455 228H427L387 0Z" glyph-name="f_k" horiz-adv-x="708" unicode="&#58248;" /><glyph d="M457 401 370 -91Q358 -157 328 -177.5Q298 -198 254 -198Q229 -198 207 -191Q185 -184 172 -172L190 -112Q204 -125 218.5 -131Q233 -137 246 -137Q266 -137 278 -127.5Q290 -118 295 -90L383 401H197L108 -104Q96 -170 66 -190.5Q36 -211 -8 -211Q-33 -211 -55 -204Q-77 -197 -90 -185L-72 -125Q-58 -138 -43.5 -144Q-29 -150 -16 -150Q4 -150 16 -140.5Q28 -131 33 -103L123 401H52L64 462H133L146 533Q160 605 195 636.5Q230 668 284 668Q311 668 332.5 661.5Q354 655 376 639L345 576Q329 589 316.5 596.5Q304 604 285 604Q255 604 241 585.5Q227 567 220 530L208 462H393L405 526Q421 609 461.5 642Q502 675 562 675Q591 675 616 668Q641 661 666 646L635 583Q617 596 601.5 603.5Q586 611 564 611Q528 611 507.5 592Q487 573 479 526L468 462H584L573 401Z" glyph-name="ff" horiz-adv-x="546" unicode="&#58249;" /><glyph d="M729 462 665 99Q662 82 665.5 68Q669 54 691 54Q697 54 704 55Q711 56 720 58L710 3Q700 -1 687.5 -3Q675 -5 662 -5Q614 -5 597.5 22Q581 49 589 95L642 401H457L370 -91Q358 -157 328 -177.5Q298 -198 254 -198Q229 -198 207 -191Q185 -184 172 -172L190 -112Q204 -125 218.5 -131Q233 -137 246 -137Q266 -137 278 -127.5Q290 -118 295 -90L383 401H197L108 -104Q96 -170 66 -190.5Q36 -211 -8 -211Q-33 -211 -55 -204Q-77 -197 -90 -185L-72 -125Q-58 -138 -43.5 -144Q-29 -150 -16 -150Q4 -150 16 -140.5Q28 -131 33 -103L123 401H52L64 462H133L146 533Q160 605 195 636.5Q230 668 284 668Q311 668 332.5 661.5Q354 655 376 639L345 576Q329 589 316.5 596.5Q304 604 285 604Q255 604 241 585.5Q227 567 220 530L208 462H393L403 517Q419 607 467 641Q515 675 575 675Q606 675 631 668Q656 661 681 646L650 583Q632 596 615.5 603.5Q599 611 572 611Q536 611 511.5 590Q487 569 477 512L468 462Z" glyph-name="ffi" horiz-adv-x="779" unicode="&#58250;" /><glyph d="M457 401 370 -91Q358 -157 328 -177.5Q298 -198 254 -198Q229 -198 207 -191Q185 -184 172 -172L190 -112Q204 -125 218.5 -131Q233 -137 246 -137Q266 -137 278 -127.5Q290 -118 295 -90L383 401H197L108 -104Q96 -170 66 -190.5Q36 -211 -8 -211Q-33 -211 -55 -204Q-77 -197 -90 -185L-72 -125Q-58 -138 -43.5 -144Q-29 -150 -16 -150Q4 -150 16 -140.5Q28 -131 33 -103L123 401H52L64 462H133L146 533Q160 605 195 636.5Q230 668 284 668Q311 668 332.5 661.5Q354 655 376 639L345 576Q329 589 316.5 596.5Q304 604 285 604Q255 604 241 585.5Q227 567 220 530L208 462H393L403 517Q420 607 470 641Q520 675 580 675Q608 675 640.5 667.5Q673 660 686 652L765 668L665 99Q662 82 665.5 68Q669 54 691 54Q697 54 704 55Q711 56 720 58L710 3Q700 -1 687.5 -3Q675 -5 662 -5Q614 -5 597.5 22Q581 49 589 95L675 591Q657 603 632 610.5Q607 618 584 618Q546 618 516.5 596Q487 574 477 516L468 462H564L553 401Z" glyph-name="ffl" horiz-adv-x="775" unicode="&#58251;" /><glyph d="M469 462 405 99Q402 82 405.5 68Q409 54 431 54Q437 54 444 55Q451 56 460 58L450 3Q440 -1 427.5 -3Q415 -5 402 -5Q354 -5 337.5 22Q321 49 329 95L382 401H197L108 -104Q96 -170 66 -190.5Q36 -211 -8 -211Q-33 -211 -55 -204Q-77 -197 -90 -185L-72 -125Q-58 -138 -43.5 -144Q-29 -150 -16 -150Q4 -150 16 -140.5Q28 -131 33 -103L123 401H52L64 462H133L143 517Q159 607 207 641Q255 675 315 675Q346 675 371 668Q396 661 421 646L390 583Q372 596 355.5 603.5Q339 611 312 611Q276 611 251.5 590Q227 569 217 512L208 462Z" glyph-name="fi" horiz-adv-x="519" unicode="&#58252;" /><glyph d="M70 160 138 481H429L418 416H195L149 208Q162 220 183 227.5Q204 235 230 235Q302 235 340 187.5Q378 140 377 77Q376 -28 312 -83Q248 -138 157 -138Q74 -138 32 -98.5Q-10 -59 -10 2L63 18Q63 -33 91 -56Q119 -79 167 -79Q216 -79 258 -45Q300 -11 300 66Q300 117 273.5 148.5Q247 180 198 180Q177 180 160.5 174.5Q144 169 131 160Z" glyph-name="five" horiz-adv-x="449" unicode="5" /><glyph d="M197 401 108 -104Q96 -170 66 -190.5Q36 -211 -8 -211Q-33 -211 -55 -204Q-77 -197 -90 -185L-72 -125Q-58 -138 -43.5 -144Q-29 -150 -16 -150Q4 -150 16 -140.5Q28 -131 33 -103L123 401H52L64 462H133L143 517Q160 607 210 641Q260 675 320 675Q348 675 380.5 667.5Q413 660 426 652L505 668L405 99Q402 82 405.5 68Q409 54 431 54Q437 54 444 55Q451 56 460 58L450 3Q440 -1 427.5 -3Q415 -5 402 -5Q354 -5 337.5 22Q321 49 329 95L415 591Q397 603 372 610.5Q347 618 324 618Q286 618 256.5 596Q227 574 217 516L208 462H304L293 401Z" glyph-name="fl" horiz-adv-x="515" unicode="&#58253;" /><glyph d="M20 -121 99 179H31L49 247H117L144 345Q165 428 210.5 460.5Q256 493 312 493Q352 493 381.5 478.5Q411 464 423 443L374 387Q360 410 343.5 419.5Q327 429 303 429Q271 429 251 408.5Q231 388 220 347L192 247H309L292 179H174L95 -121Z" glyph-name="florin" horiz-adv-x="393" unicode="&#402;" /><glyph d="M261 -131 294 54H10L19 104L366 481H446L382 115H480L469 54H372L339 -131ZM189 115H304L331 271Q341 328 349 359.5Q357 391 357 391H353Q353 391 332 364Q311 337 268 288L173 181Q143 147 125.5 131.5Q108 116 108 116V112Q108 112 124.5 113.5Q141 115 189 115Z" glyph-name="four" horiz-adv-x="530" unicode="4" /><glyph d="M174 -203 190 -111H10L19 -62L232 150H299L262 -63H322L313 -111H253L237 -203ZM201 -64 217 27Q222 58 228 77.5Q234 97 234 97H230Q230 97 218 79.5Q206 62 181 35L127 -18Q104 -40 87.5 -52Q71 -64 71 -64L70 -68Q70 -68 82.5 -66Q95 -64 127 -64Z" glyph-name="four.inf" horiz-adv-x="352" /><glyph d="M-170 0 240 590H299L-110 0Z" glyph-name="fraction" horiz-adv-x="129" unicode="&#8260;" /><glyph d="M351 190 366 271Q375 322 353.5 367.5Q332 413 276 413Q205 413 159.5 348Q114 283 114 185Q114 127 139 89Q164 51 215 51Q269 51 304.5 88Q340 125 351 190ZM475 462 391 -15Q373 -114 320.5 -162.5Q268 -211 167 -211Q75 -211 35.5 -172.5Q-4 -134 -10 -83L58 -60Q61 -100 91 -127.5Q121 -155 172 -155Q236 -155 268.5 -119Q301 -83 314 -18L332 75Q311 28 276 8.5Q241 -11 197 -11Q130 -11 85 38Q40 87 40 178Q40 295 104 384Q168 473 270 473Q318 473 348 451.5Q378 430 387 384L412 462Z" glyph-name="g" horiz-adv-x="500" unicode="g" /><glyph d="M351 190 366 271Q375 322 353.5 367.5Q332 413 276 413Q205 413 159.5 348Q114 283 114 185Q114 127 139 89Q164 51 215 51Q269 51 304.5 88Q340 125 351 190ZM475 462 391 -15Q373 -114 320.5 -162.5Q268 -211 167 -211Q75 -211 35.5 -172.5Q-4 -134 -10 -83L58 -60Q61 -100 91 -127.5Q121 -155 172 -155Q236 -155 268.5 -119Q301 -83 314 -18L332 75Q311 28 276 8.5Q241 -11 197 -11Q130 -11 85 38Q40 87 40 178Q40 295 104 384Q168 473 270 473Q318 473 348 451.5Q378 430 387 384L412 462ZM280 529Q219 529 190.5 566Q162 603 173 665H234Q231 631 240.5 609Q250 587 290 587Q330 587 347.5 609Q365 631 374 665H435Q424 603 382.5 566Q341 529 280 529Z" glyph-name="gbreve" horiz-adv-x="500" unicode="&#287;" /><glyph d="M351 190 366 271Q375 322 353.5 367.5Q332 413 276 413Q205 413 159.5 348Q114 283 114 185Q114 127 139 89Q164 51 215 51Q269 51 304.5 88Q340 125 351 190ZM475 462 391 -15Q373 -114 320.5 -162.5Q268 -211 167 -211Q75 -211 35.5 -172.5Q-4 -134 -10 -83L58 -60Q61 -100 91 -127.5Q121 -155 172 -155Q236 -155 268.5 -119Q301 -83 314 -18L332 75Q311 28 276 8.5Q241 -11 197 -11Q130 -11 85 38Q40 87 40 178Q40 295 104 384Q168 473 270 473Q318 473 348 451.5Q378 430 387 384L412 462ZM287 673H329L426 530H347L319 574Q308 592 305 603Q302 614 302 614H298Q298 614 291 603Q284 592 267 574L223 530H140Z" glyph-name="gcircumflex" horiz-adv-x="500" unicode="&#285;" /><glyph d="M351 190 366 271Q375 322 353.5 367.5Q332 413 276 413Q205 413 159.5 348Q114 283 114 185Q114 127 139 89Q164 51 215 51Q269 51 304.5 88Q340 125 351 190ZM475 462 391 -15Q373 -114 320.5 -162.5Q268 -211 167 -211Q75 -211 35.5 -172.5Q-4 -134 -10 -83L58 -60Q61 -100 91 -127.5Q121 -155 172 -155Q236 -155 268.5 -119Q301 -83 314 -18L332 75Q311 28 276 8.5Q241 -11 197 -11Q130 -11 85 38Q40 87 40 178Q40 295 104 384Q168 473 270 473Q318 473 348 451.5Q378 430 387 384L412 462ZM253 601Q253 655 289.5 680.5Q326 706 381 706V672Q353 671 331 662Q309 653 309 628Q335 633 350.5 619.5Q366 606 366 584Q366 561 351.5 548Q337 535 313 535Q290 535 271.5 551Q253 567 253 601Z" glyph-name="gcommaaccent" horiz-adv-x="500" unicode="&#291;" /><glyph d="M351 190 366 271Q375 322 353.5 367.5Q332 413 276 413Q205 413 159.5 348Q114 283 114 185Q114 127 139 89Q164 51 215 51Q269 51 304.5 88Q340 125 351 190ZM475 462 391 -15Q373 -114 320.5 -162.5Q268 -211 167 -211Q75 -211 35.5 -172.5Q-4 -134 -10 -83L58 -60Q61 -100 91 -127.5Q121 -155 172 -155Q236 -155 268.5 -119Q301 -83 314 -18L332 75Q311 28 276 8.5Q241 -11 197 -11Q130 -11 85 38Q40 87 40 178Q40 295 104 384Q168 473 270 473Q318 473 348 451.5Q378 430 387 384L412 462ZM243 612Q243 634 258.5 650.5Q274 667 296 667Q319 667 335 650.5Q351 634 351 612Q351 590 335 574Q319 558 296 558Q274 558 258.5 574Q243 590 243 612Z" glyph-name="gdotaccent" horiz-adv-x="500" unicode="&#289;" /><glyph d="M23 -103 124 469Q143 579 203.5 627Q264 675 347 675Q428 675 465.5 634.5Q503 594 503 538Q503 461 458 424.5Q413 388 360 381V377Q422 369 453 326.5Q484 284 484 219Q484 106 425.5 47Q367 -12 286 -12Q235 -12 204.5 5.5Q174 23 162 60L215 107Q222 79 240 62.5Q258 46 289 46Q332 46 369 85Q406 124 406 215Q406 275 376.5 312Q347 349 278 349H237L248 410H283Q348 410 387.5 440Q427 470 427 528Q427 565 407 590.5Q387 616 340 616Q294 616 254.5 586.5Q215 557 199 464L100 -104Q88 -170 57 -190.5Q26 -211 -18 -211Q-43 -211 -65 -204Q-87 -197 -100 -185L-82 -125Q-68 -138 -53.5 -144Q-39 -150 -26 -150Q-6 -150 6 -140.5Q18 -131 23 -103Z" glyph-name="germandbls" horiz-adv-x="523" unicode="&#223;" /><glyph d="M260 530H195L80 673H185Z" glyph-name="grave" horiz-adv-x="340" unicode="`" /><glyph d="M246 655H177L80 771H184Z" glyph-name="grave.cap" horiz-adv-x="326" /><glyph d="M30 76 270 251 97 421 136 459 351 245 61 33Z" glyph-name="greater" horiz-adv-x="411" unicode="&gt;" /><glyph d="M81 134 320 292 143 447 183 486 408 288 114 91ZM336 21H30L38 67H344Z" glyph-name="greaterequal" horiz-adv-x="448" unicode="&#8805;" /><glyph d="M97 233V229Q97 229 105.5 222Q114 215 139 180L224 59L174 20L30 233L249 446L286 406L166 286Q138 258 117.5 245.5Q97 233 97 233ZM279 233V229Q279 229 287.5 222Q296 215 321 180L406 59L356 20L212 233L431 446L468 406L348 286Q320 258 299.5 245.5Q279 233 279 233Z" glyph-name="guillemotleft" horiz-adv-x="498" unicode="&#171;" /><glyph d="M401 233V237Q401 237 392.5 244Q384 251 359 286L274 407L324 446L468 233L249 20L212 60L332 180Q360 208 380.5 220.5Q401 233 401 233ZM219 233V237Q219 237 210.5 244Q202 251 177 286L92 407L142 446L286 233L67 20L30 60L150 180Q178 208 198.5 220.5Q219 233 219 233Z" glyph-name="guillemotright" horiz-adv-x="498" unicode="&#187;" /><glyph d="M97 233V229Q97 229 105.5 222Q114 215 139 180L224 59L174 20L30 233L249 446L286 406L166 286Q138 258 117.5 245.5Q97 233 97 233Z" glyph-name="guilsinglleft" horiz-adv-x="316" unicode="&#8249;" /><glyph d="M219 233V237Q219 237 210.5 244Q202 251 177 286L92 407L142 446L286 233L67 20L30 60L150 180Q178 208 198.5 220.5Q219 233 219 233Z" glyph-name="guilsinglright" horiz-adv-x="316" unicode="&#8250;" /><glyph d="M443 318 405 99Q402 82 405.5 68Q409 54 431 54Q437 54 444 55Q451 56 460 58L450 3Q440 -1 427.5 -3Q415 -5 402 -5Q354 -5 337.5 22Q321 49 329 95L369 319Q376 360 362 384.5Q348 409 306 409Q268 409 222 376Q176 343 160 253L116 0H40L156 668H234L180 368Q205 419 241.5 446Q278 473 329 473Q382 473 414.5 445.5Q447 418 447 364Q447 356 446.5 345.5Q446 335 443 318Z" glyph-name="h" horiz-adv-x="505" unicode="h" /><glyph d="M56 533 67 592H143L156 668H234L220 592H356L345 533H209L180 368Q205 419 241.5 446Q278 473 329 473Q382 473 414.5 445.5Q447 418 447 364Q447 356 446.5 345.5Q446 335 443 318L405 99Q402 82 405.5 68Q409 54 431 54Q437 54 444 55Q451 56 460 58L450 3Q440 -1 427.5 -3Q415 -5 402 -5Q354 -5 337.5 22Q321 49 329 95L369 319Q376 360 362 384.5Q348 409 306 409Q268 409 222 376Q176 343 160 253L116 0H40L132 533Z" glyph-name="hbar" horiz-adv-x="505" unicode="&#295;" /><glyph d="M443 318 405 99Q402 82 405.5 68Q409 54 431 54Q437 54 444 55Q451 56 460 58L450 3Q440 -1 427.5 -3Q415 -5 402 -5Q354 -5 337.5 22Q321 49 329 95L369 319Q376 360 362 384.5Q348 409 306 409Q268 409 222 376Q176 343 160 253L116 0H40L156 668H234L180 368Q205 419 241.5 446Q278 473 329 473Q382 473 414.5 445.5Q447 418 447 364Q447 356 446.5 345.5Q446 335 443 318ZM201 821H247L346 697H261L235 731Q224 747 220.5 756.5Q217 766 217 766H215Q215 766 208.5 756.5Q202 747 185 731L147 697H58Z" glyph-name="hcircumflex" horiz-adv-x="505" unicode="&#293;" /><glyph d="M280 530H220L295 673H395ZM138 530H80L145 673H243Z" glyph-name="hungarumlaut" horiz-adv-x="475" unicode="&#733;" /><glyph d="M280 655H220L295 771H395ZM138 655H80L145 771H243Z" glyph-name="hungarumlaut.cap" horiz-adv-x="475" /><glyph d="M70 224 81 288H305L294 224Z" glyph-name="hyphen" horiz-adv-x="375" unicode="-" /><glyph d="M130 612Q130 635 145.5 651Q161 667 183 667Q205 667 221.5 651Q238 635 238 612Q238 590 221.5 574Q205 558 183 558Q161 558 145.5 574Q130 590 130 612ZM198 462 134 99Q131 82 134.5 68Q138 54 160 54Q166 54 173 55Q180 56 189 58L179 3Q169 -1 156.5 -3Q144 -5 131 -5Q83 -5 66.5 22Q50 49 58 95L122 462Z" glyph-name="i" horiz-adv-x="243" unicode="i" /><glyph d="M193 462 129 99Q126 82 129.5 68Q133 54 155 54Q161 54 168 55Q175 56 184 58L174 3Q164 -1 151.5 -3Q139 -5 126 -5Q78 -5 61.5 22Q45 49 53 95L117 462ZM195 530H130L205 673H310Z" glyph-name="iacute" horiz-adv-x="243" unicode="&#237;" /><glyph d="M193 462 129 99Q126 82 129.5 68Q133 54 155 54Q161 54 168 55Q175 56 184 58L174 3Q164 -1 151.5 -3Q139 -5 126 -5Q78 -5 61.5 22Q45 49 53 95L117 462ZM158 529Q97 529 68.5 566Q40 603 51 665H112Q109 631 118.5 609Q128 587 168 587Q208 587 225.5 609Q243 631 252 665H313Q302 603 260.5 566Q219 529 158 529Z" glyph-name="ibreve" horiz-adv-x="243" unicode="&#301;" /><glyph d="M193 462 129 99Q126 82 129.5 68Q133 54 155 54Q161 54 168 55Q175 56 184 58L174 3Q164 -1 151.5 -3Q139 -5 126 -5Q78 -5 61.5 22Q45 49 53 95L117 462ZM166 673H208L305 530H226L198 574Q187 592 184 603Q181 614 181 614H177Q177 614 170 603Q163 592 146 574L102 530H19Z" glyph-name="icircumflex" horiz-adv-x="243" unicode="&#238;" /><glyph d="M193 462 129 99Q126 82 129.5 68Q133 54 155 54Q161 54 168 55Q175 56 184 58L174 3Q164 -1 151.5 -3Q139 -5 126 -5Q78 -5 61.5 22Q45 49 53 95L117 462ZM31 595Q31 617 47 633Q63 649 85 649Q107 649 123 633Q139 617 139 595Q139 573 123 557Q107 541 85 541Q63 541 47 557Q31 573 31 595ZM220 594Q220 616 236 632Q252 648 274 648Q296 648 312 632Q328 616 328 594Q328 572 312 556Q296 540 274 540Q252 540 236 556Q220 572 220 594Z" glyph-name="idieresis" horiz-adv-x="243" unicode="&#239;" /><glyph d="M127 612Q127 634 142.5 650.5Q158 667 180 667Q203 667 219 650.5Q235 634 235 612Q235 590 219 574Q203 558 180 558Q158 558 142.5 574Q127 590 127 612ZM198 462 134 99Q131 82 134.5 68Q138 54 160 54Q166 54 173 55Q180 56 189 58L179 3Q169 -1 156.5 -3Q144 -5 131 -5Q83 -5 66.5 22Q50 49 58 95L122 462Z" glyph-name="idotaccent" horiz-adv-x="243" /><glyph d="M193 462 129 99Q126 82 129.5 68Q133 54 155 54Q161 54 168 55Q175 56 184 58L174 3Q164 -1 151.5 -3Q139 -5 126 -5Q78 -5 61.5 22Q45 49 53 95L117 462ZM212 530H147L32 673H137Z" glyph-name="igrave" horiz-adv-x="243" unicode="&#236;" /><glyph d="M196 462 132 99Q129 82 132.5 68Q136 54 158 54Q164 54 171 55Q178 56 187 58L177 3Q167 -1 154.5 -3Q142 -5 129 -5Q81 -5 64.5 22Q48 49 56 95L120 462ZM302 564H51L62 625H313Z" glyph-name="imacron" horiz-adv-x="243" unicode="&#299;" /><glyph d="M125 612Q125 635 140.5 651Q156 667 178 667Q200 667 216.5 651Q233 635 233 612Q233 590 216.5 574Q200 558 178 558Q156 558 140.5 574Q125 590 125 612ZM-28 -114Q-28 -70 -2.5 -34Q23 2 63 18Q53 31 51 50.5Q49 70 53 95L117 462H193L129 99Q126 82 129.5 68Q133 54 155 54Q161 54 168 55Q175 56 184 58L174 3Q119 -1 78.5 -25.5Q38 -50 38 -110Q38 -132 51 -145.5Q64 -159 85 -159Q111 -159 125.5 -147Q140 -135 150 -116L179 -151Q166 -176 142 -193.5Q118 -211 73 -211Q23 -211 -2.5 -185Q-28 -159 -28 -114Z" glyph-name="iogonek" horiz-adv-x="243" unicode="&#303;" /><glyph d="M193 462 129 99Q126 82 129.5 68Q133 54 155 54Q161 54 168 55Q175 56 184 58L174 3Q164 -1 151.5 -3Q139 -5 126 -5Q78 -5 61.5 22Q45 49 53 95L117 462ZM240 531Q214 531 199 539Q184 547 168 557Q150 568 139 575Q128 582 112 582Q96 582 85 570Q74 558 73 533H25Q17 579 43 612.5Q69 646 114 646Q142 646 158 637Q174 628 192 616Q210 604 219.5 599Q229 594 242 594Q256 594 266 606Q276 618 279 646H330Q336 597 311.5 564Q287 531 240 531Z" glyph-name="itilde" horiz-adv-x="243" unicode="&#297;" /><glyph d="M125 612Q125 635 140.5 651Q156 667 178 667Q200 667 216.5 651Q233 635 233 612Q233 590 216.5 574Q200 558 178 558Q156 558 140.5 574Q125 590 125 612ZM193 462 99 -70Q85 -152 44.5 -181.5Q4 -211 -53 -211Q-78 -211 -102.5 -203Q-127 -195 -140 -185L-114 -125Q-98 -137 -82.5 -143.5Q-67 -150 -46 -150Q-21 -150 -3.5 -133.5Q14 -117 22 -72L117 462Z" glyph-name="j" horiz-adv-x="218" unicode="j" /><glyph d="M193 462 99 -70Q85 -152 44.5 -181.5Q4 -211 -53 -211Q-78 -211 -102.5 -203Q-127 -195 -140 -185L-114 -125Q-98 -137 -82.5 -143.5Q-67 -150 -46 -150Q-21 -150 -3.5 -133.5Q14 -117 22 -72L117 462ZM165 673H207L304 530H225L197 574Q186 592 183 603Q180 614 180 614H176Q176 614 169 603Q162 592 145 574L101 530H18Z" glyph-name="jcircumflex" horiz-adv-x="218" unicode="&#309;" /><glyph d="M274 44 183 228H156L116 0H40L157 668H234L166 283H188L359 462H452L249 260L330 90Q344 61 362 57Q380 53 413 60L402 3Q389 -1 375.5 -3Q362 -5 349 -5Q325 -5 306 5.5Q287 16 274 44Z" glyph-name="k" horiz-adv-x="437" unicode="k" /><glyph d="M274 44 183 228H156L116 0H40L157 668H234L166 283H188L359 462H452L249 260L330 90Q344 61 362 57Q380 53 413 60L402 3Q389 -1 375.5 -3Q362 -5 349 -5Q325 -5 306 5.5Q287 16 274 44ZM229 -140Q229 -194 192.5 -219.5Q156 -245 101 -245V-211Q129 -210 151 -201Q173 -192 173 -167Q147 -172 131.5 -158.5Q116 -145 116 -123Q116 -100 130.5 -87Q145 -74 169 -74Q192 -74 210.5 -90Q229 -106 229 -140Z" glyph-name="kcommaaccent" horiz-adv-x="437" unicode="&#311;" /><glyph d="M275 44 184 228H156L116 0H40L121 462H198L166 283H188L359 462H452L249 260L330 90Q344 61 362 57Q380 53 413 60L402 3Q389 -1 375.5 -3Q362 -5 349 -5Q325 -5 306.5 5.5Q288 16 275 44Z" glyph-name="kgreenlandic" horiz-adv-x="437" unicode="&#312;" /><glyph d="M234 668 134 99Q131 82 134.5 68Q138 54 160 54Q166 54 173 55Q180 56 189 58L179 3Q169 -1 156.5 -3Q144 -5 131 -5Q83 -5 66.5 22Q50 49 58 95L158 668Z" glyph-name="l" horiz-adv-x="239" unicode="l" /><glyph d="M229 668 129 99Q126 82 129.5 68Q133 54 155 54Q161 54 168 55Q175 56 184 58L174 3Q164 -1 151.5 -3Q139 -5 126 -5Q78 -5 61.5 22Q45 49 53 95L153 668ZM230 697H161L223 813H327Z" glyph-name="lacute" horiz-adv-x="239" unicode="&#314;" /><glyph d="M234 668 134 99Q131 82 134.5 68Q138 54 160 54Q166 54 173 55Q180 56 189 58L179 3Q169 -1 156.5 -3Q144 -5 131 -5Q83 -5 66.5 22Q50 49 58 95L158 668ZM380 668 329 493H274L290 668Z" glyph-name="lcaron" horiz-adv-x="239" unicode="&#318;" /><glyph d="M229 668 129 99Q126 82 129.5 68Q133 54 155 54Q161 54 168 55Q175 56 184 58L174 3Q164 -1 151.5 -3Q139 -5 126 -5Q78 -5 61.5 22Q45 49 53 95L153 668ZM136 -140Q136 -194 99.5 -219.5Q63 -245 8 -245V-211Q36 -210 58 -201Q80 -192 80 -167Q54 -172 38.5 -158.5Q23 -145 23 -123Q23 -100 37.5 -87Q52 -74 76 -74Q99 -74 117.5 -90Q136 -106 136 -140Z" glyph-name="lcommaaccent" horiz-adv-x="239" unicode="&#316;" /><glyph d="M234 668 134 99Q131 82 134.5 68Q138 54 160 54Q166 54 173 55Q180 56 189 58L179 3Q169 -1 156.5 -3Q144 -5 131 -5Q83 -5 66.5 22Q50 49 58 95L158 668ZM229 314Q229 340 247 358Q265 376 291 376Q317 376 335 358Q353 340 353 314Q353 288 335 270Q317 252 291 252Q265 252 247 270Q229 288 229 314Z" glyph-name="ldot" horiz-adv-x="313" unicode="&#320;" /><glyph d="M381 416 141 241 314 71 275 33 60 247 350 459Z" glyph-name="less" horiz-adv-x="411" unicode="&lt;" /><glyph d="M408 443 169 285 346 130 306 91 81 289 375 486ZM336 21H30L38 67H344Z" glyph-name="lessequal" horiz-adv-x="448" unicode="&#8804;" /><glyph d="M231 668 187 418 265 456 252 384 174 347 131 99Q128 82 131.5 68Q135 54 157 54Q163 54 170 55Q177 56 186 58L176 3Q166 -1 153.5 -3Q141 -5 128 -5Q80 -5 63.5 22Q47 49 55 95L92 308L30 279L42 347L104 377L155 668Z" glyph-name="lslash" horiz-adv-x="245" unicode="&#322;" /><glyph d="M376 0H301L358 319Q365 360 351 384.5Q337 409 295 409Q262 409 219 376Q176 343 160 253L116 0H40L121 462H187L180 368Q205 419 237 446Q269 473 325 473Q373 473 404.5 444Q436 415 436 361Q460 415 495 444Q530 473 586 473Q634 473 665.5 445.5Q697 418 697 364Q697 356 696.5 345.5Q696 335 693 318L655 99Q652 82 655.5 68Q659 54 681 54Q687 54 694 55Q701 56 710 58L700 3Q690 -1 677.5 -3Q665 -5 652 -5Q604 -5 587.5 22Q571 49 579 95L619 319Q626 360 612 384.5Q598 409 556 409Q523 409 480 376Q437 343 421 253Z" glyph-name="m" horiz-adv-x="755" unicode="m" /><glyph d="M331 677H80L90 736H341Z" glyph-name="macron.cap" horiz-adv-x="421" /><glyph d="M448 225H40L48 271H456Z" glyph-name="minus" horiz-adv-x="496" unicode="&#8722;" /><glyph d="M37 111 200 250 92 384 130 417 239 283 406 424 437 387 270 245 389 104 351 71 233 212 68 73Z" glyph-name="multiply" horiz-adv-x="475" unicode="&#215;" /><glyph d="M443 318 405 99Q402 82 405.5 68Q409 54 431 54Q437 54 444 55Q451 56 460 58L450 3Q440 -1 427.5 -3Q415 -5 402 -5Q354 -5 337.5 22Q321 49 329 95L369 319Q376 360 362 384.5Q348 409 306 409Q268 409 222 376Q176 343 160 253L116 0H40L121 462H187L180 368Q205 419 241.5 446Q278 473 329 473Q382 473 414.5 445.5Q447 418 447 364Q447 356 446.5 345.5Q446 335 443 318Z" glyph-name="n" horiz-adv-x="505" unicode="n" /><glyph d="M443 318 405 99Q402 82 405.5 68Q409 54 431 54Q437 54 444 55Q451 56 460 58L450 3Q440 -1 427.5 -3Q415 -5 402 -5Q354 -5 337.5 22Q321 49 329 95L369 319Q376 360 362 384.5Q348 409 306 409Q268 409 222 376Q176 343 160 253L116 0H40L121 462H187L180 368Q205 419 241.5 446Q278 473 329 473Q382 473 414.5 445.5Q447 418 447 364Q447 356 446.5 345.5Q446 335 443 318ZM322 530H257L332 673H437Z" glyph-name="nacute" horiz-adv-x="505" unicode="&#324;" /><glyph d="M443 318 405 99Q402 82 405.5 68Q409 54 431 54Q437 54 444 55Q451 56 460 58L450 3Q440 -1 427.5 -3Q415 -5 402 -5Q354 -5 337.5 22Q321 49 329 95L369 319Q376 360 362 384.5Q348 409 306 409Q268 409 222 376Q176 343 160 253L116 0H40L121 462H187L180 368Q205 419 241.5 446Q278 473 329 473Q382 473 414.5 445.5Q447 418 447 364Q447 356 446.5 345.5Q446 335 443 318ZM315 530H273L176 673H255L283 629Q294 611 297 600Q300 589 300 589H304Q304 589 311 600Q318 611 335 629L379 673H462Z" glyph-name="ncaron" horiz-adv-x="505" unicode="&#328;" /><glyph d="M443 318 405 99Q402 82 405.5 68Q409 54 431 54Q437 54 444 55Q451 56 460 58L450 3Q440 -1 427.5 -3Q415 -5 402 -5Q354 -5 337.5 22Q321 49 329 95L369 319Q376 360 362 384.5Q348 409 306 409Q268 409 222 376Q176 343 160 253L116 0H40L121 462H187L180 368Q205 419 241.5 446Q278 473 329 473Q382 473 414.5 445.5Q447 418 447 364Q447 356 446.5 345.5Q446 335 443 318ZM243 -140Q243 -194 206.5 -219.5Q170 -245 115 -245V-211Q143 -210 165 -201Q187 -192 187 -167Q161 -172 145.5 -158.5Q130 -145 130 -123Q130 -100 144.5 -87Q159 -74 183 -74Q206 -74 224.5 -90Q243 -106 243 -140Z" glyph-name="ncommaaccent" horiz-adv-x="505" unicode="&#326;" /><glyph d="M238 167Q298 167 339.5 207Q381 247 381 316Q381 371 350.5 402Q320 433 264 433Q209 433 168.5 391.5Q128 350 128 279Q128 230 157.5 198.5Q187 167 238 167ZM5 -19 69 13Q83 -27 112.5 -52.5Q142 -78 187 -78Q266 -78 319.5 -7.5Q373 63 393 217H389Q366 156 319.5 130Q273 104 224 104Q145 104 98.5 150.5Q52 197 52 275Q52 370 111.5 431.5Q171 493 272 493Q363 493 413 435Q463 377 463 264Q463 103 392.5 -17.5Q322 -138 182 -138Q111 -138 66.5 -107Q22 -76 5 -19Z" glyph-name="nine" horiz-adv-x="513" unicode="9" /><glyph glyph-name="nonmarkingreturn" horiz-adv-x="225" unicode="" /><glyph d="M470 286H342L259 206H456L448 160H211L80 34L51 65L150 160H40L48 206H197L280 286H62L70 332H327L445 446L476 415L389 332H478Z" glyph-name="notequal" horiz-adv-x="518" unicode="&#8800;" /><glyph d="M443 318 405 99Q402 82 405.5 68Q409 54 431 54Q437 54 444 55Q451 56 460 58L450 3Q440 -1 427.5 -3Q415 -5 402 -5Q354 -5 337.5 22Q321 49 329 95L369 319Q376 360 362 384.5Q348 409 306 409Q268 409 222 376Q176 343 160 253L116 0H40L121 462H187L180 368Q205 419 241.5 446Q278 473 329 473Q382 473 414.5 445.5Q447 418 447 364Q447 356 446.5 345.5Q446 335 443 318ZM367 531Q341 531 326 539Q311 547 295 557Q277 568 266 575Q255 582 239 582Q223 582 212 570Q201 558 200 533H152Q144 579 170 612.5Q196 646 241 646Q269 646 285 637Q301 628 319 616Q337 604 346.5 599Q356 594 369 594Q383 594 393 606Q403 618 406 646H457Q463 597 438.5 564Q414 531 367 531Z" glyph-name="ntilde" horiz-adv-x="505" unicode="&#241;" /><glyph d="M289 301 246 210H345L388 301ZM543 151H387L316 0H246L317 151H218L147 0H77L148 151H40L51 210H176L219 301H87L97 360H247L304 481H375L317 360H416L473 481H544L486 360H600L590 301H458L415 210H554Z" glyph-name="numbersign" horiz-adv-x="630" unicode="#" /><glyph d="M277 473Q360 473 405.5 419Q451 365 451 275Q451 160 389.5 74Q328 -12 215 -12Q138 -12 89 39Q40 90 40 184Q40 298 101.5 385.5Q163 473 277 473ZM265 410Q195 410 154.5 343.5Q114 277 114 193Q114 122 144 84.5Q174 47 225 47Q295 47 335 116Q375 185 375 270Q375 336 346 373Q317 410 265 410Z" glyph-name="o" horiz-adv-x="491" unicode="o" /><glyph d="M277 473Q360 473 405.5 419Q451 365 451 275Q451 160 389.5 74Q328 -12 215 -12Q138 -12 89 39Q40 90 40 184Q40 298 101.5 385.5Q163 473 277 473ZM265 410Q195 410 154.5 343.5Q114 277 114 193Q114 122 144 84.5Q174 47 225 47Q295 47 335 116Q375 185 375 270Q375 336 346 373Q317 410 265 410ZM308 530H243L318 673H423Z" glyph-name="oacute" horiz-adv-x="491" unicode="&#243;" /><glyph d="M277 473Q360 473 405.5 419Q451 365 451 275Q451 160 389.5 74Q328 -12 215 -12Q138 -12 89 39Q40 90 40 184Q40 298 101.5 385.5Q163 473 277 473ZM265 410Q195 410 154.5 343.5Q114 277 114 193Q114 122 144 84.5Q174 47 225 47Q295 47 335 116Q375 185 375 270Q375 336 346 373Q317 410 265 410ZM271 529Q210 529 181.5 566Q153 603 164 665H225Q222 631 231.5 609Q241 587 281 587Q321 587 338.5 609Q356 631 365 665H426Q415 603 373.5 566Q332 529 271 529Z" glyph-name="obreve" horiz-adv-x="491" unicode="&#335;" /><glyph d="M277 473Q360 473 405.5 419Q451 365 451 275Q451 160 389.5 74Q328 -12 215 -12Q138 -12 89 39Q40 90 40 184Q40 298 101.5 385.5Q163 473 277 473ZM265 410Q195 410 154.5 343.5Q114 277 114 193Q114 122 144 84.5Q174 47 225 47Q295 47 335 116Q375 185 375 270Q375 336 346 373Q317 410 265 410ZM278 673H320L417 530H338L310 574Q299 592 296 603Q293 614 293 614H289Q289 614 282 603Q275 592 258 574L214 530H131Z" glyph-name="ocircumflex" horiz-adv-x="491" unicode="&#244;" /><glyph d="M277 473Q360 473 405.5 419Q451 365 451 275Q451 160 389.5 74Q328 -12 215 -12Q138 -12 89 39Q40 90 40 184Q40 298 101.5 385.5Q163 473 277 473ZM265 410Q195 410 154.5 343.5Q114 277 114 193Q114 122 144 84.5Q174 47 225 47Q295 47 335 116Q375 185 375 270Q375 336 346 373Q317 410 265 410ZM143 595Q143 617 159 633Q175 649 197 649Q219 649 235 633Q251 617 251 595Q251 573 235 557Q219 541 197 541Q175 541 159 557Q143 573 143 595ZM332 594Q332 616 348 632Q364 648 386 648Q408 648 424 632Q440 616 440 594Q440 572 424 556Q408 540 386 540Q364 540 348 556Q332 572 332 594Z" glyph-name="odieresis" horiz-adv-x="491" unicode="&#246;" /><glyph d="M554 47Q605 47 630 68Q655 89 668 126L737 109Q712 39 663 13.5Q614 -12 547 -12Q493 -12 451 15.5Q409 43 393 87Q365 42 319 15Q273 -12 215 -12Q138 -12 89 39Q40 90 40 184Q40 298 101.5 385.5Q163 473 277 473Q331 473 370 446Q409 419 426 374Q454 420 499.5 446.5Q545 473 596 473Q684 473 722 422Q760 371 760 308Q760 284 755 260Q750 236 740 214H445Q440 154 464 100.5Q488 47 554 47ZM454 275H682Q685 283 686 292Q687 301 687 310Q687 351 664 382Q641 413 592 413Q540 413 505 373Q470 333 454 275ZM265 410Q195 410 154.5 343.5Q114 277 114 193Q114 122 144 84.5Q174 47 225 47Q295 47 335 116Q375 185 375 270Q375 336 346 373Q317 410 265 410Z" glyph-name="oe" horiz-adv-x="793" unicode="&#339;" /><glyph d="M277 473Q360 473 405.5 419Q451 365 451 275Q451 160 389.5 74Q328 -12 215 -12Q138 -12 89 39Q40 90 40 184Q40 298 101.5 385.5Q163 473 277 473ZM265 410Q195 410 154.5 343.5Q114 277 114 193Q114 122 144 84.5Q174 47 225 47Q295 47 335 116Q375 185 375 270Q375 336 346 373Q317 410 265 410ZM324 530H259L144 673H249Z" glyph-name="ograve" horiz-adv-x="491" unicode="&#242;" /><glyph d="M277 473Q360 473 405.5 419Q451 365 451 275Q451 160 389.5 74Q328 -12 215 -12Q138 -12 89 39Q40 90 40 184Q40 298 101.5 385.5Q163 473 277 473ZM265 410Q195 410 154.5 343.5Q114 277 114 193Q114 122 144 84.5Q174 47 225 47Q295 47 335 116Q375 185 375 270Q375 336 346 373Q317 410 265 410ZM391 530H331L406 673H506ZM249 530H191L256 673H354Z" glyph-name="ohungarumlaut" horiz-adv-x="491" unicode="&#337;" /><glyph d="M277 473Q360 473 405.5 419Q451 365 451 275Q451 160 389.5 74Q328 -12 215 -12Q138 -12 89 39Q40 90 40 184Q40 298 101.5 385.5Q163 473 277 473ZM265 410Q195 410 154.5 343.5Q114 277 114 193Q114 122 144 84.5Q174 47 225 47Q295 47 335 116Q375 185 375 270Q375 336 346 373Q317 410 265 410ZM411 564H160L171 625H422Z" glyph-name="omacron" horiz-adv-x="491" unicode="&#333;" /><glyph d="M198 0H120L191 406L45 379L57 443L284 489Z" glyph-name="one" horiz-adv-x="354" unicode="1" /><glyph d="M253 -203H0L9 -153H109L151 88L42 77L51 128L227 151L173 -153H262Z" glyph-name="one.inf" horiz-adv-x="287" /><glyph d="M282 236H39L48 286H138L180 527L71 516L80 567L256 590L202 286H291ZM190 0 600 590H659L250 0ZM759 50 750 0H489L498 48Q591 100 652 149.5Q713 199 713 248Q713 277 698.5 292.5Q684 308 655 308Q621 308 602.5 287Q584 266 579 235L531 260Q539 305 574 333Q609 361 663 361Q716 361 747 334.5Q778 308 778 257Q778 179 705 129Q632 79 575 54V50Z" glyph-name="onehalf" horiz-adv-x="849" unicode="&#189;" /><glyph d="M282 236H39L48 286H138L180 527L71 516L80 567L256 590L202 286H291ZM190 0 600 590H659L250 0ZM663 0 679 92H499L508 141L721 353H788L751 140H811L802 92H742L726 0ZM690 139 706 230Q711 261 717 280.5Q723 300 723 300H719Q719 300 707 282.5Q695 265 670 238L616 185Q593 163 576.5 151Q560 139 560 139L559 135Q559 135 571.5 137Q584 139 616 139Z" glyph-name="onequarter" horiz-adv-x="849" unicode="&#188;" /><glyph d="M253 236H10L19 286H109L151 527L42 516L51 567L227 590L173 286H262Z" glyph-name="onesuperior" horiz-adv-x="287" unicode="&#185;" /><glyph d="M259 415 269 465Q276 498 260.5 526Q245 554 207 554Q158 554 126 513.5Q94 473 94 409Q94 372 112 348Q130 324 165 324Q201 324 226 348Q251 372 259 415ZM360 593 312 356Q311 347 313 339.5Q315 332 327 332Q330 332 335 332.5Q340 333 353 336L345 290Q335 287 325 285.5Q315 284 306 284Q281 284 265.5 296.5Q250 309 247 328Q230 306 203.5 292.5Q177 279 149 279Q98 279 64 312Q30 345 30 406Q30 485 77.5 543Q125 601 202 601Q235 601 256.5 586Q278 571 288 547L305 593Z" glyph-name="ordfeminine" horiz-adv-x="395" unicode="&#170;" /><glyph d="M201 601Q261 601 294 564.5Q327 528 327 468Q327 392 282.5 335.5Q238 279 158 279Q102 279 66 313Q30 347 30 410Q30 485 74.5 543Q119 601 201 601ZM193 550Q145 550 118 509Q91 468 91 416Q91 372 110.5 349.5Q130 327 164 327Q211 327 237.5 370Q264 413 264 465Q264 505 245.5 527.5Q227 550 193 550Z" glyph-name="ordmasculine" horiz-adv-x="357" unicode="&#186;" /><glyph d="M265 410Q195 410 154.5 343.5Q114 277 114 193Q114 177 115.5 163Q117 149 120 137L352 365Q338 387 316 398.5Q294 410 265 410ZM225 47Q295 47 335 116Q375 185 375 270Q375 278 374.5 286.5Q374 295 373 303L146 81Q160 64 180 55.5Q200 47 225 47ZM277 473Q319 473 351.5 458.5Q384 444 406 418L461 472L502 429L436 365Q443 346 447 323Q451 300 451 275Q451 160 389.5 74Q328 -12 215 -12Q179 -12 148.5 -1Q118 10 96 31L49 -14L7 26L61 79Q51 101 45.5 127Q40 153 40 184Q40 298 101.5 385.5Q163 473 277 473Z" glyph-name="oslash" horiz-adv-x="491" unicode="&#248;" /><glyph d="M265 410Q195 410 154.5 343.5Q114 277 114 193Q114 177 115.5 163Q117 149 120 137L352 365Q338 387 316 398.5Q294 410 265 410ZM225 47Q295 47 335 116Q375 185 375 270Q375 278 374.5 286.5Q374 295 373 303L146 81Q160 64 180 55.5Q200 47 225 47ZM277 473Q319 473 351.5 458.5Q384 444 406 418L461 472L502 429L436 365Q443 346 447 323Q451 300 451 275Q451 160 389.5 74Q328 -12 215 -12Q179 -12 148.5 -1Q118 10 96 31L49 -14L7 26L61 79Q51 101 45.5 127Q40 153 40 184Q40 298 101.5 385.5Q163 473 277 473ZM311 530H246L321 673H426Z" glyph-name="oslashacute" horiz-adv-x="491" unicode="&#511;" /><glyph d="M277 473Q360 473 405.5 419Q451 365 451 275Q451 160 389.5 74Q328 -12 215 -12Q138 -12 89 39Q40 90 40 184Q40 298 101.5 385.5Q163 473 277 473ZM265 410Q195 410 154.5 343.5Q114 277 114 193Q114 122 144 84.5Q174 47 225 47Q295 47 335 116Q375 185 375 270Q375 336 346 373Q317 410 265 410ZM353 531Q327 531 312 539Q297 547 281 557Q263 568 252 575Q241 582 225 582Q209 582 198 570Q187 558 186 533H138Q130 579 156 612.5Q182 646 227 646Q255 646 271 637Q287 628 305 616Q323 604 332.5 599Q342 594 355 594Q369 594 379 606Q389 618 392 646H443Q449 597 424.5 564Q400 531 353 531Z" glyph-name="otilde" horiz-adv-x="491" unicode="&#245;" /><glyph d="M162 267 146 177Q137 135 163.5 93Q190 51 248 51Q321 51 362.5 119.5Q404 188 404 283Q404 341 379 376Q354 411 307 411Q256 411 214.5 371Q173 331 162 267ZM129 76 80 -203H5L122 462H188L180 373Q204 423 243 448Q282 473 332 473Q404 473 443.5 423.5Q483 374 483 283Q483 160 421 74Q359 -12 254 -12Q203 -12 169.5 13.5Q136 39 129 76Z" glyph-name="p" horiz-adv-x="523" unicode="p" /><glyph d="M493 529 395 -24Q382 -98 339 -130.5Q296 -163 236 -163Q209 -163 185.5 -157.5Q162 -152 137 -136L173 -66Q189 -82 208 -89Q227 -96 245 -96Q272 -96 290 -83.5Q308 -71 314 -37L351 174H303Q194 174 142.5 223.5Q91 273 110 375Q129 486 209.5 537.5Q290 589 419 589H582L572 529Z" glyph-name="paragraph" horiz-adv-x="510" unicode="&#182;" /><glyph d="M145 147Q145 54 171.5 -28.5Q198 -111 256 -202H176Q127 -126 98.5 -41.5Q70 43 70 146Q70 299 141 440Q212 581 321 668H410Q305 576 225 450Q145 324 145 147Z" glyph-name="parenleft" horiz-adv-x="330" unicode="(" /><glyph d="M195 319Q195 412 168.5 494.5Q142 577 84 668H164Q213 592 241.5 507.5Q270 423 270 320Q270 167 199 26Q128 -115 19 -202H-70Q35 -110 115 16Q195 142 195 319Z" glyph-name="parenright" horiz-adv-x="330" unicode=")" /><glyph d="M158 229Q99 229 69 269Q39 309 39 375Q39 450 79 523.5Q119 597 201 597Q257 597 288.5 556Q320 515 320 447Q320 372 280.5 300.5Q241 229 158 229ZM190 0 600 590H659L250 0ZM195 542Q141 542 121.5 479Q102 416 102 376Q103 334 118.5 306.5Q134 279 165 279Q218 279 238 343.5Q258 408 258 448Q258 490 242.5 516Q227 542 195 542ZM648 -7Q589 -7 559 33Q529 73 529 139Q529 214 569 287.5Q609 361 691 361Q747 361 778.5 320Q810 279 810 211Q810 136 770.5 64.5Q731 -7 648 -7ZM685 306Q631 306 611.5 243Q592 180 592 140Q593 98 608.5 70.5Q624 43 655 43Q708 43 728 107.5Q748 172 748 212Q748 254 732.5 280Q717 306 685 306Z" glyph-name="percent" horiz-adv-x="849" unicode="%" /><glyph d="M50 56Q50 82 68 100Q86 118 112 118Q138 118 156 100Q174 82 174 56Q174 30 156 12Q138 -6 112 -6Q86 -6 68 12Q50 30 50 56Z" glyph-name="period" horiz-adv-x="284" unicode="." /><glyph d="M90 300Q90 326 108 344Q126 362 152 362Q178 362 196 344Q214 326 214 300Q214 274 196 256Q178 238 152 238Q126 238 108 256Q90 274 90 300Z" glyph-name="periodcentered.cap" horiz-adv-x="274" /><glyph d="M48 271H225L256 445H306L275 271H456L448 225H267L234 37H184L217 225H40Z" glyph-name="plus" horiz-adv-x="496" unicode="+" /><glyph d="M85 333H262L287 471H337L312 333H493L485 287H304L277 135H227L254 287H77ZM443 49H35L43 95H451Z" glyph-name="plusminus" horiz-adv-x="538" unicode="&#177;" /><glyph d="M358 -203H282L331 74Q310 27 274 7.5Q238 -12 195 -12Q129 -12 84.5 37Q40 86 40 177Q40 295 103 384Q166 473 267 473Q315 473 346.5 451.5Q378 430 387 384L412 462H475ZM351 191 365 271Q374 322 351.5 367Q329 412 274 412Q205 412 159.5 347.5Q114 283 114 184Q114 127 139.5 88.5Q165 50 216 50Q268 50 304 88Q340 126 351 191Z" glyph-name="q" horiz-adv-x="495" unicode="q" /><glyph d="M131 442 70 468Q89 525 132.5 563Q176 601 253 601Q333 601 375.5 559Q418 517 418 443Q418 343 352 294.5Q286 246 217 246L201 157H131L156 292H178Q242 292 290.5 325Q339 358 339 436Q339 485 313.5 511Q288 537 241 537Q199 537 171.5 512.5Q144 488 131 442ZM94 51Q94 75 110.5 91.5Q127 108 151 108Q175 108 191.5 91.5Q208 75 208 51Q208 27 191.5 10.5Q175 -6 151 -6Q127 -6 110.5 10.5Q94 27 94 51Z" glyph-name="question" horiz-adv-x="408" unicode="?" /><glyph d="M344 411Q344 387 327.5 370.5Q311 354 287 354Q263 354 246.5 370.5Q230 387 230 411Q230 435 246.5 451.5Q263 468 287 468Q311 468 327.5 451.5Q344 435 344 411ZM307 20 368 -6Q349 -63 305.5 -101Q262 -139 185 -139Q105 -139 62.5 -97Q20 -55 20 19Q20 119 86 167.5Q152 216 221 216L237 305H307L282 170H260Q196 170 147.5 137Q99 104 99 26Q99 -23 124.5 -49Q150 -75 197 -75Q239 -75 266.5 -50.5Q294 -26 307 20Z" glyph-name="questiondown" horiz-adv-x="408" unicode="&#191;" /><glyph d="M214 412 259 668H346L262 412ZM75 412 120 668H207L123 412Z" glyph-name="quotedbl" horiz-adv-x="281" unicode="&quot;" /><glyph d="M325 27Q325 -41 277 -74Q229 -107 165 -111V-72Q199 -67 232 -49.5Q265 -32 265 1Q235 -5 217 10.5Q199 26 199 52Q199 78 215.5 93Q232 108 259 108Q287 108 306 86.5Q325 65 325 27ZM150 27Q150 -41 102 -74Q54 -107 -10 -111V-72Q24 -67 57 -49.5Q90 -32 90 1Q60 -5 42 10.5Q24 26 24 52Q24 78 40.5 93Q57 108 84 108Q112 108 131 86.5Q150 65 150 27Z" glyph-name="quotedblbase" horiz-adv-x="395" unicode="&#8222;" /><glyph d="M280 539Q280 607 328 640Q376 673 440 677V638Q406 633 373 615.5Q340 598 340 565Q370 571 388 555.5Q406 540 406 514Q406 488 389.5 473Q373 458 346 458Q318 458 299 479.5Q280 501 280 539ZM105 539Q105 607 153 640Q201 673 265 677V638Q231 633 198 615.5Q165 598 165 565Q195 571 213 555.5Q231 540 231 514Q231 488 214.5 473Q198 458 171 458Q143 458 124 479.5Q105 501 105 539Z" glyph-name="quotedblleft" horiz-adv-x="395" unicode="&#8220;" /><glyph d="M415 596Q415 528 367 495Q319 462 255 458V497Q289 502 322 519.5Q355 537 355 570Q325 564 307 579.5Q289 595 289 621Q289 647 305.5 662Q322 677 349 677Q377 677 396 655.5Q415 634 415 596ZM240 596Q240 528 192 495Q144 462 80 458V497Q114 502 147 519.5Q180 537 180 570Q150 564 132 579.5Q114 595 114 621Q114 647 130.5 662Q147 677 174 677Q202 677 221 655.5Q240 634 240 596Z" glyph-name="quotedblright" horiz-adv-x="395" unicode="&#8221;" /><glyph d="M105 539Q105 607 153 640Q201 673 265 677V638Q231 633 198 615.5Q165 598 165 565Q195 571 213 555.5Q231 540 231 514Q231 488 214.5 473Q198 458 171 458Q143 458 124 479.5Q105 501 105 539Z" glyph-name="quoteleft" horiz-adv-x="220" unicode="&#8216;" /><glyph d="M240 596Q240 528 192 495Q144 462 80 458V497Q114 502 147 519.5Q180 537 180 570Q150 564 132 579.5Q114 595 114 621Q114 647 130.5 662Q147 677 174 677Q202 677 221 655.5Q240 634 240 596Z" glyph-name="quoteright" horiz-adv-x="220" unicode="&#8217;" /><glyph d="M150 22Q150 -46 102 -79Q54 -112 -10 -116V-77Q24 -72 57 -54.5Q90 -37 90 -4Q60 -10 42 5.5Q24 21 24 47Q24 73 40.5 88Q57 103 84 103Q112 103 131 81.5Q150 60 150 22Z" glyph-name="quotesinglbase" horiz-adv-x="220" unicode="&#8218;" /><glyph d="M75 412 120 668H207L123 412Z" glyph-name="quotesingle" horiz-adv-x="142" unicode="'" /><glyph d="M352 471 332 382Q281 392 227.5 362.5Q174 333 163 267L116 0H40L121 462H187L178 357Q201 410 249 445Q297 480 352 471Z" glyph-name="r" horiz-adv-x="332" unicode="r" /><glyph d="M352 471 332 382Q281 392 227.5 362.5Q174 333 163 267L116 0H40L121 462H187L178 357Q201 410 249 445Q297 480 352 471ZM272 530H207L282 673H387Z" glyph-name="racute" horiz-adv-x="332" unicode="&#341;" /><glyph d="M352 471 332 382Q281 392 227.5 362.5Q174 333 163 267L116 0H40L121 462H187L178 357Q201 410 249 445Q297 480 352 471ZM264 530H222L125 673H204L232 629Q243 611 246 600Q249 589 249 589H253Q253 589 260 600Q267 611 284 629L328 673H411Z" glyph-name="rcaron" horiz-adv-x="332" unicode="&#345;" /><glyph d="M352 471 332 382Q281 392 227.5 362.5Q174 333 163 267L116 0H40L121 462H187L178 357Q201 410 249 445Q297 480 352 471ZM121 -140Q121 -194 84.5 -219.5Q48 -245 -7 -245V-211Q21 -210 43 -201Q65 -192 65 -167Q39 -172 23.5 -158.5Q8 -145 8 -123Q8 -100 22.5 -87Q37 -74 61 -74Q84 -74 102.5 -90Q121 -106 121 -140Z" glyph-name="rcommaaccent" horiz-adv-x="332" unicode="&#343;" /><glyph d="M55 294Q55 427 145 514Q235 601 361 601Q487 601 577.5 514Q668 427 668 294Q668 161 577.5 74.5Q487 -12 361 -12Q235 -12 145 74.5Q55 161 55 294ZM86 294Q86 173 167.5 95Q249 17 362 17Q475 17 556.5 95Q638 173 638 294Q638 415 556.5 493.5Q475 572 362 572Q249 572 167.5 493.5Q86 415 86 294ZM321 431 300 309H370Q410 309 432.5 326Q455 343 455 383Q455 405 440.5 418Q426 431 398 431ZM494 119H426Q420 127 418 136.5Q416 146 415 159L412 210Q411 236 399.5 248.5Q388 261 356 261H292L267 119H204L268 481H407Q464 481 491.5 457Q519 433 519 388Q519 334 486 309.5Q453 285 411 283V281Q441 279 457.5 266Q474 253 475 223L479 164Q480 151 483.5 139.5Q487 128 494 119Z" glyph-name="registered" horiz-adv-x="698" unicode="&#174;" /><glyph d="M80 611Q80 653 109 683Q138 713 184 713Q224 713 247.5 688Q271 663 271 628Q271 586 242.5 556Q214 526 168 526Q125 526 102.5 550.5Q80 575 80 611ZM180 676Q156 676 139.5 658Q123 640 123 616Q123 591 136.5 577Q150 563 174 563Q197 563 213 581Q229 599 229 623Q229 647 216 661.5Q203 676 180 676Z" glyph-name="ring" horiz-adv-x="351" unicode="&#730;" /><glyph d="M80 723Q80 765 109 795Q138 825 184 825Q224 825 247.5 800Q271 775 271 740Q271 698 242.5 668Q214 638 168 638Q125 638 102.5 662.5Q80 687 80 723ZM180 788Q156 788 139.5 770Q123 752 123 728Q123 703 136.5 689Q150 675 174 675Q197 675 213 693Q229 711 229 735Q229 759 216 773.5Q203 788 180 788Z" glyph-name="ring.cap" horiz-adv-x="351" /><glyph d="M20 123 89 137Q89 88 114.5 65.5Q140 43 180 43Q217 43 241.5 58Q266 73 266 115Q266 149 247.5 169.5Q229 190 181 208Q130 227 102 257.5Q74 288 74 339Q74 405 119.5 439Q165 473 231 473Q300 473 334.5 442.5Q369 412 369 352L298 344Q298 378 279.5 397Q261 416 224 416Q188 416 165.5 398.5Q143 381 143 347Q143 321 160 302.5Q177 284 232 261Q290 236 314 203.5Q338 171 338 121Q338 53 293.5 20.5Q249 -12 177 -12Q102 -12 61 24.5Q20 61 20 123Z" glyph-name="s" horiz-adv-x="399" unicode="s" /><glyph d="M20 123 89 137Q89 88 114.5 65.5Q140 43 180 43Q217 43 241.5 58Q266 73 266 115Q266 149 247.5 169.5Q229 190 181 208Q130 227 102 257.5Q74 288 74 339Q74 405 119.5 439Q165 473 231 473Q300 473 334.5 442.5Q369 412 369 352L298 344Q298 378 279.5 397Q261 416 224 416Q188 416 165.5 398.5Q143 381 143 347Q143 321 160 302.5Q177 284 232 261Q290 236 314 203.5Q338 171 338 121Q338 53 293.5 20.5Q249 -12 177 -12Q102 -12 61 24.5Q20 61 20 123ZM275 530H210L285 673H390Z" glyph-name="sacute" horiz-adv-x="399" unicode="&#347;" /><glyph d="M20 123 89 137Q89 88 114.5 65.5Q140 43 180 43Q217 43 241.5 58Q266 73 266 115Q266 149 247.5 169.5Q229 190 181 208Q130 227 102 257.5Q74 288 74 339Q74 405 119.5 439Q165 473 231 473Q300 473 334.5 442.5Q369 412 369 352L298 344Q298 378 279.5 397Q261 416 224 416Q188 416 165.5 398.5Q143 381 143 347Q143 321 160 302.5Q177 284 232 261Q290 236 314 203.5Q338 171 338 121Q338 53 293.5 20.5Q249 -12 177 -12Q102 -12 61 24.5Q20 61 20 123ZM267 530H225L128 673H207L235 629Q246 611 249 600Q252 589 252 589H256Q256 589 263 600Q270 611 287 629L331 673H414Z" glyph-name="scaron" horiz-adv-x="399" unicode="&#353;" /><glyph d="M230 -126Q230 -169 199 -190Q168 -211 126 -211Q98 -211 76 -201Q54 -191 41 -173L64 -125Q76 -143 91.5 -152.5Q107 -162 126 -162Q144 -162 155.5 -153Q167 -144 167 -126Q167 -106 151 -94Q135 -82 98 -82L126 -7Q75 4 47.5 38Q20 72 20 123L89 137Q89 88 114.5 65.5Q140 43 180 43Q217 43 241.5 58.5Q266 74 266 115Q266 149 247.5 169.5Q229 190 181 208Q130 227 102 257.5Q74 288 74 339Q74 405 119.5 439Q165 473 231 473Q300 473 334.5 442.5Q369 412 369 352L298 344Q298 378 279.5 397Q261 416 224 416Q190 416 166.5 398.5Q143 381 143 347Q143 321 160 302.5Q177 284 232 261Q290 236 314 203.5Q338 171 338 121Q338 53 293.5 20.5Q249 -12 177 -12Q174 -12 171 -11.5Q168 -11 165 -11L152 -42Q192 -51 211 -71Q230 -91 230 -126Z" glyph-name="scedilla" horiz-adv-x="399" unicode="&#351;" /><glyph d="M20 123 89 137Q89 88 114.5 65.5Q140 43 180 43Q217 43 241.5 58Q266 73 266 115Q266 149 247.5 169.5Q229 190 181 208Q130 227 102 257.5Q74 288 74 339Q74 405 119.5 439Q165 473 231 473Q300 473 334.5 442.5Q369 412 369 352L298 344Q298 378 279.5 397Q261 416 224 416Q188 416 165.5 398.5Q143 381 143 347Q143 321 160 302.5Q177 284 232 261Q290 236 314 203.5Q338 171 338 121Q338 53 293.5 20.5Q249 -12 177 -12Q102 -12 61 24.5Q20 61 20 123ZM245 673H287L384 530H305L277 574Q266 592 263 603Q260 614 260 614H256Q256 614 249 603Q242 592 225 574L181 530H98Z" glyph-name="scircumflex" horiz-adv-x="399" unicode="&#349;" /><glyph d="M20 123 89 137Q89 88 114.5 65.5Q140 43 180 43Q217 43 241.5 58Q266 73 266 115Q266 149 247.5 169.5Q229 190 181 208Q130 227 102 257.5Q74 288 74 339Q74 405 119.5 439Q165 473 231 473Q300 473 334.5 442.5Q369 412 369 352L298 344Q298 378 279.5 397Q261 416 224 416Q188 416 165.5 398.5Q143 381 143 347Q143 321 160 302.5Q177 284 232 261Q290 236 314 203.5Q338 171 338 121Q338 53 293.5 20.5Q249 -12 177 -12Q102 -12 61 24.5Q20 61 20 123ZM196 -140Q196 -194 159.5 -219.5Q123 -245 68 -245V-211Q96 -210 118 -201Q140 -192 140 -167Q114 -172 98.5 -158.5Q83 -145 83 -123Q83 -100 97.5 -87Q112 -74 136 -74Q159 -74 177.5 -90Q196 -106 196 -140Z" glyph-name="scommaaccent" horiz-adv-x="399" unicode="&#537;" /><glyph d="M190 156Q192 155 194.5 153.5Q197 152 199 151Q235 153 261.5 177Q288 201 288 233Q288 264 270 283Q252 302 198 331Q195 332 192 333.5Q189 335 187 336Q143 329 120 305Q97 281 97 248Q97 222 114 204.5Q131 187 190 156ZM26 240Q26 297 59 328Q92 359 137 369Q115 386 103.5 408Q92 430 92 463Q92 535 143.5 566Q195 597 252 597Q321 597 355.5 566.5Q390 536 390 476L319 468Q320 504 299 521.5Q278 539 242 539Q211 539 187 522Q163 505 163 471Q163 445 180 427.5Q197 410 256 379Q310 351 335 321Q360 291 360 245Q360 191 328.5 160Q297 129 248 119Q271 99 282.5 76Q294 53 294 22Q294 -48 243 -79.5Q192 -111 123 -111Q48 -111 11.5 -80.5Q-25 -50 -25 9L40 19Q41 -21 64.5 -39Q88 -57 128 -57Q166 -57 194 -40.5Q222 -24 222 10Q222 41 204 60Q186 79 132 108Q82 135 54 162Q26 189 26 240Z" glyph-name="section" horiz-adv-x="395" unicode="&#167;" /><glyph d="M122 418Q122 444 140 462Q158 480 184 480Q210 480 228 462Q246 444 246 418Q246 392 228 374Q210 356 184 356Q158 356 140 374Q122 392 122 418ZM185 27Q185 -41 137 -74Q89 -107 25 -111V-72Q59 -67 92 -49.5Q125 -32 125 1Q95 -5 77 10.5Q59 26 59 52Q59 78 75.5 93Q92 108 119 108Q147 108 166 86.5Q185 65 185 27Z" glyph-name="semicolon" horiz-adv-x="284" unicode=";" /><glyph d="M299 415H128L114 340H41L66 481H459L450 430L116 -131H35L318 345Q343 388 356 402Q369 416 369 416V420Q369 420 352.5 417.5Q336 415 299 415Z" glyph-name="seven" horiz-adv-x="474" unicode="7" /><glyph d="M504 482 432 455Q424 496 400 518.5Q376 541 335 541Q258 541 198.5 467Q139 393 120 262H124Q147 322 196 348Q245 374 294 374Q373 374 417.5 329.5Q462 285 462 212Q462 112 402.5 50Q343 -12 241 -12Q150 -12 100 44Q50 100 50 215Q50 346 122.5 473.5Q195 601 338 601Q410 601 451 570Q492 539 504 482ZM276 311Q216 311 174 272Q132 233 132 164Q132 109 162 78.5Q192 48 243 48Q303 48 344.5 89.5Q386 131 386 203Q386 252 356.5 281.5Q327 311 276 311Z" glyph-name="six" horiz-adv-x="514" unicode="6" /><glyph d="M-85 -203 339 669H412L-14 -203Z" glyph-name="slash" horiz-adv-x="362" unicode="/" /><glyph glyph-name="space" horiz-adv-x="225" unicode=" " /><glyph d="M348 209H214Q215 204 215 198.5Q215 193 215 188Q215 142 193.5 108.5Q172 75 141 65H322Q346 65 368.5 74Q391 83 404 114L457 84Q440 43 404.5 21.5Q369 0 319 0H10L21 68H70Q95 68 120.5 94.5Q146 121 146 157Q146 173 144.5 185.5Q143 198 140 209H43L51 259H129Q127 272 125.5 289.5Q124 307 124 330Q124 421 182.5 457Q241 493 298 493Q369 493 409 460Q449 427 449 360L376 348Q375 385 356.5 408.5Q338 432 291 432Q250 432 223.5 408.5Q197 385 197 331Q197 310 199 292.5Q201 275 204 259H356Z" glyph-name="sterling" horiz-adv-x="487" unicode="&#163;" /><glyph d="M249 75V11Q228 -1 203 -6.5Q178 -12 158 -12Q100 -12 71.5 21.5Q43 55 56 128L104 401H40L51 462H116L133 559L210 570L191 462H312L301 401H181L131 120Q124 83 137 67.5Q150 52 170 52Q191 52 208 57Q225 62 249 75Z" glyph-name="t" horiz-adv-x="302" unicode="t" /><glyph d="M30 247 41 307H102L119 401H55L66 462H131L148 559L225 570L206 462H327L316 401H196L179 307H302L291 247H168L146 120Q139 83 152 67.5Q165 52 185 52Q206 52 223 57Q240 62 264 75V11Q243 -1 218 -6.5Q193 -12 173 -12Q115 -12 86.5 21.5Q58 55 71 128L92 247Z" glyph-name="tbar" horiz-adv-x="327" unicode="&#359;" /><glyph d="M249 75V11Q228 -1 203 -6.5Q178 -12 158 -12Q100 -12 71.5 21.5Q43 55 56 128L104 401H40L51 462H116L133 559L210 570L191 462H312L301 401H181L131 120Q124 83 137 67.5Q150 52 170 52Q191 52 208 57Q225 62 249 75ZM350 668 299 493H244L260 668Z" glyph-name="tcaron" horiz-adv-x="302" unicode="&#357;" /><glyph d="M249 75V11Q228 -1 203 -6.5Q178 -12 158 -12Q100 -12 71.5 21.5Q43 55 56 128L104 401H40L51 462H116L133 559L210 570L191 462H312L301 401H181L131 120Q124 83 137 67.5Q150 52 170 52Q191 52 208 57Q225 62 249 75ZM169 -140Q169 -194 132.5 -219.5Q96 -245 41 -245V-211Q69 -210 91 -201Q113 -192 113 -167Q87 -172 71.5 -158.5Q56 -145 56 -123Q56 -100 70.5 -87Q85 -74 109 -74Q132 -74 150.5 -90Q169 -106 169 -140Z" glyph-name="tcommaaccent" horiz-adv-x="302" unicode="&#355;" /><glyph d="M162 264 146 172Q137 129 163.5 85.5Q190 42 248 42Q321 42 362.5 112.5Q404 183 404 280Q404 340 379 376Q354 412 307 412Q256 412 214.5 371Q173 330 162 264ZM129 76 80 -203H5L157 668H231L180 373Q204 423 243 448Q282 473 332 473Q404 473 443.5 423.5Q483 374 483 283Q483 160 421 74Q359 -12 254 -12Q203 -12 169.5 13.5Q136 39 129 76Z" glyph-name="thorn" horiz-adv-x="523" unicode="&#254;" /><glyph d="M201 188V185Q279 178 317 140Q355 102 355 40Q355 -53 292.5 -95.5Q230 -138 149 -138Q62 -138 18.5 -98Q-25 -58 -25 2L48 17Q48 -31 77.5 -55Q107 -79 158 -79Q208 -79 242.5 -50Q277 -21 277 34Q277 80 246.5 113.5Q216 147 122 157L131 218Q233 228 278.5 261Q324 294 324 352Q324 391 299.5 411Q275 431 235 431Q189 431 164 405.5Q139 380 131 337L60 353Q72 414 115.5 453.5Q159 493 241 493Q309 493 355.5 460.5Q402 428 402 359Q402 276 346 232.5Q290 189 201 188Z" glyph-name="three" horiz-adv-x="442" unicode="3" /><glyph d="M182 -18V-21Q223 -25 242.5 -48Q262 -71 262 -104Q262 -158 219.5 -184Q177 -210 124 -210Q61 -210 34 -181Q7 -152 5 -115L61 -102Q64 -132 80 -148Q96 -164 124 -164Q155 -164 177 -149.5Q199 -135 199 -104Q199 -77 179.5 -61Q160 -45 100 -44L108 0Q162 2 190 17.5Q218 33 218 65Q218 84 204.5 96Q191 108 166 108Q139 108 123.5 94.5Q108 81 101 54L50 74Q61 107 88 132.5Q115 158 172 158Q216 158 249 138Q282 118 282 72Q282 35 256 11Q230 -13 182 -18Z" glyph-name="three.inf" horiz-adv-x="307" /><glyph d="M208 421V418Q249 414 268.5 391Q288 368 288 335Q288 281 245.5 255Q203 229 150 229Q87 229 60 258Q33 287 31 324L87 337Q90 307 106 291Q122 275 150 275Q181 275 203 289.5Q225 304 225 335Q225 362 205.5 378Q186 394 126 395L134 439Q188 441 216 456.5Q244 472 244 504Q244 523 230.5 535Q217 547 192 547Q165 547 149.5 533.5Q134 520 127 493L76 513Q87 546 114 571.5Q141 597 198 597Q242 597 275 577Q308 557 308 511Q308 474 282 450Q256 426 208 421ZM190 0 600 590H659L250 0ZM663 0 679 92H499L508 141L721 353H788L751 140H811L802 92H742L726 0ZM690 139 706 230Q711 261 717 280.5Q723 300 723 300H719Q719 300 707 282.5Q695 265 670 238L616 185Q593 163 576.5 151Q560 139 560 139L559 135Q559 135 571.5 137Q584 139 616 139Z" glyph-name="threequarters" horiz-adv-x="849" unicode="&#190;" /><glyph d="M182 421V418Q223 414 242.5 391Q262 368 262 335Q262 281 219.5 255Q177 229 124 229Q61 229 34 258Q7 287 5 324L61 337Q64 307 80 291Q96 275 124 275Q155 275 177 289.5Q199 304 199 335Q199 362 179.5 378Q160 394 100 395L108 439Q162 441 190 456.5Q218 472 218 504Q218 523 204.5 535Q191 547 166 547Q139 547 123.5 533.5Q108 520 101 493L50 513Q61 546 88 571.5Q115 597 172 597Q216 597 249 577Q282 557 282 511Q282 474 256 450Q230 426 182 421Z" glyph-name="threesuperior" horiz-adv-x="307" unicode="&#179;" /><glyph d="M303 531Q277 531 262 539Q247 547 231 557Q213 568 202 575Q191 582 175 582Q159 582 148 570Q137 558 136 533H88Q80 579 106 612.5Q132 646 177 646Q205 646 221 637Q237 628 255 616Q273 604 282.5 599Q292 594 305 594Q319 594 329 606Q339 618 342 646H393Q399 597 374.5 564Q350 531 303 531Z" glyph-name="tilde" horiz-adv-x="469" unicode="&#732;" /><glyph d="M303 655Q277 655 262 663Q247 671 231 681Q213 692 202 699Q191 706 175 706Q159 706 148 694Q137 682 136 657H88Q80 703 106 736.5Q132 770 177 770Q205 770 221 761Q237 752 255 740Q273 728 282.5 723Q292 718 305 718Q319 718 329 730Q339 742 342 770H393Q399 721 374.5 688Q350 655 303 655Z" glyph-name="tilde.cap" horiz-adv-x="469" /><glyph d="M155 341H105L144 545H70L78 589H277L269 545H194ZM547 341H497L530 513H525L450 388H403L373 513H368L335 341H285L332 589H398L434 446H438L527 589H594Z" glyph-name="trademark" horiz-adv-x="594" unicode="&#8482;" /><glyph d="M374 64 363 0H10L20 60Q160 127 239.5 193.5Q319 260 319 344Q319 384 296.5 406Q274 428 233 428Q196 428 166 405Q136 382 136 323L65 338Q72 433 132 463Q192 493 241 493Q314 493 356.5 455.5Q399 418 399 346Q399 236 298.5 163.5Q198 91 111 68V64Z" glyph-name="two" horiz-adv-x="449" unicode="2" /><glyph d="M270 -153 261 -203H0L9 -155Q102 -103 163 -53.5Q224 -4 224 45Q224 74 209.5 89.5Q195 105 166 105Q132 105 113.5 84Q95 63 90 32L42 57Q50 102 85 130Q120 158 174 158Q227 158 258 131.5Q289 105 289 54Q289 -24 216 -74Q143 -124 86 -149V-153Z" glyph-name="two.inf" horiz-adv-x="319" /><glyph d="M270 286 261 236H0L9 284Q102 336 163 385.5Q224 435 224 484Q224 513 209.5 528.5Q195 544 166 544Q132 544 113.5 523Q95 502 90 471L42 496Q50 541 85 569Q120 597 174 597Q227 597 258 570.5Q289 544 289 493Q289 415 216 365Q143 315 86 290V286Z" glyph-name="twosuperior" horiz-adv-x="319" unicode="&#178;" /><glyph d="M325 87Q304 34 267.5 11Q231 -12 180 -12Q108 -12 79 34Q50 80 64 162L116 462H192L137 148Q129 99 146 72Q163 45 203 45Q246 45 286.5 80.5Q327 116 338 181L387 462H463L399 99Q396 82 399.5 68Q403 54 425 54Q431 54 438 55Q445 56 454 58L444 3Q434 -1 421.5 -3Q409 -5 396 -5Q350 -5 334.5 19.5Q319 44 325 87Z" glyph-name="u" horiz-adv-x="504" unicode="u" /><glyph d="M316 87Q295 34 258.5 11Q222 -12 171 -12Q99 -12 70 34Q41 80 55 162L107 462H183L128 148Q120 99 137 72Q154 45 194 45Q237 45 277.5 80.5Q318 116 329 181L378 462H454L390 99Q387 82 390.5 68Q394 54 416 54Q422 54 429 55Q436 56 445 58L435 3Q425 -1 412.5 -3Q400 -5 387 -5Q341 -5 325.5 19.5Q310 44 316 87ZM314 530H249L324 673H429Z" glyph-name="uacute" horiz-adv-x="504" unicode="&#250;" /><glyph d="M316 87Q295 34 258.5 11Q222 -12 171 -12Q99 -12 70 34Q41 80 55 162L107 462H183L128 148Q120 99 137 72Q154 45 194 45Q237 45 277.5 80.5Q318 116 329 181L378 462H454L390 99Q387 82 390.5 68Q394 54 416 54Q422 54 429 55Q436 56 445 58L435 3Q425 -1 412.5 -3Q400 -5 387 -5Q341 -5 325.5 19.5Q310 44 316 87ZM277 529Q216 529 187.5 566Q159 603 170 665H231Q228 631 237.5 609Q247 587 287 587Q327 587 344.5 609Q362 631 371 665H432Q421 603 379.5 566Q338 529 277 529Z" glyph-name="ubreve" horiz-adv-x="504" unicode="&#365;" /><glyph d="M316 87Q295 34 258.5 11Q222 -12 171 -12Q99 -12 70 34Q41 80 55 162L107 462H183L128 148Q120 99 137 72Q154 45 194 45Q237 45 277.5 80.5Q318 116 329 181L378 462H454L390 99Q387 82 390.5 68Q394 54 416 54Q422 54 429 55Q436 56 445 58L435 3Q425 -1 412.5 -3Q400 -5 387 -5Q341 -5 325.5 19.5Q310 44 316 87ZM284 673H326L423 530H344L316 574Q305 592 302 603Q299 614 299 614H295Q295 614 288 603Q281 592 264 574L220 530H137Z" glyph-name="ucircumflex" horiz-adv-x="504" unicode="&#251;" /><glyph d="M316 87Q295 34 258.5 11Q222 -12 171 -12Q99 -12 70 34Q41 80 55 162L107 462H183L128 148Q120 99 137 72Q154 45 194 45Q237 45 277.5 80.5Q318 116 329 181L378 462H454L390 99Q387 82 390.5 68Q394 54 416 54Q422 54 429 55Q436 56 445 58L435 3Q425 -1 412.5 -3Q400 -5 387 -5Q341 -5 325.5 19.5Q310 44 316 87ZM149 595Q149 617 165 633Q181 649 203 649Q225 649 241 633Q257 617 257 595Q257 573 241 557Q225 541 203 541Q181 541 165 557Q149 573 149 595ZM338 594Q338 616 354 632Q370 648 392 648Q414 648 430 632Q446 616 446 594Q446 572 430 556Q414 540 392 540Q370 540 354 556Q338 572 338 594Z" glyph-name="udieresis" horiz-adv-x="504" unicode="&#252;" /><glyph d="M316 87Q295 34 258.5 11Q222 -12 171 -12Q99 -12 70 34Q41 80 55 162L107 462H183L128 148Q120 99 137 72Q154 45 194 45Q237 45 277.5 80.5Q318 116 329 181L378 462H454L390 99Q387 82 390.5 68Q394 54 416 54Q422 54 429 55Q436 56 445 58L435 3Q425 -1 412.5 -3Q400 -5 387 -5Q341 -5 325.5 19.5Q310 44 316 87ZM330 530H265L150 673H255Z" glyph-name="ugrave" horiz-adv-x="504" unicode="&#249;" /><glyph d="M316 87Q295 34 258.5 11Q222 -12 171 -12Q99 -12 70 34Q41 80 55 162L107 462H183L128 148Q120 99 137 72Q154 45 194 45Q237 45 277.5 80.5Q318 116 329 181L378 462H454L390 99Q387 82 390.5 68Q394 54 416 54Q422 54 429 55Q436 56 445 58L435 3Q425 -1 412.5 -3Q400 -5 387 -5Q341 -5 325.5 19.5Q310 44 316 87ZM397 530H337L412 673H512ZM255 530H197L262 673H360Z" glyph-name="uhungarumlaut" horiz-adv-x="504" unicode="&#369;" /><glyph d="M325 87Q304 34 267.5 11Q231 -12 180 -12Q108 -12 79 34Q50 80 64 162L116 462H192L137 148Q129 99 146 72Q163 45 203 45Q246 45 286.5 80.5Q327 116 338 181L387 462H463L399 99Q396 82 399.5 68Q403 54 425 54Q431 54 438 55Q445 56 454 58L444 3Q434 -1 421.5 -3Q409 -5 396 -5Q350 -5 334.5 19.5Q319 44 325 87ZM426 564H175L186 625H437Z" glyph-name="umacron" horiz-adv-x="504" unicode="&#363;" /><glyph d="M0 -83 11 -22H392L381 -83Z" glyph-name="underscore" horiz-adv-x="482" unicode="_" /><glyph d="M343 564H92L103 625H354Z" glyph-name="uni02C9" horiz-adv-x="446" unicode="&#713;" /><glyph d="M80 720Q80 774 116.5 799.5Q153 825 208 825V791Q180 790 158 781Q136 772 136 747Q162 752 177.5 738.5Q193 725 193 703Q193 680 178.5 667Q164 654 140 654Q117 654 98.5 670Q80 686 80 720Z" glyph-name="uni0312" horiz-adv-x="304" unicode="&#786;" /><glyph d="M270 50 261 0H0L9 48Q102 100 163 149.5Q224 199 224 248Q224 277 209.5 292.5Q195 308 166 308Q132 308 113.5 287Q95 266 90 235L42 260Q50 305 85 333Q120 361 174 361Q227 361 258 334.5Q289 308 289 257Q289 179 216 129Q143 79 86 54V50Z" glyph-name="uni2082" horiz-adv-x="319" unicode="&#8322;" /><glyph d="M174 0 190 92H10L19 141L232 353H299L262 140H322L313 92H253L237 0ZM201 139 217 230Q222 261 228 280.5Q234 300 234 300H230Q230 300 218 282.5Q206 265 181 238L127 185Q104 163 87.5 151Q71 139 71 139L70 135Q70 135 82.5 137Q95 139 127 139Z" glyph-name="uni2084" horiz-adv-x="352" unicode="&#8324;" /><glyph d="M463 462 399 99Q396 82 399.5 68Q403 54 425 54Q431 54 438 55Q445 56 454 58L444 3Q391 -4 343 -29.5Q295 -55 295 -110Q295 -132 308 -145.5Q321 -159 342 -159Q368 -159 382.5 -147Q397 -135 407 -116L436 -151Q423 -176 399 -193.5Q375 -211 330 -211Q280 -211 254.5 -185.5Q229 -160 229 -118Q229 -67 265 -32Q301 3 339 17Q329 25 325 46Q321 67 325 87Q304 34 267.5 11Q231 -12 180 -12Q108 -12 79 34Q50 80 64 162L116 462H192L137 148Q129 99 146 72Q163 45 203 45Q246 45 286.5 80.5Q327 116 338 181L387 462Z" glyph-name="uogonek" horiz-adv-x="504" unicode="&#371;" /><glyph d="M316 87Q295 34 258.5 11Q222 -12 171 -12Q99 -12 70 34Q41 80 55 162L107 462H183L128 148Q120 99 137 72Q154 45 194 45Q237 45 277.5 80.5Q318 116 329 181L378 462H454L390 99Q387 82 390.5 68Q394 54 416 54Q422 54 429 55Q436 56 445 58L435 3Q425 -1 412.5 -3Q400 -5 387 -5Q341 -5 325.5 19.5Q310 44 316 87ZM206 611Q206 653 235 683Q264 713 310 713Q350 713 373.5 688Q397 663 397 628Q397 586 368.5 556Q340 526 294 526Q251 526 228.5 550.5Q206 575 206 611ZM306 676Q282 676 265.5 658Q249 640 249 616Q249 591 262.5 577Q276 563 300 563Q323 563 339 581Q355 599 355 623Q355 647 342 661.5Q329 676 306 676Z" glyph-name="uring" horiz-adv-x="504" unicode="&#367;" /><glyph d="M316 87Q295 34 258.5 11Q222 -12 171 -12Q99 -12 70 34Q41 80 55 162L107 462H183L128 148Q120 99 137 72Q154 45 194 45Q237 45 277.5 80.5Q318 116 329 181L378 462H454L390 99Q387 82 390.5 68Q394 54 416 54Q422 54 429 55Q436 56 445 58L435 3Q425 -1 412.5 -3Q400 -5 387 -5Q341 -5 325.5 19.5Q310 44 316 87ZM359 531Q333 531 318 539Q303 547 287 557Q269 568 258 575Q247 582 231 582Q215 582 204 570Q193 558 192 533H144Q136 579 162 612.5Q188 646 233 646Q261 646 277 637Q293 628 311 616Q329 604 338.5 599Q348 594 361 594Q375 594 385 606Q395 618 398 646H449Q455 597 430.5 564Q406 531 359 531Z" glyph-name="utilde" horiz-adv-x="504" unicode="&#361;" /><glyph d="M110 0 40 462H118L151 194Q159 125 160.5 86Q162 47 162 47H166Q166 47 179 85.5Q192 124 226 193L360 462H442L197 0Z" glyph-name="v" horiz-adv-x="412" unicode="v" /><glyph d="M408 462 433 203Q440 134 439 93.5Q438 53 438 53H442Q442 53 452.5 93Q463 133 493 203L606 462H685L477 0H386L359 237Q352 306 353 344Q354 382 354 382H350Q350 382 337.5 344Q325 306 294 237L190 0H99L50 462H128L150 204Q157 135 156 94Q155 53 155 53H159Q159 53 170.5 94Q182 135 213 204L330 462Z" glyph-name="w" horiz-adv-x="665" unicode="w" /><glyph d="M408 462 433 203Q440 134 439 93.5Q438 53 438 53H442Q442 53 452.5 93Q463 133 493 203L606 462H685L477 0H386L359 237Q352 306 353 344Q354 382 354 382H350Q350 382 337.5 344Q325 306 294 237L190 0H99L50 462H128L150 204Q157 135 156 94Q155 53 155 53H159Q159 53 170.5 94Q182 135 213 204L330 462ZM398 530H333L408 673H513Z" glyph-name="wacute" horiz-adv-x="665" unicode="&#7811;" /><glyph d="M408 462 433 203Q440 134 439 93.5Q438 53 438 53H442Q442 53 452.5 93Q463 133 493 203L606 462H685L477 0H386L359 237Q352 306 353 344Q354 382 354 382H350Q350 382 337.5 344Q325 306 294 237L190 0H99L50 462H128L150 204Q157 135 156 94Q155 53 155 53H159Q159 53 170.5 94Q182 135 213 204L330 462ZM368 673H410L507 530H428L400 574Q389 592 386 603Q383 614 383 614H379Q379 614 372 603Q365 592 348 574L304 530H221Z" glyph-name="wcircumflex" horiz-adv-x="665" unicode="&#373;" /><glyph d="M408 462 433 203Q440 134 439 93.5Q438 53 438 53H442Q442 53 452.5 93Q463 133 493 203L606 462H685L477 0H386L359 237Q352 306 353 344Q354 382 354 382H350Q350 382 337.5 344Q325 306 294 237L190 0H99L50 462H128L150 204Q157 135 156 94Q155 53 155 53H159Q159 53 170.5 94Q182 135 213 204L330 462ZM233 595Q233 617 249 633Q265 649 287 649Q309 649 325 633Q341 617 341 595Q341 573 325 557Q309 541 287 541Q265 541 249 557Q233 573 233 595ZM422 594Q422 616 438 632Q454 648 476 648Q498 648 514 632Q530 616 530 594Q530 572 514 556Q498 540 476 540Q454 540 438 556Q422 572 422 594Z" glyph-name="wdieresis" horiz-adv-x="665" unicode="&#7813;" /><glyph d="M408 462 433 203Q440 134 439 93.5Q438 53 438 53H442Q442 53 452.5 93Q463 133 493 203L606 462H685L477 0H386L359 237Q352 306 353 344Q354 382 354 382H350Q350 382 337.5 344Q325 306 294 237L190 0H99L50 462H128L150 204Q157 135 156 94Q155 53 155 53H159Q159 53 170.5 94Q182 135 213 204L330 462ZM414 530H349L234 673H339Z" glyph-name="wgrave" horiz-adv-x="665" unicode="&#7809;" /><glyph d="M289 0 234 115Q213 158 211.5 172Q210 186 210 186H206Q206 186 199 172.5Q192 159 155 114L60 0H-25L171 233L64 462H145L191 355Q210 309 213.5 296Q217 283 217 283H221Q221 283 228.5 296.5Q236 310 270 354L355 462H442L255 235L368 0Z" glyph-name="x" horiz-adv-x="422" unicode="x" /><glyph d="M125 462 156 194Q166 126 166.5 87Q167 48 167 48H171Q171 48 184 87Q197 126 231 193L367 462H448L175 -56Q123 -155 79 -183Q35 -211 -16 -211Q-38 -211 -55.5 -206Q-73 -201 -85 -194L-69 -137Q-56 -144 -42.5 -148.5Q-29 -153 -12 -153Q26 -153 55.5 -124Q85 -95 119 -27L45 462Z" glyph-name="y" horiz-adv-x="418" unicode="y" /><glyph d="M125 462 156 194Q166 126 166.5 87Q167 48 167 48H171Q171 48 184 87Q197 126 231 193L367 462H448L175 -56Q123 -155 79 -183Q35 -211 -16 -211Q-38 -211 -55.5 -206Q-73 -201 -85 -194L-69 -137Q-56 -144 -42.5 -148.5Q-29 -153 -12 -153Q26 -153 55.5 -124Q85 -95 119 -27L45 462ZM267 530H202L277 673H382Z" glyph-name="yacute" horiz-adv-x="418" unicode="&#253;" /><glyph d="M125 462 156 194Q166 126 166.5 87Q167 48 167 48H171Q171 48 184 87Q197 126 231 193L367 462H448L175 -56Q123 -155 79 -183Q35 -211 -16 -211Q-38 -211 -55.5 -206Q-73 -201 -85 -194L-69 -137Q-56 -144 -42.5 -148.5Q-29 -153 -12 -153Q26 -153 55.5 -124Q85 -95 119 -27L45 462ZM237 673H279L376 530H297L269 574Q258 592 255 603Q252 614 252 614H248Q248 614 241 603Q234 592 217 574L173 530H90Z" glyph-name="ycircumflex" horiz-adv-x="418" unicode="&#375;" /><glyph d="M125 462 156 194Q166 126 166.5 87Q167 48 167 48H171Q171 48 184 87Q197 126 231 193L367 462H448L175 -56Q123 -155 79 -183Q35 -211 -16 -211Q-38 -211 -55.5 -206Q-73 -201 -85 -194L-69 -137Q-56 -144 -42.5 -148.5Q-29 -153 -12 -153Q26 -153 55.5 -124Q85 -95 119 -27L45 462ZM102 595Q102 617 118 633Q134 649 156 649Q178 649 194 633Q210 617 210 595Q210 573 194 557Q178 541 156 541Q134 541 118 557Q102 573 102 595ZM291 594Q291 616 307 632Q323 648 345 648Q367 648 383 632Q399 616 399 594Q399 572 383 556Q367 540 345 540Q323 540 307 556Q291 572 291 594Z" glyph-name="ydieresis" horiz-adv-x="418" unicode="&#255;" /><glyph d="M423 242H318L282 192H418L414 142H261L237 0H159L183 142H40L44 192H179L161 242H49L53 292H143L74 481H156L210 319Q226 271 229.5 247.5Q233 224 233 224H237Q237 224 248.5 248Q260 272 291 318L402 481H488L353 292H427Z" glyph-name="yen" horiz-adv-x="488" unicode="&#165;" /><glyph d="M125 462 156 194Q166 126 166.5 87Q167 48 167 48H171Q171 48 184 87Q197 126 231 193L367 462H448L175 -56Q123 -155 79 -183Q35 -211 -16 -211Q-38 -211 -55.5 -206Q-73 -201 -85 -194L-69 -137Q-56 -144 -42.5 -148.5Q-29 -153 -12 -153Q26 -153 55.5 -124Q85 -95 119 -27L45 462ZM283 530H218L103 673H208Z" glyph-name="ygrave" horiz-adv-x="418" unicode="&#7923;" /><glyph d="M-1 41 249 326Q286 369 305 384Q324 399 324 399V403Q324 403 300.5 399.5Q277 396 230 396H82L93 462H424L414 410L167 134Q130 92 110 77Q90 62 90 62V58Q90 58 114.5 61Q139 64 186 64H345L335 0H-10Z" glyph-name="z" horiz-adv-x="414" unicode="z" /><glyph d="M-1 41 249 326Q286 369 305 384Q324 399 324 399V403Q324 403 300.5 399.5Q277 396 230 396H82L93 462H424L414 410L167 134Q130 92 110 77Q90 62 90 62V58Q90 58 114.5 61Q139 64 186 64H345L335 0H-10ZM274 530H209L284 673H389Z" glyph-name="zacute" horiz-adv-x="414" unicode="&#378;" /><glyph d="M-1 41 249 326Q286 369 305 384Q324 399 324 399V403Q324 403 300.5 399.5Q277 396 230 396H82L93 462H424L414 410L167 134Q130 92 110 77Q90 62 90 62V58Q90 58 114.5 61Q139 64 186 64H345L335 0H-10ZM266 530H224L127 673H206L234 629Q245 611 248 600Q251 589 251 589H255Q255 589 262 600Q269 611 286 629L330 673H413Z" glyph-name="zcaron" horiz-adv-x="414" unicode="&#382;" /><glyph d="M-1 41 249 326Q286 369 305 384Q324 399 324 399V403Q324 403 300.5 399.5Q277 396 230 396H82L93 462H424L414 410L167 134Q130 92 110 77Q90 62 90 62V58Q90 58 114.5 61Q139 64 186 64H345L335 0H-10ZM200 612Q200 634 215.5 650.5Q231 667 253 667Q276 667 292 650.5Q308 634 308 612Q308 590 292 574Q276 558 253 558Q231 558 215.5 574Q200 590 200 612Z" glyph-name="zdotaccent" horiz-adv-x="414" unicode="&#380;" /><glyph d="M264 -12Q150 -12 100 56.5Q50 125 50 213Q50 341 128.5 417Q207 493 314 493Q430 493 479.5 424.5Q529 356 529 268Q529 140 450.5 64Q372 -12 264 -12ZM128 213Q128 141 164 96Q200 51 269 51Q349 51 400 114Q451 177 451 267Q451 339 414 383.5Q377 428 309 428Q228 428 178 365.5Q128 303 128 213Z" glyph-name="zero" horiz-adv-x="579" unicode="0" /></font>
</defs>
</svg>
