<?xml version="1.0" standalone="no"?>
<!DOCTYPE svg PUBLIC "-//W3C//DTD SVG 20010904//EN"
 "http://www.w3.org/TR/2001/REC-SVG-20010904/DTD/svg10.dtd">
<svg version="1.0" xmlns="http://www.w3.org/2000/svg"
 width="500.000000pt" height="500.000000pt" viewBox="0 0 500.000000 500.000000"
 preserveAspectRatio="xMidYMid meet">
<metadata>
Created by potrace 1.11, written by Peter Selinger 2001-2013
</metadata>
<g transform="translate(0.000000,500.000000) scale(0.100000,-0.100000)"
fill="#000000" stroke="none">
<path d="M0 2500 l0 -2500 2500 0 2500 0 0 2500 0 2500 -2500 0 -2500 0 0
-2500z m1256 1016 c144 -46 248 -131 303 -246 23 -48 26 -68 26 -155 0 -88 -3
-107 -27 -158 -51 -109 -167 -194 -336 -247 l-84 -26 64 -39 c74 -45 175 -144
213 -208 14 -25 44 -106 66 -179 49 -163 100 -261 158 -305 101 -77 270 -85
352 -16 61 51 59 31 59 752 l0 660 -30 35 c-34 39 -78 56 -160 65 -54 6 -55 7
-58 40 -2 18 0 37 5 42 4 4 222 9 483 10 524 1 562 -2 686 -60 163 -76 244
-219 245 -431 2 -280 -167 -447 -488 -483 -78 -8 -136 -8 -240 1 -76 6 -148
14 -160 18 l-23 6 0 -258 c0 -143 5 -277 10 -298 18 -82 85 -132 189 -142 l61
-7 0 -38 0 -39 -509 0 c-279 0 -515 -2 -522 -5 -8 -3 -46 -1 -83 4 -60 9 -74
15 -108 48 -49 48 -69 90 -113 238 -108 359 -166 474 -268 527 -49 25 -185 36
-229 19 l-28 -11 0 -313 c0 -309 0 -315 23 -347 29 -43 79 -69 153 -78 l59 -7
3 -37 3 -38 -370 0 -371 0 0 39 0 38 54 6 c79 8 133 39 157 90 18 40 19 74 19
687 0 613 -1 647 -19 687 -24 53 -78 82 -166 90 l-65 6 0 43 0 44 328 3 c576
6 645 4 738 -27z m3000 0 c144 -46 244 -128 302 -246 24 -49 27 -66 27 -155 0
-89 -3 -106 -27 -155 -57 -116 -194 -213 -359 -257 l-66 -17 53 -32 c83 -50
140 -101 194 -173 41 -53 57 -88 86 -181 82 -265 138 -360 214 -360 32 0 76
45 86 87 6 22 11 24 37 19 17 -3 33 -8 35 -11 2 -2 -1 -27 -8 -55 -14 -57 -55
-117 -113 -164 -33 -26 -48 -31 -108 -34 -140 -8 -243 33 -301 119 -26 39 -42
84 -123 354 -55 185 -132 315 -213 362 -36 21 -61 28 -126 31 -45 2 -93 -1
-109 -7 l-28 -11 3 -324 3 -325 29 -30 c33 -34 74 -51 150 -60 50 -6 51 -6 54
-43 l3 -38 -370 0 -371 0 0 39 0 38 54 6 c70 7 131 39 153 80 17 30 18 80 18
697 0 637 -1 666 -19 697 -27 44 -83 73 -160 80 l-66 6 0 43 0 44 328 3 c576
6 645 4 738 -27z"/>
<path d="M2355 3428 c-14 -13 -30 -41 -35 -63 -5 -22 -10 -182 -10 -356 l0
-317 23 -6 c52 -13 276 -28 331 -22 114 12 197 73 249 185 27 56 31 79 35 172
6 143 -17 223 -84 298 -83 92 -195 131 -381 131 -91 0 -105 -2 -128 -22z"/>
<path d="M757 3420 c-44 -27 -47 -54 -47 -360 l0 -290 26 -10 c33 -13 165 -13
277 0 194 22 282 112 294 299 12 178 -57 291 -211 348 -51 19 -312 29 -339 13z"/>
<path d="M3743 3406 l-28 -24 -3 -306 -3 -306 26 -10 c34 -13 165 -13 278 0
141 16 216 65 266 170 22 48 25 68 26 160 0 122 -17 172 -82 237 -74 74 -170
103 -343 103 -101 0 -111 -2 -137 -24z"/>
</g>
</svg>
