<svg id="Layer_1" data-name="Layer 1" xmlns="http://www.w3.org/2000/svg" viewBox="0 0 786.67 205.97"><defs><style>.cls-1,.cls-8{fill:#3c3b54;}.cls-2{font-size:180px;fill:#2c97de;font-family:Marion-Regular, Marion;}.cls-3{letter-spacing:-0.07em;}.cls-4{letter-spacing:-0.03em;}.cls-5{letter-spacing:-0.02em;}.cls-6{letter-spacing:-0.02em;}.cls-7{letter-spacing:-0.04em;}.cls-8{font-size:35px;font-family:MuseoSans-500, Museo Sans;letter-spacing:0.16em;}.cls-9{letter-spacing:0.16em;}.cls-10{letter-spacing:0.16em;}</style></defs><title>logo</title><path class="cls-1" d="M157.15,142c0,1.45-5.53,1.9-6.19,3.94s-3.87-.86-5.25.94-2.43-.57-4.41.75-10.88,1.07-13.4,1.07c-7.32,0-13.7.75-17.18-1.71s-6.06-6.45-7.74-12q-2.16-6.84-4.32-14.67A98.59,98.59,0,0,0,93.53,106a37.68,37.68,0,0,0-7.29-11,14.5,14.5,0,0,0-10.8-4.41H70q-4.86,0-5.58,2v39.06q0,11.7,16.56,11.7v5.4H30.26v-5.4q15.84,0,15.84-11.7V46.47Q46.1,35,29,35V29.37H51.5q5.94,0,10.08-.09t8-.27q3.87-.18,8.28-.27t10.71-.09a46.37,46.37,0,0,1,14.58,2.25A37.35,37.35,0,0,1,115,37.11a30,30,0,0,1,7.83,9.36,24.48,24.48,0,0,1,2.88,11.7,24.59,24.59,0,0,1-8.91,19.62,40.07,40.07,0,0,1-10,6.12,63.83,63.83,0,0,1-12.78,4v.54a46,46,0,0,1,14.31,10.35,35.31,35.31,0,0,1,7.65,12q1.08,3.6,2.52,8.64a84.73,84.73,0,0,0,3.33,9.54,32,32,0,0,0,4.41,7.65c1.68,2.1,6.22,4.76,8.52,5.46a22.92,22.92,0,0,0,11.65.91Zm-79-58.46a73.77,73.77,0,0,0,10.44-.72,22.46,22.46,0,0,0,9-3.24,18.28,18.28,0,0,0,6.39-7.2q2.43-4.68,2.43-12.78A23.69,23.69,0,0,0,104,48.27a19.64,19.64,0,0,0-6.3-7.11,25.34,25.34,0,0,0-8.55-3.69,40.74,40.74,0,0,0-9.18-1.08H71.3q-6.84,0-6.84,10.08V80.85q.72,2.7,4.32,2.7Z" transform="translate(-29 0.95)"/><path class="cls-1" d="M141.3,148.71v-5.4q16.38,0,16.38-13V45.75q0-10.8-17.1-10.8V29.37h30.06q5.94,0,9.27-.09l5.94-.18,5.22-.18q2.61-.09,7.11-.09,40.32,0,40.32,34.92a33.42,33.42,0,0,1-2.43,12.78A28.2,28.2,0,0,1,228.6,87a35.32,35.32,0,0,1-12.78,7,59.55,59.55,0,0,1-18.36,2.52q-5.76,0-11.25-.45a88.5,88.5,0,0,1-10.71-1.53v35.1q0,13.68,17.82,13.68v5.4ZM183.06,35q-7.56,0-7.56,9.54V87.87q4.5.9,9.9,1.44t12.06.54a21.39,21.39,0,0,0,10.17-2.25,21.09,21.09,0,0,0,7-5.94,24,24,0,0,0,4-8.55A40,40,0,0,0,220,63Q220,35,187.74,35Z" transform="translate(-29 0.95)"/><path class="cls-1" d="M350.05,133.05a17.78,17.78,0,0,1-1,5.22A19.31,19.31,0,0,1,346,144a20.93,20.93,0,0,1-5.05,4.68,11.84,11.84,0,0,1-6.75,2c-7.31,0-12.72-1.23-16.19-3.69s-6.07-6.45-7.74-12c-1.45-4.56-2.88-9.45-4.33-14.67a97.43,97.43,0,0,0-5.12-14.4,37.68,37.68,0,0,0-7.29-11,14.5,14.5,0,0,0-10.8-4.41h-5.41c-3.23,0-5.1.66-5.57,2v39.06q0,11.7,16.56,11.7v5.4H237.55v-5.4q15.82,0,15.84-11.7V46.47q0-11.52-17.1-11.52V29.37h22.5c4,0,7.31,0,10.08-.09s5.43-.15,8-.27,5.33-.21,8.28-.27,6.51-.09,10.71-.09a46.35,46.35,0,0,1,14.57,2.25,37.3,37.3,0,0,1,11.8,6.21,30,30,0,0,1,7.83,9.36,24.59,24.59,0,0,1,2.87,11.7,25.42,25.42,0,0,1-2.33,11.16A25.74,25.74,0,0,1,324,77.79a40.25,40.25,0,0,1-10,6.12,64.24,64.24,0,0,1-12.78,4v.54a45.84,45.84,0,0,1,14.3,10.35,35.36,35.36,0,0,1,7.66,12q1.06,3.6,2.52,8.64a84.73,84.73,0,0,0,3.32,9.54,32.39,32.39,0,0,0,4.42,7.65,7.58,7.58,0,0,0,6.12,3.15c2.88,0,5-2.7,6.3-8.1Zm-64.62-49.5a73.77,73.77,0,0,0,10.44-.72,22.57,22.57,0,0,0,9-3.24,18.35,18.35,0,0,0,6.39-7.2q2.43-4.68,2.43-12.78a23.69,23.69,0,0,0-2.43-11.34A19.57,19.57,0,0,0,305,41.16a25.29,25.29,0,0,0-8.54-3.69,40.88,40.88,0,0,0-9.18-1.08h-8.64c-4.57,0-6.84,3.36-6.84,10.08V80.85c.47,1.8,1.92,2.7,4.32,2.7Z" transform="translate(-29 0.95)"/><text class="cls-2" transform="translate(316.72 149.67)"><tspan class="cls-3">P</tspan><tspan class="cls-4" x="99.72" y="0">a</tspan><tspan class="cls-5" x="174.38" y="0">c</tspan><tspan class="cls-6" x="242.84" y="0">i</tspan><tspan class="cls-7" x="292.75" y="0">ﬁ</tspan><tspan x="394.65" y="0">c</tspan></text><text class="cls-8" transform="translate(1.07 198.62)">EX<tspan class="cls-9" x="52.81" y="0">E</tspan><tspan class="cls-10" x="78.37" y="0">CUTIVE SEARCH &amp; R</tspan><tspan class="cls-9" x="507.28" y="0">E</tspan><tspan class="cls-10" x="532.83" y="0">CRUITMENT</tspan></text></svg>